M48
METRIC,LZ,000.000
;FILE_FORMAT=3:3
;TYPE=PLATED
;Layer: PTH_Through
;EasyEDA v6.5.9, 2022-08-06 01:21:21
;14fef34793594d2db1d7ff351c51599c,c09117847ad249c1abd8b20aa127d3a4,10
;Gerber Generator version 0.2
;Holesize 1 = 0.305 mm
T01C0.305
;Holesize 2 = 0.701 mm
T02C0.701
;Holesize 3 = 0.889 mm
T03C0.889
;Holesize 4 = 0.900 mm
T04C0.900
;Holesize 5 = 0.901 mm
T05C0.901
;Holesize 6 = 0.915 mm
T06C0.915
;Holesize 7 = 1.000 mm
T07C1.000
;Holesize 8 = 1.021 mm
T08C1.021
;Holesize 9 = 1.341 mm
T09C1.341
%
G05
G90
T01
X140116Y059119
X145542Y041529
X149768Y054674
X151419Y056325
X101473Y068580
X146466Y057722
X142923Y065017
X144907Y009271
T02
X121158Y065024
X121158Y066294
X121158Y067564
X127127Y065024
X127127Y066294
X127127Y067564
X133223Y065151
X133223Y066421
X133223Y067691
X138938Y065024
X138938Y066294
X138938Y067564
T03
X131480Y009081
X131480Y011621
X131480Y014161
X131480Y016701
X131480Y019241
X131480Y021781
X131480Y024321
X131480Y026861
X131480Y029401
X131480Y031941
X131480Y034481
X131480Y037021
X131480Y039561
X131480Y042101
X131480Y044641
X131480Y047181
X131480Y049721
X131480Y052261
X131480Y054801
X131480Y057341
X106080Y057341
X106080Y054801
X106080Y052261
X106080Y049721
X106080Y047181
X106080Y044641
X106080Y042101
X106080Y039561
X106080Y037021
X106080Y034481
X106080Y031941
X106080Y029401
X106080Y026861
X106080Y024321
X106080Y021781
X106080Y019241
X106080Y016701
X106080Y014161
X106080Y011621
X106080Y009081
X134909Y009081
X134909Y011621
X134909Y014161
X134909Y016701
X134909Y019241
X134909Y021781
X134909Y024321
X134909Y026861
X134909Y029401
X134909Y031941
X134909Y034481
X134909Y037021
X134909Y039561
X134909Y042101
X134909Y044641
X134909Y047181
X134909Y049721
X134909Y052261
X134909Y054801
X134909Y057341
X102651Y057341
X102651Y054801
X102651Y052261
X102651Y049721
X102651Y047181
X102651Y044641
X102651Y042101
X102651Y039561
X102651Y037021
X102651Y034481
X102651Y031941
X102651Y029401
X102651Y026861
X102651Y024321
X102651Y021781
X102651Y019241
X102651Y016701
X102651Y014161
X102651Y011621
X102651Y009081
X081052Y062191
X078512Y062191
X075972Y062191
X073432Y062191
X070892Y062191
X068352Y062191
X081280Y052070
X078740Y052070
X076200Y052070
X073660Y052070
X071120Y052070
X068580Y052070
T04
X029337Y063754
X031877Y063754
X034417Y063754
X036957Y063754
T05
X149263Y018565
X149263Y021105
X149263Y023645
X149263Y026185
X149263Y028725
X149263Y031265
X149263Y033805
X149263Y036342
X149263Y038882
X149263Y041422
X149263Y043962
X149263Y046502
X149263Y049042
X149260Y051581
X068260Y031265
X068260Y033805
X068260Y036342
X068260Y038882
T06
X131480Y011621
X131480Y014161
X131480Y016701
X131480Y019241
X131480Y021781
X131480Y024321
X131480Y026861
X131480Y029401
X131480Y031941
X131480Y034481
X131480Y037021
X131480Y039561
X131480Y042101
X131480Y044641
X131480Y047181
X131480Y049721
X131480Y052261
X131480Y054801
X131480Y057341
X106080Y057341
X106080Y054801
X106080Y052261
X106080Y049721
X106080Y047181
X106080Y044641
X106080Y042101
X106080Y039561
X106080Y037021
X106080Y034481
X106080Y031941
X106080Y029401
X106080Y026861
X106080Y024321
X106080Y021781
X106080Y019241
X106080Y016701
X106080Y014161
X106080Y011621
T07
X146685Y028829
X146685Y026289
X146685Y023749
X146685Y021209
X146685Y018669
X146685Y016129
X146685Y013589
X146685Y011049
X121158Y006096
X118618Y006096
X116078Y006096
X113538Y006096
X110998Y006096
X108458Y006096
X105918Y006096
X103378Y006096
X143291Y002858
X140751Y002858
X138211Y002858
X135671Y002858
X133131Y002858
X130591Y002858
X128051Y002858
X125511Y002858
X138049Y011684
X140589Y011684
X143129Y011684
X094523Y011621
X097063Y011621
X099603Y011621
X156753Y051245
X156753Y053785
X156753Y056325
X156753Y058865
X156753Y061405
X013575Y054173
X013575Y056713
X031877Y058166
X034417Y058166
X034290Y055118
X031750Y055118
X097432Y063651
X097432Y066191
X103413Y066231
X103413Y063692
X093253Y066165
X060071Y063754
T08
X145958Y061913
X143418Y061913
X140878Y061913
X138338Y061913
X128178Y061913
X130718Y061913
X133258Y061913
X135798Y061913
X115478Y061913
X112938Y061913
X110398Y061913
X118018Y061913
X120558Y061913
X123098Y061913
X125638Y061913
T09
X085842Y039577G85X085842Y040937
X085842Y020277G85X085842Y021637
X013472Y039577G85X013472Y040937
X013472Y020277G85X013472Y021637
X085842Y021637G85X085842Y020277
X085842Y040937G85X085842Y039577
X013472Y021637G85X013472Y020277
X013472Y040937G85X013472Y039577
M30
