G04 Layer: TopSolderMaskLayer*
G04 EasyEDA v6.5.9, 2022-08-06 01:21:21*
G04 14fef34793594d2db1d7ff351c51599c,c09117847ad249c1abd8b20aa127d3a4,10*
G04 Gerber Generator version 0.2*
G04 Scale: 100 percent, Rotated: No, Reflected: No *
G04 Dimensions in millimeters *
G04 leading zeros omitted , absolute positions ,4 integer and 5 decimal *
%FSLAX45Y45*%
%MOMM*%

%ADD10C,3.1000*%
%ADD11C,1.0016*%
%ADD12C,2.1016*%
%ADD13C,2.2032*%
%ADD14C,1.6256*%
%ADD15C,1.9016*%
%ADD16C,1.6764*%
%ADD17C,1.7032*%
%ADD18C,1.7272*%
%ADD19C,0.7112*%
%ADD20C,0.0144*%

%LPD*%
D10*
X8584209Y4095696D02*
G01*
X8584209Y3955696D01*
X8584209Y2165703D02*
G01*
X8584209Y2025703D01*
X1347190Y4095696D02*
G01*
X1347190Y3955696D01*
X1347190Y2165703D02*
G01*
X1347190Y2025703D01*
X8584209Y2025703D02*
G01*
X8584209Y2165703D01*
X8584209Y3955696D02*
G01*
X8584209Y4095696D01*
X1347190Y2025703D02*
G01*
X1347190Y2165703D01*
X1347190Y3955696D02*
G01*
X1347190Y4095696D01*
D11*
X12150801Y6502400D02*
G01*
X12080801Y6502400D01*
X12150801Y6629400D02*
G01*
X12080801Y6629400D01*
X12747701Y6502400D02*
G01*
X12677701Y6502400D01*
X12747701Y6629400D02*
G01*
X12677701Y6629400D01*
X13357301Y6515100D02*
G01*
X13287301Y6515100D01*
X13357301Y6642100D02*
G01*
X13287301Y6642100D01*
X13928801Y6502400D02*
G01*
X13858801Y6502400D01*
X13928801Y6629400D02*
G01*
X13858801Y6629400D01*
D12*
G01*
X14668500Y2882900D03*
G01*
X14668500Y2628900D03*
D13*
G01*
X14668500Y2374900D03*
G01*
X14668500Y2120900D03*
G01*
X14668500Y1866900D03*
G01*
X14668500Y1612900D03*
G01*
X14668500Y1358900D03*
G01*
X14668500Y1104900D03*
D12*
G01*
X12115800Y609600D03*
G01*
X11861800Y609600D03*
D13*
G01*
X11607800Y609600D03*
G01*
X11353800Y609600D03*
G01*
X11099800Y609600D03*
G01*
X10845800Y609600D03*
G01*
X10591800Y609600D03*
G01*
X10337800Y609600D03*
D12*
G01*
X14329054Y285826D03*
G01*
X14075054Y285826D03*
D13*
G01*
X13821054Y285826D03*
G01*
X13567054Y285826D03*
G01*
X13313054Y285826D03*
G01*
X13059054Y285826D03*
G01*
X12805054Y285826D03*
G01*
X12551054Y285826D03*
D14*
G01*
X14595754Y6191326D03*
G01*
X14341754Y6191326D03*
G01*
X14087754Y6191326D03*
G01*
X13833754Y6191326D03*
G01*
X12817754Y6191326D03*
G01*
X13071754Y6191326D03*
G01*
X13325754Y6191326D03*
G01*
X13579754Y6191326D03*
G01*
X11547754Y6191326D03*
G01*
X11293754Y6191326D03*
G01*
X11039754Y6191326D03*
G01*
X11801754Y6191326D03*
G01*
X12055754Y6191326D03*
G01*
X12309754Y6191326D03*
G01*
X12563754Y6191326D03*
D15*
G01*
X14926309Y1856486D03*
G01*
X14926309Y2110486D03*
G01*
X14926309Y2364486D03*
G01*
X14926309Y2618486D03*
G01*
X14926309Y2872486D03*
G01*
X14926309Y3126486D03*
G01*
X14926309Y3380486D03*
G01*
X14926309Y3634231D03*
G01*
X14926309Y3888231D03*
G01*
X14926309Y4142231D03*
G01*
X14926309Y4396231D03*
G01*
X14926309Y4650231D03*
G01*
X14926309Y4904231D03*
G36*
X14831059Y5062981D02*
G01*
X14831059Y5253228D01*
X15021052Y5253228D01*
X15021052Y5062981D01*
G37*
G01*
X6825995Y3126486D03*
G01*
X6825995Y3380486D03*
G01*
X6825995Y3634231D03*
G36*
X6731000Y3793236D02*
G01*
X6731000Y3983228D01*
X6920991Y3983228D01*
X6920991Y3793236D01*
G37*
G36*
X4043679Y5823712D02*
G01*
X4043679Y5983986D01*
X4183888Y5983986D01*
X4183888Y5823712D01*
G37*
G36*
X4060952Y5323839D02*
G01*
X4060952Y5484113D01*
X4201159Y5484113D01*
X4201159Y5323839D01*
G37*
G36*
X2520695Y5990336D02*
G01*
X2520695Y6150610D01*
X2660904Y6150610D01*
X2660904Y5990336D01*
G37*
G36*
X2520695Y5342636D02*
G01*
X2520695Y5502910D01*
X2660904Y5502910D01*
X2660904Y5342636D01*
G37*
G36*
X5467095Y5825236D02*
G01*
X5467095Y5985510D01*
X5607304Y5985510D01*
X5607304Y5825236D01*
G37*
G36*
X5470652Y5323839D02*
G01*
X5470652Y5484113D01*
X5610859Y5484113D01*
X5610859Y5323839D01*
G37*
G36*
X4523486Y5823712D02*
G01*
X4523486Y5983986D01*
X4663693Y5983986D01*
X4663693Y5823712D01*
G37*
G36*
X4530852Y5323839D02*
G01*
X4530852Y5484113D01*
X4671059Y5484113D01*
X4671059Y5323839D01*
G37*
G36*
X5003291Y5823712D02*
G01*
X5003291Y5983986D01*
X5143500Y5983986D01*
X5143500Y5823712D01*
G37*
G36*
X4988052Y5323839D02*
G01*
X4988052Y5484113D01*
X5128259Y5484113D01*
X5128259Y5323839D01*
G37*
G36*
X1283715Y6392418D02*
G01*
X1283715Y6542531D01*
X1434084Y6542531D01*
X1434084Y6392418D01*
G37*
G36*
X1283715Y6208268D02*
G01*
X1283715Y6358381D01*
X1434084Y6358381D01*
X1434084Y6208268D01*
G37*
G36*
X1515109Y6200394D02*
G01*
X1515109Y6550405D01*
X2015490Y6550405D01*
X2015490Y6200394D01*
G37*
D16*
G01*
X13147954Y908126D03*
G01*
X13147954Y1162126D03*
G01*
X13147954Y1416126D03*
G01*
X13147954Y1670126D03*
G01*
X13147954Y1924126D03*
G01*
X13147954Y2178126D03*
G01*
X13147954Y2432126D03*
G01*
X13147954Y2686126D03*
G01*
X13147954Y2940126D03*
G01*
X13147954Y3194126D03*
G01*
X13147954Y3448126D03*
G01*
X13147954Y3702126D03*
G01*
X13147954Y3956126D03*
G01*
X13147954Y4210126D03*
G01*
X13147954Y4464126D03*
G01*
X13147954Y4718126D03*
G01*
X13147954Y4972126D03*
G01*
X13147954Y5226126D03*
G01*
X13147954Y5480126D03*
G36*
X13064236Y5650229D02*
G01*
X13064236Y5817870D01*
X13231875Y5817870D01*
X13231875Y5650229D01*
G37*
G01*
X10607954Y5734126D03*
G01*
X10607954Y5480126D03*
G01*
X10607954Y5226126D03*
G01*
X10607954Y4972126D03*
G01*
X10607954Y4718126D03*
G01*
X10607954Y4464126D03*
G01*
X10607954Y4210126D03*
G01*
X10607954Y3956126D03*
G01*
X10607954Y3702126D03*
G01*
X10607954Y3448126D03*
G01*
X10607954Y3194126D03*
G01*
X10607954Y2940126D03*
G01*
X10607954Y2686126D03*
G01*
X10607954Y2432126D03*
G01*
X10607954Y2178126D03*
G01*
X10607954Y1924126D03*
G01*
X10607954Y1670126D03*
G01*
X10607954Y1416126D03*
G01*
X10607954Y1162126D03*
G36*
X10524236Y824229D02*
G01*
X10524236Y991870D01*
X10691875Y991870D01*
X10691875Y824229D01*
G37*
G01*
X13490854Y908126D03*
G01*
X13490854Y1162126D03*
G01*
X13490854Y1416126D03*
G01*
X13490854Y1670126D03*
G01*
X13490854Y1924126D03*
G01*
X13490854Y2178126D03*
G01*
X13490854Y2432126D03*
G01*
X13490854Y2686126D03*
G01*
X13490854Y2940126D03*
G01*
X13490854Y3194126D03*
G01*
X13490854Y3448126D03*
G01*
X13490854Y3702126D03*
G01*
X13490854Y3956126D03*
G01*
X13490854Y4210126D03*
G01*
X13490854Y4464126D03*
G01*
X13490854Y4718126D03*
G01*
X13490854Y4972126D03*
G01*
X13490854Y5226126D03*
G01*
X13490854Y5480126D03*
G36*
X13407136Y5650229D02*
G01*
X13407136Y5817870D01*
X13574775Y5817870D01*
X13574775Y5650229D01*
G37*
G01*
X10265054Y5734126D03*
G01*
X10265054Y5480126D03*
G01*
X10265054Y5226126D03*
G01*
X10265054Y4972126D03*
G01*
X10265054Y4718126D03*
G01*
X10265054Y4464126D03*
G01*
X10265054Y4210126D03*
G01*
X10265054Y3956126D03*
G01*
X10265054Y3702126D03*
G01*
X10265054Y3448126D03*
G01*
X10265054Y3194126D03*
G01*
X10265054Y2940126D03*
G01*
X10265054Y2686126D03*
G01*
X10265054Y2432126D03*
G01*
X10265054Y2178126D03*
G01*
X10265054Y1924126D03*
G01*
X10265054Y1670126D03*
G01*
X10265054Y1416126D03*
G01*
X10265054Y1162126D03*
G36*
X10181336Y824229D02*
G01*
X10181336Y991870D01*
X10348975Y991870D01*
X10348975Y824229D01*
G37*
D12*
G01*
X13804900Y1168400D03*
G01*
X14058900Y1168400D03*
D13*
G01*
X14312900Y1168400D03*
D12*
G01*
X9452254Y1162126D03*
G01*
X9706254Y1162126D03*
D13*
G01*
X9960254Y1162126D03*
D16*
G01*
X8105241Y6219113D03*
G01*
X7851241Y6219113D03*
G01*
X7597241Y6219113D03*
G01*
X7343241Y6219113D03*
G01*
X7089241Y6219113D03*
G36*
X6751320Y6135370D02*
G01*
X6751320Y6303010D01*
X6918959Y6303010D01*
X6918959Y6135370D01*
G37*
G01*
X8128000Y5207000D03*
G01*
X7874000Y5207000D03*
G01*
X7620000Y5207000D03*
G01*
X7366000Y5207000D03*
G01*
X7112000Y5207000D03*
G36*
X6774179Y5123179D02*
G01*
X6774179Y5290820D01*
X6941820Y5290820D01*
X6941820Y5123179D01*
G37*
D12*
G01*
X15675254Y5124526D03*
G01*
X15675254Y5378526D03*
D13*
G01*
X15675254Y5632526D03*
G01*
X15675254Y5886526D03*
G01*
X15675254Y6140526D03*
G36*
X1047241Y5332221D02*
G01*
X1047241Y5502402D01*
X1367790Y5502402D01*
X1367790Y5332221D01*
G37*
G36*
X1047241Y5586221D02*
G01*
X1047241Y5756402D01*
X1367790Y5756402D01*
X1367790Y5586221D01*
G37*
D17*
G01*
X1357528Y5417312D03*
G01*
X1357528Y5671312D03*
G36*
X3102609Y5806439D02*
G01*
X3102609Y6126734D01*
X3272790Y6126734D01*
X3272790Y5806439D01*
G37*
G36*
X3356609Y5806439D02*
G01*
X3356609Y6126734D01*
X3526790Y6126734D01*
X3526790Y5806439D01*
G37*
G01*
X3187700Y5816600D03*
G01*
X3441700Y5816600D03*
G36*
X3343909Y5201665D02*
G01*
X3343909Y5521960D01*
X3514090Y5521960D01*
X3514090Y5201665D01*
G37*
G36*
X3089909Y5201665D02*
G01*
X3089909Y5521960D01*
X3260090Y5521960D01*
X3260090Y5201665D01*
G37*
G01*
X3429000Y5511800D03*
G01*
X3175000Y5511800D03*
G36*
X9433052Y6279895D02*
G01*
X9433052Y6450329D01*
X9753345Y6450329D01*
X9753345Y6279895D01*
G37*
G36*
X9433052Y6533895D02*
G01*
X9433052Y6704329D01*
X9753345Y6704329D01*
X9753345Y6533895D01*
G37*
G01*
X9743236Y6365112D03*
G01*
X9743236Y6619112D03*
G36*
X10331195Y6537960D02*
G01*
X10331195Y6708394D01*
X10651490Y6708394D01*
X10651490Y6537960D01*
G37*
G36*
X10331195Y6283960D02*
G01*
X10331195Y6454394D01*
X10651490Y6454394D01*
X10651490Y6283960D01*
G37*
G01*
X10341254Y6623126D03*
G01*
X10341254Y6369126D03*
G36*
X2848609Y6365239D02*
G01*
X2848609Y6685534D01*
X3018790Y6685534D01*
X3018790Y6365239D01*
G37*
G36*
X3102609Y6365239D02*
G01*
X3102609Y6685534D01*
X3272790Y6685534D01*
X3272790Y6365239D01*
G37*
G36*
X3356609Y6365239D02*
G01*
X3356609Y6685534D01*
X3526790Y6685534D01*
X3526790Y6365239D01*
G37*
G36*
X3610609Y6367526D02*
G01*
X3610609Y6688073D01*
X3780790Y6688073D01*
X3780790Y6367526D01*
G37*
G01*
X2933700Y6375400D03*
G01*
X3187700Y6375400D03*
G01*
X3441700Y6375400D03*
G01*
X3695700Y6375400D03*
G36*
X10954765Y5210810D02*
G01*
X10954765Y5301742D01*
X11051286Y5301742D01*
X11051286Y5210810D01*
G37*
G36*
X10954765Y5060187D02*
G01*
X10954765Y5150865D01*
X11051286Y5150865D01*
X11051286Y5060187D01*
G37*
D18*
G01*
X13147954Y1162126D03*
G01*
X13147954Y1416126D03*
G01*
X13147954Y1670126D03*
G01*
X13147954Y1924126D03*
G01*
X13147954Y2178126D03*
G01*
X13147954Y2432126D03*
G01*
X13147954Y2686126D03*
G01*
X13147954Y2940126D03*
G01*
X13147954Y3194126D03*
G01*
X13147954Y3448126D03*
G01*
X13147954Y3702126D03*
G01*
X13147954Y3956126D03*
G01*
X13147954Y4210126D03*
G01*
X13147954Y4464126D03*
G01*
X13147954Y4718126D03*
G01*
X13147954Y4972126D03*
G01*
X13147954Y5226126D03*
G01*
X13147954Y5480126D03*
G01*
X13147954Y5734126D03*
G01*
X10607954Y5734126D03*
G01*
X10607954Y5480126D03*
G01*
X10607954Y5226126D03*
G01*
X10607954Y4972126D03*
G01*
X10607954Y4718126D03*
G01*
X10607954Y4464126D03*
G01*
X10607954Y4210126D03*
G01*
X10607954Y3956126D03*
G01*
X10607954Y3702126D03*
G01*
X10607954Y3448126D03*
G01*
X10607954Y3194126D03*
G01*
X10607954Y2940126D03*
G01*
X10607954Y2686126D03*
G01*
X10607954Y2432126D03*
G01*
X10607954Y2178126D03*
G01*
X10607954Y1924126D03*
G01*
X10607954Y1670126D03*
G01*
X10607954Y1416126D03*
G01*
X10607954Y1162126D03*
G36*
X12030709Y6706362D02*
G01*
X12030709Y6806437D01*
X12200890Y6806437D01*
X12200890Y6706362D01*
G37*
G36*
X12627609Y6706362D02*
G01*
X12627609Y6806437D01*
X12797790Y6806437D01*
X12797790Y6706362D01*
G37*
G36*
X13237209Y6719062D02*
G01*
X13237209Y6819137D01*
X13407390Y6819137D01*
X13407390Y6719062D01*
G37*
G36*
X13808709Y6706362D02*
G01*
X13808709Y6806437D01*
X13978890Y6806437D01*
X13978890Y6706362D01*
G37*
D19*
G01*
X14554200Y4152900D03*
M02*
