G04 Layer: TopPasteMaskLayer*
G04 EasyEDA v6.5.9, 2022-08-06 01:21:21*
G04 14fef34793594d2db1d7ff351c51599c,c09117847ad249c1abd8b20aa127d3a4,10*
G04 Gerber Generator version 0.2*
G04 Scale: 100 percent, Rotated: No, Reflected: No *
G04 Dimensions in millimeters *
G04 leading zeros omitted , absolute positions ,4 integer and 5 decimal *
%FSLAX45Y45*%
%MOMM*%

%ADD10R,1.4000X1.4000*%
%ADD11R,4.9000X3.4000*%
%ADD12R,3.0000X1.5000*%
%ADD13R,1.5000X3.0000*%

%LPD*%
G36*
X10963046Y5305399D02*
G01*
X10958017Y5300421D01*
X10958017Y5220411D01*
X10963046Y5215432D01*
X10985804Y5215432D01*
X10985804Y5252415D01*
X11018824Y5252415D01*
X11018824Y5215432D01*
X11043005Y5215432D01*
X11048034Y5220411D01*
X11048034Y5300421D01*
X11043005Y5305399D01*
G37*
G36*
X10963046Y5145430D02*
G01*
X10958017Y5140401D01*
X10958017Y5061407D01*
X10963046Y5056428D01*
X11043005Y5056428D01*
X11048034Y5061407D01*
X11048034Y5140401D01*
X11043005Y5145430D01*
X11018824Y5145430D01*
X11018824Y5107432D01*
X10985804Y5107432D01*
X10985804Y5145430D01*
G37*
G36*
X4048683Y5978982D02*
G01*
X4178731Y5978982D01*
X4178731Y5828868D01*
X4048683Y5828868D01*
G37*
G36*
X4065930Y5478983D02*
G01*
X4195978Y5478983D01*
X4195978Y5328869D01*
X4065930Y5328869D01*
G37*
G36*
X2525775Y6145656D02*
G01*
X2655824Y6145656D01*
X2655824Y5995543D01*
X2525775Y5995543D01*
G37*
G36*
X2525775Y5497956D02*
G01*
X2655824Y5497956D01*
X2655824Y5347843D01*
X2525775Y5347843D01*
G37*
G36*
X5472175Y5980556D02*
G01*
X5602224Y5980556D01*
X5602224Y5830443D01*
X5472175Y5830443D01*
G37*
G36*
X5475630Y5478983D02*
G01*
X5605678Y5478983D01*
X5605678Y5328869D01*
X5475630Y5328869D01*
G37*
G36*
X4528563Y5978984D02*
G01*
X4658611Y5978984D01*
X4658611Y5828870D01*
X4528563Y5828870D01*
G37*
G36*
X4535830Y5478983D02*
G01*
X4665878Y5478983D01*
X4665878Y5328869D01*
X4535830Y5328869D01*
G37*
G36*
X5008445Y5978984D02*
G01*
X5138493Y5978984D01*
X5138493Y5828870D01*
X5008445Y5828870D01*
G37*
G36*
X4993030Y5478983D02*
G01*
X5123078Y5478983D01*
X5123078Y5328869D01*
X4993030Y5328869D01*
G37*
D10*
G01*
X1358900Y6467398D03*
G01*
X1358900Y6283401D03*
D11*
G01*
X1765300Y6375400D03*
D12*
G01*
X1207515Y5417286D03*
G01*
X1207515Y5671286D03*
G36*
X3112678Y6116622D02*
G01*
X3262680Y6116622D01*
X3262680Y5816622D01*
X3112678Y5816622D01*
G37*
G36*
X3366668Y6116622D02*
G01*
X3516670Y6116622D01*
X3516670Y5816622D01*
X3366668Y5816622D01*
G37*
D13*
G01*
X3429025Y5361787D03*
G01*
X3175025Y5361787D03*
D12*
G01*
X9593224Y6365087D03*
G01*
X9593224Y6619087D03*
G01*
X10491266Y6623151D03*
G01*
X10491266Y6369151D03*
G36*
X2858688Y6675417D02*
G01*
X3008690Y6675417D01*
X3008690Y6375417D01*
X2858688Y6375417D01*
G37*
G36*
X3112678Y6675417D02*
G01*
X3262680Y6675417D01*
X3262680Y6375417D01*
X3112678Y6375417D01*
G37*
G36*
X3366691Y6675417D02*
G01*
X3516693Y6675417D01*
X3516693Y6375417D01*
X3366691Y6375417D01*
G37*
G36*
X3620678Y6677809D02*
G01*
X3770680Y6677809D01*
X3770680Y6377810D01*
X3620678Y6377810D01*
G37*
M02*
