G04 Layer: TopSilkscreenLayer*
G04 EasyEDA v6.5.9, 2022-08-06 01:21:21*
G04 14fef34793594d2db1d7ff351c51599c,c09117847ad249c1abd8b20aa127d3a4,10*
G04 Gerber Generator version 0.2*
G04 Scale: 100 percent, Rotated: No, Reflected: No *
G04 Dimensions in millimeters *
G04 leading zeros omitted , absolute positions ,4 integer and 5 decimal *
%FSLAX45Y45*%
%MOMM*%

%ADD10C,0.1000*%
%ADD11C,0.1524*%
%ADD12C,0.2540*%
%ADD13C,0.2032*%
%ADD14C,0.2030*%
%ADD15C,0.0142*%

%LPD*%
G36*
X6498386Y1044905D02*
G01*
X6485483Y1044346D01*
X6473952Y1043228D01*
X6468872Y1042416D01*
X6458712Y1039876D01*
X6447840Y1036319D01*
X6437274Y1031900D01*
X6427012Y1026668D01*
X6421983Y1023772D01*
X6412179Y1017320D01*
X6402527Y1010005D01*
X6393180Y1001877D01*
X6383985Y992835D01*
X6375603Y983183D01*
X6367729Y972413D01*
X6364020Y966774D01*
X6357264Y955090D01*
X6351524Y943203D01*
X6349085Y937361D01*
X6345123Y925982D01*
X6343700Y920546D01*
X6342634Y915365D01*
X6341973Y910488D01*
X6341414Y901293D01*
X6340602Y897128D01*
X6339332Y893876D01*
X6337757Y892048D01*
X6335877Y891997D01*
X6332118Y892911D01*
X6326632Y894587D01*
X6311493Y900176D01*
X6292342Y908100D01*
X6260744Y921816D01*
X6233668Y932942D01*
X6207658Y942797D01*
X6195009Y947267D01*
X6170422Y955243D01*
X6158433Y958850D01*
X6140805Y963625D01*
X6117945Y969010D01*
X6106718Y971296D01*
X6095593Y973277D01*
X6073800Y976426D01*
X6052312Y978509D01*
X6036462Y979373D01*
X6025896Y979627D01*
X6012586Y979576D01*
X5997397Y979017D01*
X5983427Y977849D01*
X5970524Y976071D01*
X5958687Y973632D01*
X5953099Y972159D01*
X5942584Y968705D01*
X5937656Y966724D01*
X5928360Y962202D01*
X5919673Y956919D01*
X5911646Y950874D01*
X5907786Y947572D01*
X5899454Y939444D01*
X5892088Y930960D01*
X5888736Y926541D01*
X5882843Y917549D01*
X5880201Y912876D01*
X5875731Y903224D01*
X5872175Y893165D01*
X5870752Y887933D01*
X5868619Y877163D01*
X5867857Y871626D01*
X5867095Y860094D01*
X5867118Y853440D01*
X5877763Y853440D01*
X5878068Y866800D01*
X5879185Y879195D01*
X5881116Y890676D01*
X5882386Y896061D01*
X5883910Y901242D01*
X5885637Y906221D01*
X5887618Y910945D01*
X5889853Y915517D01*
X5892292Y919835D01*
X5894984Y924001D01*
X5897930Y927963D01*
X5904534Y935329D01*
X5912256Y941984D01*
X5916523Y945083D01*
X5921044Y947978D01*
X5931001Y953363D01*
X5936386Y955802D01*
X5948070Y960272D01*
X5960973Y964184D01*
X5975197Y967638D01*
X5990640Y970584D01*
X6001969Y972312D01*
X6009030Y972718D01*
X6017971Y972616D01*
X6029604Y972007D01*
X6044844Y970737D01*
X6080607Y967079D01*
X6089599Y965860D01*
X6098895Y964336D01*
X6118453Y960323D01*
X6139230Y955192D01*
X6161074Y948944D01*
X6183833Y941628D01*
X6207353Y933348D01*
X6231585Y924102D01*
X6256324Y913993D01*
X6281420Y903020D01*
X6307140Y891133D01*
X6347409Y891133D01*
X6347968Y896061D01*
X6350508Y908913D01*
X6352133Y915416D01*
X6354114Y921969D01*
X6356400Y928573D01*
X6358991Y935126D01*
X6364986Y948131D01*
X6371894Y960780D01*
X6379616Y972718D01*
X6383731Y978408D01*
X6387947Y983792D01*
X6392316Y988923D01*
X6396786Y993749D01*
X6401308Y998219D01*
X6405880Y1002284D01*
X6410553Y1005992D01*
X6415176Y1009243D01*
X6419850Y1012037D01*
X6432854Y1018844D01*
X6444843Y1024280D01*
X6450584Y1026566D01*
X6461963Y1030224D01*
X6473545Y1032865D01*
X6485788Y1034542D01*
X6499250Y1035354D01*
X6514338Y1035507D01*
X6531914Y1035050D01*
X6547357Y1034186D01*
X6553911Y1033576D01*
X6559854Y1032764D01*
X6565442Y1031748D01*
X6570725Y1030528D01*
X6575958Y1029004D01*
X6586677Y1024991D01*
X6598920Y1019505D01*
X6610400Y1013764D01*
X6621475Y1007567D01*
X6632092Y1000963D01*
X6642252Y993952D01*
X6651904Y986536D01*
X6661099Y978814D01*
X6669735Y970737D01*
X6677914Y962304D01*
X6685483Y953566D01*
X6692595Y944575D01*
X6699097Y935278D01*
X6705041Y925728D01*
X6710425Y915924D01*
X6715252Y905967D01*
X6719417Y895756D01*
X6723024Y885342D01*
X6725970Y874776D01*
X6728307Y864108D01*
X6729984Y853236D01*
X6731000Y842314D01*
X6731355Y831240D01*
X6731000Y820115D01*
X6730492Y813511D01*
X6729730Y807008D01*
X6728714Y800557D01*
X6725970Y787908D01*
X6722313Y775614D01*
X6717741Y763727D01*
X6715150Y757986D01*
X6709308Y746861D01*
X6702602Y736346D01*
X6698996Y731266D01*
X6691122Y721614D01*
X6682536Y712673D01*
X6673189Y704494D01*
X6668262Y700633D01*
X6657949Y693623D01*
X6641693Y683615D01*
X6575653Y735431D01*
X6551726Y753668D01*
X6523735Y774598D01*
X6515760Y781405D01*
X6510375Y786841D01*
X6508445Y790194D01*
X6509308Y792734D01*
X6515760Y805840D01*
X6527342Y827430D01*
X6542684Y854964D01*
X6575196Y912469D01*
X6586778Y933551D01*
X6593281Y945946D01*
X6594144Y948080D01*
X6593992Y949960D01*
X6593484Y951128D01*
X6592620Y951433D01*
X6591401Y950976D01*
X6589826Y949655D01*
X6585407Y944422D01*
X6579209Y935532D01*
X6571132Y922731D01*
X6561074Y905916D01*
X6548780Y884783D01*
X6497015Y794054D01*
X6466687Y812698D01*
X6419494Y840892D01*
X6379667Y864362D01*
X6359702Y876757D01*
X6355537Y879754D01*
X6352336Y882396D01*
X6350050Y884732D01*
X6348577Y886866D01*
X6347714Y889000D01*
X6347409Y891133D01*
X6307140Y891133D01*
X6332321Y878840D01*
X6364224Y862330D01*
X6389573Y848461D01*
X6408369Y837692D01*
X6439204Y819099D01*
X6471107Y798626D01*
X6490665Y785571D01*
X6516370Y767791D01*
X6541516Y749706D01*
X6566204Y731266D01*
X6590334Y712520D01*
X6613906Y693572D01*
X6632914Y677722D01*
X6656120Y677722D01*
X6656222Y679297D01*
X6656882Y680669D01*
X6659575Y683107D01*
X6666585Y687882D01*
X6676440Y695299D01*
X6685686Y703122D01*
X6694271Y711454D01*
X6702247Y720242D01*
X6709562Y729386D01*
X6716166Y738936D01*
X6722059Y748842D01*
X6727190Y759053D01*
X6731609Y769569D01*
X6735775Y781151D01*
X6737959Y786180D01*
X6740194Y790244D01*
X6742785Y793546D01*
X6745782Y796188D01*
X6749389Y798372D01*
X6753758Y800303D01*
X6759143Y802182D01*
X6765747Y803757D01*
X6774586Y805027D01*
X6785203Y805992D01*
X6797141Y806653D01*
X6809994Y806907D01*
X6823252Y806805D01*
X6849160Y805637D01*
X6855866Y804976D01*
X6861911Y804113D01*
X6867601Y802944D01*
X6873138Y801471D01*
X6878675Y799642D01*
X6884466Y797356D01*
X6897776Y791311D01*
X6911238Y784606D01*
X6922008Y778510D01*
X6932371Y771956D01*
X6942328Y764844D01*
X6951878Y757275D01*
X6960971Y749300D01*
X6969607Y740867D01*
X6977786Y732078D01*
X6985406Y722985D01*
X6992518Y713536D01*
X6999122Y703783D01*
X7005116Y693826D01*
X7010552Y683615D01*
X7015429Y673252D01*
X7019645Y662686D01*
X7023252Y652018D01*
X7026198Y641197D01*
X7028484Y630377D01*
X7030110Y619455D01*
X7030974Y608584D01*
X7031126Y597712D01*
X7030567Y586892D01*
X7030008Y581507D01*
X7028992Y575208D01*
X7027621Y568655D01*
X7025843Y561949D01*
X7023709Y555142D01*
X7021271Y548233D01*
X7015530Y534466D01*
X7008825Y521106D01*
X7001357Y508609D01*
X6997446Y502818D01*
X6993432Y497382D01*
X6989318Y492404D01*
X6985203Y487934D01*
X6981037Y484022D01*
X6976668Y480314D01*
X6967016Y473252D01*
X6956399Y466699D01*
X6945071Y460654D01*
X6933234Y455320D01*
X6921195Y450799D01*
X6909155Y447192D01*
X6897420Y444601D01*
X6867855Y440639D01*
X6848805Y467106D01*
X6835444Y484479D01*
X6819239Y504494D01*
X6801764Y525170D01*
X6791959Y537159D01*
X6784543Y546811D01*
X6780428Y553008D01*
X6779869Y554431D01*
X6780174Y555193D01*
X6782866Y558596D01*
X6795058Y572109D01*
X6814667Y592632D01*
X6871817Y650697D01*
X6892340Y672744D01*
X6900062Y681482D01*
X6905752Y688390D01*
X6909155Y693115D01*
X6909866Y694537D01*
X6909917Y695350D01*
X6909308Y695452D01*
X6907987Y694842D01*
X6903516Y691692D01*
X6896760Y686155D01*
X6877608Y668985D01*
X6865772Y657860D01*
X6839153Y631799D01*
X6771081Y563880D01*
X6683197Y646684D01*
X6670802Y658774D01*
X6662521Y667512D01*
X6659727Y670864D01*
X6657797Y673608D01*
X6656628Y675894D01*
X6656120Y677722D01*
X6632914Y677722D01*
X6653682Y659841D01*
X6680962Y635406D01*
X6696811Y620674D01*
X6722364Y595985D01*
X6746798Y571195D01*
X6770065Y546354D01*
X6792112Y521563D01*
X6808825Y501751D01*
X6828536Y477164D01*
X6843369Y457657D01*
X6863943Y428650D01*
X6873443Y414324D01*
X6888073Y390753D01*
X6893509Y381457D01*
X6901180Y367588D01*
X6908292Y353974D01*
X6916877Y336042D01*
X6924395Y318516D01*
X6930847Y301345D01*
X6936181Y284683D01*
X6939483Y272440D01*
X6942836Y256590D01*
X6945020Y241249D01*
X6945884Y230073D01*
X6945934Y215747D01*
X6945528Y208788D01*
X6944766Y201980D01*
X6943750Y195376D01*
X6942378Y188874D01*
X6940651Y182575D01*
X6938822Y177292D01*
X6936486Y172008D01*
X6933692Y166776D01*
X6930440Y161544D01*
X6926783Y156464D01*
X6922770Y151485D01*
X6918452Y146659D01*
X6913778Y142036D01*
X6908901Y137668D01*
X6903720Y133502D01*
X6898386Y129641D01*
X6892899Y126085D01*
X6887260Y122885D01*
X6881520Y120040D01*
X6875729Y117652D01*
X6869887Y115671D01*
X6860336Y113334D01*
X6849313Y111404D01*
X6837019Y109982D01*
X6823760Y109016D01*
X6809689Y108458D01*
X6795008Y108407D01*
X6780022Y108813D01*
X6764934Y109677D01*
X6749948Y110947D01*
X6735267Y112725D01*
X6721144Y114909D01*
X6707784Y117500D01*
X6682181Y123748D01*
X6661302Y129590D01*
X6640169Y136144D01*
X6613398Y145338D01*
X6591757Y153466D01*
X6564477Y164592D01*
X6542481Y174193D01*
X6514846Y187045D01*
X6492595Y198018D01*
X6470345Y209499D01*
X6453632Y218490D01*
X6425793Y234137D01*
X6403594Y247243D01*
X6381394Y260756D01*
X6364833Y271221D01*
X6331966Y292862D01*
X6310223Y307797D01*
X6283299Y326999D01*
X6256731Y346760D01*
X6235801Y362915D01*
X6204915Y387756D01*
X6184747Y404622D01*
X6164986Y421792D01*
X6145580Y439115D01*
X6126581Y456692D01*
X6103467Y478891D01*
X6085586Y496824D01*
X6063894Y519430D01*
X6047181Y537616D01*
X6031026Y555904D01*
X6011722Y578866D01*
X5996990Y597255D01*
X5982970Y615645D01*
X5969609Y633984D01*
X5957011Y652322D01*
X5945174Y670610D01*
X5934100Y688848D01*
X5928868Y697890D01*
X5916726Y720445D01*
X5903010Y748792D01*
X5896762Y762965D01*
X5891530Y776122D01*
X5887262Y788416D01*
X5883910Y800150D01*
X5881370Y811631D01*
X5879541Y823112D01*
X5878423Y834796D01*
X5877814Y847039D01*
X5877763Y853440D01*
X5867118Y853440D01*
X5867704Y841857D01*
X5869228Y828954D01*
X5870295Y822299D01*
X5873038Y808990D01*
X5875223Y799998D01*
X5877712Y790905D01*
X5880506Y781710D01*
X5883605Y772464D01*
X5887008Y763117D01*
X5894679Y744220D01*
X5903620Y724916D01*
X5908497Y715162D01*
X5919216Y695401D01*
X5931103Y675284D01*
X5944209Y654812D01*
X5958535Y634085D01*
X5974029Y612952D01*
X5990742Y591566D01*
X6008624Y569823D01*
X6027724Y547725D01*
X6047994Y525373D01*
X6069431Y502666D01*
X6098387Y473405D01*
X6127038Y445871D01*
X6146393Y427939D01*
X6175857Y401675D01*
X6205778Y376275D01*
X6236157Y351739D01*
X6256629Y335889D01*
X6277254Y320446D01*
X6297980Y305409D01*
X6318910Y290779D01*
X6339890Y276555D01*
X6371640Y256082D01*
X6392875Y242976D01*
X6414262Y230327D01*
X6441033Y215188D01*
X6473291Y198018D01*
X6489446Y189839D01*
X6510985Y179374D01*
X6537959Y166979D01*
X6559550Y157632D01*
X6593281Y144018D01*
X6621932Y133248D01*
X6648754Y124104D01*
X6673951Y116535D01*
X6686092Y113283D01*
X6697929Y110388D01*
X6709562Y107848D01*
X6721043Y105664D01*
X6732320Y103784D01*
X6754622Y100990D01*
X6765747Y100076D01*
X6776821Y99466D01*
X6787997Y99110D01*
X6810654Y99263D01*
X6825792Y99872D01*
X6841591Y100939D01*
X6848297Y101600D01*
X6859930Y103479D01*
X6865213Y104698D01*
X6875221Y107848D01*
X6885584Y112217D01*
X6918909Y128473D01*
X6979615Y86156D01*
X7014362Y62230D01*
X7038695Y45872D01*
X7054138Y36169D01*
X7059066Y33477D01*
X7062368Y32004D01*
X7064248Y31699D01*
X7064705Y31953D01*
X7064908Y32410D01*
X7064857Y33121D01*
X7064349Y34137D01*
X7061403Y37642D01*
X7056170Y42976D01*
X7048906Y49834D01*
X7029297Y67157D01*
X7004862Y87731D01*
X6933234Y145948D01*
X6943445Y166370D01*
X6946239Y172364D01*
X6948474Y178206D01*
X6950252Y184251D01*
X6951522Y190804D01*
X6952437Y198069D01*
X6952996Y206349D01*
X6953250Y216001D01*
X6953097Y232460D01*
X6952488Y242874D01*
X6951370Y253390D01*
X6949694Y264058D01*
X6947560Y274878D01*
X6944868Y285851D01*
X6941616Y297078D01*
X6937857Y308457D01*
X6933488Y320141D01*
X6928612Y332079D01*
X6923125Y344322D01*
X6917080Y356870D01*
X6910425Y369773D01*
X6903161Y383032D01*
X6876440Y429666D01*
X6912914Y438962D01*
X6926325Y442925D01*
X6938264Y447192D01*
X6949084Y451815D01*
X6958939Y457098D01*
X6968236Y463092D01*
X6977278Y470052D01*
X6986320Y478028D01*
X6995109Y486765D01*
X7002983Y495655D01*
X7010044Y504951D01*
X7016394Y514654D01*
X7021931Y524662D01*
X7026757Y534974D01*
X7030821Y545592D01*
X7034174Y556412D01*
X7036714Y567486D01*
X7038543Y578713D01*
X7039203Y584352D01*
X7039864Y595782D01*
X7039864Y607314D01*
X7039051Y618896D01*
X7037527Y630529D01*
X7035241Y642162D01*
X7032244Y653745D01*
X7028484Y665276D01*
X7024014Y676706D01*
X7018781Y687984D01*
X7012838Y699109D01*
X7006132Y710031D01*
X6998716Y720750D01*
X6990537Y731215D01*
X6981647Y741324D01*
X6972300Y751078D01*
X6962952Y760018D01*
X6953605Y768146D01*
X6944106Y775614D01*
X6934403Y782370D01*
X6924395Y788568D01*
X6914032Y794207D01*
X6903212Y799338D01*
X6891832Y804011D01*
X6879844Y808329D01*
X6867906Y812088D01*
X6857187Y814679D01*
X6851954Y815644D01*
X6841134Y816813D01*
X6828993Y817118D01*
X6814515Y816762D01*
X6797192Y815746D01*
X6780275Y814374D01*
X6765798Y812800D01*
X6755485Y811225D01*
X6746595Y809142D01*
X6743344Y810768D01*
X6742023Y816610D01*
X6741668Y833932D01*
X6740855Y845616D01*
X6739280Y857300D01*
X6736994Y868934D01*
X6733946Y880465D01*
X6730187Y891895D01*
X6725818Y903122D01*
X6720738Y914247D01*
X6715048Y925118D01*
X6708800Y935685D01*
X6701942Y946048D01*
X6694576Y956056D01*
X6686651Y965708D01*
X6678218Y974953D01*
X6669328Y983792D01*
X6660032Y992174D01*
X6650278Y1000099D01*
X6640118Y1007465D01*
X6629603Y1014272D01*
X6618731Y1020521D01*
X6607505Y1026109D01*
X6596024Y1031036D01*
X6590182Y1033271D01*
X6580022Y1036370D01*
X6568135Y1039012D01*
X6554978Y1041247D01*
X6540957Y1042974D01*
X6526580Y1044143D01*
X6512204Y1044803D01*
G37*
G36*
X6089599Y926642D02*
G01*
X6086856Y925525D01*
X6083452Y923086D01*
X6079286Y919327D01*
X6074308Y914146D01*
X6069177Y908303D01*
X6065062Y902868D01*
X6061964Y897890D01*
X6059830Y893419D01*
X6058712Y889457D01*
X6058662Y886104D01*
X6059678Y883412D01*
X6061811Y881430D01*
X6065164Y881227D01*
X6069787Y883564D01*
X6075070Y887831D01*
X6080607Y893419D01*
X6085738Y899820D01*
X6090056Y906373D01*
X6093053Y912571D01*
X6094120Y917803D01*
X6093866Y922019D01*
X6093053Y924864D01*
X6091631Y926439D01*
G37*
G36*
X6157671Y926592D02*
G01*
X6149035Y911453D01*
X6144615Y904595D01*
X6139078Y897128D01*
X6133084Y889965D01*
X6122060Y878535D01*
X6117285Y872642D01*
X6113576Y867105D01*
X6109360Y858062D01*
X6108011Y855827D01*
X6141923Y855827D01*
X6142024Y859434D01*
X6142685Y860602D01*
X6144056Y859434D01*
X6146495Y855827D01*
X6148324Y852525D01*
X6149797Y848715D01*
X6150762Y844905D01*
X6151118Y841552D01*
X6150965Y837996D01*
X6150356Y836777D01*
X6148984Y837996D01*
X6146495Y841552D01*
X6144717Y844905D01*
X6143244Y848715D01*
X6142278Y852525D01*
X6141923Y855827D01*
X6108011Y855827D01*
X6105956Y852424D01*
X6101638Y846480D01*
X6092545Y835761D01*
X6089446Y831138D01*
X6087872Y827532D01*
X6088075Y825398D01*
X6088735Y824280D01*
X6088481Y823366D01*
X6087313Y822756D01*
X6085382Y822502D01*
X6083249Y821944D01*
X6081471Y820419D01*
X6080302Y818134D01*
X6079439Y812596D01*
X6078372Y810310D01*
X6076746Y808786D01*
X6073089Y807821D01*
X6072124Y806805D01*
X6072057Y806145D01*
X6117945Y806145D01*
X6118301Y808786D01*
X6119368Y810514D01*
X6120841Y811174D01*
X6122720Y810615D01*
X6124549Y809091D01*
X6126073Y807212D01*
X6127089Y805129D01*
X6127445Y803198D01*
X6127089Y801420D01*
X6126073Y799998D01*
X6124549Y799033D01*
X6122720Y798677D01*
X6120841Y799287D01*
X6119368Y800862D01*
X6118301Y803249D01*
X6117945Y806145D01*
X6072057Y806145D01*
X6071971Y805281D01*
X6073444Y801624D01*
X6073292Y800100D01*
X6072327Y799084D01*
X6068669Y798169D01*
X6067044Y796645D01*
X6065977Y794461D01*
X6065062Y788822D01*
X6063742Y785774D01*
X6061760Y783082D01*
X6056426Y778408D01*
X6053124Y773938D01*
X6049873Y768299D01*
X6043879Y755599D01*
X6040018Y749046D01*
X6035802Y743153D01*
X6028283Y735177D01*
X6025388Y731418D01*
X6023406Y727913D01*
X6021933Y722579D01*
X6019901Y719378D01*
X6016904Y716076D01*
X6009487Y709777D01*
X6006439Y706170D01*
X6004407Y702614D01*
X6003137Y697026D01*
X6001664Y695502D01*
X5999429Y695045D01*
X5993739Y696366D01*
X5991453Y696163D01*
X5989929Y695248D01*
X5989370Y693572D01*
X5990183Y689203D01*
X5992418Y683310D01*
X5995771Y676351D01*
X5999937Y668883D01*
X6004610Y661416D01*
X6009487Y654405D01*
X6014313Y648411D01*
X6016874Y645820D01*
X6032246Y645820D01*
X6033617Y651002D01*
X6037376Y658672D01*
X6042964Y667867D01*
X6056731Y687222D01*
X6061151Y694791D01*
X6062827Y699973D01*
X6061710Y702360D01*
X6059525Y703478D01*
X6057696Y705154D01*
X6056477Y707136D01*
X6056020Y709218D01*
X6056477Y710895D01*
X6057798Y711352D01*
X6059932Y710590D01*
X6064097Y707745D01*
X6065520Y707390D01*
X6067145Y707644D01*
X6068923Y708507D01*
X6071006Y709980D01*
X6076035Y715162D01*
X6082538Y723646D01*
X6090920Y735888D01*
X6101486Y752246D01*
X6122111Y785622D01*
X6126683Y792530D01*
X6131102Y798220D01*
X6134811Y802030D01*
X6137402Y803452D01*
X6139078Y804011D01*
X6140450Y805535D01*
X6141415Y807821D01*
X6142126Y813358D01*
X6143142Y815644D01*
X6144666Y817168D01*
X6148374Y818134D01*
X6149898Y819251D01*
X6150914Y820877D01*
X6151270Y822858D01*
X6152388Y826465D01*
X6155436Y832510D01*
X6159957Y840130D01*
X6165443Y848563D01*
X6173368Y859231D01*
X6176721Y862787D01*
X6179870Y865378D01*
X6183122Y867054D01*
X6186627Y868019D01*
X6190589Y868426D01*
X6195212Y868324D01*
X6198870Y867867D01*
X6203188Y866800D01*
X6208014Y865174D01*
X6218580Y860653D01*
X6229451Y854760D01*
X6234633Y851458D01*
X6246571Y842924D01*
X6252057Y838657D01*
X6261912Y830071D01*
X6266383Y825804D01*
X6274206Y817219D01*
X6277610Y812850D01*
X6280658Y808532D01*
X6283401Y804164D01*
X6285788Y799744D01*
X6287820Y795324D01*
X6289548Y790905D01*
X6291935Y781862D01*
X6292596Y777290D01*
X6292951Y772718D01*
X6293002Y768045D01*
X6292037Y758596D01*
X6291021Y753821D01*
X6289700Y748944D01*
X6288074Y744016D01*
X6283756Y734009D01*
X6278118Y723747D01*
X6271158Y713130D01*
X6262878Y702259D01*
X6259372Y698296D01*
X6255410Y694385D01*
X6251041Y690524D01*
X6246368Y686866D01*
X6241491Y683412D01*
X6236512Y680262D01*
X6226606Y674928D01*
X6221831Y672947D01*
X6217412Y671423D01*
X6213297Y670458D01*
X6209639Y670153D01*
X6206845Y670458D01*
X6202883Y671322D01*
X6192266Y674522D01*
X6179261Y679297D01*
X6151575Y690880D01*
X6140145Y694740D01*
X6135573Y695909D01*
X6131915Y696468D01*
X6129274Y696468D01*
X6127800Y695858D01*
X6116675Y681329D01*
X6067145Y613410D01*
X6049670Y625297D01*
X6042914Y630580D01*
X6037376Y636219D01*
X6033617Y641502D01*
X6032246Y645820D01*
X6016874Y645820D01*
X6018733Y643940D01*
X6036614Y628853D01*
X6050838Y617626D01*
X6056376Y613562D01*
X6060795Y610616D01*
X6064046Y608838D01*
X6066078Y608228D01*
X6066942Y608584D01*
X6070092Y611327D01*
X6074918Y616661D01*
X6081268Y624332D01*
X6097828Y645769D01*
X6118352Y673811D01*
X6132322Y693470D01*
X6170472Y676402D01*
X6182055Y672084D01*
X6193028Y669036D01*
X6198260Y667969D01*
X6203391Y667258D01*
X6208369Y666851D01*
X6213246Y666750D01*
X6217970Y667004D01*
X6222542Y667562D01*
X6227064Y668426D01*
X6231432Y669645D01*
X6235700Y671220D01*
X6239865Y673100D01*
X6243929Y675284D01*
X6247942Y677875D01*
X6251803Y680770D01*
X6255613Y684022D01*
X6259372Y687578D01*
X6266637Y695807D01*
X6270193Y700430D01*
X6277152Y710793D01*
X6283858Y722528D01*
X6292240Y739241D01*
X6296152Y747776D01*
X6298996Y754938D01*
X6300876Y761288D01*
X6301892Y767181D01*
X6302197Y773074D01*
X6301892Y779475D01*
X6301079Y786790D01*
X6300317Y791718D01*
X6297930Y801522D01*
X6294424Y811276D01*
X6292291Y816152D01*
X6287211Y825855D01*
X6281115Y835456D01*
X6274003Y844905D01*
X6270091Y849630D01*
X6261557Y858875D01*
X6252057Y867918D01*
X6241694Y876757D01*
X6230416Y885342D01*
X6218224Y893673D01*
X6205270Y901700D01*
X6191453Y909421D01*
G37*
G36*
X5926683Y850493D02*
G01*
X5925769Y850036D01*
X5925616Y848512D01*
X5926226Y845921D01*
X5927648Y842213D01*
X5929934Y837437D01*
X5933084Y831545D01*
X5938316Y823264D01*
X5944362Y815289D01*
X5950508Y808482D01*
X5955995Y803757D01*
X5963310Y799236D01*
X5971540Y794867D01*
X5980226Y790905D01*
X5988812Y787552D01*
X5996635Y784961D01*
X6003290Y783386D01*
X6008116Y782980D01*
X6010554Y783996D01*
X6009436Y786434D01*
X6004458Y790092D01*
X5996482Y794461D01*
X5979160Y802030D01*
X5972860Y805180D01*
X5967222Y808482D01*
X5962142Y812038D01*
X5957468Y815898D01*
X5953150Y820216D01*
X5948984Y825042D01*
X5940552Y836472D01*
X5936640Y841400D01*
X5933236Y845312D01*
X5930442Y848106D01*
X5928207Y849833D01*
G37*
G36*
X6198870Y798576D02*
G01*
X6195110Y798220D01*
X6192113Y796594D01*
X6190132Y793699D01*
X6189370Y789584D01*
X6189065Y785876D01*
X6188202Y782675D01*
X6186932Y780186D01*
X6183579Y777290D01*
X6181648Y774242D01*
X6179870Y770128D01*
X6178397Y765352D01*
X6177483Y759206D01*
X6178550Y754634D01*
X6181953Y750976D01*
X6188100Y747522D01*
X6192824Y745693D01*
X6197396Y744778D01*
X6201664Y744626D01*
X6205677Y745236D01*
X6209334Y746556D01*
X6212636Y748487D01*
X6215481Y750976D01*
X6217869Y753973D01*
X6219799Y757377D01*
X6221120Y761187D01*
X6221882Y765251D01*
X6221984Y769620D01*
X6221425Y774141D01*
X6220155Y778764D01*
X6218123Y783437D01*
X6215278Y788111D01*
X6211519Y792480D01*
X6207353Y795731D01*
X6203035Y797763D01*
G37*
G36*
X6353149Y793953D02*
G01*
X6350609Y793191D01*
X6348069Y791260D01*
X6345834Y788314D01*
X6343446Y782929D01*
X6340043Y776782D01*
X6334506Y767994D01*
X6319062Y745286D01*
X6297744Y715975D01*
X6346494Y715975D01*
X6347460Y720496D01*
X6349746Y724001D01*
X6352590Y725678D01*
X6355334Y724814D01*
X6355842Y723392D01*
X6355384Y721410D01*
X6354165Y719074D01*
X6352133Y716737D01*
X6349847Y714756D01*
X6348069Y713943D01*
X6346901Y714349D01*
X6346494Y715975D01*
X6297744Y715975D01*
X6282277Y695909D01*
X6299250Y695909D01*
X6299352Y699211D01*
X6299860Y701497D01*
X6300673Y702564D01*
X6301790Y702157D01*
X6302705Y700582D01*
X6303060Y698296D01*
X6302908Y695706D01*
X6302146Y693064D01*
X6301079Y691083D01*
X6300216Y690981D01*
X6299606Y692607D01*
X6299250Y695909D01*
X6282277Y695909D01*
X6262674Y669442D01*
X6252514Y656742D01*
X6249365Y653338D01*
X6242761Y645566D01*
X6237478Y636371D01*
X6234531Y627888D01*
X6234785Y622198D01*
X6235598Y620420D01*
X6235700Y619099D01*
X6235090Y618286D01*
X6233769Y618185D01*
X6225235Y618845D01*
X6218732Y617728D01*
X6214973Y615086D01*
X6214516Y607517D01*
X6212332Y602183D01*
X6208471Y595934D01*
X6199835Y585571D01*
X6197202Y582015D01*
X6214110Y582015D01*
X6214211Y587095D01*
X6214668Y590397D01*
X6215380Y591616D01*
X6215737Y591159D01*
X6242151Y591159D01*
X6242202Y594461D01*
X6242710Y596747D01*
X6243523Y597814D01*
X6244640Y597408D01*
X6245555Y595782D01*
X6245846Y593953D01*
X6256020Y593953D01*
X6256223Y595782D01*
X6256680Y597306D01*
X6257340Y598322D01*
X6258153Y598678D01*
X6259169Y598322D01*
X6260490Y597306D01*
X6263182Y593953D01*
X6263944Y592074D01*
X6263792Y590550D01*
X6262827Y589534D01*
X6261100Y589178D01*
X6259118Y589534D01*
X6257544Y590550D01*
X6256426Y592074D01*
X6256020Y593953D01*
X6245846Y593953D01*
X6245758Y590956D01*
X6244996Y588264D01*
X6243929Y586333D01*
X6243066Y586232D01*
X6242456Y587857D01*
X6242151Y591159D01*
X6215737Y591159D01*
X6216294Y590448D01*
X6217056Y587502D01*
X6217361Y583844D01*
X6217158Y579882D01*
X6216497Y576173D01*
X6215634Y574040D01*
X6214872Y574395D01*
X6214364Y577138D01*
X6214110Y582015D01*
X6197202Y582015D01*
X6194552Y577748D01*
X6192621Y573684D01*
X6191199Y569315D01*
X6190782Y567334D01*
X6199276Y567334D01*
X6199378Y570687D01*
X6199835Y572973D01*
X6200698Y573989D01*
X6201765Y573582D01*
X6202680Y572008D01*
X6203086Y569722D01*
X6202883Y567131D01*
X6202172Y564489D01*
X6201105Y562559D01*
X6200241Y562406D01*
X6199581Y564032D01*
X6199276Y567334D01*
X6190782Y567334D01*
X6190183Y564489D01*
X6189624Y559206D01*
X6189472Y553212D01*
X6189675Y546455D01*
X6190234Y538835D01*
X6192469Y520395D01*
X6194298Y510540D01*
X6196122Y504951D01*
X6210655Y504951D01*
X6211316Y507441D01*
X6212687Y510793D01*
X6217412Y519531D01*
X6224320Y530047D01*
X6339230Y685698D01*
X6357924Y710285D01*
X6371945Y728014D01*
X6376568Y733501D01*
X6379362Y736396D01*
X6379972Y736803D01*
X6382715Y735634D01*
X6387744Y732434D01*
X6394348Y727710D01*
X6401816Y721969D01*
X6408877Y715822D01*
X6414465Y710133D01*
X6418021Y705408D01*
X6418986Y702411D01*
X6416294Y697382D01*
X6401054Y673354D01*
X6366967Y622198D01*
X6337858Y577646D01*
X6320637Y552602D01*
X6309817Y537464D01*
X6300317Y523189D01*
X6298895Y520446D01*
X6301282Y516229D01*
X6306870Y510590D01*
X6313220Y505612D01*
X6317945Y503478D01*
X6319672Y503935D01*
X6321399Y505206D01*
X6322923Y507085D01*
X6324752Y511098D01*
X6325158Y511251D01*
X6324955Y507339D01*
X6325362Y503428D01*
X6327394Y498601D01*
X6330696Y493572D01*
X6334963Y488848D01*
X6346139Y478332D01*
X6331254Y457555D01*
X6325108Y449478D01*
X6319469Y442874D01*
X6314897Y438454D01*
X6312052Y436778D01*
X6308801Y437286D01*
X6304737Y438708D01*
X6299860Y441045D01*
X6294221Y444296D01*
X6287973Y448360D01*
X6281064Y453288D01*
X6256070Y472897D01*
X6245961Y480161D01*
X6236563Y486460D01*
X6222847Y494233D01*
X6217361Y497738D01*
X6213195Y500938D01*
X6210808Y503428D01*
X6210655Y504951D01*
X6196122Y504951D01*
X6196736Y503072D01*
X6199682Y497992D01*
X6203188Y495503D01*
X6211265Y492506D01*
X6220256Y488238D01*
X6229858Y482854D01*
X6239916Y476402D01*
X6250330Y468985D01*
X6270345Y453288D01*
X6280454Y445770D01*
X6289954Y439166D01*
X6297625Y434289D01*
X6304838Y430022D01*
X6307632Y428701D01*
X6310071Y428040D01*
X6312357Y428193D01*
X6314694Y429259D01*
X6317234Y431342D01*
X6320180Y434593D01*
X6323736Y439064D01*
X6351879Y478637D01*
X6327038Y550621D01*
X6379972Y630326D01*
X6399733Y659587D01*
X6414363Y680618D01*
X6424015Y693724D01*
X6427063Y697433D01*
X6428994Y699312D01*
X6430264Y701852D01*
X6430213Y706526D01*
X6429095Y712774D01*
X6427012Y720242D01*
X6424117Y728319D01*
X6420561Y736600D01*
X6416548Y744575D01*
X6412179Y751840D01*
X6409283Y755497D01*
X6405321Y759663D01*
X6400495Y764133D01*
X6395008Y768807D01*
X6382918Y777951D01*
X6376771Y782218D01*
X6370828Y786028D01*
X6365290Y789279D01*
X6360312Y791768D01*
X6356248Y793343D01*
G37*
G36*
X6542531Y635812D02*
G01*
X6539534Y635203D01*
X6536893Y633425D01*
X6530695Y627024D01*
X6521348Y617829D01*
X6495900Y594207D01*
X6575094Y594207D01*
X6575653Y597814D01*
X6577177Y598424D01*
X6579311Y596188D01*
X6581648Y591312D01*
X6582460Y588568D01*
X6582359Y586841D01*
X6581444Y586232D01*
X6579819Y586841D01*
X6577990Y588314D01*
X6576466Y590194D01*
X6575450Y592226D01*
X6575094Y594207D01*
X6495900Y594207D01*
X6473936Y574903D01*
X6523786Y574903D01*
X6523990Y580694D01*
X6524447Y584200D01*
X6525158Y585165D01*
X6525971Y583234D01*
X6526682Y579323D01*
X6526885Y574903D01*
X6526682Y570433D01*
X6525971Y566572D01*
X6525158Y564642D01*
X6524447Y565556D01*
X6523990Y569061D01*
X6523786Y574903D01*
X6473936Y574903D01*
X6467094Y569112D01*
X6459270Y562914D01*
X6456781Y561187D01*
X6453835Y560070D01*
X6452514Y558647D01*
X6451600Y556564D01*
X6451295Y553974D01*
X6450628Y551078D01*
X6504431Y551078D01*
X6504584Y555244D01*
X6505092Y557733D01*
X6505854Y558393D01*
X6506819Y557022D01*
X6507581Y554228D01*
X6507784Y551078D01*
X6507581Y547928D01*
X6506819Y545134D01*
X6505854Y543763D01*
X6505092Y544423D01*
X6504584Y546912D01*
X6504431Y551078D01*
X6450628Y551078D01*
X6449161Y548487D01*
X6446824Y546150D01*
X6440881Y542544D01*
X6439154Y539496D01*
X6439104Y538632D01*
X6448145Y538632D01*
X6448298Y540156D01*
X6449263Y541172D01*
X6450990Y541528D01*
X6452971Y541172D01*
X6454546Y540156D01*
X6455664Y538632D01*
X6456019Y536803D01*
X6455867Y534924D01*
X6455410Y533450D01*
X6454749Y532384D01*
X6453936Y532028D01*
X6452870Y532384D01*
X6450228Y534924D01*
X6448907Y536803D01*
X6448145Y538632D01*
X6439104Y538632D01*
X6438900Y535025D01*
X6441084Y523443D01*
X6441135Y520090D01*
X6439966Y518922D01*
X6437630Y519734D01*
X6435699Y521462D01*
X6434582Y523595D01*
X6434378Y525881D01*
X6436156Y530606D01*
X6435039Y531164D01*
X6432143Y529945D01*
X6427774Y527202D01*
X6422288Y523138D01*
X6416040Y518007D01*
X6410663Y513283D01*
X6422694Y513283D01*
X6423101Y515010D01*
X6424117Y516432D01*
X6425641Y517398D01*
X6427470Y517753D01*
X6429298Y517143D01*
X6430822Y515569D01*
X6431038Y515061D01*
X6475069Y515061D01*
X6475577Y519988D01*
X6477050Y522173D01*
X6479235Y521563D01*
X6482029Y518058D01*
X6482689Y516128D01*
X6482537Y514045D01*
X6481572Y512165D01*
X6479946Y510641D01*
X6478066Y510082D01*
X6476492Y510692D01*
X6475476Y512419D01*
X6475069Y515061D01*
X6431038Y515061D01*
X6431838Y513181D01*
X6432245Y510336D01*
X6431838Y507695D01*
X6430822Y505917D01*
X6429298Y505256D01*
X6427470Y505815D01*
X6425641Y507339D01*
X6424117Y509219D01*
X6423101Y511301D01*
X6422694Y513283D01*
X6410663Y513283D01*
X6401792Y504748D01*
X6408978Y504748D01*
X6410045Y507441D01*
X6413195Y508203D01*
X6415024Y507187D01*
X6416446Y504393D01*
X6417360Y500227D01*
X6417556Y496316D01*
X6452209Y496316D01*
X6452311Y501396D01*
X6452768Y504698D01*
X6453479Y505866D01*
X6454394Y504748D01*
X6455156Y501802D01*
X6455410Y498144D01*
X6455257Y494182D01*
X6454597Y490474D01*
X6453733Y488289D01*
X6452971Y488696D01*
X6452463Y491439D01*
X6452209Y496316D01*
X6417556Y496316D01*
X6417310Y488492D01*
X6416649Y485800D01*
X6415379Y486918D01*
X6413195Y491540D01*
X6410045Y499668D01*
X6408978Y504748D01*
X6401792Y504748D01*
X6395974Y498348D01*
X6390944Y491642D01*
X6388154Y486409D01*
X6399276Y486409D01*
X6399377Y489712D01*
X6399834Y491998D01*
X6400698Y493064D01*
X6401765Y492658D01*
X6402679Y491032D01*
X6403086Y488797D01*
X6402882Y486156D01*
X6402171Y483514D01*
X6401104Y481584D01*
X6400241Y481431D01*
X6399580Y483057D01*
X6399276Y486409D01*
X6388100Y486308D01*
X6387846Y483006D01*
X6388608Y481380D01*
X6388506Y480517D01*
X6387592Y480415D01*
X6385864Y481228D01*
X6383477Y481838D01*
X6380581Y481279D01*
X6377635Y479602D01*
X6372047Y474319D01*
X6368948Y472490D01*
X6365849Y471576D01*
X6360668Y472185D01*
X6358280Y471220D01*
X6356197Y469138D01*
X6355165Y467359D01*
X6380226Y467359D01*
X6380327Y470662D01*
X6380784Y472948D01*
X6381648Y474014D01*
X6382715Y473608D01*
X6383629Y471982D01*
X6383971Y470103D01*
X6428232Y470103D01*
X6428435Y474268D01*
X6428943Y476808D01*
X6429705Y477469D01*
X6430619Y476097D01*
X6431381Y473303D01*
X6431635Y470103D01*
X6431381Y466953D01*
X6430619Y464159D01*
X6429705Y462788D01*
X6428943Y463448D01*
X6428435Y465988D01*
X6428232Y470103D01*
X6383971Y470103D01*
X6383832Y467106D01*
X6383121Y464464D01*
X6382054Y462534D01*
X6381191Y462381D01*
X6380581Y464007D01*
X6380226Y467359D01*
X6355165Y467359D01*
X6354368Y465988D01*
X6352844Y461924D01*
X6351676Y457149D01*
X6350812Y451662D01*
X6350355Y445719D01*
X6350254Y439369D01*
X6350660Y432765D01*
X6351473Y426059D01*
X6352743Y419303D01*
X6354572Y412089D01*
X6356502Y405993D01*
X6358788Y400710D01*
X6360080Y398526D01*
X6370320Y398526D01*
X6371488Y401015D01*
X6374688Y404774D01*
X6379464Y409194D01*
X6386728Y414985D01*
X6397244Y424383D01*
X6414008Y440232D01*
X6435445Y460959D01*
X6459880Y485038D01*
X6485788Y510946D01*
X6510578Y535330D01*
X6532524Y556158D01*
X6550050Y572109D01*
X6556705Y577850D01*
X6561785Y581812D01*
X6564985Y583895D01*
X6565849Y584200D01*
X6569506Y583590D01*
X6573926Y581761D01*
X6578549Y578967D01*
X6587388Y571652D01*
X6592722Y567588D01*
X6598158Y563829D01*
X6606794Y558596D01*
X6608267Y557276D01*
X6609486Y555752D01*
X6610350Y553974D01*
X6610908Y551840D01*
X6611112Y549249D01*
X6610959Y546150D01*
X6610451Y542493D01*
X6609537Y538175D01*
X6606387Y527253D01*
X6601459Y512826D01*
X6594602Y494233D01*
X6574383Y442315D01*
X6557009Y398373D01*
X6539534Y355041D01*
X6528663Y328980D01*
X6520332Y309880D01*
X6514236Y297281D01*
X6512001Y293217D01*
X6510223Y290626D01*
X6508902Y289306D01*
X6508394Y289153D01*
X6505448Y290576D01*
X6500063Y294436D01*
X6493002Y300075D01*
X6484975Y307035D01*
X6465112Y324866D01*
X6475780Y355854D01*
X6477609Y361746D01*
X6478625Y366217D01*
X6478778Y369620D01*
X6477965Y372313D01*
X6476238Y374751D01*
X6473545Y377190D01*
X6460439Y387045D01*
X6452870Y392125D01*
X6446672Y395325D01*
X6441440Y396697D01*
X6436664Y396392D01*
X6431991Y394309D01*
X6427012Y390601D01*
X6414770Y379374D01*
X6408826Y374548D01*
X6404000Y371297D01*
X6401003Y370128D01*
X6398006Y371144D01*
X6393688Y373786D01*
X6388709Y377647D01*
X6383426Y382270D01*
X6378448Y387146D01*
X6374282Y391769D01*
X6371386Y395732D01*
X6370320Y398526D01*
X6360080Y398526D01*
X6361582Y395986D01*
X6365036Y391515D01*
X6369405Y387096D01*
X6374790Y382371D01*
X6404508Y359511D01*
X6423863Y377901D01*
X6432092Y385368D01*
X6437426Y389331D01*
X6439916Y389839D01*
X6439509Y386791D01*
X6436868Y379374D01*
X6435090Y373176D01*
X6434226Y367842D01*
X6434378Y362915D01*
X6435598Y358038D01*
X6437884Y352856D01*
X6441287Y346964D01*
X6445961Y340004D01*
X6452209Y332028D01*
X6460744Y322630D01*
X6470650Y312623D01*
X6481216Y302768D01*
X6491478Y293776D01*
X6500723Y286410D01*
X6508038Y281482D01*
X6510731Y280111D01*
X6512610Y279654D01*
X6513271Y279908D01*
X6515150Y282244D01*
X6517894Y287274D01*
X6521653Y295402D01*
X6533134Y322783D01*
X6567881Y410260D01*
X6578549Y436270D01*
X6585203Y451815D01*
X6614363Y523900D01*
X6619240Y535381D01*
X6622084Y541528D01*
X6622897Y546252D01*
X6621932Y553415D01*
X6619290Y562559D01*
X6615023Y573328D01*
X6611772Y580237D01*
X6608419Y586333D01*
X6604711Y591870D01*
X6600596Y596950D01*
X6595770Y601878D01*
X6590131Y606755D01*
X6583476Y611886D01*
X6565239Y624382D01*
X6557162Y629564D01*
X6550914Y633120D01*
X6546189Y635152D01*
G37*
G36*
X6713372Y512114D02*
G01*
X6708749Y511962D01*
X6704380Y510387D01*
X6699910Y507492D01*
X6695033Y503275D01*
X6690969Y499109D01*
X6687667Y494995D01*
X6685432Y491337D01*
X6684314Y487019D01*
X6683451Y486003D01*
X6682181Y485749D01*
X6679082Y486816D01*
X6677812Y486359D01*
X6676948Y485038D01*
X6675932Y479907D01*
X6674053Y475386D01*
X6671157Y469747D01*
X6663080Y456234D01*
X6653225Y441655D01*
X6643217Y428345D01*
X6638645Y422859D01*
X6634581Y418541D01*
X6631228Y415645D01*
X6627368Y412750D01*
X6624777Y410413D01*
X6623659Y408787D01*
X6624269Y408228D01*
X6624726Y406958D01*
X6623303Y403555D01*
X6620256Y398475D01*
X6611112Y385876D01*
X6607251Y380187D01*
X6604609Y375818D01*
X6603034Y371856D01*
X6598361Y363931D01*
X6582731Y339902D01*
X6591300Y339902D01*
X6591960Y341884D01*
X6594754Y345389D01*
X6596938Y345998D01*
X6598412Y343814D01*
X6598920Y338886D01*
X6598513Y336245D01*
X6597497Y334518D01*
X6595922Y333908D01*
X6594043Y334467D01*
X6592417Y335991D01*
X6591452Y337870D01*
X6591300Y339902D01*
X6582731Y339902D01*
X6564528Y312724D01*
X6557111Y300939D01*
X6550863Y290271D01*
X6545986Y281279D01*
X6542887Y274421D01*
X6542024Y272034D01*
X6541770Y270306D01*
X6542430Y264261D01*
X6544259Y257403D01*
X6547053Y250190D01*
X6550507Y243078D01*
X6554419Y236524D01*
X6557297Y232664D01*
X6570319Y232664D01*
X6570725Y234289D01*
X6571843Y236118D01*
X6573469Y237896D01*
X6575450Y239420D01*
X6577279Y241655D01*
X6578295Y245313D01*
X6578447Y249986D01*
X6577736Y255168D01*
X6576822Y259943D01*
X6576720Y262686D01*
X6577380Y263296D01*
X6580987Y259638D01*
X6583476Y259232D01*
X6586372Y260553D01*
X6589725Y263601D01*
X6593535Y268427D01*
X6597853Y275031D01*
X6602679Y283464D01*
X6612991Y302666D01*
X6618325Y311099D01*
X6623507Y318109D01*
X6627825Y322834D01*
X6631127Y326034D01*
X6633464Y329031D01*
X6634632Y331470D01*
X6634022Y334416D01*
X6634835Y336499D01*
X6636613Y338937D01*
X6642100Y344322D01*
X6644386Y347675D01*
X6645960Y351129D01*
X6647078Y357022D01*
X6648602Y359714D01*
X6650888Y362051D01*
X6656425Y365252D01*
X6658711Y367588D01*
X6660235Y370382D01*
X6660794Y373227D01*
X6662420Y377545D01*
X6666738Y384251D01*
X6673189Y392379D01*
X6694728Y416102D01*
X6704025Y426974D01*
X6712051Y437032D01*
X6725716Y454964D01*
X6729272Y459079D01*
X6731101Y460603D01*
X6733641Y459028D01*
X6739331Y454761D01*
X6756552Y440690D01*
X6766864Y431342D01*
X6773722Y423773D01*
X6777126Y417779D01*
X6777228Y413308D01*
X6775907Y408533D01*
X6774484Y401015D01*
X6773113Y391871D01*
X6769912Y364337D01*
X6764020Y323951D01*
X6763410Y316484D01*
X6763308Y310184D01*
X6763664Y305409D01*
X6764477Y302463D01*
X6765645Y301599D01*
X6767220Y303072D01*
X6770319Y309880D01*
X6775602Y318363D01*
X6783628Y329895D01*
X6793382Y343052D01*
X6803694Y356463D01*
X6813499Y368655D01*
X6821678Y378206D01*
X6824776Y381508D01*
X6827113Y383641D01*
X6828434Y384403D01*
X6831279Y383641D01*
X6843471Y378561D01*
X6858965Y371246D01*
X6871309Y364744D01*
X6874357Y362762D01*
X6874306Y362102D01*
X6872579Y358444D01*
X6863283Y343255D01*
X6848246Y320446D01*
X6829806Y293420D01*
X6810349Y265582D01*
X6792163Y240385D01*
X6777634Y221234D01*
X6764781Y205333D01*
X6749592Y185877D01*
X6735419Y167081D01*
X6710121Y132537D01*
X6707682Y132638D01*
X6702806Y135026D01*
X6696354Y139039D01*
X6689242Y144119D01*
X6682231Y149606D01*
X6676186Y154838D01*
X6671919Y159207D01*
X6670344Y162153D01*
X6670852Y166370D01*
X6674510Y184404D01*
X6682231Y218592D01*
X6689445Y253390D01*
X6695541Y285292D01*
X6697624Y297383D01*
X6698894Y307492D01*
X6698742Y309778D01*
X6698335Y311404D01*
X6697624Y312369D01*
X6696608Y312724D01*
X6695287Y312318D01*
X6693560Y311251D01*
X6691477Y309473D01*
X6686194Y303580D01*
X6679133Y294538D01*
X6670294Y282143D01*
X6630263Y222605D01*
X6615074Y199593D01*
X6612737Y200152D01*
X6607454Y203149D01*
X6600240Y207975D01*
X6592163Y213766D01*
X6584086Y219913D01*
X6577126Y225602D01*
X6572199Y230073D01*
X6570319Y232664D01*
X6557297Y232664D01*
X6558584Y230936D01*
X6562699Y226821D01*
X6566509Y224586D01*
X6571691Y222148D01*
X6579209Y217678D01*
X6588150Y211683D01*
X6609588Y195986D01*
X6617004Y191922D01*
X6621678Y192176D01*
X6627317Y198221D01*
X6629044Y199440D01*
X6630873Y199542D01*
X6632956Y198374D01*
X6635394Y195783D01*
X6638391Y191668D01*
X6649618Y173888D01*
X6652971Y169214D01*
X6656730Y164490D01*
X6665264Y155041D01*
X6674561Y145897D01*
X6684060Y137617D01*
X6693204Y130708D01*
X6701485Y125628D01*
X6705092Y123952D01*
X6708241Y122935D01*
X6710883Y122580D01*
X6713931Y124510D01*
X6718808Y129692D01*
X6724802Y137363D01*
X6739940Y159308D01*
X6756400Y181813D01*
X6788505Y223570D01*
X6802221Y242062D01*
X6817106Y262585D01*
X6831939Y283616D01*
X6845553Y303479D01*
X6884974Y362661D01*
X6872681Y395173D01*
X6870090Y400812D01*
X6867347Y405993D01*
X6864502Y410616D01*
X6861556Y414680D01*
X6858508Y418185D01*
X6855459Y421081D01*
X6852310Y423316D01*
X6838746Y431901D01*
X6809181Y451510D01*
X6795414Y436981D01*
X6791959Y434035D01*
X6789369Y432409D01*
X6788048Y432358D01*
X6783831Y440893D01*
X6772605Y464921D01*
X6769353Y470662D01*
X6765848Y475894D01*
X6762038Y480720D01*
X6757771Y485241D01*
X6752996Y489508D01*
X6747662Y493674D01*
X6741617Y497840D01*
X6732422Y503732D01*
X6724853Y508000D01*
X6718655Y510793D01*
G37*
G36*
X6531356Y495249D02*
G01*
X6528003Y494182D01*
X6524040Y490931D01*
X6516979Y482447D01*
X6509867Y475183D01*
X6500672Y467156D01*
X6490563Y459232D01*
X6478574Y450697D01*
X6472682Y446125D01*
X6467805Y441807D01*
X6463995Y437743D01*
X6461252Y433933D01*
X6459474Y430276D01*
X6458661Y426720D01*
X6458864Y423265D01*
X6460032Y419862D01*
X6462166Y416458D01*
X6465214Y413004D01*
X6469176Y409448D01*
X6474612Y405282D01*
X6479794Y401878D01*
X6484112Y399592D01*
X6487007Y398729D01*
X6488277Y399491D01*
X6490106Y401624D01*
X6492443Y405028D01*
X6498132Y415035D01*
X6504685Y428193D01*
X6511442Y443179D01*
X6518351Y457657D01*
X6524701Y469900D01*
X6529730Y478485D01*
X6534302Y484885D01*
X6535674Y488442D01*
X6535572Y491490D01*
X6533997Y494080D01*
G37*
D10*
X2870200Y6273454D02*
G01*
X2888381Y6225727D01*
X2906562Y6273454D02*
G01*
X2888381Y6225727D01*
X2921563Y6273454D02*
G01*
X2921563Y6225727D01*
X2936562Y6273454D02*
G01*
X2936562Y6225727D01*
X2936562Y6273454D02*
G01*
X2968381Y6225727D01*
X2968381Y6273454D02*
G01*
X2968381Y6225727D01*
X3086100Y6273545D02*
G01*
X3104388Y6225794D01*
X3122422Y6273545D02*
G01*
X3104388Y6225794D01*
X3151124Y6273545D02*
G01*
X3146552Y6271260D01*
X3141979Y6266687D01*
X3139693Y6262115D01*
X3137408Y6255257D01*
X3137408Y6243828D01*
X3139693Y6236970D01*
X3141979Y6232652D01*
X3146552Y6228079D01*
X3151124Y6225794D01*
X3160268Y6225794D01*
X3164840Y6228079D01*
X3169158Y6232652D01*
X3171443Y6236970D01*
X3173729Y6243828D01*
X3173729Y6255257D01*
X3171443Y6262115D01*
X3169158Y6266687D01*
X3164840Y6271260D01*
X3160268Y6273545D01*
X3151124Y6273545D01*
X3188715Y6273545D02*
G01*
X3188715Y6239255D01*
X3191002Y6232652D01*
X3195574Y6228079D01*
X3202431Y6225794D01*
X3207004Y6225794D01*
X3213861Y6228079D01*
X3218434Y6232652D01*
X3220720Y6239255D01*
X3220720Y6273545D01*
X3251454Y6273545D02*
G01*
X3251454Y6225794D01*
X3235706Y6273545D02*
G01*
X3267456Y6273545D01*
X3386836Y6262115D02*
G01*
X3384550Y6266687D01*
X3379977Y6271260D01*
X3375406Y6273545D01*
X3366515Y6273545D01*
X3361943Y6271260D01*
X3357372Y6266687D01*
X3355086Y6262115D01*
X3352800Y6255257D01*
X3352800Y6243828D01*
X3355086Y6236970D01*
X3357372Y6232652D01*
X3361943Y6228079D01*
X3366515Y6225794D01*
X3375406Y6225794D01*
X3379977Y6228079D01*
X3384550Y6232652D01*
X3386836Y6236970D01*
X3386836Y6243828D01*
X3375406Y6243828D02*
G01*
X3386836Y6243828D01*
X3420109Y6273545D02*
G01*
X3401822Y6225794D01*
X3420109Y6273545D02*
G01*
X3438143Y6225794D01*
X3408679Y6241542D02*
G01*
X3431540Y6241542D01*
X3469131Y6273545D02*
G01*
X3469131Y6225794D01*
X3453129Y6273545D02*
G01*
X3485134Y6273545D01*
X3500120Y6273545D02*
G01*
X3500120Y6225794D01*
X3500120Y6273545D02*
G01*
X3529584Y6273545D01*
X3500120Y6250686D02*
G01*
X3518154Y6250686D01*
X3500120Y6225794D02*
G01*
X3529584Y6225794D01*
X11823700Y6641845D02*
G01*
X11823700Y6594094D01*
X11823700Y6641845D02*
G01*
X11839702Y6641845D01*
X11846306Y6639560D01*
X11850877Y6634987D01*
X11853163Y6630415D01*
X11855450Y6623558D01*
X11855450Y6612128D01*
X11853163Y6605270D01*
X11850877Y6600952D01*
X11846306Y6596379D01*
X11839702Y6594094D01*
X11823700Y6594094D01*
X11884152Y6641845D02*
G01*
X11879579Y6639560D01*
X11875008Y6634987D01*
X11872722Y6630415D01*
X11870436Y6623558D01*
X11870436Y6612128D01*
X11872722Y6605270D01*
X11875008Y6600952D01*
X11879579Y6596379D01*
X11884152Y6594094D01*
X11893295Y6594094D01*
X11897868Y6596379D01*
X11902440Y6600952D01*
X11904725Y6605270D01*
X11906758Y6612128D01*
X11906758Y6623558D01*
X11904725Y6630415D01*
X11902440Y6634987D01*
X11897868Y6639560D01*
X11893295Y6641845D01*
X11884152Y6641845D01*
X11891009Y6603237D02*
G01*
X11904725Y6589521D01*
X11819636Y6757415D02*
G01*
X11817350Y6761987D01*
X11812777Y6766560D01*
X11808206Y6768845D01*
X11799315Y6768845D01*
X11794743Y6766560D01*
X11790172Y6761987D01*
X11787886Y6757415D01*
X11785600Y6750558D01*
X11785600Y6739128D01*
X11787886Y6732270D01*
X11790172Y6727952D01*
X11794743Y6723379D01*
X11799315Y6721094D01*
X11808206Y6721094D01*
X11812777Y6723379D01*
X11817350Y6727952D01*
X11819636Y6732270D01*
X11819636Y6739128D01*
X11808206Y6739128D02*
G01*
X11819636Y6739128D01*
X11834622Y6768845D02*
G01*
X11834622Y6721094D01*
X11834622Y6768845D02*
G01*
X11866625Y6721094D01*
X11866625Y6768845D02*
G01*
X11866625Y6721094D01*
X11881611Y6768845D02*
G01*
X11881611Y6721094D01*
X11881611Y6768845D02*
G01*
X11897359Y6768845D01*
X11904218Y6766560D01*
X11908790Y6761987D01*
X11911075Y6757415D01*
X11913361Y6750558D01*
X11913361Y6739128D01*
X11911075Y6732270D01*
X11908790Y6727952D01*
X11904218Y6723379D01*
X11897359Y6721094D01*
X11881611Y6721094D01*
X11772900Y6514845D02*
G01*
X11791188Y6467094D01*
X11809222Y6514845D02*
G01*
X11791188Y6467094D01*
X11858243Y6503415D02*
G01*
X11855958Y6507987D01*
X11851640Y6512560D01*
X11847068Y6514845D01*
X11837924Y6514845D01*
X11833352Y6512560D01*
X11828779Y6507987D01*
X11826493Y6503415D01*
X11824208Y6496557D01*
X11824208Y6485128D01*
X11826493Y6478270D01*
X11828779Y6473952D01*
X11833352Y6469379D01*
X11837924Y6467094D01*
X11847068Y6467094D01*
X11851640Y6469379D01*
X11855958Y6473952D01*
X11858243Y6478270D01*
X11907520Y6503415D02*
G01*
X11905234Y6507987D01*
X11900661Y6512560D01*
X11896090Y6514845D01*
X11886945Y6514845D01*
X11882374Y6512560D01*
X11877802Y6507987D01*
X11875515Y6503415D01*
X11873229Y6496557D01*
X11873229Y6485128D01*
X11875515Y6478270D01*
X11877802Y6473952D01*
X11882374Y6469379D01*
X11886945Y6467094D01*
X11896090Y6467094D01*
X11900661Y6469379D01*
X11905234Y6473952D01*
X11907520Y6478270D01*
X14439900Y1193545D02*
G01*
X14458188Y1145794D01*
X14476222Y1193545D02*
G01*
X14458188Y1145794D01*
X14525243Y1182115D02*
G01*
X14522958Y1186687D01*
X14518640Y1191260D01*
X14514068Y1193545D01*
X14504924Y1193545D01*
X14500352Y1191260D01*
X14495779Y1186687D01*
X14493493Y1182115D01*
X14491208Y1175257D01*
X14491208Y1163828D01*
X14493493Y1156970D01*
X14495779Y1152652D01*
X14500352Y1148079D01*
X14504924Y1145794D01*
X14514068Y1145794D01*
X14518640Y1148079D01*
X14522958Y1152652D01*
X14525243Y1156970D01*
X14574520Y1182115D02*
G01*
X14572234Y1186687D01*
X14567661Y1191260D01*
X14563090Y1193545D01*
X14553945Y1193545D01*
X14549374Y1191260D01*
X14544802Y1186687D01*
X14542516Y1182115D01*
X14540229Y1175257D01*
X14540229Y1163828D01*
X14542516Y1156970D01*
X14544802Y1152652D01*
X14549374Y1148079D01*
X14553945Y1145794D01*
X14563090Y1145794D01*
X14567661Y1148079D01*
X14572234Y1152652D01*
X14574520Y1156970D01*
X9216136Y1156715D02*
G01*
X9213850Y1161287D01*
X9209277Y1165860D01*
X9204706Y1168145D01*
X9195815Y1168145D01*
X9191243Y1165860D01*
X9186672Y1161287D01*
X9184386Y1156715D01*
X9182100Y1149857D01*
X9182100Y1138428D01*
X9184386Y1131570D01*
X9186672Y1127252D01*
X9191243Y1122679D01*
X9195815Y1120394D01*
X9204706Y1120394D01*
X9209277Y1122679D01*
X9213850Y1127252D01*
X9216136Y1131570D01*
X9216136Y1138428D01*
X9204706Y1138428D02*
G01*
X9216136Y1138428D01*
X9231122Y1168145D02*
G01*
X9231122Y1120394D01*
X9231122Y1168145D02*
G01*
X9263125Y1120394D01*
X9263125Y1168145D02*
G01*
X9263125Y1120394D01*
X9278111Y1168145D02*
G01*
X9278111Y1120394D01*
X9278111Y1168145D02*
G01*
X9293859Y1168145D01*
X9300718Y1165860D01*
X9305290Y1161287D01*
X9307575Y1156715D01*
X9309861Y1149857D01*
X9309861Y1138428D01*
X9307575Y1131570D01*
X9305290Y1127252D01*
X9300718Y1122679D01*
X9293859Y1120394D01*
X9278111Y1120394D01*
D11*
X4059021Y6076873D02*
G01*
X4167987Y6035217D01*
X4059021Y6076873D02*
G01*
X4167987Y6118275D01*
X4131665Y6050711D02*
G01*
X4131665Y6102781D01*
X4059021Y6152565D02*
G01*
X4167987Y6152565D01*
X4059021Y6186855D02*
G01*
X4167987Y6186855D01*
X4059021Y6186855D02*
G01*
X4059021Y6233591D01*
X4064101Y6249339D01*
X4069435Y6254419D01*
X4079849Y6259753D01*
X4090263Y6259753D01*
X4100677Y6254419D01*
X4105757Y6249339D01*
X4110837Y6233591D01*
X4110837Y6186855D01*
X4110837Y6223177D02*
G01*
X4167987Y6259753D01*
X4059021Y6330365D02*
G01*
X4167987Y6330365D01*
X4059021Y6294043D02*
G01*
X4059021Y6366687D01*
X4059021Y6442633D02*
G01*
X4167987Y6400977D01*
X4059021Y6442633D02*
G01*
X4167987Y6484035D01*
X4131665Y6416471D02*
G01*
X4131665Y6468541D01*
X4084929Y6596303D02*
G01*
X4074515Y6591223D01*
X4064101Y6580809D01*
X4059021Y6570395D01*
X4059021Y6549567D01*
X4064101Y6539153D01*
X4074515Y6528739D01*
X4084929Y6523659D01*
X4100677Y6518325D01*
X4126585Y6518325D01*
X4142079Y6523659D01*
X4152493Y6528739D01*
X4162907Y6539153D01*
X4167987Y6549567D01*
X4167987Y6570395D01*
X4162907Y6580809D01*
X4152493Y6591223D01*
X4142079Y6596303D01*
X4126585Y6596303D01*
X4126585Y6570395D02*
G01*
X4126585Y6596303D01*
X4038193Y6666915D02*
G01*
X4048607Y6656501D01*
X4064101Y6646087D01*
X4084929Y6635927D01*
X4110837Y6630593D01*
X4131665Y6630593D01*
X4157827Y6635927D01*
X4178401Y6646087D01*
X4194149Y6656501D01*
X4204563Y6666915D01*
X4074515Y6747941D02*
G01*
X4167987Y6747941D01*
X4121251Y6701205D02*
G01*
X4121251Y6794677D01*
X4038193Y6828967D02*
G01*
X4048607Y6839381D01*
X4064101Y6849795D01*
X4084929Y6860209D01*
X4110837Y6865543D01*
X4131665Y6865543D01*
X4157827Y6860209D01*
X4178401Y6849795D01*
X4194149Y6839381D01*
X4204563Y6828967D01*
X4079138Y4480382D02*
G01*
X4188104Y4438726D01*
X4079138Y4480382D02*
G01*
X4188104Y4521784D01*
X4151782Y4454220D02*
G01*
X4151782Y4506290D01*
X4079138Y4556074D02*
G01*
X4188104Y4556074D01*
X4079138Y4590364D02*
G01*
X4188104Y4590364D01*
X4079138Y4590364D02*
G01*
X4079138Y4637100D01*
X4084218Y4652848D01*
X4089552Y4657928D01*
X4099966Y4663262D01*
X4110380Y4663262D01*
X4120794Y4657928D01*
X4125874Y4652848D01*
X4130954Y4637100D01*
X4130954Y4590364D01*
X4130954Y4626686D02*
G01*
X4188104Y4663262D01*
X4079138Y4733874D02*
G01*
X4188104Y4733874D01*
X4079138Y4697552D02*
G01*
X4079138Y4770196D01*
X4079138Y4846142D02*
G01*
X4188104Y4804486D01*
X4079138Y4846142D02*
G01*
X4188104Y4887544D01*
X4151782Y4819980D02*
G01*
X4151782Y4872050D01*
X4105046Y4999812D02*
G01*
X4094632Y4994732D01*
X4084218Y4984318D01*
X4079138Y4973904D01*
X4079138Y4953076D01*
X4084218Y4942662D01*
X4094632Y4932248D01*
X4105046Y4927168D01*
X4120794Y4921834D01*
X4146702Y4921834D01*
X4162196Y4927168D01*
X4172610Y4932248D01*
X4183024Y4942662D01*
X4188104Y4953076D01*
X4188104Y4973904D01*
X4183024Y4984318D01*
X4172610Y4994732D01*
X4162196Y4999812D01*
X4146702Y4999812D01*
X4146702Y4973904D02*
G01*
X4146702Y4999812D01*
X4058310Y5070424D02*
G01*
X4068724Y5060010D01*
X4084218Y5049596D01*
X4105046Y5039436D01*
X4130954Y5034102D01*
X4151782Y5034102D01*
X4177944Y5039436D01*
X4198518Y5049596D01*
X4214266Y5060010D01*
X4224680Y5070424D01*
X4141368Y5104714D02*
G01*
X4141368Y5198186D01*
X4058310Y5232476D02*
G01*
X4068724Y5242890D01*
X4084218Y5253304D01*
X4105046Y5263718D01*
X4130954Y5269052D01*
X4151782Y5269052D01*
X4177944Y5263718D01*
X4198518Y5253304D01*
X4214266Y5242890D01*
X4224680Y5232476D01*
X2539491Y6288278D02*
G01*
X2529077Y6282944D01*
X2518663Y6272529D01*
X2513584Y6262370D01*
X2513584Y6241542D01*
X2518663Y6231128D01*
X2529077Y6220713D01*
X2539491Y6215379D01*
X2555240Y6210300D01*
X2581147Y6210300D01*
X2596641Y6215379D01*
X2607056Y6220713D01*
X2617470Y6231128D01*
X2622550Y6241542D01*
X2622550Y6262370D01*
X2617470Y6272529D01*
X2607056Y6282944D01*
X2596641Y6288278D01*
X2513584Y6363970D02*
G01*
X2622550Y6322568D01*
X2513584Y6363970D02*
G01*
X2622550Y6405626D01*
X2586227Y6338062D02*
G01*
X2586227Y6390131D01*
X2513584Y6439915D02*
G01*
X2622550Y6439915D01*
X2513584Y6439915D02*
G01*
X2513584Y6486652D01*
X2518663Y6502400D01*
X2523997Y6507479D01*
X2534411Y6512560D01*
X2544825Y6512560D01*
X2555240Y6507479D01*
X2560320Y6502400D01*
X2565400Y6486652D01*
X2565400Y6439915D02*
G01*
X2565400Y6486652D01*
X2570734Y6502400D01*
X2575813Y6507479D01*
X2586227Y6512560D01*
X2601975Y6512560D01*
X2612390Y6507479D01*
X2617470Y6502400D01*
X2622550Y6486652D01*
X2622550Y6439915D01*
X2513584Y6546850D02*
G01*
X2622550Y6546850D01*
X2622550Y6546850D02*
G01*
X2622550Y6609334D01*
X2513584Y6643623D02*
G01*
X2622550Y6643623D01*
X2513584Y6643623D02*
G01*
X2513584Y6711187D01*
X2565400Y6643623D02*
G01*
X2565400Y6685279D01*
X2622550Y6643623D02*
G01*
X2622550Y6711187D01*
X2492756Y6781800D02*
G01*
X2503170Y6771386D01*
X2518663Y6760971D01*
X2539491Y6750558D01*
X2565400Y6745478D01*
X2586227Y6745478D01*
X2612390Y6750558D01*
X2632963Y6760971D01*
X2648711Y6771386D01*
X2659125Y6781800D01*
X2529077Y6862826D02*
G01*
X2622550Y6862826D01*
X2575813Y6816089D02*
G01*
X2575813Y6909562D01*
X2492756Y6943852D02*
G01*
X2503170Y6954265D01*
X2518663Y6964679D01*
X2539491Y6975094D01*
X2565400Y6980173D01*
X2586227Y6980173D01*
X2612390Y6975094D01*
X2632963Y6964679D01*
X2648711Y6954265D01*
X2659125Y6943852D01*
X2275077Y5258307D02*
G01*
X2269743Y5268721D01*
X2259329Y5279136D01*
X2249170Y5284215D01*
X2228341Y5284215D01*
X2217927Y5279136D01*
X2207513Y5268721D01*
X2202179Y5258307D01*
X2197100Y5242560D01*
X2197100Y5216652D01*
X2202179Y5201157D01*
X2207513Y5190744D01*
X2217927Y5180329D01*
X2228341Y5175250D01*
X2249170Y5175250D01*
X2259329Y5180329D01*
X2269743Y5190744D01*
X2275077Y5201157D01*
X2350770Y5284215D02*
G01*
X2309368Y5175250D01*
X2350770Y5284215D02*
G01*
X2392425Y5175250D01*
X2324861Y5211571D02*
G01*
X2376931Y5211571D01*
X2426715Y5284215D02*
G01*
X2426715Y5175250D01*
X2426715Y5284215D02*
G01*
X2473452Y5284215D01*
X2489200Y5279136D01*
X2494279Y5273802D01*
X2499359Y5263387D01*
X2499359Y5252973D01*
X2494279Y5242560D01*
X2489200Y5237479D01*
X2473452Y5232400D01*
X2426715Y5232400D02*
G01*
X2473452Y5232400D01*
X2489200Y5227065D01*
X2494279Y5221986D01*
X2499359Y5211571D01*
X2499359Y5195823D01*
X2494279Y5185410D01*
X2489200Y5180329D01*
X2473452Y5175250D01*
X2426715Y5175250D01*
X2533650Y5284215D02*
G01*
X2533650Y5175250D01*
X2533650Y5175250D02*
G01*
X2596134Y5175250D01*
X2630424Y5284215D02*
G01*
X2630424Y5175250D01*
X2630424Y5284215D02*
G01*
X2697988Y5284215D01*
X2630424Y5232400D02*
G01*
X2672079Y5232400D01*
X2630424Y5175250D02*
G01*
X2697988Y5175250D01*
X2768600Y5305044D02*
G01*
X2758186Y5294629D01*
X2747772Y5279136D01*
X2737358Y5258307D01*
X2732277Y5232400D01*
X2732277Y5211571D01*
X2737358Y5185410D01*
X2747772Y5164836D01*
X2758186Y5149087D01*
X2768600Y5138673D01*
X2802890Y5221986D02*
G01*
X2896361Y5221986D01*
X2930652Y5305044D02*
G01*
X2941065Y5294629D01*
X2951479Y5279136D01*
X2961893Y5258307D01*
X2966974Y5232400D01*
X2966974Y5211571D01*
X2961893Y5185410D01*
X2951479Y5164836D01*
X2941065Y5149087D01*
X2930652Y5138673D01*
X5485384Y6093432D02*
G01*
X5490463Y6083018D01*
X5500877Y6072604D01*
X5511291Y6067270D01*
X5527040Y6062190D01*
X5552947Y6062190D01*
X5568441Y6067270D01*
X5578856Y6072604D01*
X5589270Y6083018D01*
X5594350Y6093432D01*
X5594350Y6114260D01*
X5589270Y6124420D01*
X5578856Y6134834D01*
X5568441Y6140168D01*
X5552947Y6145248D01*
X5527040Y6145248D01*
X5511291Y6140168D01*
X5500877Y6134834D01*
X5490463Y6124420D01*
X5485384Y6114260D01*
X5485384Y6093432D01*
X5485384Y6179538D02*
G01*
X5563361Y6179538D01*
X5578856Y6184872D01*
X5589270Y6195286D01*
X5594350Y6210780D01*
X5594350Y6221194D01*
X5589270Y6236688D01*
X5578856Y6247102D01*
X5563361Y6252436D01*
X5485384Y6252436D01*
X5485384Y6323048D02*
G01*
X5594350Y6323048D01*
X5485384Y6286726D02*
G01*
X5485384Y6359370D01*
X5485384Y6393660D02*
G01*
X5594350Y6393660D01*
X5485384Y6393660D02*
G01*
X5485384Y6440396D01*
X5490463Y6455890D01*
X5495797Y6461224D01*
X5506211Y6466304D01*
X5521706Y6466304D01*
X5532120Y6461224D01*
X5537200Y6455890D01*
X5542534Y6440396D01*
X5542534Y6393660D01*
X5485384Y6500594D02*
G01*
X5563361Y6500594D01*
X5578856Y6505928D01*
X5589270Y6516342D01*
X5594350Y6531836D01*
X5594350Y6542250D01*
X5589270Y6557744D01*
X5578856Y6568158D01*
X5563361Y6573492D01*
X5485384Y6573492D01*
X5485384Y6644104D02*
G01*
X5594350Y6644104D01*
X5485384Y6607782D02*
G01*
X5485384Y6680426D01*
X5464556Y6751038D02*
G01*
X5474970Y6740624D01*
X5490463Y6730210D01*
X5511291Y6720050D01*
X5537200Y6714716D01*
X5558027Y6714716D01*
X5584190Y6720050D01*
X5604763Y6730210D01*
X5620511Y6740624D01*
X5630925Y6751038D01*
X5500877Y6832064D02*
G01*
X5594350Y6832064D01*
X5547613Y6785328D02*
G01*
X5547613Y6878800D01*
X5464556Y6913090D02*
G01*
X5474970Y6923504D01*
X5490463Y6933918D01*
X5511291Y6944332D01*
X5537200Y6949666D01*
X5558027Y6949666D01*
X5584190Y6944332D01*
X5604763Y6933918D01*
X5620511Y6923504D01*
X5630925Y6913090D01*
X5501538Y4393768D02*
G01*
X5506618Y4383354D01*
X5517032Y4372940D01*
X5527446Y4367606D01*
X5543194Y4362526D01*
X5569102Y4362526D01*
X5584596Y4367606D01*
X5595010Y4372940D01*
X5605424Y4383354D01*
X5610504Y4393768D01*
X5610504Y4414596D01*
X5605424Y4424756D01*
X5595010Y4435170D01*
X5584596Y4440504D01*
X5569102Y4445584D01*
X5543194Y4445584D01*
X5527446Y4440504D01*
X5517032Y4435170D01*
X5506618Y4424756D01*
X5501538Y4414596D01*
X5501538Y4393768D01*
X5501538Y4479874D02*
G01*
X5579516Y4479874D01*
X5595010Y4485208D01*
X5605424Y4495622D01*
X5610504Y4511116D01*
X5610504Y4521530D01*
X5605424Y4537024D01*
X5595010Y4547438D01*
X5579516Y4552772D01*
X5501538Y4552772D01*
X5501538Y4623384D02*
G01*
X5610504Y4623384D01*
X5501538Y4587062D02*
G01*
X5501538Y4659706D01*
X5501538Y4693996D02*
G01*
X5610504Y4693996D01*
X5501538Y4693996D02*
G01*
X5501538Y4740732D01*
X5506618Y4756226D01*
X5511952Y4761560D01*
X5522366Y4766640D01*
X5537860Y4766640D01*
X5548274Y4761560D01*
X5553354Y4756226D01*
X5558688Y4740732D01*
X5558688Y4693996D01*
X5501538Y4800930D02*
G01*
X5579516Y4800930D01*
X5595010Y4806264D01*
X5605424Y4816678D01*
X5610504Y4832172D01*
X5610504Y4842586D01*
X5605424Y4858080D01*
X5595010Y4868494D01*
X5579516Y4873828D01*
X5501538Y4873828D01*
X5501538Y4944440D02*
G01*
X5610504Y4944440D01*
X5501538Y4908118D02*
G01*
X5501538Y4980762D01*
X5480710Y5051374D02*
G01*
X5491124Y5040960D01*
X5506618Y5030546D01*
X5527446Y5020386D01*
X5553354Y5015052D01*
X5574182Y5015052D01*
X5600344Y5020386D01*
X5620918Y5030546D01*
X5636666Y5040960D01*
X5647080Y5051374D01*
X5563768Y5085664D02*
G01*
X5563768Y5179136D01*
X5480710Y5213426D02*
G01*
X5491124Y5223840D01*
X5506618Y5234254D01*
X5527446Y5244668D01*
X5553354Y5250002D01*
X5574182Y5250002D01*
X5600344Y5244668D01*
X5620918Y5234254D01*
X5636666Y5223840D01*
X5647080Y5213426D01*
X4544565Y6116271D02*
G01*
X4534151Y6105857D01*
X4529071Y6090363D01*
X4529071Y6069535D01*
X4534151Y6054041D01*
X4544565Y6043627D01*
X4554979Y6043627D01*
X4565393Y6048707D01*
X4570727Y6054041D01*
X4575807Y6064455D01*
X4586221Y6095697D01*
X4591301Y6105857D01*
X4596635Y6111191D01*
X4607049Y6116271D01*
X4622543Y6116271D01*
X4632957Y6105857D01*
X4638037Y6090363D01*
X4638037Y6069535D01*
X4632957Y6054041D01*
X4622543Y6043627D01*
X4529071Y6150561D02*
G01*
X4638037Y6150561D01*
X4529071Y6184851D02*
G01*
X4638037Y6184851D01*
X4529071Y6184851D02*
G01*
X4529071Y6231587D01*
X4534151Y6247335D01*
X4539485Y6252415D01*
X4549899Y6257749D01*
X4560313Y6257749D01*
X4570727Y6252415D01*
X4575807Y6247335D01*
X4580887Y6231587D01*
X4580887Y6184851D01*
X4580887Y6221427D02*
G01*
X4638037Y6257749D01*
X4529071Y6292039D02*
G01*
X4638037Y6292039D01*
X4529071Y6292039D02*
G01*
X4529071Y6359603D01*
X4580887Y6292039D02*
G01*
X4580887Y6333441D01*
X4638037Y6292039D02*
G01*
X4638037Y6359603D01*
X4529071Y6393893D02*
G01*
X4638037Y6393893D01*
X4529071Y6393893D02*
G01*
X4638037Y6466537D01*
X4529071Y6466537D02*
G01*
X4638037Y6466537D01*
X4508243Y6537149D02*
G01*
X4518657Y6526735D01*
X4534151Y6516321D01*
X4554979Y6505907D01*
X4580887Y6500827D01*
X4601715Y6500827D01*
X4627877Y6505907D01*
X4648451Y6516321D01*
X4664199Y6526735D01*
X4674613Y6537149D01*
X4544565Y6618175D02*
G01*
X4638037Y6618175D01*
X4591301Y6571439D02*
G01*
X4591301Y6664911D01*
X4508243Y6699201D02*
G01*
X4518657Y6709615D01*
X4534151Y6720029D01*
X4554979Y6730443D01*
X4580887Y6735777D01*
X4601715Y6735777D01*
X4627877Y6730443D01*
X4648451Y6720029D01*
X4664199Y6709615D01*
X4674613Y6699201D01*
X4555312Y4659198D02*
G01*
X4544898Y4648784D01*
X4539818Y4633290D01*
X4539818Y4612462D01*
X4544898Y4596968D01*
X4555312Y4586554D01*
X4565726Y4586554D01*
X4576140Y4591634D01*
X4581474Y4596968D01*
X4586554Y4607382D01*
X4596968Y4638624D01*
X4602048Y4648784D01*
X4607382Y4654118D01*
X4617796Y4659198D01*
X4633290Y4659198D01*
X4643704Y4648784D01*
X4648784Y4633290D01*
X4648784Y4612462D01*
X4643704Y4596968D01*
X4633290Y4586554D01*
X4539818Y4693488D02*
G01*
X4648784Y4693488D01*
X4539818Y4727778D02*
G01*
X4648784Y4727778D01*
X4539818Y4727778D02*
G01*
X4539818Y4774514D01*
X4544898Y4790262D01*
X4550232Y4795342D01*
X4560646Y4800676D01*
X4571060Y4800676D01*
X4581474Y4795342D01*
X4586554Y4790262D01*
X4591634Y4774514D01*
X4591634Y4727778D01*
X4591634Y4764354D02*
G01*
X4648784Y4800676D01*
X4539818Y4834966D02*
G01*
X4648784Y4834966D01*
X4539818Y4834966D02*
G01*
X4539818Y4902530D01*
X4591634Y4834966D02*
G01*
X4591634Y4876368D01*
X4648784Y4834966D02*
G01*
X4648784Y4902530D01*
X4539818Y4936820D02*
G01*
X4648784Y4936820D01*
X4539818Y4936820D02*
G01*
X4648784Y5009464D01*
X4539818Y5009464D02*
G01*
X4648784Y5009464D01*
X4518990Y5080076D02*
G01*
X4529404Y5069662D01*
X4544898Y5059248D01*
X4565726Y5048834D01*
X4591634Y5043754D01*
X4612462Y5043754D01*
X4638624Y5048834D01*
X4659198Y5059248D01*
X4674946Y5069662D01*
X4685360Y5080076D01*
X4602048Y5114366D02*
G01*
X4602048Y5207838D01*
X4518990Y5242128D02*
G01*
X4529404Y5252542D01*
X4544898Y5262956D01*
X4565726Y5273370D01*
X4591634Y5278704D01*
X4612462Y5278704D01*
X4638624Y5273370D01*
X4659198Y5262956D01*
X4674946Y5252542D01*
X4685360Y5242128D01*
X5034353Y6067249D02*
G01*
X5143319Y6067249D01*
X5034353Y6030927D02*
G01*
X5034353Y6103571D01*
X5034353Y6169103D02*
G01*
X5039433Y6158689D01*
X5049847Y6148275D01*
X5060261Y6143195D01*
X5076009Y6137861D01*
X5101917Y6137861D01*
X5117411Y6143195D01*
X5127825Y6148275D01*
X5138239Y6158689D01*
X5143319Y6169103D01*
X5143319Y6189931D01*
X5138239Y6200345D01*
X5127825Y6210759D01*
X5117411Y6215839D01*
X5101917Y6221173D01*
X5076009Y6221173D01*
X5060261Y6215839D01*
X5049847Y6210759D01*
X5039433Y6200345D01*
X5034353Y6189931D01*
X5034353Y6169103D01*
X5034353Y6255463D02*
G01*
X5143319Y6255463D01*
X5034353Y6255463D02*
G01*
X5034353Y6302199D01*
X5039433Y6317693D01*
X5044767Y6323027D01*
X5055181Y6328107D01*
X5065595Y6328107D01*
X5076009Y6323027D01*
X5081089Y6317693D01*
X5086169Y6302199D01*
X5086169Y6255463D01*
X5086169Y6291785D02*
G01*
X5143319Y6328107D01*
X5060261Y6440375D02*
G01*
X5049847Y6435041D01*
X5039433Y6424627D01*
X5034353Y6414467D01*
X5034353Y6393639D01*
X5039433Y6383225D01*
X5049847Y6372811D01*
X5060261Y6367477D01*
X5076009Y6362397D01*
X5101917Y6362397D01*
X5117411Y6367477D01*
X5127825Y6372811D01*
X5138239Y6383225D01*
X5143319Y6393639D01*
X5143319Y6414467D01*
X5138239Y6424627D01*
X5127825Y6435041D01*
X5117411Y6440375D01*
X5034353Y6474665D02*
G01*
X5143319Y6474665D01*
X5034353Y6547309D02*
G01*
X5143319Y6547309D01*
X5086169Y6474665D02*
G01*
X5086169Y6547309D01*
X5013525Y6617921D02*
G01*
X5023939Y6607507D01*
X5039433Y6597347D01*
X5060261Y6586933D01*
X5086169Y6581599D01*
X5106997Y6581599D01*
X5133159Y6586933D01*
X5153733Y6597347D01*
X5169481Y6607507D01*
X5179895Y6617921D01*
X5049847Y6698947D02*
G01*
X5143319Y6698947D01*
X5096583Y6652211D02*
G01*
X5096583Y6745937D01*
X5013525Y6780227D02*
G01*
X5023939Y6790387D01*
X5039433Y6800801D01*
X5060261Y6811215D01*
X5086169Y6816549D01*
X5106997Y6816549D01*
X5133159Y6811215D01*
X5153733Y6800801D01*
X5169481Y6790387D01*
X5179895Y6780227D01*
X4993538Y4538548D02*
G01*
X5102504Y4538548D01*
X4993538Y4502226D02*
G01*
X4993538Y4574870D01*
X4993538Y4640402D02*
G01*
X4998618Y4629988D01*
X5009032Y4619574D01*
X5019446Y4614494D01*
X5035194Y4609160D01*
X5061102Y4609160D01*
X5076596Y4614494D01*
X5087010Y4619574D01*
X5097424Y4629988D01*
X5102504Y4640402D01*
X5102504Y4661230D01*
X5097424Y4671644D01*
X5087010Y4682058D01*
X5076596Y4687138D01*
X5061102Y4692472D01*
X5035194Y4692472D01*
X5019446Y4687138D01*
X5009032Y4682058D01*
X4998618Y4671644D01*
X4993538Y4661230D01*
X4993538Y4640402D01*
X4993538Y4726762D02*
G01*
X5102504Y4726762D01*
X4993538Y4726762D02*
G01*
X4993538Y4773498D01*
X4998618Y4788992D01*
X5003952Y4794326D01*
X5014366Y4799406D01*
X5024780Y4799406D01*
X5035194Y4794326D01*
X5040274Y4788992D01*
X5045354Y4773498D01*
X5045354Y4726762D01*
X5045354Y4763084D02*
G01*
X5102504Y4799406D01*
X5019446Y4911674D02*
G01*
X5009032Y4906340D01*
X4998618Y4895926D01*
X4993538Y4885766D01*
X4993538Y4864938D01*
X4998618Y4854524D01*
X5009032Y4844110D01*
X5019446Y4838776D01*
X5035194Y4833696D01*
X5061102Y4833696D01*
X5076596Y4838776D01*
X5087010Y4844110D01*
X5097424Y4854524D01*
X5102504Y4864938D01*
X5102504Y4885766D01*
X5097424Y4895926D01*
X5087010Y4906340D01*
X5076596Y4911674D01*
X4993538Y4945964D02*
G01*
X5102504Y4945964D01*
X4993538Y5018608D02*
G01*
X5102504Y5018608D01*
X5045354Y4945964D02*
G01*
X5045354Y5018608D01*
X4972710Y5089220D02*
G01*
X4983124Y5078806D01*
X4998618Y5068646D01*
X5019446Y5058232D01*
X5045354Y5052898D01*
X5066182Y5052898D01*
X5092344Y5058232D01*
X5112918Y5068646D01*
X5128666Y5078806D01*
X5139080Y5089220D01*
X5055768Y5123510D02*
G01*
X5055768Y5217236D01*
X4972710Y5251526D02*
G01*
X4983124Y5261686D01*
X4998618Y5272100D01*
X5019446Y5282514D01*
X5045354Y5287848D01*
X5066182Y5287848D01*
X5092344Y5282514D01*
X5112918Y5272100D01*
X5128666Y5261686D01*
X5139080Y5251526D01*
X9056115Y1701800D02*
G01*
X8947150Y1701800D01*
X9056115Y1701800D02*
G01*
X9056115Y1655063D01*
X9051036Y1639570D01*
X9045702Y1634236D01*
X9035288Y1629155D01*
X9024874Y1629155D01*
X9014459Y1634236D01*
X9009379Y1639570D01*
X9004300Y1655063D01*
X9004300Y1701800D02*
G01*
X9004300Y1655063D01*
X8998965Y1639570D01*
X8993886Y1634236D01*
X8983472Y1629155D01*
X8967724Y1629155D01*
X8957309Y1634236D01*
X8952229Y1639570D01*
X8947150Y1655063D01*
X8947150Y1701800D01*
X9056115Y1553210D02*
G01*
X8947150Y1594865D01*
X9056115Y1553210D02*
G01*
X8947150Y1511554D01*
X8983472Y1579118D02*
G01*
X8983472Y1527302D01*
X9056115Y1440942D02*
G01*
X8947150Y1440942D01*
X9056115Y1477263D02*
G01*
X9056115Y1404620D01*
X9056115Y1334007D02*
G01*
X8947150Y1334007D01*
X9056115Y1370329D02*
G01*
X9056115Y1297686D01*
X9035288Y1263395D02*
G01*
X9040622Y1252981D01*
X9056115Y1237234D01*
X8947150Y1237234D01*
X1498600Y6757415D02*
G01*
X1498600Y6648450D01*
X1498600Y6757415D02*
G01*
X1534922Y6757415D01*
X1550670Y6752336D01*
X1560829Y6741921D01*
X1566163Y6731508D01*
X1571243Y6715760D01*
X1571243Y6689852D01*
X1566163Y6674358D01*
X1560829Y6663944D01*
X1550670Y6653529D01*
X1534922Y6648450D01*
X1498600Y6648450D01*
X1642109Y6778244D02*
G01*
X1631695Y6767829D01*
X1621281Y6752336D01*
X1610868Y6731508D01*
X1605534Y6705600D01*
X1605534Y6684771D01*
X1610868Y6658610D01*
X1621281Y6638036D01*
X1631695Y6622287D01*
X1642109Y6611873D01*
X1676400Y6757415D02*
G01*
X1676400Y6648450D01*
X1676400Y6757415D02*
G01*
X1723136Y6757415D01*
X1738629Y6752336D01*
X1743709Y6747002D01*
X1749043Y6736587D01*
X1749043Y6721094D01*
X1743709Y6710679D01*
X1738629Y6705600D01*
X1723136Y6700265D01*
X1676400Y6700265D01*
X1783334Y6778244D02*
G01*
X1793747Y6767829D01*
X1804161Y6752336D01*
X1814575Y6731508D01*
X1819656Y6705600D01*
X1819656Y6684771D01*
X1814575Y6658610D01*
X1804161Y6638036D01*
X1793747Y6622287D01*
X1783334Y6611873D01*
X12944754Y6027242D02*
G01*
X12944754Y5918276D01*
X12944754Y6027242D02*
G01*
X13012318Y6027242D01*
X12944754Y5975426D02*
G01*
X12986410Y5975426D01*
X13046608Y6006414D02*
G01*
X13057022Y6011748D01*
X13072516Y6027242D01*
X13072516Y5918276D01*
X13143128Y6048070D02*
G01*
X13132714Y6037656D01*
X13122554Y6022162D01*
X13112140Y6001334D01*
X13106806Y5975426D01*
X13106806Y5954598D01*
X13112140Y5928436D01*
X13122554Y5907862D01*
X13132714Y5892114D01*
X13143128Y5881700D01*
X13177418Y6006414D02*
G01*
X13187832Y6011748D01*
X13203580Y6027242D01*
X13203580Y5918276D01*
X13237870Y6048070D02*
G01*
X13248284Y6037656D01*
X13258444Y6022162D01*
X13268858Y6001334D01*
X13274192Y5975426D01*
X13274192Y5954598D01*
X13268858Y5928436D01*
X13258444Y5907862D01*
X13248284Y5892114D01*
X13237870Y5881700D01*
X10442854Y6014542D02*
G01*
X10442854Y5905576D01*
X10442854Y6014542D02*
G01*
X10510418Y6014542D01*
X10442854Y5962726D02*
G01*
X10484510Y5962726D01*
X10544708Y5993714D02*
G01*
X10555122Y5999048D01*
X10570616Y6014542D01*
X10570616Y5905576D01*
X10641228Y6035370D02*
G01*
X10630814Y6024956D01*
X10620654Y6009462D01*
X10610240Y5988634D01*
X10604906Y5962726D01*
X10604906Y5941898D01*
X10610240Y5915736D01*
X10620654Y5895162D01*
X10630814Y5879414D01*
X10641228Y5869000D01*
X10680852Y5988634D02*
G01*
X10680852Y5993714D01*
X10685932Y6004128D01*
X10691266Y6009462D01*
X10701680Y6014542D01*
X10722254Y6014542D01*
X10732668Y6009462D01*
X10738002Y6004128D01*
X10743082Y5993714D01*
X10743082Y5983300D01*
X10738002Y5972886D01*
X10727588Y5957392D01*
X10675518Y5905576D01*
X10748416Y5905576D01*
X10782706Y6035370D02*
G01*
X10793120Y6024956D01*
X10803534Y6009462D01*
X10813694Y5988634D01*
X10819028Y5962726D01*
X10819028Y5941898D01*
X10813694Y5915736D01*
X10803534Y5895162D01*
X10793120Y5879414D01*
X10782706Y5869000D01*
X13351154Y6039942D02*
G01*
X13351154Y5930976D01*
X13351154Y6039942D02*
G01*
X13418718Y6039942D01*
X13351154Y5988126D02*
G01*
X13392810Y5988126D01*
X13458088Y6014034D02*
G01*
X13458088Y6019114D01*
X13463422Y6029528D01*
X13468502Y6034862D01*
X13478916Y6039942D01*
X13499744Y6039942D01*
X13510158Y6034862D01*
X13515238Y6029528D01*
X13520572Y6019114D01*
X13520572Y6008700D01*
X13515238Y5998286D01*
X13504824Y5982792D01*
X13453008Y5930976D01*
X13525652Y5930976D01*
X13596264Y6060770D02*
G01*
X13586104Y6050356D01*
X13575690Y6034862D01*
X13565276Y6014034D01*
X13559942Y5988126D01*
X13559942Y5967298D01*
X13565276Y5941136D01*
X13575690Y5920562D01*
X13586104Y5904814D01*
X13596264Y5894400D01*
X13630554Y6019114D02*
G01*
X13640968Y6024448D01*
X13656716Y6039942D01*
X13656716Y5930976D01*
X13691006Y6060770D02*
G01*
X13701420Y6050356D01*
X13711834Y6034862D01*
X13721994Y6014034D01*
X13727328Y5988126D01*
X13727328Y5967298D01*
X13721994Y5941136D01*
X13711834Y5920562D01*
X13701420Y5904814D01*
X13691006Y5894400D01*
X9972954Y6027242D02*
G01*
X9972954Y5918276D01*
X9972954Y6027242D02*
G01*
X10040518Y6027242D01*
X9972954Y5975426D02*
G01*
X10014610Y5975426D01*
X10079888Y6001334D02*
G01*
X10079888Y6006414D01*
X10085222Y6016828D01*
X10090302Y6022162D01*
X10100716Y6027242D01*
X10121544Y6027242D01*
X10131958Y6022162D01*
X10137038Y6016828D01*
X10142372Y6006414D01*
X10142372Y5996000D01*
X10137038Y5985586D01*
X10126624Y5970092D01*
X10074808Y5918276D01*
X10147452Y5918276D01*
X10218064Y6048070D02*
G01*
X10207904Y6037656D01*
X10197490Y6022162D01*
X10187076Y6001334D01*
X10181742Y5975426D01*
X10181742Y5954598D01*
X10187076Y5928436D01*
X10197490Y5907862D01*
X10207904Y5892114D01*
X10218064Y5881700D01*
X10257688Y6001334D02*
G01*
X10257688Y6006414D01*
X10262768Y6016828D01*
X10268102Y6022162D01*
X10278516Y6027242D01*
X10299344Y6027242D01*
X10309504Y6022162D01*
X10314838Y6016828D01*
X10319918Y6006414D01*
X10319918Y5996000D01*
X10314838Y5985586D01*
X10304424Y5970092D01*
X10252354Y5918276D01*
X10325252Y5918276D01*
X10359542Y6048070D02*
G01*
X10369956Y6037656D01*
X10380370Y6022162D01*
X10390784Y6001334D01*
X10395864Y5975426D01*
X10395864Y5954598D01*
X10390784Y5928436D01*
X10380370Y5907862D01*
X10369956Y5892114D01*
X10359542Y5881700D01*
X13995400Y1423415D02*
G01*
X13995400Y1314450D01*
X14068043Y1423415D02*
G01*
X14068043Y1314450D01*
X13995400Y1371600D02*
G01*
X14068043Y1371600D01*
X14102334Y1402587D02*
G01*
X14112747Y1407921D01*
X14128495Y1423415D01*
X14128495Y1314450D01*
X9626600Y1423415D02*
G01*
X9626600Y1314450D01*
X9699243Y1423415D02*
G01*
X9699243Y1314450D01*
X9626600Y1371600D02*
G01*
X9699243Y1371600D01*
X9738868Y1397507D02*
G01*
X9738868Y1402587D01*
X9743947Y1413002D01*
X9749281Y1418336D01*
X9759695Y1423415D01*
X9780270Y1423415D01*
X9790684Y1418336D01*
X9796018Y1413002D01*
X9801097Y1402587D01*
X9801097Y1392173D01*
X9796018Y1381760D01*
X9785604Y1366265D01*
X9733534Y1314450D01*
X9806431Y1314450D01*
X7444841Y6486829D02*
G01*
X7444841Y6377863D01*
X7517485Y6486829D02*
G01*
X7517485Y6377863D01*
X7444841Y6435013D02*
G01*
X7517485Y6435013D01*
X7562189Y6486829D02*
G01*
X7619339Y6486829D01*
X7588351Y6445173D01*
X7603845Y6445173D01*
X7614259Y6440093D01*
X7619339Y6435013D01*
X7624673Y6419265D01*
X7624673Y6408851D01*
X7619339Y6393357D01*
X7608925Y6382943D01*
X7593431Y6377863D01*
X7577937Y6377863D01*
X7562189Y6382943D01*
X7557109Y6388023D01*
X7551775Y6398437D01*
X7467600Y5474715D02*
G01*
X7467600Y5365750D01*
X7540243Y5474715D02*
G01*
X7540243Y5365750D01*
X7467600Y5422900D02*
G01*
X7540243Y5422900D01*
X7626604Y5474715D02*
G01*
X7574534Y5402071D01*
X7652511Y5402071D01*
X7626604Y5474715D02*
G01*
X7626604Y5365750D01*
X15407538Y5315026D02*
G01*
X15516504Y5315026D01*
X15407538Y5387670D02*
G01*
X15516504Y5387670D01*
X15459354Y5315026D02*
G01*
X15459354Y5387670D01*
X15407538Y5421960D02*
G01*
X15516504Y5448122D01*
X15407538Y5474030D02*
G01*
X15516504Y5448122D01*
X15407538Y5474030D02*
G01*
X15516504Y5499938D01*
X15407538Y5525846D02*
G01*
X15516504Y5499938D01*
X15407538Y5591378D02*
G01*
X15412618Y5575884D01*
X15428366Y5565470D01*
X15454274Y5560136D01*
X15469768Y5560136D01*
X15495930Y5565470D01*
X15511424Y5575884D01*
X15516504Y5591378D01*
X15516504Y5601792D01*
X15511424Y5617286D01*
X15495930Y5627700D01*
X15469768Y5633034D01*
X15454274Y5633034D01*
X15428366Y5627700D01*
X15412618Y5617286D01*
X15407538Y5601792D01*
X15407538Y5591378D01*
X15407538Y5719140D02*
G01*
X15480182Y5667324D01*
X15480182Y5745302D01*
X15407538Y5719140D02*
G01*
X15516504Y5719140D01*
X15407538Y5810580D02*
G01*
X15412618Y5795086D01*
X15428366Y5784672D01*
X15454274Y5779592D01*
X15469768Y5779592D01*
X15495930Y5784672D01*
X15511424Y5795086D01*
X15516504Y5810580D01*
X15516504Y5820994D01*
X15511424Y5836742D01*
X15495930Y5847156D01*
X15469768Y5852236D01*
X15454274Y5852236D01*
X15428366Y5847156D01*
X15412618Y5836742D01*
X15407538Y5820994D01*
X15407538Y5810580D01*
X1207770Y5919215D02*
G01*
X1207770Y5836157D01*
X1202436Y5820410D01*
X1197356Y5815329D01*
X1186941Y5810250D01*
X1176527Y5810250D01*
X1166113Y5815329D01*
X1160779Y5820410D01*
X1155700Y5836157D01*
X1155700Y5846571D01*
X1242059Y5898387D02*
G01*
X1252220Y5903721D01*
X1267968Y5919215D01*
X1267968Y5810250D01*
X3595370Y6008115D02*
G01*
X3595370Y5925057D01*
X3590036Y5909310D01*
X3584956Y5904229D01*
X3574541Y5899150D01*
X3564127Y5899150D01*
X3553713Y5904229D01*
X3548379Y5909310D01*
X3543300Y5925057D01*
X3543300Y5935471D01*
X3634740Y5982207D02*
G01*
X3634740Y5987287D01*
X3639820Y5997702D01*
X3645154Y6003036D01*
X3655568Y6008115D01*
X3676395Y6008115D01*
X3686809Y6003036D01*
X3691890Y5997702D01*
X3696970Y5987287D01*
X3696970Y5976873D01*
X3691890Y5966460D01*
X3681475Y5950965D01*
X3629659Y5899150D01*
X3702304Y5899150D01*
X3595370Y5449315D02*
G01*
X3595370Y5366257D01*
X3590036Y5350510D01*
X3584956Y5345429D01*
X3574541Y5340350D01*
X3564127Y5340350D01*
X3553713Y5345429D01*
X3548379Y5350510D01*
X3543300Y5366257D01*
X3543300Y5376671D01*
X3639820Y5449315D02*
G01*
X3696970Y5449315D01*
X3665981Y5407660D01*
X3681475Y5407660D01*
X3691890Y5402579D01*
X3696970Y5397500D01*
X3702304Y5381752D01*
X3702304Y5371337D01*
X3696970Y5355844D01*
X3686809Y5345429D01*
X3671061Y5340350D01*
X3655568Y5340350D01*
X3639820Y5345429D01*
X3634740Y5350510D01*
X3629659Y5360923D01*
X9555124Y6852742D02*
G01*
X9555124Y6769684D01*
X9549790Y6753936D01*
X9544710Y6748856D01*
X9534296Y6743776D01*
X9523882Y6743776D01*
X9513468Y6748856D01*
X9508134Y6753936D01*
X9503054Y6769684D01*
X9503054Y6780098D01*
X9641230Y6852742D02*
G01*
X9589414Y6780098D01*
X9667138Y6780098D01*
X9641230Y6852742D02*
G01*
X9641230Y6743776D01*
X10444124Y6840042D02*
G01*
X10444124Y6756984D01*
X10438790Y6741236D01*
X10433710Y6736156D01*
X10423296Y6731076D01*
X10412882Y6731076D01*
X10402468Y6736156D01*
X10397134Y6741236D01*
X10392054Y6756984D01*
X10392054Y6767398D01*
X10540644Y6840042D02*
G01*
X10488574Y6840042D01*
X10483494Y6793306D01*
X10488574Y6798386D01*
X10504322Y6803720D01*
X10519816Y6803720D01*
X10535564Y6798386D01*
X10545724Y6788226D01*
X10551058Y6772478D01*
X10551058Y6762064D01*
X10545724Y6746570D01*
X10535564Y6736156D01*
X10519816Y6731076D01*
X10504322Y6731076D01*
X10488574Y6736156D01*
X10483494Y6741236D01*
X10478414Y6751650D01*
X3067278Y6820941D02*
G01*
X3067278Y6711975D01*
X3067278Y6820941D02*
G01*
X3108934Y6711975D01*
X3150336Y6820941D02*
G01*
X3108934Y6711975D01*
X3150336Y6820941D02*
G01*
X3150336Y6711975D01*
X3215868Y6820941D02*
G01*
X3205454Y6815861D01*
X3195040Y6805447D01*
X3189960Y6795033D01*
X3184626Y6779285D01*
X3184626Y6753377D01*
X3189960Y6737883D01*
X3195040Y6727469D01*
X3205454Y6717055D01*
X3215868Y6711975D01*
X3236696Y6711975D01*
X3247110Y6717055D01*
X3257524Y6727469D01*
X3262604Y6737883D01*
X3267938Y6753377D01*
X3267938Y6779285D01*
X3262604Y6795033D01*
X3257524Y6805447D01*
X3247110Y6815861D01*
X3236696Y6820941D01*
X3215868Y6820941D01*
X3374872Y6805447D02*
G01*
X3364458Y6815861D01*
X3348964Y6820941D01*
X3328136Y6820941D01*
X3312388Y6815861D01*
X3302228Y6805447D01*
X3302228Y6795033D01*
X3307308Y6784619D01*
X3312388Y6779285D01*
X3322802Y6774205D01*
X3354044Y6763791D01*
X3364458Y6758711D01*
X3369538Y6753377D01*
X3374872Y6742963D01*
X3374872Y6727469D01*
X3364458Y6717055D01*
X3348964Y6711975D01*
X3328136Y6711975D01*
X3312388Y6717055D01*
X3302228Y6727469D01*
X3409162Y6820941D02*
G01*
X3409162Y6711975D01*
X3409162Y6820941D02*
G01*
X3476726Y6820941D01*
X3409162Y6769125D02*
G01*
X3450818Y6769125D01*
X3511016Y6820941D02*
G01*
X3511016Y6711975D01*
X3511016Y6820941D02*
G01*
X3578580Y6820941D01*
X3511016Y6769125D02*
G01*
X3552418Y6769125D01*
X3511016Y6711975D02*
G01*
X3578580Y6711975D01*
X3649192Y6820941D02*
G01*
X3649192Y6711975D01*
X3612870Y6820941D02*
G01*
X3685514Y6820941D01*
X10902441Y5244414D02*
G01*
X10793475Y5244414D01*
X10902441Y5244414D02*
G01*
X10902441Y5197678D01*
X10897361Y5182184D01*
X10892027Y5176850D01*
X10881613Y5171770D01*
X10871200Y5171770D01*
X10860786Y5176850D01*
X10855706Y5182184D01*
X10850625Y5197678D01*
X10850625Y5244414D01*
X10850625Y5208092D02*
G01*
X10793475Y5171770D01*
X10881613Y5137480D02*
G01*
X10886947Y5127066D01*
X10902441Y5111318D01*
X10793475Y5111318D01*
X11827154Y985342D02*
G01*
X11827154Y907364D01*
X11832234Y891870D01*
X11842648Y881456D01*
X11858396Y876376D01*
X11868810Y876376D01*
X11884304Y881456D01*
X11894718Y891870D01*
X11899798Y907364D01*
X11899798Y985342D01*
X11934088Y964514D02*
G01*
X11944502Y969848D01*
X11960250Y985342D01*
X11960250Y876376D01*
X11747500Y6935215D02*
G01*
X11747500Y6857237D01*
X11752579Y6841744D01*
X11762993Y6831329D01*
X11778741Y6826250D01*
X11789156Y6826250D01*
X11804650Y6831329D01*
X11815063Y6841744D01*
X11820143Y6857237D01*
X11820143Y6935215D01*
X11859768Y6909308D02*
G01*
X11859768Y6914387D01*
X11864847Y6924802D01*
X11870181Y6930136D01*
X11880595Y6935215D01*
X11901170Y6935215D01*
X11911584Y6930136D01*
X11916918Y6924802D01*
X11921997Y6914387D01*
X11921997Y6903973D01*
X11916918Y6893560D01*
X11906504Y6878065D01*
X11854434Y6826250D01*
X11927331Y6826250D01*
X12361336Y6935215D02*
G01*
X12361336Y6857237D01*
X12366416Y6841744D01*
X12376830Y6831329D01*
X12392578Y6826250D01*
X12402992Y6826250D01*
X12418486Y6831329D01*
X12428900Y6841744D01*
X12433980Y6857237D01*
X12433980Y6935215D01*
X12478684Y6935215D02*
G01*
X12535834Y6935215D01*
X12504846Y6893560D01*
X12520340Y6893560D01*
X12530754Y6888479D01*
X12535834Y6883400D01*
X12541168Y6867652D01*
X12541168Y6857237D01*
X12535834Y6841744D01*
X12525420Y6831329D01*
X12509926Y6826250D01*
X12494432Y6826250D01*
X12478684Y6831329D01*
X12473604Y6836410D01*
X12468270Y6846823D01*
X12962468Y6935215D02*
G01*
X12962468Y6857237D01*
X12967548Y6841744D01*
X12977962Y6831329D01*
X12993710Y6826250D01*
X13004124Y6826250D01*
X13019618Y6831329D01*
X13030032Y6841744D01*
X13035112Y6857237D01*
X13035112Y6935215D01*
X13121472Y6935215D02*
G01*
X13069402Y6862571D01*
X13147380Y6862571D01*
X13121472Y6935215D02*
G01*
X13121472Y6826250D01*
X13525500Y6922515D02*
G01*
X13525500Y6844537D01*
X13530579Y6829044D01*
X13540993Y6818629D01*
X13556741Y6813550D01*
X13567156Y6813550D01*
X13582650Y6818629D01*
X13593063Y6829044D01*
X13598143Y6844537D01*
X13598143Y6922515D01*
X13694918Y6922515D02*
G01*
X13642847Y6922515D01*
X13637768Y6875779D01*
X13642847Y6880860D01*
X13658595Y6886194D01*
X13674090Y6886194D01*
X13689584Y6880860D01*
X13699997Y6870700D01*
X13705331Y6854952D01*
X13705331Y6844537D01*
X13699997Y6829044D01*
X13689584Y6818629D01*
X13674090Y6813550D01*
X13658595Y6813550D01*
X13642847Y6818629D01*
X13637768Y6823710D01*
X13632434Y6834123D01*
D12*
X4192447Y5815025D02*
G01*
X4192447Y5992825D01*
X4037507Y5992825D01*
X4037507Y5815025D01*
X4192447Y5815025D01*
X4209694Y5315026D02*
G01*
X4209694Y5492826D01*
X4054754Y5492826D01*
X4054754Y5315026D01*
X4209694Y5315026D01*
X2669540Y5981700D02*
G01*
X2669540Y6159500D01*
X2514600Y6159500D01*
X2514600Y5981700D01*
X2669540Y5981700D01*
X2669540Y5334000D02*
G01*
X2669540Y5511800D01*
X2514600Y5511800D01*
X2514600Y5334000D01*
X2669540Y5334000D01*
X5615940Y5816600D02*
G01*
X5615940Y5994400D01*
X5461000Y5994400D01*
X5461000Y5816600D01*
X5615940Y5816600D01*
X5619394Y5315026D02*
G01*
X5619394Y5492826D01*
X5464454Y5492826D01*
X5464454Y5315026D01*
X5619394Y5315026D01*
X4672327Y5815027D02*
G01*
X4672327Y5992827D01*
X4517387Y5992827D01*
X4517387Y5815027D01*
X4672327Y5815027D01*
X4679594Y5315026D02*
G01*
X4679594Y5492826D01*
X4524654Y5492826D01*
X4524654Y5315026D01*
X4679594Y5315026D01*
X5152209Y5815027D02*
G01*
X5152209Y5992827D01*
X4997269Y5992827D01*
X4997269Y5815027D01*
X5152209Y5815027D01*
X5136794Y5315026D02*
G01*
X5136794Y5492826D01*
X4981854Y5492826D01*
X4981854Y5315026D01*
X5136794Y5315026D01*
X2594396Y2095703D02*
G01*
X2797596Y2095703D01*
X2594396Y4025701D02*
G01*
X2797596Y4025701D01*
X7235403Y4127296D02*
G01*
X7235403Y3924096D01*
X7337003Y4025696D02*
G01*
X7133803Y4025696D01*
X7235400Y2197300D02*
G01*
X7235400Y1994100D01*
X7337000Y2095700D02*
G01*
X7133800Y2095700D01*
X8839200Y3060700D02*
G01*
X1079500Y3060700D01*
X8860688Y1055192D02*
G01*
X1070686Y1055192D01*
X1070686Y5066182D01*
X8860688Y5066182D01*
X8860688Y1055192D01*
X1932099Y6585402D02*
G01*
X1382097Y6585402D01*
X1382097Y6165408D02*
G01*
X1932099Y6165408D01*
D13*
X13274954Y781126D02*
G01*
X13287654Y781126D01*
X13287654Y5861126D01*
X13020954Y5861126D01*
X13020954Y781126D01*
X13274954Y781126D01*
X10480954Y5861126D02*
G01*
X10468254Y5861126D01*
X10468254Y781126D01*
X10734954Y781126D01*
X10734954Y5861126D01*
X10480954Y5861126D01*
X13617854Y781126D02*
G01*
X13630554Y781126D01*
X13630554Y5861126D01*
X13363854Y5861126D01*
X13363854Y781126D01*
X13617854Y781126D01*
X10138054Y5861126D02*
G01*
X10125354Y5861126D01*
X10125354Y781126D01*
X10392054Y781126D01*
X10392054Y5861126D01*
X10138054Y5861126D01*
X6898741Y6346113D02*
G01*
X6708241Y6346113D01*
X6708241Y6092113D01*
X8232241Y6092113D01*
X8232241Y6346113D01*
D14*
X8232241Y6346113D02*
G01*
X6898741Y6346113D01*
D13*
X6921500Y5334000D02*
G01*
X6731000Y5334000D01*
X6731000Y5080000D01*
X8255000Y5080000D01*
X8255000Y5334000D01*
D14*
X8255000Y5334000D02*
G01*
X6921500Y5334000D01*
D11*
X11069086Y5223535D02*
G01*
X11069086Y5319422D01*
X10936965Y5319422D01*
X10936965Y5223535D01*
X11069086Y5138293D02*
G01*
X11069086Y5042405D01*
X10936965Y5042405D01*
X10936965Y5138293D01*
D12*
X11965813Y6431409D02*
G01*
X11965813Y6827390D01*
X12562713Y6431409D02*
G01*
X12562713Y6827390D01*
X13172313Y6444109D02*
G01*
X13172313Y6840090D01*
X13743813Y6431409D02*
G01*
X13743813Y6827390D01*
G75*
G01*
X11965686Y6431280D02*
G03*
X11965686Y6827520I149840J198120D01*
G75*
G01*
X12562586Y6431280D02*
G03*
X12562586Y6827520I149840J198120D01*
G75*
G01*
X13172186Y6443980D02*
G03*
X13172186Y6840220I149840J198120D01*
G75*
G01*
X13743686Y6431280D02*
G03*
X13743686Y6827520I149840J198120D01*
G75*
G01
X7377379Y2095703D02*
G03X7377379Y2095703I-141986J0D01*
G75*
G01
X7377379Y4025697D02*
G03X7377379Y4025697I-141986J0D01*
G75*
G01
X2837993Y4025697D02*
G03X2837993Y4025697I-141986J0D01*
G75*
G01
X2837993Y2095703D02*
G03X2837993Y2095703I-141986J0D01*
G75*
G01
X1318819Y6600393D02*
G03X1318819Y6600393I-11709J0D01*
M02*
