M48
METRIC,LZ,000.000
;FILE_FORMAT=3:3
;TYPE=PLATED
;Layer: PTH_Through
;EasyEDA v6.5.9, 2022-08-06 01:20:59
;9b1ba566d4af4bc6ab690ab6380ac67e,c09117847ad249c1abd8b20aa127d3a4,10
;Gerber Generator version 0.2
;Holesize 1 = 0.305 mm
T01C0.305
;Holesize 2 = 0.701 mm
T02C0.701
;Holesize 3 = 0.889 mm
T03C0.889
;Holesize 4 = 0.901 mm
T04C0.901
;Holesize 5 = 0.915 mm
T05C0.915
;Holesize 6 = 1.000 mm
T06C1.000
;Holesize 7 = 1.341 mm
T07C1.341
;Holesize 8 = 1.524 mm
T08C1.524
%
G05
G90
T01
X096901Y032385
X096901Y029845
T02
X137287Y006985
X137287Y005715
X137287Y004445
X131699Y006985
X131699Y005715
X131699Y004445
X125984Y006985
X125984Y005715
X125984Y004445
X120396Y006985
X120396Y005715
X120396Y004445
T03
X103632Y059055
X103632Y056515
X103632Y053975
X103632Y051435
X103632Y048895
X103632Y046355
X103632Y043815
X103632Y041275
X103632Y038735
X103632Y036195
X103632Y033655
X103632Y031115
X103632Y028575
X103632Y026035
X103632Y023495
X103632Y020955
X103632Y018415
X103632Y015875
X103632Y013335
X103632Y010795
X129032Y010795
X129032Y013335
X129032Y015875
X129032Y018415
X129032Y020955
X129032Y023495
X129032Y026035
X129032Y028575
X129032Y031115
X129032Y033655
X129032Y036195
X129032Y038735
X129032Y041275
X129032Y043815
X129032Y046355
X129032Y048895
X129032Y051435
X129032Y053975
X129032Y056515
X129032Y059055
X100076Y059055
X100076Y056515
X100076Y053975
X100076Y051435
X100076Y048895
X100076Y046355
X100076Y043815
X100076Y041275
X100076Y038735
X100076Y036195
X100076Y033655
X100076Y031115
X100076Y028575
X100076Y026035
X100076Y023495
X100076Y020955
X100076Y018415
X100076Y015875
X100076Y013335
X100076Y010795
X132588Y010795
X132588Y013335
X132588Y015875
X132588Y018415
X132588Y020955
X132588Y023495
X132588Y026035
X132588Y028575
X132588Y031115
X132588Y033655
X132588Y036195
X132588Y038735
X132588Y041275
X132588Y043815
X132588Y046355
X132588Y048895
X132588Y051435
X132588Y053975
X132588Y056515
X132588Y059055
X154686Y056769
X154686Y054229
X154686Y051689
X154686Y049149
X154686Y046609
X154686Y044069
X161290Y056642
X161290Y054102
X161290Y051562
X161290Y049022
X161290Y046482
X161290Y043942
T04
X091994Y051506
X091994Y048966
X091994Y046426
X091994Y043886
X091994Y041346
X091994Y038806
X091994Y036266
X091994Y033729
X091994Y031189
X091994Y028649
X091994Y026109
X091994Y023569
X091994Y021029
X091997Y018490
X172997Y038806
X172997Y036266
X172997Y033729
X172997Y031189
T05
X103632Y056515
X103632Y053975
X103632Y051435
X103632Y048895
X103632Y046355
X103632Y043815
X103632Y041275
X103632Y038735
X103632Y036195
X103632Y033655
X103632Y031115
X103632Y028575
X103632Y026035
X103632Y023495
X103632Y020955
X103632Y018415
X103632Y015875
X103632Y013335
X103632Y010795
X129032Y010795
X129032Y013335
X129032Y015875
X129032Y018415
X129032Y020955
X129032Y023495
X129032Y026035
X129032Y028575
X129032Y031115
X129032Y033655
X129032Y036195
X129032Y038735
X129032Y041275
X129032Y043815
X129032Y046355
X129032Y048895
X129032Y051435
X129032Y053975
X129032Y056515
T06
X097028Y056515
X094488Y056515
X091948Y056515
X140843Y056515
X138303Y056515
X135763Y056515
X164592Y058420
X167132Y058420
X169672Y058420
X172212Y058420
X174752Y058420
X013970Y063500
X013970Y066040
X056128Y057460
X056128Y060000
X062103Y059944
X062103Y057404
X090647Y004730
X090647Y007270
X096647Y007239
X096647Y004699
X151384Y041275
X151384Y038735
X151384Y036195
X151384Y033655
X151384Y031115
X151384Y028575
X151384Y026035
X151384Y023495
X147701Y053975
X147701Y051435
X147701Y048895
X147701Y046355
X147701Y043815
X147701Y041275
X147701Y038735
X147701Y036195
X147193Y028829
X147193Y026289
X147193Y023749
X147193Y021209
X147193Y018669
X147193Y016129
X147193Y013589
X147193Y011049
T07
X086223Y019605G85X086223Y018245
X086223Y038905G85X086223Y037545
X013853Y019605G85X013853Y018245
X013853Y038905G85X013853Y037545
X086223Y037545G85X086223Y038905
X086223Y018245G85X086223Y019605
X013853Y037545G85X013853Y038905
X013853Y018245G85X013853Y019605
T08
X049814Y065139
X043815Y050939
X037815Y052939
X049815Y052939
X037816Y065139
M30
