G04 Layer: TopSilkscreenLayer*
G04 EasyEDA v6.5.9, 2022-08-06 01:20:59*
G04 9b1ba566d4af4bc6ab690ab6380ac67e,c09117847ad249c1abd8b20aa127d3a4,10*
G04 Gerber Generator version 0.2*
G04 Scale: 100 percent, Rotated: No, Reflected: No *
G04 Dimensions in millimeters *
G04 leading zeros omitted , absolute positions ,4 integer and 5 decimal *
%FSLAX45Y45*%
%MOMM*%

%ADD10C,0.1000*%
%ADD11C,0.1524*%
%ADD12C,0.2540*%
%ADD13C,0.2032*%
%ADD14C,0.2030*%
%ADD15C,0.3000*%
%ADD16C,0.0105*%

%LPD*%
G36*
X16886986Y6963105D02*
G01*
X16874083Y6962546D01*
X16862552Y6961428D01*
X16857472Y6960616D01*
X16847312Y6958075D01*
X16836440Y6954520D01*
X16825874Y6950100D01*
X16815612Y6944868D01*
X16810583Y6941972D01*
X16800779Y6935520D01*
X16791127Y6928205D01*
X16781780Y6920077D01*
X16772636Y6911035D01*
X16768368Y6906361D01*
X16764203Y6901383D01*
X16756329Y6890613D01*
X16752620Y6884974D01*
X16745864Y6873290D01*
X16740124Y6861403D01*
X16737685Y6855561D01*
X16733723Y6844182D01*
X16732300Y6838746D01*
X16731234Y6833565D01*
X16730573Y6828688D01*
X16730014Y6819493D01*
X16729201Y6815328D01*
X16727932Y6812076D01*
X16726357Y6810248D01*
X16724477Y6810197D01*
X16720718Y6811111D01*
X16715232Y6812788D01*
X16700093Y6818375D01*
X16680942Y6826300D01*
X16649344Y6840016D01*
X16622268Y6851142D01*
X16596258Y6860997D01*
X16583609Y6865467D01*
X16559022Y6873443D01*
X16547033Y6877050D01*
X16529405Y6881825D01*
X16506545Y6887209D01*
X16495318Y6889496D01*
X16484193Y6891477D01*
X16462400Y6894626D01*
X16440912Y6896709D01*
X16425062Y6897573D01*
X16414496Y6897827D01*
X16401186Y6897776D01*
X16385997Y6897217D01*
X16372027Y6896049D01*
X16359124Y6894271D01*
X16347287Y6891832D01*
X16341699Y6890359D01*
X16331184Y6886905D01*
X16326256Y6884924D01*
X16316960Y6880402D01*
X16308273Y6875119D01*
X16300246Y6869074D01*
X16296386Y6865772D01*
X16288054Y6857644D01*
X16280688Y6849160D01*
X16277336Y6844741D01*
X16271443Y6835749D01*
X16268801Y6831075D01*
X16264331Y6821424D01*
X16260775Y6811365D01*
X16259352Y6806133D01*
X16257219Y6795363D01*
X16256457Y6789826D01*
X16255695Y6778294D01*
X16255718Y6771640D01*
X16266363Y6771640D01*
X16266668Y6785000D01*
X16267785Y6797395D01*
X16269716Y6808876D01*
X16270986Y6814261D01*
X16272510Y6819442D01*
X16274237Y6824421D01*
X16276218Y6829145D01*
X16278453Y6833717D01*
X16280892Y6838035D01*
X16283584Y6842201D01*
X16286530Y6846163D01*
X16293134Y6853529D01*
X16300856Y6860184D01*
X16305123Y6863283D01*
X16309644Y6866178D01*
X16319601Y6871563D01*
X16324986Y6874002D01*
X16336670Y6878472D01*
X16349573Y6882384D01*
X16363797Y6885838D01*
X16379240Y6888784D01*
X16390569Y6890512D01*
X16397630Y6890918D01*
X16406571Y6890816D01*
X16418204Y6890207D01*
X16433444Y6888937D01*
X16469207Y6885279D01*
X16478199Y6884060D01*
X16487495Y6882536D01*
X16507053Y6878523D01*
X16527830Y6873392D01*
X16549674Y6867144D01*
X16572433Y6859828D01*
X16595953Y6851548D01*
X16620185Y6842302D01*
X16644924Y6832193D01*
X16670019Y6821220D01*
X16695740Y6809333D01*
X16736009Y6809333D01*
X16736568Y6814261D01*
X16739107Y6827113D01*
X16740733Y6833616D01*
X16742714Y6840169D01*
X16745000Y6846773D01*
X16747591Y6853326D01*
X16753586Y6866331D01*
X16760494Y6878980D01*
X16768216Y6890918D01*
X16772331Y6896608D01*
X16776547Y6901992D01*
X16780916Y6907123D01*
X16785386Y6911949D01*
X16789908Y6916420D01*
X16794480Y6920484D01*
X16799153Y6924192D01*
X16803776Y6927443D01*
X16808450Y6930237D01*
X16821454Y6937044D01*
X16833443Y6942480D01*
X16839184Y6944766D01*
X16850563Y6948424D01*
X16862145Y6951065D01*
X16874388Y6952742D01*
X16887850Y6953554D01*
X16902938Y6953707D01*
X16920514Y6953250D01*
X16935958Y6952386D01*
X16942511Y6951776D01*
X16948454Y6950964D01*
X16954042Y6949948D01*
X16959326Y6948728D01*
X16964558Y6947204D01*
X16975277Y6943191D01*
X16987520Y6937705D01*
X16999000Y6931964D01*
X17010075Y6925767D01*
X17020692Y6919163D01*
X17030852Y6912152D01*
X17040504Y6904736D01*
X17049699Y6897014D01*
X17058335Y6888937D01*
X17066514Y6880504D01*
X17074083Y6871766D01*
X17081195Y6862775D01*
X17087697Y6853478D01*
X17093641Y6843928D01*
X17099026Y6834124D01*
X17103852Y6824167D01*
X17108017Y6813956D01*
X17111624Y6803542D01*
X17114570Y6792975D01*
X17116907Y6782308D01*
X17118584Y6771436D01*
X17119600Y6760514D01*
X17119955Y6749440D01*
X17119600Y6738315D01*
X17119092Y6731711D01*
X17118330Y6725208D01*
X17117314Y6718757D01*
X17114570Y6706108D01*
X17110913Y6693814D01*
X17106341Y6681927D01*
X17103750Y6676186D01*
X17097908Y6665061D01*
X17091202Y6654546D01*
X17087596Y6649466D01*
X17079722Y6639814D01*
X17071136Y6630873D01*
X17061789Y6622694D01*
X17056862Y6618833D01*
X17046549Y6611823D01*
X17030293Y6601815D01*
X16964253Y6653631D01*
X16940326Y6671868D01*
X16912336Y6692798D01*
X16904360Y6699605D01*
X16898975Y6705041D01*
X16897045Y6708394D01*
X16897908Y6710934D01*
X16904360Y6724040D01*
X16915942Y6745630D01*
X16931284Y6773164D01*
X16963796Y6830669D01*
X16975378Y6851751D01*
X16981881Y6864146D01*
X16982744Y6866280D01*
X16982592Y6868159D01*
X16982084Y6869328D01*
X16981220Y6869633D01*
X16980001Y6869175D01*
X16978426Y6867855D01*
X16974007Y6862622D01*
X16967809Y6853732D01*
X16959732Y6840931D01*
X16949674Y6824116D01*
X16937380Y6802983D01*
X16885615Y6712254D01*
X16855287Y6730898D01*
X16808094Y6759092D01*
X16768267Y6782562D01*
X16748302Y6794957D01*
X16744137Y6797954D01*
X16740936Y6800596D01*
X16738650Y6802932D01*
X16737177Y6805066D01*
X16736313Y6807200D01*
X16736009Y6809333D01*
X16695740Y6809333D01*
X16720921Y6797040D01*
X16752824Y6780530D01*
X16778173Y6766661D01*
X16796969Y6755892D01*
X16827804Y6737299D01*
X16859707Y6716826D01*
X16879265Y6703771D01*
X16904970Y6685991D01*
X16930116Y6667906D01*
X16954804Y6649466D01*
X16978934Y6630720D01*
X17002506Y6611772D01*
X17021514Y6595922D01*
X17044720Y6595922D01*
X17044822Y6597497D01*
X17045482Y6598869D01*
X17048175Y6601307D01*
X17055185Y6606082D01*
X17065040Y6613499D01*
X17074286Y6621322D01*
X17082871Y6629653D01*
X17090847Y6638442D01*
X17098162Y6647586D01*
X17104766Y6657136D01*
X17110659Y6667042D01*
X17115790Y6677253D01*
X17120209Y6687769D01*
X17124375Y6699351D01*
X17126559Y6704380D01*
X17128794Y6708444D01*
X17131385Y6711746D01*
X17134382Y6714388D01*
X17137989Y6716572D01*
X17142358Y6718503D01*
X17147743Y6720382D01*
X17154347Y6721957D01*
X17163186Y6723227D01*
X17173803Y6724192D01*
X17185741Y6724853D01*
X17198594Y6725107D01*
X17211852Y6725005D01*
X17237760Y6723837D01*
X17244466Y6723176D01*
X17250511Y6722313D01*
X17256201Y6721144D01*
X17261738Y6719671D01*
X17267275Y6717842D01*
X17273066Y6715556D01*
X17286376Y6709511D01*
X17299838Y6702806D01*
X17310608Y6696709D01*
X17320971Y6690156D01*
X17330928Y6683044D01*
X17340478Y6675475D01*
X17349571Y6667500D01*
X17358207Y6659067D01*
X17366386Y6650278D01*
X17374006Y6641185D01*
X17381118Y6631736D01*
X17387722Y6621983D01*
X17393716Y6612026D01*
X17399152Y6601815D01*
X17404029Y6591452D01*
X17408245Y6580886D01*
X17411852Y6570218D01*
X17414798Y6559397D01*
X17417084Y6548577D01*
X17418710Y6537655D01*
X17419574Y6526784D01*
X17419726Y6515912D01*
X17419167Y6505092D01*
X17418608Y6499707D01*
X17417592Y6493408D01*
X17416221Y6486855D01*
X17414443Y6480149D01*
X17412309Y6473342D01*
X17409871Y6466433D01*
X17404130Y6452666D01*
X17397425Y6439306D01*
X17389957Y6426809D01*
X17386046Y6421018D01*
X17382032Y6415582D01*
X17377918Y6410604D01*
X17373803Y6406134D01*
X17369637Y6402222D01*
X17365268Y6398514D01*
X17355616Y6391452D01*
X17344999Y6384899D01*
X17333671Y6378854D01*
X17321834Y6373520D01*
X17309795Y6368999D01*
X17297755Y6365392D01*
X17286020Y6362801D01*
X17256455Y6358839D01*
X17237405Y6385306D01*
X17224044Y6402679D01*
X17207839Y6422694D01*
X17190364Y6443370D01*
X17180560Y6455359D01*
X17173143Y6465011D01*
X17169028Y6471208D01*
X17168469Y6472631D01*
X17168774Y6473393D01*
X17171466Y6476796D01*
X17183658Y6490309D01*
X17203267Y6510832D01*
X17260417Y6568897D01*
X17280940Y6590944D01*
X17288662Y6599681D01*
X17294352Y6606590D01*
X17297755Y6611315D01*
X17298466Y6612737D01*
X17298517Y6613550D01*
X17297908Y6613652D01*
X17296587Y6613042D01*
X17292116Y6609892D01*
X17285360Y6604355D01*
X17266208Y6587185D01*
X17254372Y6576059D01*
X17227753Y6549999D01*
X17159681Y6482080D01*
X17071797Y6564884D01*
X17059402Y6576974D01*
X17051121Y6585712D01*
X17048327Y6589064D01*
X17046397Y6591808D01*
X17045228Y6594094D01*
X17044720Y6595922D01*
X17021514Y6595922D01*
X17042282Y6578041D01*
X17069562Y6553606D01*
X17085411Y6538874D01*
X17110964Y6514185D01*
X17135398Y6489395D01*
X17158665Y6464554D01*
X17180712Y6439763D01*
X17197425Y6419951D01*
X17217136Y6395364D01*
X17231969Y6375857D01*
X17252543Y6346850D01*
X17262043Y6332524D01*
X17276673Y6308953D01*
X17282109Y6299657D01*
X17289780Y6285788D01*
X17296892Y6272174D01*
X17305477Y6254242D01*
X17312995Y6236716D01*
X17319447Y6219545D01*
X17324781Y6202883D01*
X17328083Y6190640D01*
X17331436Y6174790D01*
X17333620Y6159449D01*
X17334484Y6148273D01*
X17334534Y6133947D01*
X17334128Y6126988D01*
X17333366Y6120180D01*
X17332350Y6113576D01*
X17330978Y6107074D01*
X17329251Y6100775D01*
X17327422Y6095492D01*
X17325086Y6090208D01*
X17322292Y6084976D01*
X17319040Y6079744D01*
X17315383Y6074664D01*
X17311370Y6069685D01*
X17307052Y6064859D01*
X17302378Y6060236D01*
X17297501Y6055868D01*
X17292320Y6051702D01*
X17286986Y6047841D01*
X17281499Y6044285D01*
X17275860Y6041085D01*
X17270120Y6038240D01*
X17264329Y6035852D01*
X17258487Y6033871D01*
X17248936Y6031534D01*
X17237913Y6029604D01*
X17225619Y6028182D01*
X17212360Y6027216D01*
X17198289Y6026658D01*
X17183608Y6026607D01*
X17168622Y6027013D01*
X17153534Y6027877D01*
X17138548Y6029147D01*
X17123867Y6030925D01*
X17109744Y6033109D01*
X17096384Y6035700D01*
X17070781Y6041948D01*
X17049902Y6047790D01*
X17028769Y6054344D01*
X17001998Y6063538D01*
X16980357Y6071666D01*
X16953077Y6082792D01*
X16931081Y6092393D01*
X16903446Y6105245D01*
X16881195Y6116218D01*
X16858945Y6127699D01*
X16842232Y6136690D01*
X16814393Y6152337D01*
X16792194Y6165443D01*
X16769994Y6178956D01*
X16753433Y6189421D01*
X16720566Y6211062D01*
X16698823Y6225997D01*
X16671899Y6245199D01*
X16645331Y6264960D01*
X16624401Y6281115D01*
X16593515Y6305956D01*
X16573347Y6322822D01*
X16553586Y6339992D01*
X16534180Y6357315D01*
X16515181Y6374892D01*
X16492067Y6397091D01*
X16474186Y6415024D01*
X16452494Y6437630D01*
X16435781Y6455816D01*
X16419626Y6474104D01*
X16400322Y6497066D01*
X16385590Y6515455D01*
X16371569Y6533845D01*
X16358209Y6552184D01*
X16345611Y6570522D01*
X16333774Y6588810D01*
X16322700Y6607048D01*
X16317468Y6616090D01*
X16305326Y6638645D01*
X16291610Y6666992D01*
X16285362Y6681165D01*
X16280130Y6694322D01*
X16275862Y6706616D01*
X16272510Y6718350D01*
X16269969Y6729831D01*
X16268141Y6741312D01*
X16267023Y6752996D01*
X16266413Y6765239D01*
X16266363Y6771640D01*
X16255718Y6771640D01*
X16256304Y6760057D01*
X16257828Y6747154D01*
X16258895Y6740499D01*
X16261638Y6727190D01*
X16263823Y6718198D01*
X16266312Y6709105D01*
X16269106Y6699910D01*
X16272205Y6690664D01*
X16275608Y6681317D01*
X16283279Y6662420D01*
X16292220Y6643116D01*
X16297097Y6633362D01*
X16307816Y6613601D01*
X16319703Y6593484D01*
X16332809Y6573012D01*
X16347135Y6552285D01*
X16362629Y6531152D01*
X16379342Y6509766D01*
X16397224Y6488023D01*
X16416324Y6465925D01*
X16436594Y6443573D01*
X16458031Y6420866D01*
X16486987Y6391605D01*
X16515638Y6364071D01*
X16534993Y6346139D01*
X16564457Y6319875D01*
X16594378Y6294475D01*
X16624757Y6269939D01*
X16645229Y6254089D01*
X16665854Y6238646D01*
X16686580Y6223609D01*
X16707510Y6208979D01*
X16728490Y6194755D01*
X16760240Y6174282D01*
X16781475Y6161176D01*
X16802862Y6148527D01*
X16829633Y6133388D01*
X16861891Y6116218D01*
X16878046Y6108039D01*
X16899585Y6097574D01*
X16926560Y6085179D01*
X16948150Y6075832D01*
X16981881Y6062218D01*
X17010532Y6051448D01*
X17037354Y6042304D01*
X17062551Y6034735D01*
X17074692Y6031484D01*
X17086529Y6028588D01*
X17098162Y6026048D01*
X17109643Y6023864D01*
X17120920Y6021984D01*
X17143222Y6019190D01*
X17154347Y6018276D01*
X17165421Y6017666D01*
X17176597Y6017310D01*
X17199254Y6017463D01*
X17214392Y6018072D01*
X17230191Y6019139D01*
X17236897Y6019800D01*
X17248530Y6021679D01*
X17253813Y6022898D01*
X17263821Y6026048D01*
X17274184Y6030417D01*
X17307509Y6046673D01*
X17368215Y6004356D01*
X17402962Y5980430D01*
X17427295Y5964072D01*
X17442738Y5954369D01*
X17447666Y5951677D01*
X17450968Y5950204D01*
X17452848Y5949899D01*
X17453305Y5950153D01*
X17453508Y5950610D01*
X17453457Y5951321D01*
X17452949Y5952337D01*
X17450003Y5955842D01*
X17444770Y5961176D01*
X17437506Y5968034D01*
X17417897Y5985357D01*
X17393462Y6005931D01*
X17321834Y6064148D01*
X17332045Y6084570D01*
X17334839Y6090564D01*
X17337074Y6096406D01*
X17338852Y6102451D01*
X17340122Y6109004D01*
X17341037Y6116269D01*
X17341596Y6124549D01*
X17341850Y6134201D01*
X17341697Y6150660D01*
X17341088Y6161074D01*
X17339970Y6171590D01*
X17338294Y6182258D01*
X17336160Y6193078D01*
X17333468Y6204051D01*
X17330216Y6215278D01*
X17326457Y6226657D01*
X17322088Y6238341D01*
X17317212Y6250279D01*
X17311725Y6262522D01*
X17305680Y6275070D01*
X17299025Y6287973D01*
X17291761Y6301232D01*
X17265040Y6347866D01*
X17301514Y6357162D01*
X17314926Y6361125D01*
X17326864Y6365392D01*
X17337684Y6370015D01*
X17347539Y6375298D01*
X17356836Y6381292D01*
X17365878Y6388252D01*
X17374920Y6396228D01*
X17383709Y6404965D01*
X17391583Y6413855D01*
X17398644Y6423152D01*
X17404994Y6432854D01*
X17410531Y6442862D01*
X17415357Y6453174D01*
X17419421Y6463792D01*
X17422774Y6474612D01*
X17425314Y6485686D01*
X17427143Y6496913D01*
X17427803Y6502552D01*
X17428464Y6513982D01*
X17428464Y6525514D01*
X17427651Y6537096D01*
X17426127Y6548729D01*
X17423841Y6560362D01*
X17420844Y6571945D01*
X17417084Y6583476D01*
X17412614Y6594906D01*
X17407382Y6606184D01*
X17401438Y6617309D01*
X17394732Y6628231D01*
X17387316Y6638950D01*
X17379137Y6649415D01*
X17370247Y6659524D01*
X17360900Y6669278D01*
X17351552Y6678218D01*
X17342205Y6686346D01*
X17332706Y6693814D01*
X17323003Y6700570D01*
X17312995Y6706768D01*
X17302632Y6712407D01*
X17291812Y6717538D01*
X17280432Y6722211D01*
X17268444Y6726529D01*
X17256506Y6730288D01*
X17245787Y6732879D01*
X17240554Y6733844D01*
X17229734Y6735013D01*
X17217593Y6735318D01*
X17203115Y6734962D01*
X17185792Y6733946D01*
X17168876Y6732574D01*
X17154398Y6731000D01*
X17144085Y6729425D01*
X17135195Y6727342D01*
X17131944Y6728968D01*
X17130623Y6734809D01*
X17130268Y6752132D01*
X17129455Y6763816D01*
X17127880Y6775500D01*
X17125594Y6787134D01*
X17122546Y6798665D01*
X17118787Y6810095D01*
X17114418Y6821322D01*
X17109338Y6832447D01*
X17103648Y6843318D01*
X17097400Y6853885D01*
X17090542Y6864248D01*
X17083176Y6874256D01*
X17075251Y6883908D01*
X17066818Y6893153D01*
X17057928Y6901992D01*
X17048632Y6910374D01*
X17038878Y6918299D01*
X17028718Y6925665D01*
X17018203Y6932472D01*
X17007332Y6938721D01*
X16996105Y6944309D01*
X16984624Y6949236D01*
X16978782Y6951472D01*
X16968622Y6954570D01*
X16956735Y6957212D01*
X16943578Y6959447D01*
X16929557Y6961174D01*
X16915180Y6962343D01*
X16900804Y6963003D01*
G37*
G36*
X16478199Y6844842D02*
G01*
X16475456Y6843725D01*
X16472052Y6841286D01*
X16467886Y6837527D01*
X16462908Y6832396D01*
X16457777Y6826503D01*
X16453662Y6821068D01*
X16450563Y6816090D01*
X16448430Y6811619D01*
X16447312Y6807657D01*
X16447262Y6804304D01*
X16448278Y6801612D01*
X16450411Y6799630D01*
X16453764Y6799427D01*
X16458387Y6801764D01*
X16463670Y6806031D01*
X16469207Y6811619D01*
X16474338Y6818020D01*
X16478656Y6824573D01*
X16481653Y6830771D01*
X16482720Y6836003D01*
X16482466Y6840220D01*
X16481653Y6843064D01*
X16480231Y6844639D01*
G37*
G36*
X16546271Y6844792D02*
G01*
X16537635Y6829653D01*
X16533215Y6822795D01*
X16527678Y6815328D01*
X16521684Y6808165D01*
X16510660Y6796735D01*
X16505885Y6790842D01*
X16502176Y6785305D01*
X16497960Y6776262D01*
X16496611Y6774027D01*
X16530523Y6774027D01*
X16530624Y6777634D01*
X16531285Y6778802D01*
X16532656Y6777634D01*
X16535095Y6774027D01*
X16536924Y6770725D01*
X16538397Y6766915D01*
X16539362Y6763105D01*
X16539718Y6759752D01*
X16539565Y6756196D01*
X16538956Y6754977D01*
X16537584Y6756196D01*
X16535095Y6759752D01*
X16533317Y6763105D01*
X16531844Y6766915D01*
X16530878Y6770725D01*
X16530523Y6774027D01*
X16496611Y6774027D01*
X16494556Y6770624D01*
X16490238Y6764680D01*
X16481145Y6753961D01*
X16478046Y6749338D01*
X16476472Y6745731D01*
X16476675Y6743598D01*
X16477335Y6742480D01*
X16477081Y6741566D01*
X16475913Y6740956D01*
X16473982Y6740702D01*
X16471849Y6740144D01*
X16470071Y6738620D01*
X16468902Y6736334D01*
X16468039Y6730796D01*
X16466972Y6728510D01*
X16465346Y6726986D01*
X16461689Y6726021D01*
X16460724Y6725005D01*
X16460657Y6724345D01*
X16506545Y6724345D01*
X16506901Y6726986D01*
X16507968Y6728714D01*
X16509441Y6729374D01*
X16511320Y6728815D01*
X16513149Y6727291D01*
X16514673Y6725412D01*
X16515689Y6723329D01*
X16516045Y6721398D01*
X16515689Y6719620D01*
X16514673Y6718198D01*
X16513149Y6717233D01*
X16511320Y6716877D01*
X16509441Y6717487D01*
X16507968Y6719062D01*
X16506901Y6721449D01*
X16506545Y6724345D01*
X16460657Y6724345D01*
X16460571Y6723481D01*
X16462044Y6719824D01*
X16461892Y6718300D01*
X16460927Y6717284D01*
X16457269Y6716369D01*
X16455644Y6714845D01*
X16454577Y6712661D01*
X16453662Y6707022D01*
X16452342Y6703974D01*
X16450360Y6701281D01*
X16445026Y6696608D01*
X16441724Y6692138D01*
X16438473Y6686499D01*
X16432479Y6673799D01*
X16428618Y6667246D01*
X16424401Y6661353D01*
X16416883Y6653377D01*
X16413988Y6649618D01*
X16412006Y6646113D01*
X16410533Y6640779D01*
X16408501Y6637578D01*
X16405504Y6634276D01*
X16398087Y6627977D01*
X16395039Y6624370D01*
X16393007Y6620814D01*
X16391737Y6615226D01*
X16390264Y6613702D01*
X16388029Y6613245D01*
X16382339Y6614566D01*
X16380053Y6614363D01*
X16378529Y6613448D01*
X16377970Y6611772D01*
X16378783Y6607403D01*
X16381018Y6601510D01*
X16384371Y6594551D01*
X16388537Y6587083D01*
X16393210Y6579616D01*
X16398087Y6572605D01*
X16402913Y6566611D01*
X16405474Y6564020D01*
X16420846Y6564020D01*
X16422217Y6569202D01*
X16425976Y6576872D01*
X16431564Y6586067D01*
X16445331Y6605422D01*
X16449751Y6612991D01*
X16451427Y6618173D01*
X16450310Y6620560D01*
X16448125Y6621678D01*
X16446296Y6623354D01*
X16445077Y6625336D01*
X16444620Y6627418D01*
X16445077Y6629095D01*
X16446398Y6629552D01*
X16448532Y6628790D01*
X16452697Y6625945D01*
X16454119Y6625590D01*
X16455745Y6625844D01*
X16457523Y6626707D01*
X16459606Y6628180D01*
X16464635Y6633362D01*
X16471138Y6641846D01*
X16479519Y6654088D01*
X16490086Y6670446D01*
X16510711Y6703822D01*
X16515283Y6710730D01*
X16519702Y6716420D01*
X16523411Y6720230D01*
X16526001Y6721652D01*
X16527678Y6722211D01*
X16529050Y6723735D01*
X16530015Y6726021D01*
X16530726Y6731558D01*
X16531742Y6733844D01*
X16533266Y6735368D01*
X16536974Y6736334D01*
X16538498Y6737451D01*
X16539514Y6739077D01*
X16539870Y6741058D01*
X16540988Y6744665D01*
X16544036Y6750710D01*
X16548557Y6758330D01*
X16554043Y6766763D01*
X16561968Y6777431D01*
X16565321Y6780987D01*
X16568470Y6783578D01*
X16571722Y6785254D01*
X16575227Y6786219D01*
X16579189Y6786625D01*
X16583812Y6786524D01*
X16587469Y6786067D01*
X16591788Y6785000D01*
X16596613Y6783374D01*
X16607180Y6778853D01*
X16618051Y6772960D01*
X16623233Y6769658D01*
X16635171Y6761124D01*
X16640657Y6756857D01*
X16650512Y6748272D01*
X16654983Y6744004D01*
X16662806Y6735419D01*
X16666210Y6731050D01*
X16669257Y6726732D01*
X16672001Y6722364D01*
X16674388Y6717944D01*
X16676420Y6713524D01*
X16678148Y6709105D01*
X16680535Y6700062D01*
X16681196Y6695490D01*
X16681551Y6690918D01*
X16681602Y6686245D01*
X16680637Y6676796D01*
X16679621Y6672021D01*
X16678300Y6667144D01*
X16676674Y6662216D01*
X16672356Y6652209D01*
X16666718Y6641947D01*
X16659758Y6631330D01*
X16651478Y6620459D01*
X16647972Y6616496D01*
X16644010Y6612585D01*
X16639641Y6608724D01*
X16634968Y6605066D01*
X16630091Y6601612D01*
X16625112Y6598462D01*
X16615206Y6593128D01*
X16610431Y6591147D01*
X16606012Y6589623D01*
X16601897Y6588658D01*
X16598239Y6588353D01*
X16595445Y6588658D01*
X16591483Y6589522D01*
X16580866Y6592722D01*
X16567861Y6597497D01*
X16540175Y6609080D01*
X16528745Y6612940D01*
X16524173Y6614109D01*
X16520515Y6614668D01*
X16517874Y6614668D01*
X16516400Y6614058D01*
X16505275Y6599529D01*
X16455745Y6531609D01*
X16438270Y6543497D01*
X16431513Y6548780D01*
X16425976Y6554419D01*
X16422217Y6559702D01*
X16420846Y6564020D01*
X16405474Y6564020D01*
X16407333Y6562140D01*
X16425214Y6547053D01*
X16439438Y6535826D01*
X16444976Y6531762D01*
X16449395Y6528816D01*
X16452646Y6527038D01*
X16454678Y6526428D01*
X16455542Y6526784D01*
X16458692Y6529527D01*
X16463518Y6534861D01*
X16469868Y6542531D01*
X16486428Y6563969D01*
X16506951Y6592011D01*
X16520922Y6611670D01*
X16559072Y6594602D01*
X16570655Y6590284D01*
X16581628Y6587236D01*
X16586860Y6586169D01*
X16591991Y6585458D01*
X16596969Y6585051D01*
X16601846Y6584950D01*
X16606570Y6585203D01*
X16611142Y6585762D01*
X16615663Y6586626D01*
X16620032Y6587845D01*
X16624300Y6589420D01*
X16628465Y6591300D01*
X16632529Y6593484D01*
X16636542Y6596075D01*
X16640403Y6598970D01*
X16644213Y6602222D01*
X16647972Y6605778D01*
X16655237Y6614007D01*
X16658793Y6618630D01*
X16665752Y6628993D01*
X16672458Y6640728D01*
X16680840Y6657441D01*
X16684751Y6665975D01*
X16687596Y6673138D01*
X16689476Y6679488D01*
X16690492Y6685381D01*
X16690797Y6691274D01*
X16690492Y6697675D01*
X16689679Y6704990D01*
X16688917Y6709918D01*
X16686530Y6719722D01*
X16683024Y6729475D01*
X16680891Y6734352D01*
X16675811Y6744055D01*
X16669715Y6753656D01*
X16662603Y6763105D01*
X16658691Y6767830D01*
X16650157Y6777075D01*
X16640657Y6786118D01*
X16630294Y6794957D01*
X16619016Y6803542D01*
X16606824Y6811873D01*
X16593870Y6819900D01*
X16580053Y6827621D01*
G37*
G36*
X16315283Y6768693D02*
G01*
X16314369Y6768236D01*
X16314216Y6766712D01*
X16314826Y6764121D01*
X16316248Y6760413D01*
X16318534Y6755638D01*
X16321684Y6749745D01*
X16326916Y6741464D01*
X16332962Y6733489D01*
X16339108Y6726681D01*
X16344595Y6721957D01*
X16351910Y6717436D01*
X16360140Y6713067D01*
X16368826Y6709105D01*
X16377412Y6705752D01*
X16385235Y6703161D01*
X16391890Y6701586D01*
X16396716Y6701180D01*
X16399154Y6702196D01*
X16398036Y6704634D01*
X16393058Y6708292D01*
X16385082Y6712661D01*
X16367760Y6720230D01*
X16361460Y6723380D01*
X16355822Y6726681D01*
X16350742Y6730238D01*
X16346068Y6734098D01*
X16341750Y6738416D01*
X16337584Y6743242D01*
X16329151Y6754672D01*
X16325240Y6759600D01*
X16321836Y6763512D01*
X16319042Y6766306D01*
X16316807Y6768033D01*
G37*
G36*
X16587469Y6716775D02*
G01*
X16583710Y6716420D01*
X16580713Y6714794D01*
X16578732Y6711899D01*
X16577970Y6707784D01*
X16577665Y6704075D01*
X16576801Y6700875D01*
X16575532Y6698386D01*
X16572179Y6695490D01*
X16570248Y6692442D01*
X16568470Y6688328D01*
X16566997Y6683552D01*
X16566083Y6677406D01*
X16567150Y6672834D01*
X16570553Y6669176D01*
X16576700Y6665722D01*
X16581424Y6663893D01*
X16585996Y6662978D01*
X16590263Y6662826D01*
X16594277Y6663436D01*
X16597934Y6664756D01*
X16601236Y6666687D01*
X16604081Y6669176D01*
X16606469Y6672173D01*
X16608399Y6675577D01*
X16609720Y6679387D01*
X16610482Y6683451D01*
X16610584Y6687820D01*
X16610025Y6692341D01*
X16608755Y6696964D01*
X16606723Y6701637D01*
X16603878Y6706311D01*
X16600119Y6710680D01*
X16595953Y6713931D01*
X16591635Y6715963D01*
G37*
G36*
X16741749Y6712153D02*
G01*
X16739209Y6711391D01*
X16736669Y6709460D01*
X16734434Y6706514D01*
X16732046Y6701129D01*
X16728643Y6694982D01*
X16723106Y6686194D01*
X16707662Y6663486D01*
X16686344Y6634175D01*
X16735094Y6634175D01*
X16736060Y6638696D01*
X16738346Y6642201D01*
X16741190Y6643878D01*
X16743934Y6643014D01*
X16744442Y6641592D01*
X16743984Y6639610D01*
X16742765Y6637274D01*
X16740733Y6634937D01*
X16738447Y6632956D01*
X16736669Y6632143D01*
X16735501Y6632549D01*
X16735094Y6634175D01*
X16686344Y6634175D01*
X16670877Y6614109D01*
X16687850Y6614109D01*
X16687952Y6617411D01*
X16688460Y6619697D01*
X16689273Y6620764D01*
X16690390Y6620357D01*
X16691305Y6618782D01*
X16691660Y6616496D01*
X16691508Y6613906D01*
X16690746Y6611264D01*
X16689679Y6609283D01*
X16688816Y6609181D01*
X16688206Y6610807D01*
X16687850Y6614109D01*
X16670877Y6614109D01*
X16651274Y6587642D01*
X16641114Y6574942D01*
X16637965Y6571538D01*
X16631361Y6563766D01*
X16626078Y6554571D01*
X16623131Y6546088D01*
X16623385Y6540398D01*
X16624198Y6538620D01*
X16624300Y6537299D01*
X16623690Y6536486D01*
X16622369Y6536385D01*
X16613835Y6537045D01*
X16607332Y6535928D01*
X16603573Y6533286D01*
X16603116Y6525717D01*
X16600932Y6520383D01*
X16597071Y6514134D01*
X16588435Y6503771D01*
X16585802Y6500215D01*
X16602710Y6500215D01*
X16602811Y6505295D01*
X16603268Y6508597D01*
X16603980Y6509816D01*
X16604337Y6509359D01*
X16630751Y6509359D01*
X16630802Y6512661D01*
X16631310Y6514947D01*
X16632123Y6516014D01*
X16633240Y6515607D01*
X16634155Y6513982D01*
X16634446Y6512153D01*
X16644619Y6512153D01*
X16644823Y6513982D01*
X16645280Y6515506D01*
X16645940Y6516522D01*
X16646753Y6516878D01*
X16647769Y6516522D01*
X16649090Y6515506D01*
X16651782Y6512153D01*
X16652544Y6510274D01*
X16652392Y6508750D01*
X16651427Y6507734D01*
X16649700Y6507378D01*
X16647718Y6507734D01*
X16646144Y6508750D01*
X16645026Y6510274D01*
X16644619Y6512153D01*
X16634446Y6512153D01*
X16634358Y6509156D01*
X16633596Y6506464D01*
X16632529Y6504533D01*
X16631666Y6504431D01*
X16631056Y6506057D01*
X16630751Y6509359D01*
X16604337Y6509359D01*
X16604894Y6508648D01*
X16605656Y6505702D01*
X16605961Y6502044D01*
X16605757Y6498082D01*
X16605097Y6494373D01*
X16604234Y6492240D01*
X16603472Y6492595D01*
X16602963Y6495338D01*
X16602710Y6500215D01*
X16585802Y6500215D01*
X16583151Y6495948D01*
X16581221Y6491884D01*
X16579799Y6487515D01*
X16579382Y6485534D01*
X16587876Y6485534D01*
X16587978Y6488887D01*
X16588435Y6491173D01*
X16589298Y6492189D01*
X16590365Y6491782D01*
X16591280Y6490208D01*
X16591686Y6487922D01*
X16591483Y6485331D01*
X16590772Y6482689D01*
X16589705Y6480759D01*
X16588841Y6480606D01*
X16588181Y6482232D01*
X16587876Y6485534D01*
X16579382Y6485534D01*
X16578783Y6482689D01*
X16578224Y6477406D01*
X16578072Y6471412D01*
X16578275Y6464655D01*
X16578834Y6457035D01*
X16581069Y6438595D01*
X16582898Y6428740D01*
X16584722Y6423152D01*
X16599255Y6423152D01*
X16599916Y6425641D01*
X16601287Y6428994D01*
X16606012Y6437731D01*
X16612920Y6448247D01*
X16727830Y6603898D01*
X16746524Y6628485D01*
X16760545Y6646214D01*
X16765168Y6651701D01*
X16767962Y6654596D01*
X16768572Y6655003D01*
X16771315Y6653834D01*
X16776344Y6650634D01*
X16782948Y6645909D01*
X16790416Y6640169D01*
X16797477Y6634022D01*
X16803065Y6628333D01*
X16806621Y6623608D01*
X16807586Y6620611D01*
X16804894Y6615582D01*
X16789654Y6591553D01*
X16755567Y6540398D01*
X16726458Y6495846D01*
X16709237Y6470802D01*
X16698417Y6455664D01*
X16688917Y6441389D01*
X16687495Y6438646D01*
X16689882Y6434429D01*
X16695470Y6428790D01*
X16701820Y6423812D01*
X16706545Y6421678D01*
X16708272Y6422136D01*
X16709999Y6423406D01*
X16711523Y6425285D01*
X16713352Y6429298D01*
X16713758Y6429451D01*
X16713555Y6425539D01*
X16713962Y6421628D01*
X16715994Y6416802D01*
X16719296Y6411772D01*
X16723563Y6407048D01*
X16734739Y6396532D01*
X16719854Y6375755D01*
X16713707Y6367678D01*
X16708069Y6361074D01*
X16703497Y6356654D01*
X16700652Y6354978D01*
X16697401Y6355486D01*
X16693337Y6356908D01*
X16688460Y6359245D01*
X16682821Y6362496D01*
X16676573Y6366560D01*
X16669664Y6371488D01*
X16644670Y6391097D01*
X16634561Y6398361D01*
X16625163Y6404660D01*
X16611447Y6412433D01*
X16605961Y6415938D01*
X16601795Y6419138D01*
X16599407Y6421628D01*
X16599255Y6423152D01*
X16584722Y6423152D01*
X16585336Y6421272D01*
X16588282Y6416192D01*
X16591788Y6413703D01*
X16599865Y6410706D01*
X16608856Y6406438D01*
X16618457Y6401054D01*
X16628516Y6394602D01*
X16638930Y6387185D01*
X16658945Y6371488D01*
X16669054Y6363970D01*
X16678554Y6357366D01*
X16686225Y6352489D01*
X16693438Y6348222D01*
X16696232Y6346901D01*
X16698671Y6346240D01*
X16700957Y6346393D01*
X16703294Y6347460D01*
X16705834Y6349542D01*
X16708780Y6352794D01*
X16712336Y6357264D01*
X16740479Y6396837D01*
X16715638Y6468821D01*
X16768572Y6548526D01*
X16788333Y6577787D01*
X16802963Y6598818D01*
X16812615Y6611924D01*
X16815663Y6615633D01*
X16817594Y6617512D01*
X16818864Y6620052D01*
X16818813Y6624726D01*
X16817695Y6630974D01*
X16815612Y6638442D01*
X16812717Y6646519D01*
X16809161Y6654800D01*
X16805148Y6662775D01*
X16800779Y6670040D01*
X16797883Y6673697D01*
X16793921Y6677863D01*
X16789095Y6682333D01*
X16783608Y6687007D01*
X16771518Y6696151D01*
X16765371Y6700418D01*
X16759428Y6704228D01*
X16753890Y6707479D01*
X16748912Y6709968D01*
X16744848Y6711543D01*
G37*
G36*
X16931132Y6554012D02*
G01*
X16928134Y6553403D01*
X16925493Y6551625D01*
X16919295Y6545224D01*
X16909948Y6536029D01*
X16884500Y6512407D01*
X16963694Y6512407D01*
X16964253Y6516014D01*
X16965777Y6516624D01*
X16967911Y6514388D01*
X16970248Y6509512D01*
X16971060Y6506768D01*
X16970959Y6505041D01*
X16970044Y6504431D01*
X16968419Y6505041D01*
X16966590Y6506514D01*
X16965066Y6508394D01*
X16964050Y6510426D01*
X16963694Y6512407D01*
X16884500Y6512407D01*
X16862536Y6493103D01*
X16912386Y6493103D01*
X16912590Y6498894D01*
X16913047Y6502400D01*
X16913758Y6503365D01*
X16914571Y6501434D01*
X16915282Y6497523D01*
X16915485Y6493103D01*
X16915282Y6488633D01*
X16914571Y6484772D01*
X16913758Y6482842D01*
X16913047Y6483756D01*
X16912590Y6487261D01*
X16912386Y6493103D01*
X16862536Y6493103D01*
X16855694Y6487312D01*
X16847870Y6481114D01*
X16845381Y6479387D01*
X16842435Y6478270D01*
X16841114Y6476847D01*
X16840200Y6474764D01*
X16839895Y6472174D01*
X16839228Y6469278D01*
X16893032Y6469278D01*
X16893184Y6473444D01*
X16893692Y6475933D01*
X16894454Y6476593D01*
X16895419Y6475222D01*
X16896181Y6472428D01*
X16896384Y6469278D01*
X16896181Y6466128D01*
X16895419Y6463334D01*
X16894454Y6461963D01*
X16893692Y6462623D01*
X16893184Y6465112D01*
X16893032Y6469278D01*
X16839228Y6469278D01*
X16837761Y6466687D01*
X16835424Y6464350D01*
X16829481Y6460744D01*
X16827754Y6457696D01*
X16827704Y6456832D01*
X16836745Y6456832D01*
X16836898Y6458356D01*
X16837863Y6459372D01*
X16839590Y6459728D01*
X16841571Y6459372D01*
X16843146Y6458356D01*
X16844264Y6456832D01*
X16844619Y6455003D01*
X16844467Y6453124D01*
X16844010Y6451650D01*
X16843349Y6450584D01*
X16842536Y6450228D01*
X16841470Y6450584D01*
X16838828Y6453124D01*
X16837507Y6455003D01*
X16836745Y6456832D01*
X16827704Y6456832D01*
X16827500Y6453225D01*
X16829684Y6441643D01*
X16829735Y6438290D01*
X16828566Y6437122D01*
X16826230Y6437934D01*
X16824299Y6439662D01*
X16823182Y6441795D01*
X16822978Y6444081D01*
X16824756Y6448806D01*
X16823639Y6449364D01*
X16820743Y6448145D01*
X16816374Y6445402D01*
X16810888Y6441338D01*
X16804640Y6436207D01*
X16799263Y6431483D01*
X16811294Y6431483D01*
X16811701Y6433210D01*
X16812717Y6434632D01*
X16814241Y6435598D01*
X16816070Y6435953D01*
X16817898Y6435344D01*
X16819422Y6433769D01*
X16819638Y6433261D01*
X16863669Y6433261D01*
X16864177Y6438188D01*
X16865650Y6440373D01*
X16867835Y6439763D01*
X16870629Y6436258D01*
X16871289Y6434328D01*
X16871137Y6432245D01*
X16870172Y6430365D01*
X16868546Y6428841D01*
X16866666Y6428282D01*
X16865092Y6428892D01*
X16864076Y6430619D01*
X16863669Y6433261D01*
X16819638Y6433261D01*
X16820438Y6431381D01*
X16820845Y6428536D01*
X16820438Y6425895D01*
X16819422Y6424117D01*
X16817898Y6423456D01*
X16816070Y6424015D01*
X16814241Y6425539D01*
X16812717Y6427419D01*
X16811701Y6429502D01*
X16811294Y6431483D01*
X16799263Y6431483D01*
X16790392Y6422948D01*
X16797578Y6422948D01*
X16798645Y6425641D01*
X16801795Y6426403D01*
X16803624Y6425387D01*
X16805046Y6422593D01*
X16805960Y6418427D01*
X16806156Y6414516D01*
X16840809Y6414516D01*
X16840911Y6419596D01*
X16841368Y6422898D01*
X16842079Y6424066D01*
X16842994Y6422948D01*
X16843756Y6420002D01*
X16844010Y6416344D01*
X16843857Y6412382D01*
X16843197Y6408674D01*
X16842333Y6406489D01*
X16841571Y6406896D01*
X16841063Y6409639D01*
X16840809Y6414516D01*
X16806156Y6414516D01*
X16805910Y6406692D01*
X16805249Y6404000D01*
X16803979Y6405118D01*
X16801795Y6409740D01*
X16798645Y6417868D01*
X16797578Y6422948D01*
X16790392Y6422948D01*
X16784574Y6416548D01*
X16779544Y6409842D01*
X16776754Y6404610D01*
X16787876Y6404610D01*
X16787977Y6407912D01*
X16788434Y6410198D01*
X16789298Y6411264D01*
X16790365Y6410858D01*
X16791279Y6409232D01*
X16791686Y6406997D01*
X16791482Y6404356D01*
X16790771Y6401714D01*
X16789704Y6399784D01*
X16788841Y6399631D01*
X16788180Y6401257D01*
X16787876Y6404610D01*
X16776700Y6404508D01*
X16776446Y6401206D01*
X16777207Y6399580D01*
X16777106Y6398717D01*
X16776192Y6398615D01*
X16774464Y6399428D01*
X16772077Y6400038D01*
X16769181Y6399479D01*
X16766235Y6397802D01*
X16760647Y6392519D01*
X16757548Y6390690D01*
X16754449Y6389776D01*
X16749268Y6390386D01*
X16746880Y6389420D01*
X16744797Y6387338D01*
X16743765Y6385560D01*
X16768826Y6385560D01*
X16768927Y6388862D01*
X16769384Y6391148D01*
X16770248Y6392214D01*
X16771315Y6391808D01*
X16772229Y6390182D01*
X16772571Y6388303D01*
X16816832Y6388303D01*
X16817035Y6392468D01*
X16817543Y6395008D01*
X16818305Y6395669D01*
X16819219Y6394297D01*
X16819981Y6391503D01*
X16820235Y6388303D01*
X16819981Y6385153D01*
X16819219Y6382359D01*
X16818305Y6380988D01*
X16817543Y6381648D01*
X16817035Y6384188D01*
X16816832Y6388303D01*
X16772571Y6388303D01*
X16772432Y6385306D01*
X16771721Y6382664D01*
X16770654Y6380734D01*
X16769791Y6380581D01*
X16769181Y6382207D01*
X16768826Y6385560D01*
X16743765Y6385560D01*
X16742968Y6384188D01*
X16741444Y6380124D01*
X16740276Y6375349D01*
X16739412Y6369862D01*
X16738955Y6363919D01*
X16738854Y6357569D01*
X16739260Y6350965D01*
X16740073Y6344259D01*
X16741343Y6337503D01*
X16743172Y6330289D01*
X16745102Y6324193D01*
X16747388Y6318910D01*
X16748680Y6316726D01*
X16758919Y6316726D01*
X16760088Y6319215D01*
X16763288Y6322974D01*
X16768063Y6327394D01*
X16775328Y6333185D01*
X16785844Y6342583D01*
X16802608Y6358432D01*
X16824045Y6379159D01*
X16848480Y6403238D01*
X16874388Y6429146D01*
X16899178Y6453530D01*
X16921124Y6474358D01*
X16938650Y6490309D01*
X16945305Y6496050D01*
X16950385Y6500012D01*
X16953585Y6502095D01*
X16954449Y6502400D01*
X16958106Y6501790D01*
X16962526Y6499961D01*
X16967149Y6497167D01*
X16975988Y6489852D01*
X16981322Y6485788D01*
X16986758Y6482029D01*
X16995394Y6476796D01*
X16996867Y6475476D01*
X16998086Y6473952D01*
X16998950Y6472174D01*
X16999508Y6470040D01*
X16999712Y6467449D01*
X16999559Y6464350D01*
X16999051Y6460693D01*
X16998137Y6456375D01*
X16994987Y6445453D01*
X16990060Y6431026D01*
X16983202Y6412433D01*
X16962983Y6360515D01*
X16945610Y6316573D01*
X16928134Y6273241D01*
X16917263Y6247180D01*
X16908932Y6228080D01*
X16902836Y6215481D01*
X16900601Y6211417D01*
X16898823Y6208826D01*
X16897502Y6207506D01*
X16896994Y6207353D01*
X16894048Y6208776D01*
X16888663Y6212636D01*
X16881602Y6218275D01*
X16873575Y6225235D01*
X16853712Y6243066D01*
X16864380Y6274054D01*
X16866209Y6279946D01*
X16867225Y6284417D01*
X16867378Y6287820D01*
X16866565Y6290513D01*
X16864838Y6292951D01*
X16862145Y6295390D01*
X16849039Y6305245D01*
X16841470Y6310325D01*
X16835272Y6313525D01*
X16830040Y6314897D01*
X16825264Y6314592D01*
X16820591Y6312509D01*
X16815612Y6308801D01*
X16803370Y6297574D01*
X16797426Y6292748D01*
X16792600Y6289497D01*
X16789603Y6288328D01*
X16786606Y6289344D01*
X16782288Y6291986D01*
X16777309Y6295847D01*
X16772026Y6300470D01*
X16767048Y6305346D01*
X16762882Y6309969D01*
X16759986Y6313932D01*
X16758919Y6316726D01*
X16748680Y6316726D01*
X16750182Y6314186D01*
X16753636Y6309715D01*
X16758005Y6305296D01*
X16763390Y6300571D01*
X16793108Y6277711D01*
X16812463Y6296101D01*
X16820692Y6303568D01*
X16826026Y6307531D01*
X16828516Y6308039D01*
X16828109Y6304991D01*
X16825468Y6297574D01*
X16823690Y6291376D01*
X16822826Y6286042D01*
X16822978Y6281115D01*
X16824198Y6276238D01*
X16826484Y6271056D01*
X16829887Y6265164D01*
X16834561Y6258204D01*
X16840809Y6250228D01*
X16849344Y6240830D01*
X16859250Y6230823D01*
X16869816Y6220968D01*
X16880078Y6211976D01*
X16889323Y6204610D01*
X16896638Y6199682D01*
X16899331Y6198311D01*
X16901210Y6197854D01*
X16901871Y6198108D01*
X16903750Y6200444D01*
X16906494Y6205474D01*
X16910253Y6213602D01*
X16921734Y6240983D01*
X16956481Y6328460D01*
X16967149Y6354470D01*
X16973804Y6370015D01*
X17002963Y6442100D01*
X17007840Y6453581D01*
X17010684Y6459728D01*
X17011497Y6464452D01*
X17010532Y6471615D01*
X17007890Y6480759D01*
X17003623Y6491528D01*
X17000372Y6498437D01*
X16997019Y6504533D01*
X16993311Y6510070D01*
X16989196Y6515150D01*
X16984370Y6520078D01*
X16978731Y6524955D01*
X16972076Y6530085D01*
X16953839Y6542582D01*
X16945762Y6547764D01*
X16939514Y6551320D01*
X16934789Y6553352D01*
G37*
G36*
X17101972Y6430314D02*
G01*
X17097349Y6430162D01*
X17092980Y6428587D01*
X17088510Y6425692D01*
X17083633Y6421475D01*
X17079569Y6417310D01*
X17076267Y6413195D01*
X17074032Y6409537D01*
X17072914Y6405219D01*
X17072051Y6404203D01*
X17070781Y6403949D01*
X17067682Y6405016D01*
X17066412Y6404559D01*
X17065548Y6403238D01*
X17064532Y6398107D01*
X17062653Y6393586D01*
X17059757Y6387947D01*
X17051680Y6374434D01*
X17041825Y6359855D01*
X17031817Y6346545D01*
X17027245Y6341059D01*
X17023181Y6336741D01*
X17019828Y6333845D01*
X17015968Y6330950D01*
X17013377Y6328613D01*
X17012259Y6326987D01*
X17012869Y6326428D01*
X17013326Y6325158D01*
X17011904Y6321755D01*
X17008856Y6316675D01*
X16999712Y6304076D01*
X16995851Y6298387D01*
X16993209Y6294018D01*
X16991634Y6290056D01*
X16986961Y6282131D01*
X16971331Y6258102D01*
X16979900Y6258102D01*
X16980560Y6260084D01*
X16983354Y6263589D01*
X16985538Y6264198D01*
X16987012Y6262014D01*
X16987520Y6257086D01*
X16987113Y6254445D01*
X16986097Y6252718D01*
X16984522Y6252108D01*
X16982643Y6252667D01*
X16981017Y6254191D01*
X16980052Y6256070D01*
X16979900Y6258102D01*
X16971331Y6258102D01*
X16953128Y6230924D01*
X16945711Y6219139D01*
X16939463Y6208471D01*
X16934586Y6199479D01*
X16931487Y6192621D01*
X16930624Y6190234D01*
X16930370Y6188506D01*
X16931030Y6182461D01*
X16932859Y6175603D01*
X16935653Y6168390D01*
X16939107Y6161278D01*
X16943019Y6154724D01*
X16945897Y6150864D01*
X16958919Y6150864D01*
X16959326Y6152489D01*
X16960443Y6154318D01*
X16962069Y6156096D01*
X16964050Y6157620D01*
X16965879Y6159855D01*
X16966895Y6163513D01*
X16967047Y6168186D01*
X16966336Y6173368D01*
X16965422Y6178143D01*
X16965320Y6180886D01*
X16965980Y6181496D01*
X16969587Y6177838D01*
X16972076Y6177432D01*
X16974972Y6178753D01*
X16978325Y6181801D01*
X16982135Y6186627D01*
X16986453Y6193231D01*
X16991279Y6201664D01*
X17001591Y6220866D01*
X17006925Y6229299D01*
X17012107Y6236309D01*
X17016425Y6241034D01*
X17019727Y6244234D01*
X17022064Y6247231D01*
X17023232Y6249670D01*
X17022622Y6252616D01*
X17023435Y6254699D01*
X17025213Y6257137D01*
X17030700Y6262522D01*
X17032986Y6265875D01*
X17034560Y6269329D01*
X17035678Y6275222D01*
X17037202Y6277914D01*
X17039488Y6280251D01*
X17045025Y6283452D01*
X17047311Y6285788D01*
X17048835Y6288582D01*
X17049394Y6291427D01*
X17051020Y6295745D01*
X17055338Y6302451D01*
X17061789Y6310579D01*
X17083328Y6334302D01*
X17092625Y6345174D01*
X17100651Y6355232D01*
X17114316Y6373164D01*
X17117872Y6377279D01*
X17119701Y6378803D01*
X17122241Y6377228D01*
X17127931Y6372961D01*
X17145152Y6358890D01*
X17155464Y6349542D01*
X17162322Y6341973D01*
X17165726Y6335979D01*
X17165828Y6331508D01*
X17164507Y6326733D01*
X17163084Y6319215D01*
X17161713Y6310071D01*
X17158512Y6282537D01*
X17152620Y6242151D01*
X17152010Y6234684D01*
X17151908Y6228384D01*
X17152264Y6223609D01*
X17153077Y6220663D01*
X17154245Y6219799D01*
X17155820Y6221272D01*
X17158919Y6228080D01*
X17164202Y6236563D01*
X17172228Y6248095D01*
X17181982Y6261252D01*
X17192294Y6274663D01*
X17202099Y6286855D01*
X17210278Y6296406D01*
X17213376Y6299708D01*
X17215713Y6301841D01*
X17217034Y6302603D01*
X17219879Y6301841D01*
X17232071Y6296761D01*
X17247565Y6289446D01*
X17259909Y6282944D01*
X17262957Y6280962D01*
X17262906Y6280302D01*
X17261179Y6276644D01*
X17251883Y6261455D01*
X17236846Y6238646D01*
X17218406Y6211620D01*
X17198949Y6183782D01*
X17180763Y6158585D01*
X17166234Y6139434D01*
X17153382Y6123533D01*
X17138192Y6104077D01*
X17124019Y6085281D01*
X17098721Y6050737D01*
X17096282Y6050838D01*
X17091406Y6053226D01*
X17084954Y6057239D01*
X17077842Y6062319D01*
X17070832Y6067806D01*
X17064786Y6073038D01*
X17060519Y6077407D01*
X17058944Y6080353D01*
X17059452Y6084570D01*
X17063110Y6102604D01*
X17070832Y6136792D01*
X17078045Y6171590D01*
X17084141Y6203492D01*
X17086224Y6215583D01*
X17087494Y6225692D01*
X17087342Y6227978D01*
X17086935Y6229604D01*
X17086224Y6230569D01*
X17085208Y6230924D01*
X17083887Y6230518D01*
X17082160Y6229451D01*
X17080077Y6227673D01*
X17074794Y6221780D01*
X17067733Y6212738D01*
X17058894Y6200343D01*
X17018863Y6140805D01*
X17003674Y6117793D01*
X17001337Y6118352D01*
X16996054Y6121349D01*
X16988840Y6126175D01*
X16980763Y6131966D01*
X16972686Y6138113D01*
X16965726Y6143802D01*
X16960799Y6148273D01*
X16958919Y6150864D01*
X16945897Y6150864D01*
X16947184Y6149136D01*
X16951299Y6145022D01*
X16955109Y6142786D01*
X16960291Y6140348D01*
X16967809Y6135878D01*
X16976750Y6129883D01*
X16998188Y6114186D01*
X17005604Y6110122D01*
X17010278Y6110376D01*
X17015917Y6116421D01*
X17017644Y6117640D01*
X17019473Y6117742D01*
X17021556Y6116574D01*
X17023994Y6113983D01*
X17026991Y6109868D01*
X17038218Y6092088D01*
X17041571Y6087414D01*
X17045330Y6082690D01*
X17053864Y6073241D01*
X17063161Y6064097D01*
X17072660Y6055817D01*
X17081804Y6048908D01*
X17090085Y6043828D01*
X17093692Y6042152D01*
X17096841Y6041136D01*
X17099483Y6040780D01*
X17102531Y6042710D01*
X17107408Y6047892D01*
X17113402Y6055563D01*
X17128540Y6077508D01*
X17145000Y6100013D01*
X17177105Y6141770D01*
X17190821Y6160262D01*
X17205706Y6180785D01*
X17220539Y6201816D01*
X17234154Y6221679D01*
X17273574Y6280861D01*
X17261281Y6313373D01*
X17258690Y6319012D01*
X17255947Y6324193D01*
X17253102Y6328816D01*
X17250156Y6332880D01*
X17247108Y6336385D01*
X17244060Y6339281D01*
X17240910Y6341516D01*
X17227346Y6350101D01*
X17197781Y6369710D01*
X17184014Y6355181D01*
X17180560Y6352235D01*
X17177969Y6350609D01*
X17176648Y6350558D01*
X17172432Y6359093D01*
X17161205Y6383121D01*
X17157954Y6388862D01*
X17154448Y6394094D01*
X17150638Y6398920D01*
X17146371Y6403441D01*
X17141596Y6407708D01*
X17136262Y6411874D01*
X17130217Y6416040D01*
X17121022Y6421932D01*
X17113453Y6426200D01*
X17107255Y6428994D01*
G37*
G36*
X16919956Y6413449D02*
G01*
X16916603Y6412382D01*
X16912640Y6409131D01*
X16905579Y6400647D01*
X16898467Y6393383D01*
X16889272Y6385356D01*
X16879163Y6377432D01*
X16867174Y6368897D01*
X16861282Y6364325D01*
X16856405Y6360007D01*
X16852595Y6355943D01*
X16849852Y6352133D01*
X16848074Y6348476D01*
X16847261Y6344920D01*
X16847464Y6341465D01*
X16848632Y6338062D01*
X16850766Y6334658D01*
X16853814Y6331204D01*
X16857776Y6327648D01*
X16863212Y6323482D01*
X16868394Y6320078D01*
X16872712Y6317792D01*
X16875607Y6316929D01*
X16876877Y6317691D01*
X16878706Y6319824D01*
X16881043Y6323228D01*
X16886732Y6333236D01*
X16893286Y6346393D01*
X16900042Y6361379D01*
X16906951Y6375857D01*
X16913301Y6388100D01*
X16918330Y6396685D01*
X16922902Y6403086D01*
X16924274Y6406642D01*
X16924172Y6409690D01*
X16922597Y6412280D01*
G37*
D10*
X14270736Y5652515D02*
G01*
X14268450Y5657087D01*
X14263877Y5661660D01*
X14259306Y5663945D01*
X14250416Y5663945D01*
X14245843Y5661660D01*
X14241272Y5657087D01*
X14238986Y5652515D01*
X14236700Y5645657D01*
X14236700Y5634228D01*
X14238986Y5627370D01*
X14241272Y5623052D01*
X14245843Y5618479D01*
X14250416Y5616194D01*
X14259306Y5616194D01*
X14263877Y5618479D01*
X14268450Y5623052D01*
X14270736Y5627370D01*
X14270736Y5634228D01*
X14259306Y5634228D02*
G01*
X14270736Y5634228D01*
X14285722Y5663945D02*
G01*
X14285722Y5616194D01*
X14285722Y5663945D02*
G01*
X14317725Y5616194D01*
X14317725Y5663945D02*
G01*
X14317725Y5616194D01*
X14332711Y5663945D02*
G01*
X14332711Y5616194D01*
X14332711Y5663945D02*
G01*
X14348459Y5663945D01*
X14355318Y5661660D01*
X14359890Y5657087D01*
X14362175Y5652515D01*
X14364461Y5645657D01*
X14364461Y5634228D01*
X14362175Y5627370D01*
X14359890Y5623052D01*
X14355318Y5618479D01*
X14348459Y5616194D01*
X14332711Y5616194D01*
X8940800Y5676645D02*
G01*
X8959088Y5628894D01*
X8977122Y5676645D02*
G01*
X8959088Y5628894D01*
X9026143Y5665215D02*
G01*
X9023858Y5669787D01*
X9019540Y5674360D01*
X9014968Y5676645D01*
X9005824Y5676645D01*
X9001252Y5674360D01*
X8996679Y5669787D01*
X8994393Y5665215D01*
X8992108Y5658357D01*
X8992108Y5646928D01*
X8994393Y5640070D01*
X8996679Y5635752D01*
X9001252Y5631179D01*
X9005824Y5628894D01*
X9014968Y5628894D01*
X9019540Y5631179D01*
X9023858Y5635752D01*
X9026143Y5640070D01*
X9075420Y5665215D02*
G01*
X9073134Y5669787D01*
X9068561Y5674360D01*
X9063990Y5676645D01*
X9054845Y5676645D01*
X9050274Y5674360D01*
X9045702Y5669787D01*
X9043415Y5665215D01*
X9041129Y5658357D01*
X9041129Y5646928D01*
X9043415Y5640070D01*
X9045702Y5635752D01*
X9050274Y5631179D01*
X9054845Y5628894D01*
X9063990Y5628894D01*
X9068561Y5631179D01*
X9073134Y5635752D01*
X9075420Y5640070D01*
X10053574Y462787D02*
G01*
X10053574Y421894D01*
X10033000Y442213D02*
G01*
X10073893Y442213D01*
X8681974Y450087D02*
G01*
X8681974Y409194D01*
X8661400Y429513D02*
G01*
X8702293Y429513D01*
X13906500Y710945D02*
G01*
X13924788Y663194D01*
X13942822Y710945D02*
G01*
X13924788Y663194D01*
X13991843Y699515D02*
G01*
X13989558Y704087D01*
X13985240Y708660D01*
X13980668Y710945D01*
X13971524Y710945D01*
X13966952Y708660D01*
X13962379Y704087D01*
X13960093Y699515D01*
X13957808Y692657D01*
X13957808Y681228D01*
X13960093Y674370D01*
X13962379Y670052D01*
X13966952Y665479D01*
X13971524Y663194D01*
X13980668Y663194D01*
X13985240Y665479D01*
X13989558Y670052D01*
X13991843Y674370D01*
X14041120Y699515D02*
G01*
X14038834Y704087D01*
X14034261Y708660D01*
X14029690Y710945D01*
X14020545Y710945D01*
X14015974Y708660D01*
X14011402Y704087D01*
X14009116Y699515D01*
X14006829Y692657D01*
X14006829Y681228D01*
X14009116Y674370D01*
X14011402Y670052D01*
X14015974Y665479D01*
X14020545Y663194D01*
X14029690Y663194D01*
X14034261Y665479D01*
X14038834Y670052D01*
X14041120Y674370D01*
X13940536Y458215D02*
G01*
X13938250Y462787D01*
X13933677Y467360D01*
X13929106Y469645D01*
X13920216Y469645D01*
X13915643Y467360D01*
X13911072Y462787D01*
X13908786Y458215D01*
X13906500Y451357D01*
X13906500Y439928D01*
X13908786Y433070D01*
X13911072Y428752D01*
X13915643Y424179D01*
X13920216Y421894D01*
X13929106Y421894D01*
X13933677Y424179D01*
X13938250Y428752D01*
X13940536Y433070D01*
X13940536Y439928D01*
X13929106Y439928D02*
G01*
X13940536Y439928D01*
X13955522Y469645D02*
G01*
X13955522Y421894D01*
X13955522Y469645D02*
G01*
X13987525Y421894D01*
X13987525Y469645D02*
G01*
X13987525Y421894D01*
X14002511Y469645D02*
G01*
X14002511Y421894D01*
X14002511Y469645D02*
G01*
X14018259Y469645D01*
X14025118Y467360D01*
X14029690Y462787D01*
X14031975Y458215D01*
X14034261Y451357D01*
X14034261Y439928D01*
X14031975Y433070D01*
X14029690Y428752D01*
X14025118Y424179D01*
X14018259Y421894D01*
X14002511Y421894D01*
X13906500Y596645D02*
G01*
X13906500Y548894D01*
X13906500Y596645D02*
G01*
X13922502Y596645D01*
X13929106Y594360D01*
X13933677Y589787D01*
X13935963Y585215D01*
X13938250Y578357D01*
X13938250Y566928D01*
X13935963Y560070D01*
X13933677Y555752D01*
X13929106Y551179D01*
X13922502Y548894D01*
X13906500Y548894D01*
X13966952Y596645D02*
G01*
X13962379Y594360D01*
X13957808Y589787D01*
X13955522Y585215D01*
X13953236Y578357D01*
X13953236Y566928D01*
X13955522Y560070D01*
X13957808Y555752D01*
X13962379Y551179D01*
X13966952Y548894D01*
X13976095Y548894D01*
X13980668Y551179D01*
X13985240Y555752D01*
X13987525Y560070D01*
X13989558Y566928D01*
X13989558Y578357D01*
X13987525Y585215D01*
X13985240Y589787D01*
X13980668Y594360D01*
X13976095Y596645D01*
X13966952Y596645D01*
X13973809Y558037D02*
G01*
X13987525Y544321D01*
X17145000Y5702045D02*
G01*
X17163288Y5654294D01*
X17181322Y5702045D02*
G01*
X17163288Y5654294D01*
X17230343Y5690615D02*
G01*
X17228058Y5695187D01*
X17223740Y5699760D01*
X17219168Y5702045D01*
X17210024Y5702045D01*
X17205452Y5699760D01*
X17200879Y5695187D01*
X17198593Y5690615D01*
X17196308Y5683757D01*
X17196308Y5672328D01*
X17198593Y5665470D01*
X17200879Y5661152D01*
X17205452Y5656579D01*
X17210024Y5654294D01*
X17219168Y5654294D01*
X17223740Y5656579D01*
X17228058Y5661152D01*
X17230343Y5665470D01*
X17279620Y5690615D02*
G01*
X17277334Y5695187D01*
X17272761Y5699760D01*
X17268190Y5702045D01*
X17259045Y5702045D01*
X17254474Y5699760D01*
X17249902Y5695187D01*
X17247616Y5690615D01*
X17245329Y5683757D01*
X17245329Y5672328D01*
X17247616Y5665470D01*
X17249902Y5661152D01*
X17254474Y5656579D01*
X17259045Y5654294D01*
X17268190Y5654294D01*
X17272761Y5656579D01*
X17277334Y5661152D01*
X17279620Y5665470D01*
X17433036Y5690615D02*
G01*
X17430750Y5695187D01*
X17426177Y5699760D01*
X17421606Y5702045D01*
X17412716Y5702045D01*
X17408143Y5699760D01*
X17403572Y5695187D01*
X17401286Y5690615D01*
X17399000Y5683757D01*
X17399000Y5672328D01*
X17401286Y5665470D01*
X17403572Y5661152D01*
X17408143Y5656579D01*
X17412716Y5654294D01*
X17421606Y5654294D01*
X17426177Y5656579D01*
X17430750Y5661152D01*
X17433036Y5665470D01*
X17433036Y5672328D01*
X17421606Y5672328D02*
G01*
X17433036Y5672328D01*
X17448022Y5702045D02*
G01*
X17448022Y5654294D01*
X17448022Y5702045D02*
G01*
X17480025Y5654294D01*
X17480025Y5702045D02*
G01*
X17480025Y5654294D01*
X17495011Y5702045D02*
G01*
X17495011Y5654294D01*
X17495011Y5702045D02*
G01*
X17510759Y5702045D01*
X17517618Y5699760D01*
X17522190Y5695187D01*
X17524475Y5690615D01*
X17526761Y5683757D01*
X17526761Y5672328D01*
X17524475Y5665470D01*
X17522190Y5661152D01*
X17517618Y5656579D01*
X17510759Y5654294D01*
X17495011Y5654294D01*
X16960850Y5695187D02*
G01*
X16956277Y5699760D01*
X16949674Y5702045D01*
X16940529Y5702045D01*
X16933672Y5699760D01*
X16929100Y5695187D01*
X16929100Y5690615D01*
X16931386Y5686044D01*
X16933672Y5683757D01*
X16938243Y5681471D01*
X16951706Y5676900D01*
X16956277Y5674613D01*
X16958563Y5672328D01*
X16960850Y5667755D01*
X16960850Y5661152D01*
X16956277Y5656579D01*
X16949674Y5654294D01*
X16940529Y5654294D01*
X16933672Y5656579D01*
X16929100Y5661152D01*
X16975836Y5702045D02*
G01*
X16987266Y5654294D01*
X16998695Y5702045D02*
G01*
X16987266Y5654294D01*
X16998695Y5702045D02*
G01*
X17010125Y5654294D01*
X17021302Y5702045D02*
G01*
X17010125Y5654294D01*
X16662400Y5702045D02*
G01*
X16662400Y5654294D01*
X16662400Y5702045D02*
G01*
X16678402Y5702045D01*
X16685006Y5699760D01*
X16689577Y5695187D01*
X16691863Y5690615D01*
X16694150Y5683757D01*
X16694150Y5672328D01*
X16691863Y5665470D01*
X16689577Y5661152D01*
X16685006Y5656579D01*
X16678402Y5654294D01*
X16662400Y5654294D01*
X16725138Y5702045D02*
G01*
X16725138Y5654294D01*
X16709136Y5702045D02*
G01*
X16741140Y5702045D01*
X16417036Y5690615D02*
G01*
X16414750Y5695187D01*
X16410177Y5699760D01*
X16405606Y5702045D01*
X16396716Y5702045D01*
X16392143Y5699760D01*
X16387572Y5695187D01*
X16385286Y5690615D01*
X16383000Y5683757D01*
X16383000Y5672328D01*
X16385286Y5665470D01*
X16387572Y5661152D01*
X16392143Y5656579D01*
X16396716Y5654294D01*
X16405606Y5654294D01*
X16410177Y5656579D01*
X16414750Y5661152D01*
X16417036Y5665470D01*
X16432022Y5702045D02*
G01*
X16432022Y5654294D01*
X16432022Y5654294D02*
G01*
X16459454Y5654294D01*
X16474440Y5702045D02*
G01*
X16474440Y5654294D01*
X16506190Y5702045D02*
G01*
X16474440Y5670042D01*
X16485616Y5681471D02*
G01*
X16506190Y5654294D01*
X1125473Y6749287D02*
G01*
X1125473Y6708394D01*
X1104900Y6728713D02*
G01*
X1145794Y6728713D01*
X1104900Y6220713D02*
G01*
X1145794Y6220713D01*
X3764803Y5102887D02*
G01*
X3762517Y5107459D01*
X3757945Y5112031D01*
X3753373Y5114317D01*
X3744483Y5114317D01*
X3739911Y5112031D01*
X3735339Y5107459D01*
X3733053Y5102887D01*
X3730767Y5096029D01*
X3730767Y5084599D01*
X3733053Y5077741D01*
X3735339Y5073423D01*
X3739911Y5068851D01*
X3744483Y5066565D01*
X3753373Y5066565D01*
X3757945Y5068851D01*
X3762517Y5073423D01*
X3764803Y5077741D01*
X3764803Y5084599D01*
X3753373Y5084599D02*
G01*
X3764803Y5084599D01*
X3779789Y5114317D02*
G01*
X3779789Y5066565D01*
X3779789Y5114317D02*
G01*
X3811793Y5066565D01*
X3811793Y5114317D02*
G01*
X3811793Y5066565D01*
X3826779Y5114317D02*
G01*
X3826779Y5066565D01*
X3826779Y5114317D02*
G01*
X3842527Y5114317D01*
X3849385Y5112031D01*
X3853957Y5107459D01*
X3856243Y5102887D01*
X3858529Y5096029D01*
X3858529Y5084599D01*
X3856243Y5077741D01*
X3853957Y5073423D01*
X3849385Y5068851D01*
X3842527Y5066565D01*
X3826779Y5066565D01*
X4390136Y5296915D02*
G01*
X4387850Y5301487D01*
X4383277Y5306060D01*
X4378706Y5308345D01*
X4369815Y5308345D01*
X4365243Y5306060D01*
X4360672Y5301487D01*
X4358386Y5296915D01*
X4356100Y5290057D01*
X4356100Y5278628D01*
X4358386Y5271770D01*
X4360672Y5267452D01*
X4365243Y5262879D01*
X4369815Y5260594D01*
X4378706Y5260594D01*
X4383277Y5262879D01*
X4387850Y5267452D01*
X4390136Y5271770D01*
X4914900Y5117845D02*
G01*
X4933188Y5070094D01*
X4951222Y5117845D02*
G01*
X4933188Y5070094D01*
X5000243Y5106415D02*
G01*
X4997958Y5110987D01*
X4993640Y5115560D01*
X4989068Y5117845D01*
X4979924Y5117845D01*
X4975352Y5115560D01*
X4970779Y5110987D01*
X4968493Y5106415D01*
X4966208Y5099557D01*
X4966208Y5088128D01*
X4968493Y5081270D01*
X4970779Y5076952D01*
X4975352Y5072379D01*
X4979924Y5070094D01*
X4989068Y5070094D01*
X4993640Y5072379D01*
X4997958Y5076952D01*
X5000243Y5081270D01*
X5049520Y5106415D02*
G01*
X5047234Y5110987D01*
X5042661Y5115560D01*
X5038090Y5117845D01*
X5028945Y5117845D01*
X5024374Y5115560D01*
X5019802Y5110987D01*
X5017515Y5106415D01*
X5015229Y5099557D01*
X5015229Y5088128D01*
X5017515Y5081270D01*
X5019802Y5076952D01*
X5024374Y5072379D01*
X5028945Y5070094D01*
X5038090Y5070094D01*
X5042661Y5072379D01*
X5047234Y5076952D01*
X5049520Y5081270D01*
X4940300Y6337045D02*
G01*
X4940300Y6289294D01*
X4940300Y6337045D02*
G01*
X4972050Y6289294D01*
X4972050Y6337045D02*
G01*
X4972050Y6289294D01*
X5000752Y6337045D02*
G01*
X4996179Y6334760D01*
X4991608Y6330187D01*
X4989322Y6325615D01*
X4987036Y6318757D01*
X4987036Y6307328D01*
X4989322Y6300470D01*
X4991608Y6296152D01*
X4996179Y6291579D01*
X5000752Y6289294D01*
X5009895Y6289294D01*
X5014468Y6291579D01*
X5019040Y6296152D01*
X5021325Y6300470D01*
X5023358Y6307328D01*
X5023358Y6318757D01*
X5021325Y6325615D01*
X5019040Y6330187D01*
X5014468Y6334760D01*
X5009895Y6337045D01*
X5000752Y6337045D01*
X3733800Y6311645D02*
G01*
X3733800Y6263894D01*
X3733800Y6311645D02*
G01*
X3765550Y6263894D01*
X3765550Y6311645D02*
G01*
X3765550Y6263894D01*
X3814825Y6300215D02*
G01*
X3812540Y6304787D01*
X3807968Y6309360D01*
X3803395Y6311645D01*
X3794252Y6311645D01*
X3789679Y6309360D01*
X3785108Y6304787D01*
X3782822Y6300215D01*
X3780536Y6293357D01*
X3780536Y6281928D01*
X3782822Y6275070D01*
X3785108Y6270752D01*
X3789679Y6266179D01*
X3794252Y6263894D01*
X3803395Y6263894D01*
X3807968Y6266179D01*
X3812540Y6270752D01*
X3814825Y6275070D01*
D11*
X15226284Y816355D02*
G01*
X15335250Y774700D01*
X15226284Y816355D02*
G01*
X15335250Y857757D01*
X15298927Y790194D02*
G01*
X15298927Y842263D01*
X15226284Y892047D02*
G01*
X15335250Y892047D01*
X15226284Y926337D02*
G01*
X15335250Y926337D01*
X15226284Y926337D02*
G01*
X15226284Y973073D01*
X15231363Y988821D01*
X15236697Y993902D01*
X15247111Y999236D01*
X15257525Y999236D01*
X15267940Y993902D01*
X15273020Y988821D01*
X15278100Y973073D01*
X15278100Y926337D01*
X15278100Y962660D02*
G01*
X15335250Y999236D01*
X15226284Y1069847D02*
G01*
X15335250Y1069847D01*
X15226284Y1033526D02*
G01*
X15226284Y1106170D01*
X15226284Y1182115D02*
G01*
X15335250Y1140460D01*
X15226284Y1182115D02*
G01*
X15335250Y1223518D01*
X15298927Y1155954D02*
G01*
X15298927Y1208023D01*
X15252191Y1335786D02*
G01*
X15241777Y1330705D01*
X15231363Y1320292D01*
X15226284Y1309878D01*
X15226284Y1289050D01*
X15231363Y1278636D01*
X15241777Y1268221D01*
X15252191Y1263142D01*
X15267940Y1257807D01*
X15293847Y1257807D01*
X15309341Y1263142D01*
X15319756Y1268221D01*
X15330170Y1278636D01*
X15335250Y1289050D01*
X15335250Y1309878D01*
X15330170Y1320292D01*
X15319756Y1330705D01*
X15309341Y1335786D01*
X15293847Y1335786D01*
X15293847Y1309878D02*
G01*
X15293847Y1335786D01*
X15205456Y1406397D02*
G01*
X15215870Y1395984D01*
X15231363Y1385570D01*
X15252191Y1375410D01*
X15278100Y1370076D01*
X15298927Y1370076D01*
X15325090Y1375410D01*
X15345663Y1385570D01*
X15361411Y1395984D01*
X15371825Y1406397D01*
X15241777Y1487423D02*
G01*
X15335250Y1487423D01*
X15288513Y1440687D02*
G01*
X15288513Y1534160D01*
X15205456Y1568450D02*
G01*
X15215870Y1578863D01*
X15231363Y1589278D01*
X15252191Y1599692D01*
X15278100Y1605026D01*
X15298927Y1605026D01*
X15325090Y1599692D01*
X15345663Y1589278D01*
X15361411Y1578863D01*
X15371825Y1568450D01*
X16305529Y1266697D02*
G01*
X16263874Y1157731D01*
X16305529Y1266697D02*
G01*
X16346931Y1157731D01*
X16279368Y1194054D02*
G01*
X16331438Y1194054D01*
X16381222Y1266697D02*
G01*
X16381222Y1157731D01*
X16415511Y1266697D02*
G01*
X16415511Y1157731D01*
X16415511Y1266697D02*
G01*
X16462247Y1266697D01*
X16477995Y1261618D01*
X16483075Y1256284D01*
X16488409Y1245870D01*
X16488409Y1235455D01*
X16483075Y1225042D01*
X16477995Y1219962D01*
X16462247Y1214881D01*
X16415511Y1214881D01*
X16451834Y1214881D02*
G01*
X16488409Y1157731D01*
X16559022Y1266697D02*
G01*
X16559022Y1157731D01*
X16522700Y1266697D02*
G01*
X16595343Y1266697D01*
X16671290Y1266697D02*
G01*
X16629634Y1157731D01*
X16671290Y1266697D02*
G01*
X16712691Y1157731D01*
X16645127Y1194054D02*
G01*
X16697197Y1194054D01*
X16824959Y1240789D02*
G01*
X16819879Y1251204D01*
X16809466Y1261618D01*
X16799052Y1266697D01*
X16778224Y1266697D01*
X16767809Y1261618D01*
X16757395Y1251204D01*
X16752316Y1240789D01*
X16746981Y1225042D01*
X16746981Y1199134D01*
X16752316Y1183639D01*
X16757395Y1173226D01*
X16767809Y1162812D01*
X16778224Y1157731D01*
X16799052Y1157731D01*
X16809466Y1162812D01*
X16819879Y1173226D01*
X16824959Y1183639D01*
X16824959Y1199134D01*
X16799052Y1199134D02*
G01*
X16824959Y1199134D01*
X16895572Y1287526D02*
G01*
X16885158Y1277112D01*
X16874743Y1261618D01*
X16864584Y1240789D01*
X16859250Y1214881D01*
X16859250Y1194054D01*
X16864584Y1167892D01*
X16874743Y1147318D01*
X16885158Y1131570D01*
X16895572Y1121155D01*
X16929861Y1204468D02*
G01*
X17023334Y1204468D01*
X17057624Y1287526D02*
G01*
X17068038Y1277112D01*
X17078452Y1261618D01*
X17088866Y1240789D01*
X17094200Y1214881D01*
X17094200Y1194054D01*
X17088866Y1167892D01*
X17078452Y1147318D01*
X17068038Y1131570D01*
X17057624Y1121155D01*
X6896100Y5119115D02*
G01*
X6896100Y5010150D01*
X6896100Y5119115D02*
G01*
X6942836Y5119115D01*
X6958329Y5114036D01*
X6963663Y5108702D01*
X6968743Y5098287D01*
X6968743Y5087873D01*
X6963663Y5077460D01*
X6958329Y5072379D01*
X6942836Y5067300D01*
X6896100Y5067300D02*
G01*
X6942836Y5067300D01*
X6958329Y5061965D01*
X6963663Y5056886D01*
X6968743Y5046471D01*
X6968743Y5030723D01*
X6963663Y5020310D01*
X6958329Y5015229D01*
X6942836Y5010150D01*
X6896100Y5010150D01*
X7081011Y5093207D02*
G01*
X7075931Y5103621D01*
X7065518Y5114036D01*
X7055104Y5119115D01*
X7034275Y5119115D01*
X7023861Y5114036D01*
X7013447Y5103621D01*
X7008368Y5093207D01*
X7003034Y5077460D01*
X7003034Y5051552D01*
X7008368Y5036057D01*
X7013447Y5025644D01*
X7023861Y5015229D01*
X7034275Y5010150D01*
X7055104Y5010150D01*
X7065518Y5015229D01*
X7075931Y5025644D01*
X7081011Y5036057D01*
X7151624Y5139944D02*
G01*
X7141209Y5129529D01*
X7131050Y5114036D01*
X7120636Y5093207D01*
X7115302Y5067300D01*
X7115302Y5046471D01*
X7120636Y5020310D01*
X7131050Y4999736D01*
X7141209Y4983987D01*
X7151624Y4973573D01*
X7185913Y5119115D02*
G01*
X7185913Y5010150D01*
X7220204Y5139944D02*
G01*
X7230618Y5129529D01*
X7241031Y5114036D01*
X7251445Y5093207D01*
X7256779Y5067300D01*
X7256779Y5046471D01*
X7251445Y5020310D01*
X7241031Y4999736D01*
X7230618Y4983987D01*
X7220204Y4973573D01*
X7337806Y5103621D02*
G01*
X7337806Y5010150D01*
X7291070Y5056886D02*
G01*
X7384541Y5056886D01*
X6908800Y6655815D02*
G01*
X6908800Y6546850D01*
X6908800Y6655815D02*
G01*
X6955536Y6655815D01*
X6971029Y6650736D01*
X6976363Y6645402D01*
X6981443Y6634987D01*
X6981443Y6624573D01*
X6976363Y6614160D01*
X6971029Y6609079D01*
X6955536Y6604000D01*
X6908800Y6604000D02*
G01*
X6955536Y6604000D01*
X6971029Y6598665D01*
X6976363Y6593586D01*
X6981443Y6583171D01*
X6981443Y6567423D01*
X6976363Y6557010D01*
X6971029Y6551929D01*
X6955536Y6546850D01*
X6908800Y6546850D01*
X7093711Y6629908D02*
G01*
X7088631Y6640321D01*
X7078218Y6650736D01*
X7067804Y6655815D01*
X7046975Y6655815D01*
X7036561Y6650736D01*
X7026147Y6640321D01*
X7021068Y6629908D01*
X7015734Y6614160D01*
X7015734Y6588252D01*
X7021068Y6572758D01*
X7026147Y6562344D01*
X7036561Y6551929D01*
X7046975Y6546850D01*
X7067804Y6546850D01*
X7078218Y6551929D01*
X7088631Y6562344D01*
X7093711Y6572758D01*
X7164324Y6676644D02*
G01*
X7153909Y6666229D01*
X7143750Y6650736D01*
X7133336Y6629908D01*
X7128002Y6604000D01*
X7128002Y6583171D01*
X7133336Y6557010D01*
X7143750Y6536436D01*
X7153909Y6520687D01*
X7164324Y6510273D01*
X7198613Y6655815D02*
G01*
X7198613Y6546850D01*
X7232904Y6676644D02*
G01*
X7243318Y6666229D01*
X7253731Y6650736D01*
X7264145Y6629908D01*
X7269479Y6604000D01*
X7269479Y6583171D01*
X7264145Y6557010D01*
X7253731Y6536436D01*
X7243318Y6520687D01*
X7232904Y6510273D01*
X7303770Y6593586D02*
G01*
X7397241Y6593586D01*
X8255000Y5106415D02*
G01*
X8255000Y4997450D01*
X8255000Y5106415D02*
G01*
X8301736Y5106415D01*
X8317229Y5101336D01*
X8322563Y5096002D01*
X8327643Y5085587D01*
X8327643Y5075173D01*
X8322563Y5064760D01*
X8317229Y5059679D01*
X8301736Y5054600D01*
X8255000Y5054600D02*
G01*
X8301736Y5054600D01*
X8317229Y5049265D01*
X8322563Y5044186D01*
X8327643Y5033771D01*
X8327643Y5018023D01*
X8322563Y5007610D01*
X8317229Y5002529D01*
X8301736Y4997450D01*
X8255000Y4997450D01*
X8439911Y5080507D02*
G01*
X8434831Y5090921D01*
X8424418Y5101336D01*
X8414004Y5106415D01*
X8393175Y5106415D01*
X8382761Y5101336D01*
X8372347Y5090921D01*
X8367268Y5080507D01*
X8361934Y5064760D01*
X8361934Y5038852D01*
X8367268Y5023357D01*
X8372347Y5012944D01*
X8382761Y5002529D01*
X8393175Y4997450D01*
X8414004Y4997450D01*
X8424418Y5002529D01*
X8434831Y5012944D01*
X8439911Y5023357D01*
X8510524Y5127244D02*
G01*
X8500109Y5116829D01*
X8489950Y5101336D01*
X8479536Y5080507D01*
X8474202Y5054600D01*
X8474202Y5033771D01*
X8479536Y5007610D01*
X8489950Y4987036D01*
X8500109Y4971287D01*
X8510524Y4960873D01*
X8576056Y5106415D02*
G01*
X8565641Y5101336D01*
X8555227Y5090921D01*
X8550147Y5080507D01*
X8544813Y5064760D01*
X8544813Y5038852D01*
X8550147Y5023357D01*
X8555227Y5012944D01*
X8565641Y5002529D01*
X8576056Y4997450D01*
X8596884Y4997450D01*
X8607297Y5002529D01*
X8617711Y5012944D01*
X8622791Y5023357D01*
X8628125Y5038852D01*
X8628125Y5064760D01*
X8622791Y5080507D01*
X8617711Y5090921D01*
X8607297Y5101336D01*
X8596884Y5106415D01*
X8576056Y5106415D01*
X8662415Y5127244D02*
G01*
X8672829Y5116829D01*
X8682990Y5101336D01*
X8693404Y5080507D01*
X8698738Y5054600D01*
X8698738Y5033771D01*
X8693404Y5007610D01*
X8682990Y4987036D01*
X8672829Y4971287D01*
X8662415Y4960873D01*
X8779763Y5090921D02*
G01*
X8779763Y4997450D01*
X8733027Y5044186D02*
G01*
X8826500Y5044186D01*
X8267700Y6693915D02*
G01*
X8267700Y6584950D01*
X8267700Y6693915D02*
G01*
X8314436Y6693915D01*
X8329929Y6688836D01*
X8335263Y6683502D01*
X8340343Y6673087D01*
X8340343Y6662673D01*
X8335263Y6652260D01*
X8329929Y6647179D01*
X8314436Y6642100D01*
X8267700Y6642100D02*
G01*
X8314436Y6642100D01*
X8329929Y6636765D01*
X8335263Y6631686D01*
X8340343Y6621271D01*
X8340343Y6605523D01*
X8335263Y6595110D01*
X8329929Y6590029D01*
X8314436Y6584950D01*
X8267700Y6584950D01*
X8452611Y6668008D02*
G01*
X8447531Y6678421D01*
X8437118Y6688836D01*
X8426704Y6693915D01*
X8405875Y6693915D01*
X8395461Y6688836D01*
X8385047Y6678421D01*
X8379968Y6668008D01*
X8374634Y6652260D01*
X8374634Y6626352D01*
X8379968Y6610858D01*
X8385047Y6600444D01*
X8395461Y6590029D01*
X8405875Y6584950D01*
X8426704Y6584950D01*
X8437118Y6590029D01*
X8447531Y6600444D01*
X8452611Y6610858D01*
X8523224Y6714744D02*
G01*
X8512809Y6704329D01*
X8502650Y6688836D01*
X8492236Y6668008D01*
X8486902Y6642100D01*
X8486902Y6621271D01*
X8492236Y6595110D01*
X8502650Y6574536D01*
X8512809Y6558787D01*
X8523224Y6548373D01*
X8588756Y6693915D02*
G01*
X8578341Y6688836D01*
X8567927Y6678421D01*
X8562847Y6668008D01*
X8557513Y6652260D01*
X8557513Y6626352D01*
X8562847Y6610858D01*
X8567927Y6600444D01*
X8578341Y6590029D01*
X8588756Y6584950D01*
X8609584Y6584950D01*
X8619997Y6590029D01*
X8630411Y6600444D01*
X8635491Y6610858D01*
X8640825Y6626352D01*
X8640825Y6652260D01*
X8635491Y6668008D01*
X8630411Y6678421D01*
X8619997Y6688836D01*
X8609584Y6693915D01*
X8588756Y6693915D01*
X8675115Y6714744D02*
G01*
X8685529Y6704329D01*
X8695690Y6688836D01*
X8706104Y6668008D01*
X8711438Y6642100D01*
X8711438Y6621271D01*
X8706104Y6595110D01*
X8695690Y6574536D01*
X8685529Y6558787D01*
X8675115Y6548373D01*
X8745727Y6631686D02*
G01*
X8839200Y6631686D01*
X2821177Y6756908D02*
G01*
X2815843Y6767321D01*
X2805429Y6777736D01*
X2795270Y6782815D01*
X2774441Y6782815D01*
X2764027Y6777736D01*
X2753613Y6767321D01*
X2748279Y6756908D01*
X2743200Y6741160D01*
X2743200Y6715252D01*
X2748279Y6699758D01*
X2753613Y6689344D01*
X2764027Y6678929D01*
X2774441Y6673850D01*
X2795270Y6673850D01*
X2805429Y6678929D01*
X2815843Y6689344D01*
X2821177Y6699758D01*
X2896870Y6782815D02*
G01*
X2855468Y6673850D01*
X2896870Y6782815D02*
G01*
X2938525Y6673850D01*
X2870961Y6710171D02*
G01*
X2923031Y6710171D01*
X2972815Y6782815D02*
G01*
X2972815Y6673850D01*
X2972815Y6782815D02*
G01*
X3019552Y6782815D01*
X3035300Y6777736D01*
X3040379Y6772402D01*
X3045459Y6761987D01*
X3045459Y6751573D01*
X3040379Y6741160D01*
X3035300Y6736079D01*
X3019552Y6731000D01*
X2972815Y6731000D02*
G01*
X3019552Y6731000D01*
X3035300Y6725665D01*
X3040379Y6720586D01*
X3045459Y6710171D01*
X3045459Y6694423D01*
X3040379Y6684010D01*
X3035300Y6678929D01*
X3019552Y6673850D01*
X2972815Y6673850D01*
X3079750Y6782815D02*
G01*
X3079750Y6673850D01*
X3079750Y6673850D02*
G01*
X3142234Y6673850D01*
X3176524Y6782815D02*
G01*
X3176524Y6673850D01*
X3176524Y6782815D02*
G01*
X3244088Y6782815D01*
X3176524Y6731000D02*
G01*
X3218179Y6731000D01*
X3176524Y6673850D02*
G01*
X3244088Y6673850D01*
X3314700Y6803644D02*
G01*
X3304286Y6793229D01*
X3293872Y6777736D01*
X3283458Y6756908D01*
X3278377Y6731000D01*
X3278377Y6710171D01*
X3283458Y6684010D01*
X3293872Y6663436D01*
X3304286Y6647687D01*
X3314700Y6637273D01*
X3395725Y6767321D02*
G01*
X3395725Y6673850D01*
X3348990Y6720586D02*
G01*
X3442461Y6720586D01*
X3476752Y6803644D02*
G01*
X3487165Y6793229D01*
X3497579Y6777736D01*
X3507993Y6756908D01*
X3513074Y6731000D01*
X3513074Y6710171D01*
X3507993Y6684010D01*
X3497579Y6663436D01*
X3487165Y6647687D01*
X3476752Y6637273D01*
X2821177Y5753607D02*
G01*
X2815843Y5764021D01*
X2805429Y5774436D01*
X2795270Y5779515D01*
X2774441Y5779515D01*
X2764027Y5774436D01*
X2753613Y5764021D01*
X2748279Y5753607D01*
X2743200Y5737860D01*
X2743200Y5711952D01*
X2748279Y5696457D01*
X2753613Y5686044D01*
X2764027Y5675629D01*
X2774441Y5670550D01*
X2795270Y5670550D01*
X2805429Y5675629D01*
X2815843Y5686044D01*
X2821177Y5696457D01*
X2896870Y5779515D02*
G01*
X2855468Y5670550D01*
X2896870Y5779515D02*
G01*
X2938525Y5670550D01*
X2870961Y5706871D02*
G01*
X2923031Y5706871D01*
X2972815Y5779515D02*
G01*
X2972815Y5670550D01*
X2972815Y5779515D02*
G01*
X3019552Y5779515D01*
X3035300Y5774436D01*
X3040379Y5769102D01*
X3045459Y5758687D01*
X3045459Y5748273D01*
X3040379Y5737860D01*
X3035300Y5732779D01*
X3019552Y5727700D01*
X2972815Y5727700D02*
G01*
X3019552Y5727700D01*
X3035300Y5722365D01*
X3040379Y5717286D01*
X3045459Y5706871D01*
X3045459Y5691123D01*
X3040379Y5680710D01*
X3035300Y5675629D01*
X3019552Y5670550D01*
X2972815Y5670550D01*
X3079750Y5779515D02*
G01*
X3079750Y5670550D01*
X3079750Y5670550D02*
G01*
X3142234Y5670550D01*
X3176524Y5779515D02*
G01*
X3176524Y5670550D01*
X3176524Y5779515D02*
G01*
X3244088Y5779515D01*
X3176524Y5727700D02*
G01*
X3218179Y5727700D01*
X3176524Y5670550D02*
G01*
X3244088Y5670550D01*
X3314700Y5800344D02*
G01*
X3304286Y5789929D01*
X3293872Y5774436D01*
X3283458Y5753607D01*
X3278377Y5727700D01*
X3278377Y5706871D01*
X3283458Y5680710D01*
X3293872Y5660136D01*
X3304286Y5644387D01*
X3314700Y5633973D01*
X3348990Y5717286D02*
G01*
X3442461Y5717286D01*
X3476752Y5800344D02*
G01*
X3487165Y5789929D01*
X3497579Y5774436D01*
X3507993Y5753607D01*
X3513074Y5727700D01*
X3513074Y5706871D01*
X3507993Y5680710D01*
X3497579Y5660136D01*
X3487165Y5644387D01*
X3476752Y5633973D01*
X15607284Y2990342D02*
G01*
X15612363Y2979928D01*
X15622777Y2969513D01*
X15633191Y2964179D01*
X15648940Y2959100D01*
X15674847Y2959100D01*
X15690341Y2964179D01*
X15700756Y2969513D01*
X15711170Y2979928D01*
X15716250Y2990342D01*
X15716250Y3011170D01*
X15711170Y3021329D01*
X15700756Y3031744D01*
X15690341Y3037078D01*
X15674847Y3042157D01*
X15648940Y3042157D01*
X15633191Y3037078D01*
X15622777Y3031744D01*
X15612363Y3021329D01*
X15607284Y3011170D01*
X15607284Y2990342D01*
X15607284Y3076447D02*
G01*
X15685261Y3076447D01*
X15700756Y3081781D01*
X15711170Y3092195D01*
X15716250Y3107689D01*
X15716250Y3118104D01*
X15711170Y3133597D01*
X15700756Y3144012D01*
X15685261Y3149345D01*
X15607284Y3149345D01*
X15607284Y3219957D02*
G01*
X15716250Y3219957D01*
X15607284Y3183636D02*
G01*
X15607284Y3256279D01*
X15607284Y3290570D02*
G01*
X15716250Y3290570D01*
X15607284Y3290570D02*
G01*
X15607284Y3337305D01*
X15612363Y3352800D01*
X15617697Y3358134D01*
X15628111Y3363213D01*
X15643606Y3363213D01*
X15654020Y3358134D01*
X15659100Y3352800D01*
X15664434Y3337305D01*
X15664434Y3290570D01*
X15607284Y3397504D02*
G01*
X15685261Y3397504D01*
X15700756Y3402837D01*
X15711170Y3413252D01*
X15716250Y3428745D01*
X15716250Y3439160D01*
X15711170Y3454654D01*
X15700756Y3465068D01*
X15685261Y3470402D01*
X15607284Y3470402D01*
X15607284Y3541013D02*
G01*
X15716250Y3541013D01*
X15607284Y3504692D02*
G01*
X15607284Y3577336D01*
X15586456Y3647947D02*
G01*
X15596870Y3637534D01*
X15612363Y3627120D01*
X15633191Y3616960D01*
X15659100Y3611626D01*
X15679927Y3611626D01*
X15706090Y3616960D01*
X15726663Y3627120D01*
X15742411Y3637534D01*
X15752825Y3647947D01*
X15622777Y3728973D02*
G01*
X15716250Y3728973D01*
X15669513Y3682237D02*
G01*
X15669513Y3775710D01*
X15586456Y3810000D02*
G01*
X15596870Y3820413D01*
X15612363Y3830828D01*
X15633191Y3841242D01*
X15659100Y3846576D01*
X15679927Y3846576D01*
X15706090Y3841242D01*
X15726663Y3830828D01*
X15742411Y3820413D01*
X15752825Y3810000D01*
X16288766Y3362197D02*
G01*
X16278352Y3357118D01*
X16267938Y3346704D01*
X16262604Y3336289D01*
X16257524Y3320542D01*
X16257524Y3294634D01*
X16262604Y3279139D01*
X16267938Y3268726D01*
X16278352Y3258312D01*
X16288766Y3253231D01*
X16309593Y3253231D01*
X16319754Y3258312D01*
X16330168Y3268726D01*
X16335502Y3279139D01*
X16340581Y3294634D01*
X16340581Y3320542D01*
X16335502Y3336289D01*
X16330168Y3346704D01*
X16319754Y3357118D01*
X16309593Y3362197D01*
X16288766Y3362197D01*
X16374872Y3362197D02*
G01*
X16374872Y3284220D01*
X16380206Y3268726D01*
X16390620Y3258312D01*
X16406113Y3253231D01*
X16416527Y3253231D01*
X16432022Y3258312D01*
X16442436Y3268726D01*
X16447770Y3284220D01*
X16447770Y3362197D01*
X16518381Y3362197D02*
G01*
X16518381Y3253231D01*
X16482059Y3362197D02*
G01*
X16554704Y3362197D01*
X16588993Y3362197D02*
G01*
X16588993Y3253231D01*
X16588993Y3362197D02*
G01*
X16635729Y3362197D01*
X16651224Y3357118D01*
X16656558Y3351784D01*
X16661638Y3341370D01*
X16661638Y3325876D01*
X16656558Y3315462D01*
X16651224Y3310381D01*
X16635729Y3305047D01*
X16588993Y3305047D01*
X16695927Y3362197D02*
G01*
X16695927Y3284220D01*
X16701261Y3268726D01*
X16711675Y3258312D01*
X16727170Y3253231D01*
X16737584Y3253231D01*
X16753077Y3258312D01*
X16763491Y3268726D01*
X16768825Y3284220D01*
X16768825Y3362197D01*
X16839438Y3362197D02*
G01*
X16839438Y3253231D01*
X16803116Y3362197D02*
G01*
X16875759Y3362197D01*
X16946372Y3383026D02*
G01*
X16935958Y3372612D01*
X16925543Y3357118D01*
X16915384Y3336289D01*
X16910050Y3310381D01*
X16910050Y3289554D01*
X16915384Y3263392D01*
X16925543Y3242818D01*
X16935958Y3227070D01*
X16946372Y3216655D01*
X16980661Y3299968D02*
G01*
X17074134Y3299968D01*
X17108424Y3383026D02*
G01*
X17118838Y3372612D01*
X17129252Y3357118D01*
X17139666Y3336289D01*
X17145000Y3310381D01*
X17145000Y3289554D01*
X17139666Y3263392D01*
X17129252Y3242818D01*
X17118838Y3227070D01*
X17108424Y3216655D01*
X15635477Y1723644D02*
G01*
X15625063Y1713229D01*
X15619984Y1697736D01*
X15619984Y1676907D01*
X15625063Y1661413D01*
X15635477Y1651000D01*
X15645891Y1651000D01*
X15656306Y1656079D01*
X15661640Y1661413D01*
X15666720Y1671828D01*
X15677134Y1703070D01*
X15682213Y1713229D01*
X15687547Y1718563D01*
X15697961Y1723644D01*
X15713456Y1723644D01*
X15723870Y1713229D01*
X15728950Y1697736D01*
X15728950Y1676907D01*
X15723870Y1661413D01*
X15713456Y1651000D01*
X15619984Y1757934D02*
G01*
X15728950Y1757934D01*
X15619984Y1792223D02*
G01*
X15728950Y1792223D01*
X15619984Y1792223D02*
G01*
X15619984Y1838960D01*
X15625063Y1854707D01*
X15630397Y1859787D01*
X15640811Y1865121D01*
X15651225Y1865121D01*
X15661640Y1859787D01*
X15666720Y1854707D01*
X15671800Y1838960D01*
X15671800Y1792223D01*
X15671800Y1828800D02*
G01*
X15728950Y1865121D01*
X15619984Y1899412D02*
G01*
X15728950Y1899412D01*
X15619984Y1899412D02*
G01*
X15619984Y1966976D01*
X15671800Y1899412D02*
G01*
X15671800Y1940813D01*
X15728950Y1899412D02*
G01*
X15728950Y1966976D01*
X15619984Y2001265D02*
G01*
X15728950Y2001265D01*
X15619984Y2001265D02*
G01*
X15728950Y2073910D01*
X15619984Y2073910D02*
G01*
X15728950Y2073910D01*
X15599156Y2144521D02*
G01*
X15609570Y2134107D01*
X15625063Y2123694D01*
X15645891Y2113279D01*
X15671800Y2108200D01*
X15692627Y2108200D01*
X15718790Y2113279D01*
X15739363Y2123694D01*
X15755111Y2134107D01*
X15765525Y2144521D01*
X15635477Y2225547D02*
G01*
X15728950Y2225547D01*
X15682213Y2178812D02*
G01*
X15682213Y2272284D01*
X15599156Y2306573D02*
G01*
X15609570Y2316987D01*
X15625063Y2327402D01*
X15645891Y2337815D01*
X15671800Y2343150D01*
X15692627Y2343150D01*
X15718790Y2337815D01*
X15739363Y2327402D01*
X15755111Y2316987D01*
X15765525Y2306573D01*
X16360393Y1958154D02*
G01*
X16349979Y1968568D01*
X16334486Y1973648D01*
X16313658Y1973648D01*
X16298163Y1968568D01*
X16287750Y1958154D01*
X16287750Y1947740D01*
X16292829Y1937326D01*
X16298163Y1931992D01*
X16308577Y1926912D01*
X16339820Y1916498D01*
X16349979Y1911418D01*
X16355313Y1906084D01*
X16360393Y1895670D01*
X16360393Y1880176D01*
X16349979Y1869762D01*
X16334486Y1864682D01*
X16313658Y1864682D01*
X16298163Y1869762D01*
X16287750Y1880176D01*
X16394684Y1973648D02*
G01*
X16394684Y1864682D01*
X16428974Y1973648D02*
G01*
X16428974Y1864682D01*
X16428974Y1973648D02*
G01*
X16475709Y1973648D01*
X16491458Y1968568D01*
X16496538Y1963234D01*
X16501872Y1952820D01*
X16501872Y1942406D01*
X16496538Y1931992D01*
X16491458Y1926912D01*
X16475709Y1921832D01*
X16428974Y1921832D01*
X16465550Y1921832D02*
G01*
X16501872Y1864682D01*
X16536161Y1973648D02*
G01*
X16536161Y1864682D01*
X16536161Y1973648D02*
G01*
X16603725Y1973648D01*
X16536161Y1921832D02*
G01*
X16577563Y1921832D01*
X16536161Y1864682D02*
G01*
X16603725Y1864682D01*
X16638016Y1973648D02*
G01*
X16638016Y1864682D01*
X16638016Y1973648D02*
G01*
X16710659Y1864682D01*
X16710659Y1973648D02*
G01*
X16710659Y1864682D01*
X16781272Y1994476D02*
G01*
X16770858Y1984062D01*
X16760443Y1968568D01*
X16750029Y1947740D01*
X16744950Y1921832D01*
X16744950Y1901004D01*
X16750029Y1874842D01*
X16760443Y1854268D01*
X16770858Y1838520D01*
X16781272Y1828106D01*
X16815561Y1911418D02*
G01*
X16909034Y1911418D01*
X16943324Y1994476D02*
G01*
X16953738Y1984062D01*
X16964152Y1968568D01*
X16974566Y1947740D01*
X16979900Y1921832D01*
X16979900Y1901004D01*
X16974566Y1874842D01*
X16964152Y1854268D01*
X16953738Y1838520D01*
X16943324Y1828106D01*
X15251684Y2335021D02*
G01*
X15360650Y2335021D01*
X15251684Y2298700D02*
G01*
X15251684Y2371344D01*
X15251684Y2436876D02*
G01*
X15256763Y2426462D01*
X15267177Y2416047D01*
X15277591Y2410968D01*
X15293340Y2405634D01*
X15319247Y2405634D01*
X15334741Y2410968D01*
X15345156Y2416047D01*
X15355570Y2426462D01*
X15360650Y2436876D01*
X15360650Y2457704D01*
X15355570Y2468118D01*
X15345156Y2478531D01*
X15334741Y2483612D01*
X15319247Y2488945D01*
X15293340Y2488945D01*
X15277591Y2483612D01*
X15267177Y2478531D01*
X15256763Y2468118D01*
X15251684Y2457704D01*
X15251684Y2436876D01*
X15251684Y2523236D02*
G01*
X15360650Y2523236D01*
X15251684Y2523236D02*
G01*
X15251684Y2569971D01*
X15256763Y2585465D01*
X15262097Y2590800D01*
X15272511Y2595879D01*
X15282925Y2595879D01*
X15293340Y2590800D01*
X15298420Y2585465D01*
X15303500Y2569971D01*
X15303500Y2523236D01*
X15303500Y2559557D02*
G01*
X15360650Y2595879D01*
X15277591Y2708147D02*
G01*
X15267177Y2702813D01*
X15256763Y2692400D01*
X15251684Y2682239D01*
X15251684Y2661412D01*
X15256763Y2650997D01*
X15267177Y2640584D01*
X15277591Y2635250D01*
X15293340Y2630170D01*
X15319247Y2630170D01*
X15334741Y2635250D01*
X15345156Y2640584D01*
X15355570Y2650997D01*
X15360650Y2661412D01*
X15360650Y2682239D01*
X15355570Y2692400D01*
X15345156Y2702813D01*
X15334741Y2708147D01*
X15251684Y2742437D02*
G01*
X15360650Y2742437D01*
X15251684Y2815081D02*
G01*
X15360650Y2815081D01*
X15303500Y2742437D02*
G01*
X15303500Y2815081D01*
X15230856Y2885694D02*
G01*
X15241270Y2875279D01*
X15256763Y2865120D01*
X15277591Y2854705D01*
X15303500Y2849371D01*
X15324327Y2849371D01*
X15350490Y2854705D01*
X15371063Y2865120D01*
X15386811Y2875279D01*
X15397225Y2885694D01*
X15267177Y2966720D02*
G01*
X15360650Y2966720D01*
X15313913Y2919984D02*
G01*
X15313913Y3013710D01*
X15230856Y3048000D02*
G01*
X15241270Y3058160D01*
X15256763Y3068573D01*
X15277591Y3078987D01*
X15303500Y3084321D01*
X15324327Y3084321D01*
X15350490Y3078987D01*
X15371063Y3068573D01*
X15386811Y3058160D01*
X15397225Y3048000D01*
X16294100Y2667947D02*
G01*
X16294100Y2558981D01*
X16257777Y2667947D02*
G01*
X16330422Y2667947D01*
X16395954Y2667947D02*
G01*
X16385540Y2662867D01*
X16375125Y2652453D01*
X16370045Y2642039D01*
X16364711Y2626291D01*
X16364711Y2600383D01*
X16370045Y2584889D01*
X16375125Y2574475D01*
X16385540Y2564061D01*
X16395954Y2558981D01*
X16416781Y2558981D01*
X16427195Y2564061D01*
X16437609Y2574475D01*
X16442690Y2584889D01*
X16448024Y2600383D01*
X16448024Y2626291D01*
X16442690Y2642039D01*
X16437609Y2652453D01*
X16427195Y2662867D01*
X16416781Y2667947D01*
X16395954Y2667947D01*
X16482313Y2667947D02*
G01*
X16482313Y2558981D01*
X16482313Y2667947D02*
G01*
X16529050Y2667947D01*
X16544543Y2662867D01*
X16549877Y2657533D01*
X16554958Y2647119D01*
X16554958Y2636705D01*
X16549877Y2626291D01*
X16544543Y2621211D01*
X16529050Y2616131D01*
X16482313Y2616131D01*
X16518636Y2616131D02*
G01*
X16554958Y2558981D01*
X16667225Y2642039D02*
G01*
X16661891Y2652453D01*
X16651477Y2662867D01*
X16641318Y2667947D01*
X16620490Y2667947D01*
X16610075Y2662867D01*
X16599661Y2652453D01*
X16594327Y2642039D01*
X16589247Y2626291D01*
X16589247Y2600383D01*
X16594327Y2584889D01*
X16599661Y2574475D01*
X16610075Y2564061D01*
X16620490Y2558981D01*
X16641318Y2558981D01*
X16651477Y2564061D01*
X16661891Y2574475D01*
X16667225Y2584889D01*
X16701516Y2667947D02*
G01*
X16701516Y2558981D01*
X16774159Y2667947D02*
G01*
X16774159Y2558981D01*
X16701516Y2616131D02*
G01*
X16774159Y2616131D01*
X16844772Y2688775D02*
G01*
X16834358Y2678361D01*
X16824198Y2662867D01*
X16813784Y2642039D01*
X16808450Y2616131D01*
X16808450Y2595303D01*
X16813784Y2569141D01*
X16824198Y2548567D01*
X16834358Y2532819D01*
X16844772Y2522405D01*
X16879061Y2605717D02*
G01*
X16972788Y2605717D01*
X17007077Y2688775D02*
G01*
X17017238Y2678361D01*
X17027652Y2662867D01*
X17038066Y2642039D01*
X17043400Y2616131D01*
X17043400Y2595303D01*
X17038066Y2569141D01*
X17027652Y2548567D01*
X17017238Y2532819D01*
X17007077Y2522405D01*
X4724400Y775715D02*
G01*
X4724400Y666750D01*
X4724400Y775715D02*
G01*
X4771136Y775715D01*
X4786629Y770636D01*
X4791963Y765302D01*
X4797043Y754887D01*
X4797043Y744473D01*
X4791963Y734060D01*
X4786629Y728979D01*
X4771136Y723900D01*
X4724400Y723900D02*
G01*
X4771136Y723900D01*
X4786629Y718565D01*
X4791963Y713486D01*
X4797043Y703071D01*
X4797043Y687323D01*
X4791963Y676910D01*
X4786629Y671829D01*
X4771136Y666750D01*
X4724400Y666750D01*
X4872990Y775715D02*
G01*
X4831334Y666750D01*
X4872990Y775715D02*
G01*
X4914645Y666750D01*
X4847081Y703071D02*
G01*
X4898897Y703071D01*
X4985258Y775715D02*
G01*
X4985258Y666750D01*
X4948936Y775715D02*
G01*
X5021579Y775715D01*
X5092191Y775715D02*
G01*
X5092191Y666750D01*
X5055870Y775715D02*
G01*
X5128513Y775715D01*
X5162804Y754887D02*
G01*
X5173218Y760221D01*
X5188965Y775715D01*
X5188965Y666750D01*
X2133600Y6897115D02*
G01*
X2133600Y6788150D01*
X2133600Y6897115D02*
G01*
X2169922Y6897115D01*
X2185670Y6892036D01*
X2195829Y6881621D01*
X2201163Y6871208D01*
X2206243Y6855460D01*
X2206243Y6829552D01*
X2201163Y6814058D01*
X2195829Y6803644D01*
X2185670Y6793229D01*
X2169922Y6788150D01*
X2133600Y6788150D01*
X2277109Y6917944D02*
G01*
X2266695Y6907529D01*
X2256281Y6892036D01*
X2245868Y6871208D01*
X2240534Y6845300D01*
X2240534Y6824471D01*
X2245868Y6798310D01*
X2256281Y6777736D01*
X2266695Y6761987D01*
X2277109Y6751573D01*
X2311400Y6897115D02*
G01*
X2311400Y6788150D01*
X2311400Y6897115D02*
G01*
X2358136Y6897115D01*
X2373629Y6892036D01*
X2378709Y6886702D01*
X2384043Y6876287D01*
X2384043Y6860794D01*
X2378709Y6850379D01*
X2373629Y6845300D01*
X2358136Y6839965D01*
X2311400Y6839965D01*
X2418334Y6917944D02*
G01*
X2428747Y6907529D01*
X2439161Y6892036D01*
X2449575Y6871208D01*
X2454656Y6845300D01*
X2454656Y6824471D01*
X2449575Y6798310D01*
X2439161Y6777736D01*
X2428747Y6761987D01*
X2418334Y6751573D01*
X10243822Y6224023D02*
G01*
X10243822Y6115057D01*
X10243822Y6224023D02*
G01*
X10311386Y6224023D01*
X10243822Y6172207D02*
G01*
X10285478Y6172207D01*
X10345676Y6203195D02*
G01*
X10356090Y6208529D01*
X10371584Y6224023D01*
X10371584Y6115057D01*
X10442196Y6244851D02*
G01*
X10431782Y6234437D01*
X10421622Y6218943D01*
X10411208Y6198115D01*
X10405874Y6172207D01*
X10405874Y6151379D01*
X10411208Y6125217D01*
X10421622Y6104643D01*
X10431782Y6088895D01*
X10442196Y6078481D01*
X10476486Y6203195D02*
G01*
X10486900Y6208529D01*
X10502648Y6224023D01*
X10502648Y6115057D01*
X10536938Y6244851D02*
G01*
X10547352Y6234437D01*
X10557512Y6218943D01*
X10567926Y6198115D01*
X10573260Y6172207D01*
X10573260Y6151379D01*
X10567926Y6125217D01*
X10557512Y6104643D01*
X10547352Y6088895D01*
X10536938Y6078481D01*
X12669522Y6185923D02*
G01*
X12669522Y6076957D01*
X12669522Y6185923D02*
G01*
X12737086Y6185923D01*
X12669522Y6134107D02*
G01*
X12711178Y6134107D01*
X12771376Y6165095D02*
G01*
X12781790Y6170429D01*
X12797284Y6185923D01*
X12797284Y6076957D01*
X12867896Y6206751D02*
G01*
X12857482Y6196337D01*
X12847322Y6180843D01*
X12836908Y6160015D01*
X12831574Y6134107D01*
X12831574Y6113279D01*
X12836908Y6087117D01*
X12847322Y6066543D01*
X12857482Y6050795D01*
X12867896Y6040381D01*
X12907520Y6160015D02*
G01*
X12907520Y6165095D01*
X12912600Y6175509D01*
X12917934Y6180843D01*
X12928348Y6185923D01*
X12948922Y6185923D01*
X12959336Y6180843D01*
X12964670Y6175509D01*
X12969750Y6165095D01*
X12969750Y6154681D01*
X12964670Y6144267D01*
X12954256Y6128773D01*
X12902186Y6076957D01*
X12975084Y6076957D01*
X13009374Y6206751D02*
G01*
X13019788Y6196337D01*
X13030202Y6180843D01*
X13040362Y6160015D01*
X13045696Y6134107D01*
X13045696Y6113279D01*
X13040362Y6087117D01*
X13030202Y6066543D01*
X13019788Y6050795D01*
X13009374Y6040381D01*
X9812022Y6224023D02*
G01*
X9812022Y6115057D01*
X9812022Y6224023D02*
G01*
X9879586Y6224023D01*
X9812022Y6172207D02*
G01*
X9853678Y6172207D01*
X9918956Y6198115D02*
G01*
X9918956Y6203195D01*
X9924290Y6213609D01*
X9929370Y6218943D01*
X9939784Y6224023D01*
X9960612Y6224023D01*
X9971026Y6218943D01*
X9976106Y6213609D01*
X9981440Y6203195D01*
X9981440Y6192781D01*
X9976106Y6182367D01*
X9965692Y6166873D01*
X9913876Y6115057D01*
X9986520Y6115057D01*
X10057132Y6244851D02*
G01*
X10046972Y6234437D01*
X10036558Y6218943D01*
X10026144Y6198115D01*
X10020810Y6172207D01*
X10020810Y6151379D01*
X10026144Y6125217D01*
X10036558Y6104643D01*
X10046972Y6088895D01*
X10057132Y6078481D01*
X10091422Y6203195D02*
G01*
X10101836Y6208529D01*
X10117584Y6224023D01*
X10117584Y6115057D01*
X10151874Y6244851D02*
G01*
X10162288Y6234437D01*
X10172702Y6218943D01*
X10182862Y6198115D01*
X10188196Y6172207D01*
X10188196Y6151379D01*
X10182862Y6125217D01*
X10172702Y6104643D01*
X10162288Y6088895D01*
X10151874Y6078481D01*
X13088622Y6185923D02*
G01*
X13088622Y6076957D01*
X13088622Y6185923D02*
G01*
X13156186Y6185923D01*
X13088622Y6134107D02*
G01*
X13130278Y6134107D01*
X13195556Y6160015D02*
G01*
X13195556Y6165095D01*
X13200890Y6175509D01*
X13205970Y6180843D01*
X13216384Y6185923D01*
X13237212Y6185923D01*
X13247626Y6180843D01*
X13252706Y6175509D01*
X13258040Y6165095D01*
X13258040Y6154681D01*
X13252706Y6144267D01*
X13242292Y6128773D01*
X13190476Y6076957D01*
X13263120Y6076957D01*
X13333732Y6206751D02*
G01*
X13323572Y6196337D01*
X13313158Y6180843D01*
X13302744Y6160015D01*
X13297410Y6134107D01*
X13297410Y6113279D01*
X13302744Y6087117D01*
X13313158Y6066543D01*
X13323572Y6050795D01*
X13333732Y6040381D01*
X13373356Y6160015D02*
G01*
X13373356Y6165095D01*
X13378436Y6175509D01*
X13383770Y6180843D01*
X13394184Y6185923D01*
X13415012Y6185923D01*
X13425172Y6180843D01*
X13430506Y6175509D01*
X13435586Y6165095D01*
X13435586Y6154681D01*
X13430506Y6144267D01*
X13420092Y6128773D01*
X13368022Y6076957D01*
X13440920Y6076957D01*
X13475210Y6206751D02*
G01*
X13485624Y6196337D01*
X13496038Y6180843D01*
X13506452Y6160015D01*
X13511532Y6134107D01*
X13511532Y6113279D01*
X13506452Y6087117D01*
X13496038Y6066543D01*
X13485624Y6050795D01*
X13475210Y6040381D01*
X9385302Y5893823D02*
G01*
X9385302Y5784857D01*
X9457946Y5893823D02*
G01*
X9457946Y5784857D01*
X9385302Y5842007D02*
G01*
X9457946Y5842007D01*
X9492236Y5872995D02*
G01*
X9502650Y5878329D01*
X9518398Y5893823D01*
X9518398Y5784857D01*
X13741402Y5906523D02*
G01*
X13741402Y5797557D01*
X13814046Y5906523D02*
G01*
X13814046Y5797557D01*
X13741402Y5854707D02*
G01*
X13814046Y5854707D01*
X13853670Y5880615D02*
G01*
X13853670Y5885695D01*
X13858750Y5896109D01*
X13864084Y5901443D01*
X13874498Y5906523D01*
X13895072Y5906523D01*
X13905486Y5901443D01*
X13910820Y5896109D01*
X13915900Y5885695D01*
X13915900Y5875281D01*
X13910820Y5864867D01*
X13900406Y5849373D01*
X13848336Y5797557D01*
X13921234Y5797557D01*
X15379700Y5944615D02*
G01*
X15379700Y5835650D01*
X15452343Y5944615D02*
G01*
X15452343Y5835650D01*
X15379700Y5892800D02*
G01*
X15452343Y5892800D01*
X15497047Y5944615D02*
G01*
X15554197Y5944615D01*
X15523209Y5902960D01*
X15538704Y5902960D01*
X15549118Y5897879D01*
X15554197Y5892800D01*
X15559531Y5877052D01*
X15559531Y5866637D01*
X15554197Y5851144D01*
X15543784Y5840729D01*
X15528290Y5835650D01*
X15512795Y5835650D01*
X15497047Y5840729D01*
X15491968Y5845810D01*
X15486634Y5856223D01*
X16040100Y5931915D02*
G01*
X16040100Y5822950D01*
X16112743Y5931915D02*
G01*
X16112743Y5822950D01*
X16040100Y5880100D02*
G01*
X16112743Y5880100D01*
X16199104Y5931915D02*
G01*
X16147034Y5859271D01*
X16225011Y5859271D01*
X16199104Y5931915D02*
G01*
X16199104Y5822950D01*
X16687800Y5614415D02*
G01*
X16687800Y5505450D01*
X16760443Y5614415D02*
G01*
X16760443Y5505450D01*
X16687800Y5562600D02*
G01*
X16760443Y5562600D01*
X16794734Y5614415D02*
G01*
X16820895Y5505450D01*
X16846804Y5614415D02*
G01*
X16820895Y5505450D01*
X16846804Y5614415D02*
G01*
X16872711Y5505450D01*
X16898620Y5614415D02*
G01*
X16872711Y5505450D01*
X16964152Y5614415D02*
G01*
X16948658Y5609336D01*
X16938243Y5593587D01*
X16932909Y5567679D01*
X16932909Y5552186D01*
X16938243Y5526023D01*
X16948658Y5510529D01*
X16964152Y5505450D01*
X16974566Y5505450D01*
X16990059Y5510529D01*
X17000474Y5526023D01*
X17005808Y5552186D01*
X17005808Y5567679D01*
X17000474Y5593587D01*
X16990059Y5609336D01*
X16974566Y5614415D01*
X16964152Y5614415D01*
X17091913Y5614415D02*
G01*
X17040098Y5541771D01*
X17118075Y5541771D01*
X17091913Y5614415D02*
G01*
X17091913Y5505450D01*
X17183354Y5614415D02*
G01*
X17167859Y5609336D01*
X17157445Y5593587D01*
X17152366Y5567679D01*
X17152366Y5552186D01*
X17157445Y5526023D01*
X17167859Y5510529D01*
X17183354Y5505450D01*
X17193768Y5505450D01*
X17209516Y5510529D01*
X17219929Y5526023D01*
X17225009Y5552186D01*
X17225009Y5567679D01*
X17219929Y5593587D01*
X17209516Y5609336D01*
X17193768Y5614415D01*
X17183354Y5614415D01*
X1258570Y6859015D02*
G01*
X1258570Y6775958D01*
X1253236Y6760210D01*
X1248155Y6755129D01*
X1237742Y6750050D01*
X1227328Y6750050D01*
X1216913Y6755129D01*
X1211579Y6760210D01*
X1206500Y6775958D01*
X1206500Y6786371D01*
X1292860Y6838187D02*
G01*
X1303020Y6843521D01*
X1318768Y6859015D01*
X1318768Y6750050D01*
X5436260Y6229604D02*
G01*
X5436260Y6146545D01*
X5430926Y6130797D01*
X5425846Y6125718D01*
X5415432Y6120637D01*
X5405018Y6120637D01*
X5394604Y6125718D01*
X5389270Y6130797D01*
X5384190Y6146545D01*
X5384190Y6156960D01*
X5475630Y6203695D02*
G01*
X5475630Y6208776D01*
X5480710Y6219189D01*
X5486044Y6224523D01*
X5496458Y6229604D01*
X5517286Y6229604D01*
X5527700Y6224523D01*
X5532780Y6219189D01*
X5537860Y6208776D01*
X5537860Y6198362D01*
X5532780Y6187947D01*
X5522366Y6172454D01*
X5470550Y6120637D01*
X5543194Y6120637D01*
X6300470Y6224015D02*
G01*
X6300470Y6140957D01*
X6295136Y6125210D01*
X6290056Y6120129D01*
X6279641Y6115050D01*
X6269227Y6115050D01*
X6258813Y6120129D01*
X6253479Y6125210D01*
X6248400Y6140957D01*
X6248400Y6151371D01*
X6344920Y6224015D02*
G01*
X6402070Y6224015D01*
X6371081Y6182360D01*
X6386575Y6182360D01*
X6396990Y6177279D01*
X6402070Y6172200D01*
X6407404Y6156452D01*
X6407404Y6146037D01*
X6402070Y6130544D01*
X6391909Y6120129D01*
X6376161Y6115050D01*
X6360668Y6115050D01*
X6344920Y6120129D01*
X6339840Y6125210D01*
X6334759Y6135623D01*
X8637270Y648715D02*
G01*
X8637270Y565657D01*
X8631936Y549910D01*
X8626856Y544829D01*
X8616441Y539750D01*
X8606027Y539750D01*
X8595613Y544829D01*
X8590279Y549910D01*
X8585200Y565657D01*
X8585200Y576071D01*
X8723375Y648715D02*
G01*
X8671559Y576071D01*
X8749284Y576071D01*
X8723375Y648715D02*
G01*
X8723375Y539750D01*
X10034270Y661415D02*
G01*
X10034270Y578357D01*
X10028936Y562610D01*
X10023856Y557529D01*
X10013441Y552450D01*
X10003027Y552450D01*
X9992613Y557529D01*
X9987279Y562610D01*
X9982200Y578357D01*
X9982200Y588771D01*
X10130790Y661415D02*
G01*
X10078720Y661415D01*
X10073640Y614679D01*
X10078720Y619760D01*
X10094468Y625094D01*
X10109961Y625094D01*
X10125709Y619760D01*
X10135870Y609600D01*
X10141204Y593852D01*
X10141204Y583437D01*
X10135870Y567944D01*
X10125709Y557529D01*
X10109961Y552450D01*
X10094468Y552450D01*
X10078720Y557529D01*
X10073640Y562610D01*
X10068559Y573023D01*
X11277600Y458215D02*
G01*
X11277600Y349250D01*
X11277600Y458215D02*
G01*
X11324336Y458215D01*
X11339829Y453136D01*
X11345163Y447802D01*
X11350243Y437387D01*
X11350243Y426973D01*
X11345163Y416560D01*
X11339829Y411479D01*
X11324336Y406400D01*
X11277600Y406400D01*
X11313922Y406400D02*
G01*
X11350243Y349250D01*
X11384534Y437387D02*
G01*
X11394947Y442721D01*
X11410695Y458215D01*
X11410695Y349250D01*
X3427984Y5054600D02*
G01*
X3536950Y5054600D01*
X3427984Y5054600D02*
G01*
X3427984Y5101336D01*
X3433063Y5116829D01*
X3438397Y5122163D01*
X3448811Y5127244D01*
X3459225Y5127244D01*
X3469640Y5122163D01*
X3474720Y5116829D01*
X3479800Y5101336D01*
X3479800Y5054600D01*
X3479800Y5090921D02*
G01*
X3536950Y5127244D01*
X3427984Y5161534D02*
G01*
X3536950Y5161534D01*
X3536950Y5161534D02*
G01*
X3536950Y5224018D01*
X3427984Y5258307D02*
G01*
X3479800Y5299710D01*
X3536950Y5299710D01*
X3427984Y5341365D02*
G01*
X3479800Y5299710D01*
X3448811Y5375655D02*
G01*
X3443477Y5386070D01*
X3427984Y5401563D01*
X3536950Y5401563D01*
X11633205Y5893831D02*
G01*
X11633205Y5815853D01*
X11638285Y5800359D01*
X11648699Y5789945D01*
X11664447Y5784865D01*
X11674861Y5784865D01*
X11690355Y5789945D01*
X11700769Y5800359D01*
X11705849Y5815853D01*
X11705849Y5893831D01*
X11740139Y5873003D02*
G01*
X11750553Y5878337D01*
X11766301Y5893831D01*
X11766301Y5784865D01*
X13641450Y258698D02*
G01*
X13641450Y180720D01*
X13646531Y165227D01*
X13656945Y154812D01*
X13672693Y149732D01*
X13683106Y149732D01*
X13698600Y154812D01*
X13709015Y165227D01*
X13714095Y180720D01*
X13714095Y258698D01*
X13753718Y232790D02*
G01*
X13753718Y237870D01*
X13758799Y248285D01*
X13764133Y253619D01*
X13774547Y258698D01*
X13795120Y258698D01*
X13805534Y253619D01*
X13810868Y248285D01*
X13815949Y237870D01*
X13815949Y227456D01*
X13810868Y217043D01*
X13800454Y201548D01*
X13748384Y149732D01*
X13821283Y149732D01*
X13068300Y242315D02*
G01*
X13068300Y164337D01*
X13073379Y148844D01*
X13083793Y138429D01*
X13099541Y133350D01*
X13109956Y133350D01*
X13125450Y138429D01*
X13135863Y148844D01*
X13140943Y164337D01*
X13140943Y242315D01*
X13185647Y242315D02*
G01*
X13242797Y242315D01*
X13211809Y200660D01*
X13227304Y200660D01*
X13237718Y195579D01*
X13242797Y190500D01*
X13248131Y174752D01*
X13248131Y164337D01*
X13242797Y148844D01*
X13232384Y138429D01*
X13216890Y133350D01*
X13201395Y133350D01*
X13185647Y138429D01*
X13180568Y143510D01*
X13175234Y153923D01*
X12521311Y235838D02*
G01*
X12521311Y157861D01*
X12526390Y142367D01*
X12536804Y131953D01*
X12552552Y126872D01*
X12562966Y126872D01*
X12578461Y131953D01*
X12588875Y142367D01*
X12593954Y157861D01*
X12593954Y235838D01*
X12680315Y235838D02*
G01*
X12628245Y163195D01*
X12706222Y163195D01*
X12680315Y235838D02*
G01*
X12680315Y126872D01*
X11952350Y245998D02*
G01*
X11952350Y168020D01*
X11957431Y152527D01*
X11967845Y142112D01*
X11983593Y137032D01*
X11994006Y137032D01*
X12009500Y142112D01*
X12019915Y152527D01*
X12024995Y168020D01*
X12024995Y245998D01*
X12121768Y245998D02*
G01*
X12069699Y245998D01*
X12064618Y199262D01*
X12069699Y204343D01*
X12085447Y209677D01*
X12100940Y209677D01*
X12116434Y204343D01*
X12126849Y194182D01*
X12132183Y178435D01*
X12132183Y168020D01*
X12126849Y152527D01*
X12116434Y142112D01*
X12100940Y137032D01*
X12085447Y137032D01*
X12069699Y142112D01*
X12064618Y147193D01*
X12059284Y157606D01*
D12*
X15570200Y1285239D02*
G01*
X15392400Y1285239D01*
X15392400Y1130300D01*
X15570200Y1130300D01*
X15570200Y1285239D01*
X16217900Y1297939D02*
G01*
X16040100Y1297939D01*
X16040100Y1143000D01*
X16217900Y1143000D01*
X16217900Y1297939D01*
X7165340Y5181600D02*
G01*
X7165340Y5359400D01*
X7010400Y5359400D01*
X7010400Y5181600D01*
X7165340Y5181600D01*
X7165340Y6311900D02*
G01*
X7165340Y6489700D01*
X7010400Y6489700D01*
X7010400Y6311900D01*
X7165340Y6311900D01*
X8562340Y5181600D02*
G01*
X8562340Y5359400D01*
X8407400Y5359400D01*
X8407400Y5181600D01*
X8562340Y5181600D01*
X8562340Y6324600D02*
G01*
X8562340Y6502400D01*
X8407400Y6502400D01*
X8407400Y6324600D01*
X8562340Y6324600D01*
X3164840Y6426200D02*
G01*
X3164840Y6604000D01*
X3009900Y6604000D01*
X3009900Y6426200D01*
X3164840Y6426200D01*
X3152140Y5816600D02*
G01*
X3152140Y5994400D01*
X2997200Y5994400D01*
X2997200Y5816600D01*
X3152140Y5816600D01*
X15570200Y3418839D02*
G01*
X15392400Y3418839D01*
X15392400Y3263900D01*
X15570200Y3263900D01*
X15570200Y3418839D01*
X16217900Y3380739D02*
G01*
X16040100Y3380739D01*
X16040100Y3225800D01*
X16217900Y3225800D01*
X16217900Y3380739D01*
X15570200Y1996439D02*
G01*
X15392400Y1996439D01*
X15392400Y1841500D01*
X15570200Y1841500D01*
X15570200Y1996439D01*
X16217900Y1992205D02*
G01*
X16040100Y1992205D01*
X16040100Y1837265D01*
X16217900Y1837265D01*
X16217900Y1992205D01*
X15570200Y2707639D02*
G01*
X15392400Y2707639D01*
X15392400Y2552700D01*
X15570200Y2552700D01*
X15570200Y2707639D01*
X16217900Y2686474D02*
G01*
X16040100Y2686474D01*
X16040100Y2531534D01*
X16217900Y2531534D01*
X16217900Y2686474D01*
X2632496Y1892503D02*
G01*
X2835696Y1892503D01*
X2632496Y3822501D02*
G01*
X2835696Y3822501D01*
X7273503Y3924096D02*
G01*
X7273503Y3720896D01*
X7375103Y3822496D02*
G01*
X7171903Y3822496D01*
X7273500Y1994100D02*
G01*
X7273500Y1790900D01*
X7375100Y1892500D02*
G01*
X7171900Y1892500D01*
X8877300Y2857500D02*
G01*
X1117600Y2857500D01*
X8898788Y851992D02*
G01*
X1108786Y851992D01*
X1108786Y4862982D01*
X8898788Y4862982D01*
X8898788Y851992D01*
X2592499Y6725102D02*
G01*
X2042497Y6725102D01*
X2042497Y6305108D02*
G01*
X2592499Y6305108D01*
D13*
X10236200Y6032500D02*
G01*
X10223500Y6032500D01*
X10223500Y952500D01*
X10490200Y952500D01*
X10490200Y6032500D01*
X10236200Y6032500D01*
X13030200Y952500D02*
G01*
X13042900Y952500D01*
X13042900Y6032500D01*
X12776200Y6032500D01*
X12776200Y952500D01*
X13030200Y952500D01*
X9880600Y6032500D02*
G01*
X9867900Y6032500D01*
X9867900Y952500D01*
X10134600Y952500D01*
X10134600Y6032500D01*
X9880600Y6032500D01*
X13385800Y952500D02*
G01*
X13398500Y952500D01*
X13398500Y6032500D01*
X13131800Y6032500D01*
X13131800Y952500D01*
X13385800Y952500D01*
X15341600Y4470400D02*
G01*
X15341600Y4279900D01*
X15595600Y4279900D01*
X15595600Y5803900D01*
X15341600Y5803900D01*
D14*
X15341600Y5803900D02*
G01*
X15341600Y4470400D01*
D13*
X16002000Y4457700D02*
G01*
X16002000Y4267200D01*
X16256000Y4267200D01*
X16256000Y5791200D01*
X16002000Y5791200D01*
D14*
X16002000Y5791200D02*
G01*
X16002000Y4457700D01*
D11*
X11419860Y664921D02*
G01*
X11419860Y760808D01*
X11287739Y760808D01*
X11287739Y664921D01*
X11419860Y579678D02*
G01*
X11419860Y483791D01*
X11287739Y483791D01*
X11287739Y579678D01*
D15*
X4276415Y5574700D02*
G01*
X3781501Y5574700D01*
X4981498Y5574700D02*
G01*
X4486625Y5574700D01*
X4981496Y5574700D02*
G01*
X4981498Y5472912D01*
X3781503Y5574700D02*
G01*
X3781501Y5472912D01*
X4807204Y6520738D02*
G01*
X4412741Y6520738D01*
X4311395Y6418910D02*
G01*
X4150613Y6583959D01*
X4201500Y5100726D02*
G01*
X4008780Y5100726D01*
X4008780Y5964326D01*
X4308779Y5964326D01*
X4311195Y5966739D01*
X4311195Y6368338D01*
X4311195Y6419138D01*
D12*
X5161498Y6854009D02*
G01*
X5161498Y4933998D01*
X3601496Y6853996D02*
G01*
X3601496Y4933985D01*
X5161500Y6853999D02*
G01*
X3601499Y6853999D01*
X3956811Y6513829D02*
G01*
X4179570Y6513829D01*
X3601496Y4933985D02*
G01*
X4352030Y4933985D01*
X4410969Y4933985D02*
G01*
X5161498Y4933985D01*
X4281500Y5426405D02*
G01*
X4281500Y5726404D01*
X4481499Y5726404D01*
X4481499Y5426405D01*
X4281500Y5426405D01*
X13878686Y769490D02*
G01*
X13878686Y373509D01*
X13319886Y769490D02*
G01*
X13319886Y373509D01*
X12748386Y769490D02*
G01*
X12748386Y373509D01*
X12189586Y769490D02*
G01*
X12189586Y373509D01*
G75*
G01*
X13878814Y769620D02*
G03*
X13878814Y373380I-149840J-198120D01*
G75*
G01*
X13320014Y769620D02*
G03*
X13320014Y373380I-149840J-198120D01*
G75*
G01*
X12748514Y769620D02*
G03*
X12748514Y373380I-149840J-198120D01*
G75*
G01*
X12189714Y769620D02*
G03*
X12189714Y373380I-149840J-198120D01*
G75*
G01
X7415479Y1892503D02*
G03X7415479Y1892503I-141986J0D01*
G75*
G01
X7415479Y3822497D02*
G03X7415479Y3822497I-141986J0D01*
G75*
G01
X2876093Y3822497D02*
G03X2876093Y3822497I-141986J0D01*
G75*
G01
X2876093Y1892503D02*
G03X2876093Y1892503I-141986J0D01*
G75*
G01
X1979219Y6740093D02*
G03X1979219Y6740093I-11709J0D01*
G75*
G01
X3731463Y6773901D02*
G03X3731463Y6773901I-50013J0D01*
M02*
