G04 Layer: BottomSolderMaskLayer*
G04 EasyEDA v6.5.9, 2022-08-06 01:20:59*
G04 9b1ba566d4af4bc6ab690ab6380ac67e,c09117847ad249c1abd8b20aa127d3a4,10*
G04 Gerber Generator version 0.2*
G04 Scale: 100 percent, Rotated: No, Reflected: No *
G04 Dimensions in millimeters *
G04 leading zeros omitted , absolute positions ,4 integer and 5 decimal *
%FSLAX45Y45*%
%MOMM*%

%ADD10C,3.1000*%
%ADD11C,1.0016*%
%ADD12C,1.6764*%
%ADD13R,1.6764X1.6764*%
%ADD14C,2.1016*%
%ADD15C,2.2032*%
%ADD16C,1.7032*%
%ADD17C,2.8956*%
%ADD18C,1.7272*%
%ADD19C,1.9016*%
%ADD20C,0.0177*%

%LPD*%
D10*
X8622309Y1822503D02*
G01*
X8622309Y1962503D01*
X8622309Y3752496D02*
G01*
X8622309Y3892496D01*
X1385290Y1822503D02*
G01*
X1385290Y1962503D01*
X1385290Y3752496D02*
G01*
X1385290Y3892496D01*
D11*
X13693701Y698500D02*
G01*
X13763701Y698500D01*
X13693701Y571500D02*
G01*
X13763701Y571500D01*
X13134901Y698500D02*
G01*
X13204901Y698500D01*
X13134901Y571500D02*
G01*
X13204901Y571500D01*
X12563401Y698500D02*
G01*
X12633401Y698500D01*
X12563401Y571500D02*
G01*
X12633401Y571500D01*
X12004601Y698500D02*
G01*
X12074601Y698500D01*
X12004601Y571500D02*
G01*
X12074601Y571500D01*
D10*
X8622309Y3892496D02*
G01*
X8622309Y3752496D01*
X8622309Y1962503D02*
G01*
X8622309Y1822503D01*
X1385290Y3892496D02*
G01*
X1385290Y3752496D01*
X1385290Y1962503D02*
G01*
X1385290Y1822503D01*
D12*
G01*
X10363200Y5905500D03*
G01*
X10363200Y5651500D03*
G01*
X10363200Y5397500D03*
G01*
X10363200Y5143500D03*
G01*
X10363200Y4889500D03*
G01*
X10363200Y4635500D03*
G01*
X10363200Y4381500D03*
G01*
X10363200Y4127500D03*
G01*
X10363200Y3873500D03*
G01*
X10363200Y3619500D03*
G01*
X10363200Y3365500D03*
G01*
X10363200Y3111500D03*
G01*
X10363200Y2857500D03*
G01*
X10363200Y2603500D03*
G01*
X10363200Y2349500D03*
G01*
X10363200Y2095500D03*
G01*
X10363200Y1841500D03*
G01*
X10363200Y1587500D03*
G01*
X10363200Y1333500D03*
D13*
G01*
X10363200Y1079500D03*
D12*
G01*
X12903200Y1079500D03*
G01*
X12903200Y1333500D03*
G01*
X12903200Y1587500D03*
G01*
X12903200Y1841500D03*
G01*
X12903200Y2095500D03*
G01*
X12903200Y2349500D03*
G01*
X12903200Y2603500D03*
G01*
X12903200Y2857500D03*
G01*
X12903200Y3111500D03*
G01*
X12903200Y3365500D03*
G01*
X12903200Y3619500D03*
G01*
X12903200Y3873500D03*
G01*
X12903200Y4127500D03*
G01*
X12903200Y4381500D03*
G01*
X12903200Y4635500D03*
G01*
X12903200Y4889500D03*
G01*
X12903200Y5143500D03*
G01*
X12903200Y5397500D03*
G01*
X12903200Y5651500D03*
G36*
X12819379Y5821679D02*
G01*
X12819379Y5989320D01*
X12987020Y5989320D01*
X12987020Y5821679D01*
G37*
G01*
X10007600Y5905500D03*
G01*
X10007600Y5651500D03*
G01*
X10007600Y5397500D03*
G01*
X10007600Y5143500D03*
G01*
X10007600Y4889500D03*
G01*
X10007600Y4635500D03*
G01*
X10007600Y4381500D03*
G01*
X10007600Y4127500D03*
G01*
X10007600Y3873500D03*
G01*
X10007600Y3619500D03*
G01*
X10007600Y3365500D03*
G01*
X10007600Y3111500D03*
G01*
X10007600Y2857500D03*
G01*
X10007600Y2603500D03*
G01*
X10007600Y2349500D03*
G01*
X10007600Y2095500D03*
G01*
X10007600Y1841500D03*
G01*
X10007600Y1587500D03*
G01*
X10007600Y1333500D03*
D13*
G01*
X10007600Y1079500D03*
D12*
G01*
X13258800Y1079500D03*
G01*
X13258800Y1333500D03*
G01*
X13258800Y1587500D03*
G01*
X13258800Y1841500D03*
G01*
X13258800Y2095500D03*
G01*
X13258800Y2349500D03*
G01*
X13258800Y2603500D03*
G01*
X13258800Y2857500D03*
G01*
X13258800Y3111500D03*
G01*
X13258800Y3365500D03*
G01*
X13258800Y3619500D03*
G01*
X13258800Y3873500D03*
G01*
X13258800Y4127500D03*
G01*
X13258800Y4381500D03*
G01*
X13258800Y4635500D03*
G01*
X13258800Y4889500D03*
G01*
X13258800Y5143500D03*
G01*
X13258800Y5397500D03*
G01*
X13258800Y5651500D03*
G36*
X13174979Y5821679D02*
G01*
X13174979Y5989320D01*
X13342620Y5989320D01*
X13342620Y5821679D01*
G37*
D14*
G01*
X9702800Y5651500D03*
G01*
X9448800Y5651500D03*
D15*
G01*
X9194800Y5651500D03*
D14*
G01*
X14084300Y5651500D03*
G01*
X13830300Y5651500D03*
D15*
G01*
X13576300Y5651500D03*
D12*
G01*
X15468600Y5676900D03*
G01*
X15468600Y5422900D03*
G01*
X15468600Y5168900D03*
G01*
X15468600Y4914900D03*
G01*
X15468600Y4660900D03*
D13*
G01*
X15468600Y4406900D03*
D12*
G01*
X16129000Y5664200D03*
G01*
X16129000Y5410200D03*
G01*
X16129000Y5156200D03*
G01*
X16129000Y4902200D03*
G01*
X16129000Y4648200D03*
D13*
G01*
X16129000Y4394200D03*
D14*
G01*
X16459200Y5842000D03*
G01*
X16713200Y5842000D03*
D15*
G01*
X16967200Y5842000D03*
G01*
X17221200Y5842000D03*
G01*
X17475200Y5842000D03*
D16*
G01*
X1397000Y6350000D03*
G01*
X1397000Y6604000D03*
G01*
X5612790Y5745987D03*
G01*
X5612790Y5999987D03*
G01*
X6210300Y5994400D03*
G01*
X6210300Y5740400D03*
G01*
X9064701Y472998D03*
G01*
X9064701Y726998D03*
G01*
X9664700Y723900D03*
G01*
X9664700Y469900D03*
D17*
G01*
X4981447Y6513906D03*
G01*
X4381500Y5093893D03*
G01*
X3781501Y5293893D03*
G01*
X4981498Y5293893D03*
G01*
X3781552Y6513906D03*
D18*
G01*
X10363200Y5651500D03*
G01*
X10363200Y5397500D03*
G01*
X10363200Y5143500D03*
G01*
X10363200Y4889500D03*
G01*
X10363200Y4635500D03*
G01*
X10363200Y4381500D03*
G01*
X10363200Y4127500D03*
G01*
X10363200Y3873500D03*
G01*
X10363200Y3619500D03*
G01*
X10363200Y3365500D03*
G01*
X10363200Y3111500D03*
G01*
X10363200Y2857500D03*
G01*
X10363200Y2603500D03*
G01*
X10363200Y2349500D03*
G01*
X10363200Y2095500D03*
G01*
X10363200Y1841500D03*
G01*
X10363200Y1587500D03*
G01*
X10363200Y1333500D03*
G01*
X10363200Y1079500D03*
G01*
X12903200Y1079500D03*
G01*
X12903200Y1333500D03*
G01*
X12903200Y1587500D03*
G01*
X12903200Y1841500D03*
G01*
X12903200Y2095500D03*
G01*
X12903200Y2349500D03*
G01*
X12903200Y2603500D03*
G01*
X12903200Y2857500D03*
G01*
X12903200Y3111500D03*
G01*
X12903200Y3365500D03*
G01*
X12903200Y3619500D03*
G01*
X12903200Y3873500D03*
G01*
X12903200Y4127500D03*
G01*
X12903200Y4381500D03*
G01*
X12903200Y4635500D03*
G01*
X12903200Y4889500D03*
G01*
X12903200Y5143500D03*
G01*
X12903200Y5397500D03*
G01*
X12903200Y5651500D03*
G36*
X13643609Y394462D02*
G01*
X13643609Y494537D01*
X13813790Y494537D01*
X13813790Y394462D01*
G37*
G36*
X13084809Y394462D02*
G01*
X13084809Y494537D01*
X13254990Y494537D01*
X13254990Y394462D01*
G37*
G36*
X12513309Y394462D02*
G01*
X12513309Y494537D01*
X12683490Y494537D01*
X12683490Y394462D01*
G37*
G36*
X11954509Y394462D02*
G01*
X11954509Y494537D01*
X12124690Y494537D01*
X12124690Y394462D01*
G37*
D19*
G01*
X9199372Y5150612D03*
G01*
X9199372Y4896612D03*
G01*
X9199372Y4642612D03*
G01*
X9199372Y4388612D03*
G01*
X9199372Y4134612D03*
G01*
X9199372Y3880612D03*
G01*
X9199372Y3626612D03*
G01*
X9199372Y3372865D03*
G01*
X9199372Y3118865D03*
G01*
X9199372Y2864865D03*
G01*
X9199372Y2610865D03*
G01*
X9199372Y2356865D03*
G01*
X9199372Y2102865D03*
G36*
X9104629Y1753870D02*
G01*
X9104629Y1944115D01*
X9294622Y1944115D01*
X9294622Y1753870D01*
G37*
G01*
X17299686Y3880612D03*
G01*
X17299686Y3626612D03*
G01*
X17299686Y3372865D03*
G36*
X17204690Y3023870D02*
G01*
X17204690Y3213862D01*
X17394681Y3213862D01*
X17394681Y3023870D01*
G37*
D14*
G01*
X15138400Y4127500D03*
G01*
X15138400Y3873500D03*
D15*
G01*
X15138400Y3619500D03*
G01*
X15138400Y3365500D03*
G01*
X15138400Y3111500D03*
G01*
X15138400Y2857500D03*
G01*
X15138400Y2603500D03*
G01*
X15138400Y2349500D03*
D14*
G01*
X14770100Y5397500D03*
G01*
X14770100Y5143500D03*
D15*
G01*
X14770100Y4889500D03*
G01*
X14770100Y4635500D03*
G01*
X14770100Y4381500D03*
G01*
X14770100Y4127500D03*
G01*
X14770100Y3873500D03*
G01*
X14770100Y3619500D03*
D14*
G01*
X14719300Y2882900D03*
G01*
X14719300Y2628900D03*
D15*
G01*
X14719300Y2374900D03*
G01*
X14719300Y2120900D03*
G01*
X14719300Y1866900D03*
G01*
X14719300Y1612900D03*
G01*
X14719300Y1358900D03*
G01*
X14719300Y1104900D03*
M02*
