G04 Layer: BottomSilkscreenLayer*
G04 EasyEDA v6.5.9, 2022-08-06 01:20:59*
G04 9b1ba566d4af4bc6ab690ab6380ac67e,c09117847ad249c1abd8b20aa127d3a4,10*
G04 Gerber Generator version 0.2*
G04 Scale: 100 percent, Rotated: No, Reflected: No *
G04 Dimensions in millimeters *
G04 leading zeros omitted , absolute positions ,4 integer and 5 decimal *
%FSLAX45Y45*%
%MOMM*%

%ADD10C,0.1000*%
%ADD11C,0.2032*%
%ADD12C,0.1524*%
%ADD13C,0.2540*%

%LPD*%
G36*
X16809974Y6974433D02*
G01*
X16795800Y6974078D01*
X16781373Y6973163D01*
X16767149Y6971690D01*
X16753484Y6969709D01*
X16740886Y6967270D01*
X16729811Y6964375D01*
X16724985Y6962800D01*
X16713352Y6958177D01*
X16702024Y6952894D01*
X16691000Y6947001D01*
X16680281Y6940448D01*
X16669918Y6933336D01*
X16659961Y6925716D01*
X16650462Y6917588D01*
X16641318Y6908952D01*
X16632682Y6899909D01*
X16624503Y6890410D01*
X16616832Y6880606D01*
X16609720Y6870446D01*
X16603167Y6859930D01*
X16597172Y6849211D01*
X16591838Y6838238D01*
X16587114Y6827062D01*
X16582999Y6815683D01*
X16579646Y6804202D01*
X16578173Y6798462D01*
X16575887Y6786829D01*
X16574312Y6775145D01*
X16573453Y6760768D01*
X16583812Y6760768D01*
X16584168Y6771843D01*
X16585184Y6782765D01*
X16586860Y6793636D01*
X16589197Y6804304D01*
X16592143Y6814870D01*
X16595750Y6825284D01*
X16599916Y6835444D01*
X16604742Y6845452D01*
X16610126Y6855256D01*
X16616070Y6864807D01*
X16622572Y6874103D01*
X16629684Y6883095D01*
X16637304Y6891832D01*
X16645432Y6900214D01*
X16654068Y6908342D01*
X16663263Y6916064D01*
X16672915Y6923430D01*
X16683075Y6930440D01*
X16693692Y6937044D01*
X16704767Y6943242D01*
X16716298Y6949033D01*
X16728490Y6954520D01*
X16739209Y6958482D01*
X16744442Y6960006D01*
X16749725Y6961276D01*
X16755313Y6962292D01*
X16761307Y6963105D01*
X16775125Y6964222D01*
X16792448Y6964883D01*
X16808602Y6965035D01*
X16822826Y6964578D01*
X16835628Y6963308D01*
X16847464Y6961174D01*
X16853204Y6959752D01*
X16864584Y6956044D01*
X16870324Y6953808D01*
X16882313Y6948322D01*
X16895318Y6941566D01*
X16899991Y6938772D01*
X16904614Y6935520D01*
X16909288Y6931812D01*
X16913860Y6927748D01*
X16918381Y6923278D01*
X16922851Y6918452D01*
X16927220Y6913321D01*
X16935551Y6902246D01*
X16939514Y6896353D01*
X16946829Y6884060D01*
X16953331Y6871208D01*
X16958767Y6858101D01*
X16961053Y6851497D01*
X16963034Y6844944D01*
X16964660Y6838442D01*
X16967606Y6822998D01*
X16967758Y6820662D01*
X16967454Y6818528D01*
X16966641Y6816394D01*
X16965117Y6814210D01*
X16962831Y6811873D01*
X16959630Y6809282D01*
X16955465Y6806285D01*
X16943476Y6798716D01*
X16848531Y6742226D01*
X16818152Y6723583D01*
X16766387Y6814312D01*
X16744035Y6852259D01*
X16735958Y6865010D01*
X16729760Y6873951D01*
X16727373Y6876999D01*
X16725341Y6879183D01*
X16723766Y6880504D01*
X16722547Y6880961D01*
X16721683Y6880606D01*
X16721175Y6879488D01*
X16721023Y6877608D01*
X16724426Y6870496D01*
X16733621Y6853478D01*
X16747236Y6828993D01*
X16784269Y6763410D01*
X16796918Y6740042D01*
X16804792Y6724599D01*
X16806773Y6719722D01*
X16804792Y6716369D01*
X16799407Y6710934D01*
X16791482Y6704126D01*
X16745762Y6669735D01*
X16715130Y6645960D01*
X16673474Y6613144D01*
X16651986Y6626555D01*
X16641978Y6633972D01*
X16637203Y6637985D01*
X16628262Y6646570D01*
X16620032Y6655866D01*
X16616172Y6660794D01*
X16609110Y6671056D01*
X16605859Y6676390D01*
X16600017Y6687515D01*
X16595039Y6699148D01*
X16592854Y6705142D01*
X16589197Y6717385D01*
X16586454Y6730085D01*
X16585438Y6736537D01*
X16584676Y6743039D01*
X16583913Y6755231D01*
X16583812Y6760768D01*
X16573453Y6760768D01*
X16573144Y6746138D01*
X16571823Y6740296D01*
X16568623Y6738670D01*
X16559682Y6740753D01*
X16549369Y6742328D01*
X16534892Y6743903D01*
X16517975Y6745274D01*
X16500652Y6746240D01*
X16486174Y6746646D01*
X16479875Y6746595D01*
X16468496Y6745833D01*
X16457980Y6744208D01*
X16452697Y6743039D01*
X16441521Y6739890D01*
X16429228Y6735724D01*
X16417594Y6731253D01*
X16406520Y6726326D01*
X16395903Y6720992D01*
X16385743Y6715048D01*
X16375888Y6708597D01*
X16366337Y6701485D01*
X16356888Y6693712D01*
X16347541Y6685178D01*
X16338194Y6675831D01*
X16328999Y6665823D01*
X16320465Y6655511D01*
X16312642Y6644944D01*
X16305580Y6634124D01*
X16299281Y6623100D01*
X16293693Y6611874D01*
X16288816Y6600494D01*
X16284701Y6589014D01*
X16281349Y6577482D01*
X16278707Y6565849D01*
X16276777Y6554266D01*
X16275608Y6542633D01*
X16275202Y6531102D01*
X16275270Y6527241D01*
X16284041Y6527241D01*
X16284194Y6538112D01*
X16285057Y6548983D01*
X16286683Y6559905D01*
X16288969Y6570725D01*
X16291915Y6581495D01*
X16295522Y6592214D01*
X16299738Y6602730D01*
X16304615Y6613144D01*
X16310051Y6623354D01*
X16316045Y6633311D01*
X16322649Y6643065D01*
X16329761Y6652463D01*
X16337432Y6661607D01*
X16345560Y6670395D01*
X16354196Y6678777D01*
X16363289Y6686803D01*
X16372840Y6694373D01*
X16382796Y6701434D01*
X16393160Y6708038D01*
X16403929Y6714134D01*
X16417391Y6720840D01*
X16430701Y6726885D01*
X16436492Y6729120D01*
X16442080Y6731000D01*
X16447566Y6732473D01*
X16453256Y6733641D01*
X16459301Y6734505D01*
X16466007Y6735165D01*
X16482110Y6736029D01*
X16498569Y6736435D01*
X16511676Y6736384D01*
X16524122Y6735927D01*
X16535501Y6735064D01*
X16545255Y6733946D01*
X16553078Y6732524D01*
X16556075Y6731711D01*
X16561409Y6729831D01*
X16565778Y6727901D01*
X16569436Y6725666D01*
X16572433Y6723024D01*
X16574973Y6719773D01*
X16577208Y6715709D01*
X16579392Y6710629D01*
X16585641Y6693763D01*
X16590467Y6683400D01*
X16593108Y6678320D01*
X16599001Y6668465D01*
X16605605Y6658914D01*
X16612920Y6649770D01*
X16620896Y6640982D01*
X16629481Y6632651D01*
X16638727Y6624777D01*
X16648582Y6617411D01*
X16655592Y6612636D01*
X16658285Y6610197D01*
X16658945Y6608825D01*
X16659047Y6607251D01*
X16658539Y6605371D01*
X16657370Y6603136D01*
X16655440Y6600393D01*
X16648988Y6593078D01*
X16638727Y6582714D01*
X16604335Y6550050D01*
X16544086Y6493408D01*
X16469055Y6568236D01*
X16443299Y6593128D01*
X16432174Y6603492D01*
X16414800Y6618731D01*
X16409111Y6623100D01*
X16407180Y6624370D01*
X16405860Y6624929D01*
X16405250Y6624828D01*
X16405301Y6624066D01*
X16407434Y6620560D01*
X16411956Y6614718D01*
X16418712Y6606844D01*
X16427348Y6597243D01*
X16449344Y6574028D01*
X16500500Y6522161D01*
X16520109Y6501638D01*
X16532301Y6488125D01*
X16534993Y6484721D01*
X16535349Y6483959D01*
X16534739Y6482537D01*
X16530624Y6476339D01*
X16523207Y6466636D01*
X16487698Y6423914D01*
X16472509Y6404711D01*
X16466362Y6396634D01*
X16447312Y6370167D01*
X16417747Y6374130D01*
X16406012Y6376720D01*
X16393972Y6380327D01*
X16381933Y6384848D01*
X16370147Y6390182D01*
X16358819Y6396177D01*
X16348201Y6402781D01*
X16338550Y6409842D01*
X16334130Y6413500D01*
X16329964Y6417462D01*
X16325850Y6421932D01*
X16321735Y6426911D01*
X16317722Y6432346D01*
X16310000Y6444234D01*
X16306342Y6450634D01*
X16299637Y6463995D01*
X16293896Y6477762D01*
X16291458Y6484670D01*
X16289324Y6491478D01*
X16287546Y6498183D01*
X16286175Y6504736D01*
X16284600Y6516420D01*
X16284041Y6527241D01*
X16275270Y6527241D01*
X16275557Y6519570D01*
X16276624Y6508242D01*
X16278453Y6497015D01*
X16280993Y6485940D01*
X16284346Y6475120D01*
X16288410Y6464503D01*
X16293236Y6454190D01*
X16298824Y6444183D01*
X16305123Y6434480D01*
X16312184Y6425184D01*
X16320058Y6416294D01*
X16328847Y6407556D01*
X16337889Y6399530D01*
X16346932Y6392621D01*
X16356228Y6386626D01*
X16361054Y6383883D01*
X16371366Y6378956D01*
X16382695Y6374536D01*
X16395344Y6370421D01*
X16409619Y6366560D01*
X16438727Y6359144D01*
X16412006Y6312560D01*
X16404742Y6299250D01*
X16398087Y6286347D01*
X16392042Y6273800D01*
X16386556Y6261608D01*
X16381679Y6249670D01*
X16377361Y6237986D01*
X16373551Y6226556D01*
X16370300Y6215380D01*
X16367607Y6204407D01*
X16365474Y6193586D01*
X16363797Y6182918D01*
X16362680Y6172403D01*
X16362070Y6161989D01*
X16361968Y6148781D01*
X16369131Y6148781D01*
X16369182Y6155944D01*
X16370147Y6170777D01*
X16372332Y6186119D01*
X16375735Y6201968D01*
X16377818Y6210096D01*
X16380206Y6218326D01*
X16385844Y6235141D01*
X16390772Y6248044D01*
X16398290Y6265570D01*
X16406876Y6283452D01*
X16416528Y6301740D01*
X16427094Y6320282D01*
X16438727Y6339078D01*
X16444874Y6348628D01*
X16461282Y6372606D01*
X16475405Y6392011D01*
X16490442Y6411620D01*
X16510457Y6436207D01*
X16531742Y6460998D01*
X16549674Y6480810D01*
X16568369Y6500723D01*
X16592804Y6525514D01*
X16613174Y6545275D01*
X16634206Y6564934D01*
X16661485Y6589369D01*
X16683990Y6608673D01*
X16707104Y6627825D01*
X16730827Y6646773D01*
X16755059Y6665417D01*
X16779900Y6683756D01*
X16811599Y6706260D01*
X16837507Y6723837D01*
X16869918Y6744817D01*
X16888206Y6756146D01*
X16906798Y6767220D01*
X16931944Y6781495D01*
X16957294Y6795211D01*
X16989196Y6811518D01*
X17014698Y6823811D01*
X17033748Y6832549D01*
X17065091Y6846112D01*
X17083582Y6853631D01*
X17107814Y6862876D01*
X17131334Y6871157D01*
X17154093Y6878472D01*
X17175937Y6884720D01*
X17196714Y6889851D01*
X17216272Y6893814D01*
X17225619Y6895388D01*
X17234560Y6896608D01*
X17270323Y6900265D01*
X17285563Y6901484D01*
X17297196Y6902145D01*
X17306137Y6902246D01*
X17313198Y6901840D01*
X17324527Y6900113D01*
X17339970Y6897166D01*
X17354194Y6893712D01*
X17367097Y6889800D01*
X17378781Y6885330D01*
X17389297Y6880250D01*
X17394123Y6877507D01*
X17398644Y6874611D01*
X17402911Y6871512D01*
X17410633Y6864858D01*
X17414087Y6861251D01*
X17417237Y6857492D01*
X17420183Y6853529D01*
X17422876Y6849364D01*
X17425314Y6845046D01*
X17427549Y6840474D01*
X17429530Y6835698D01*
X17431258Y6830771D01*
X17432782Y6825589D01*
X17435118Y6814566D01*
X17436642Y6802628D01*
X17437354Y6789775D01*
X17437354Y6776567D01*
X17436744Y6764324D01*
X17435626Y6752640D01*
X17433798Y6741159D01*
X17431258Y6729679D01*
X17427905Y6717893D01*
X17423638Y6705600D01*
X17418405Y6692493D01*
X17412157Y6678320D01*
X17404791Y6662775D01*
X17398441Y6649974D01*
X17388840Y6631940D01*
X17378375Y6613804D01*
X17370044Y6600139D01*
X17355108Y6577279D01*
X17339005Y6554317D01*
X17325289Y6535928D01*
X17310912Y6517538D01*
X17291964Y6494627D01*
X17272101Y6471716D01*
X17259706Y6458051D01*
X17247006Y6444437D01*
X17234001Y6430873D01*
X17216221Y6412890D01*
X17202556Y6399479D01*
X17174413Y6373012D01*
X17155109Y6355588D01*
X17130420Y6334150D01*
X17100042Y6308902D01*
X17068952Y6284315D01*
X17042536Y6264351D01*
X17021149Y6248755D01*
X16994124Y6229807D01*
X16972280Y6215075D01*
X16939310Y6193739D01*
X16906036Y6173419D01*
X16883786Y6160465D01*
X16850360Y6142024D01*
X16828109Y6130340D01*
X16805910Y6119266D01*
X16778224Y6106210D01*
X16756176Y6096457D01*
X16728846Y6085128D01*
X16712539Y6078829D01*
X16696385Y6072936D01*
X16669715Y6063945D01*
X16648633Y6057544D01*
X16622674Y6050635D01*
X16607383Y6047028D01*
X16594023Y6044387D01*
X16579900Y6042202D01*
X16565219Y6040475D01*
X16550233Y6039205D01*
X16535146Y6038342D01*
X16520160Y6037935D01*
X16505529Y6037986D01*
X16491407Y6038494D01*
X16478148Y6039510D01*
X16465854Y6040932D01*
X16454831Y6042812D01*
X16445280Y6045200D01*
X16439438Y6047181D01*
X16433647Y6049568D01*
X16427907Y6052413D01*
X16422268Y6055614D01*
X16416782Y6059170D01*
X16411448Y6063030D01*
X16406266Y6067145D01*
X16401389Y6071565D01*
X16396716Y6076188D01*
X16392398Y6081014D01*
X16388384Y6085992D01*
X16384727Y6091072D01*
X16381476Y6096304D01*
X16378682Y6101537D01*
X16376345Y6106820D01*
X16373601Y6115253D01*
X16372078Y6121603D01*
X16370858Y6128156D01*
X16369995Y6134862D01*
X16369385Y6141770D01*
X16369131Y6148781D01*
X16361968Y6148781D01*
X16362172Y6135878D01*
X16362730Y6127546D01*
X16363645Y6120282D01*
X16364966Y6113780D01*
X16366693Y6107734D01*
X16368928Y6101892D01*
X16371722Y6095898D01*
X16381933Y6075476D01*
X16310356Y6017260D01*
X16285870Y5996686D01*
X16266261Y5979363D01*
X16258997Y5972505D01*
X16253764Y5967171D01*
X16250818Y5963666D01*
X16250310Y5962650D01*
X16250259Y5961938D01*
X16250462Y5961481D01*
X16250919Y5961227D01*
X16252799Y5961532D01*
X16256101Y5962954D01*
X16267734Y5969762D01*
X16287445Y5982665D01*
X16316756Y6002680D01*
X16396258Y6057950D01*
X16429583Y6041745D01*
X16439946Y6037376D01*
X16444925Y6035649D01*
X16449954Y6034227D01*
X16455237Y6033008D01*
X16466870Y6031128D01*
X16481044Y6029858D01*
X16498773Y6028944D01*
X16521582Y6028537D01*
X16538346Y6028944D01*
X16549471Y6029604D01*
X16560546Y6030518D01*
X16571671Y6031738D01*
X16582847Y6033312D01*
X16594124Y6035192D01*
X16605605Y6037376D01*
X16617238Y6039916D01*
X16629075Y6042812D01*
X16641216Y6046063D01*
X16666413Y6053632D01*
X16693235Y6062776D01*
X16721886Y6073546D01*
X16755618Y6087160D01*
X16777207Y6096508D01*
X16793413Y6103823D01*
X16809567Y6111443D01*
X16831106Y6122060D01*
X16863415Y6138875D01*
X16884853Y6150711D01*
X16906290Y6163005D01*
X16932910Y6179007D01*
X16954144Y6192316D01*
X16969994Y6202578D01*
X17006773Y6227521D01*
X17027601Y6242405D01*
X17048276Y6257645D01*
X17073930Y6277305D01*
X17094250Y6293459D01*
X17114418Y6309969D01*
X17139310Y6331204D01*
X17159020Y6348628D01*
X17178477Y6366357D01*
X17197781Y6384493D01*
X17221504Y6407607D01*
X17240199Y6426454D01*
X17261941Y6449263D01*
X17282515Y6471716D01*
X17292370Y6482791D01*
X17311116Y6504787D01*
X17328743Y6526479D01*
X17345152Y6547815D01*
X17360341Y6568795D01*
X17374362Y6589522D01*
X17387163Y6609842D01*
X17398746Y6629908D01*
X17404130Y6639763D01*
X17409160Y6649567D01*
X17416170Y6664147D01*
X17420488Y6673697D01*
X17428159Y6692646D01*
X17431562Y6701993D01*
X17434661Y6711238D01*
X17437455Y6720433D01*
X17439944Y6729526D01*
X17442129Y6738518D01*
X17444872Y6751828D01*
X17446853Y6764985D01*
X17447920Y6777583D01*
X17448072Y6789623D01*
X17447310Y6801154D01*
X17445634Y6812127D01*
X17442992Y6822694D01*
X17439436Y6832752D01*
X17434966Y6842404D01*
X17429480Y6851599D01*
X17426432Y6856069D01*
X17419523Y6864756D01*
X17411649Y6873036D01*
X17407382Y6877100D01*
X17399558Y6883501D01*
X17395494Y6886448D01*
X17386808Y6891680D01*
X17382236Y6894068D01*
X17372584Y6898233D01*
X17362068Y6901688D01*
X17350689Y6904431D01*
X17338344Y6906564D01*
X17324933Y6908038D01*
X17310303Y6908901D01*
X17294504Y6909155D01*
X17283988Y6909053D01*
X17262856Y6908038D01*
X17241418Y6905955D01*
X17219574Y6902805D01*
X17202861Y6899706D01*
X17185894Y6895998D01*
X17162627Y6890003D01*
X17138650Y6882892D01*
X17113859Y6874560D01*
X17088104Y6865010D01*
X17061332Y6854240D01*
X17012869Y6833412D01*
X16995495Y6826605D01*
X16983049Y6822389D01*
X16979290Y6821525D01*
X16977410Y6821525D01*
X16975886Y6823405D01*
X16974616Y6826656D01*
X16973753Y6830822D01*
X16973194Y6840016D01*
X16972534Y6844893D01*
X16971467Y6850075D01*
X16970044Y6855510D01*
X16968266Y6861098D01*
X16963644Y6872731D01*
X16957903Y6884568D01*
X16951147Y6896303D01*
X16943578Y6907428D01*
X16939564Y6912711D01*
X16931182Y6922363D01*
X16921988Y6931406D01*
X16912640Y6939534D01*
X16903039Y6946849D01*
X16893184Y6953300D01*
X16883024Y6958939D01*
X16872661Y6963714D01*
X16861942Y6967728D01*
X16850868Y6970928D01*
X16841216Y6972757D01*
X16829684Y6973874D01*
X16816781Y6974433D01*
G37*
G36*
X17225568Y6856171D02*
G01*
X17223536Y6855917D01*
X17222114Y6854393D01*
X17221301Y6851497D01*
X17221047Y6847331D01*
X17222165Y6842099D01*
X17225111Y6835902D01*
X17229429Y6829348D01*
X17234611Y6822948D01*
X17240097Y6817359D01*
X17245380Y6813092D01*
X17250003Y6810756D01*
X17253407Y6810959D01*
X17255490Y6812940D01*
X17256506Y6815632D01*
X17256455Y6818985D01*
X17255337Y6822897D01*
X17253204Y6827418D01*
X17250105Y6832396D01*
X17245990Y6837832D01*
X17240859Y6843674D01*
X17235932Y6848856D01*
X17231715Y6852615D01*
X17228312Y6855053D01*
G37*
G36*
X17157496Y6856120D02*
G01*
X17123714Y6838950D01*
X17109897Y6831228D01*
X17096943Y6823202D01*
X17084802Y6814870D01*
X17073473Y6806285D01*
X17063110Y6797446D01*
X17053610Y6788353D01*
X17045076Y6779107D01*
X17037507Y6769709D01*
X17034052Y6764985D01*
X17027956Y6755384D01*
X17022876Y6745681D01*
X17018863Y6735927D01*
X17015917Y6726123D01*
X17014850Y6721195D01*
X17014088Y6716318D01*
X17013275Y6709003D01*
X17012970Y6702602D01*
X17013230Y6697573D01*
X17022165Y6697573D01*
X17022216Y6702196D01*
X17022572Y6706819D01*
X17023232Y6711391D01*
X17024299Y6715912D01*
X17025670Y6720382D01*
X17027347Y6724853D01*
X17029379Y6729272D01*
X17031766Y6733692D01*
X17034510Y6738061D01*
X17037558Y6742379D01*
X17040961Y6746697D01*
X17048784Y6755333D01*
X17058030Y6763867D01*
X17068596Y6772452D01*
X17080534Y6780987D01*
X17091101Y6787337D01*
X17101972Y6792620D01*
X17107154Y6794703D01*
X17111980Y6796278D01*
X17116298Y6797395D01*
X17119955Y6797852D01*
X17124578Y6797954D01*
X17128540Y6797548D01*
X17132046Y6796582D01*
X17135297Y6794855D01*
X17138446Y6792315D01*
X17141799Y6788759D01*
X17149724Y6778091D01*
X17154285Y6771081D01*
X17164050Y6771081D01*
X17164405Y6774434D01*
X17165370Y6778193D01*
X17166844Y6782003D01*
X17168672Y6785356D01*
X17171111Y6788912D01*
X17172482Y6790131D01*
X17173143Y6788912D01*
X17173295Y6785356D01*
X17172889Y6782003D01*
X17171924Y6778193D01*
X17170450Y6774434D01*
X17168672Y6771081D01*
X17166183Y6767525D01*
X17164812Y6766306D01*
X17164202Y6767525D01*
X17164050Y6771081D01*
X17154285Y6771081D01*
X17159732Y6761988D01*
X17162780Y6755942D01*
X17163897Y6752336D01*
X17164253Y6750405D01*
X17165269Y6748780D01*
X17166793Y6747662D01*
X17170501Y6746697D01*
X17172025Y6745173D01*
X17173041Y6742887D01*
X17173752Y6737350D01*
X17174718Y6735064D01*
X17176089Y6733540D01*
X17178361Y6732676D01*
X17187722Y6732676D01*
X17188078Y6734657D01*
X17189094Y6736740D01*
X17190618Y6738620D01*
X17192447Y6740144D01*
X17194326Y6740702D01*
X17195850Y6740042D01*
X17196866Y6738315D01*
X17197222Y6735622D01*
X17196866Y6732778D01*
X17195850Y6730390D01*
X17194326Y6728815D01*
X17192447Y6728206D01*
X17190618Y6728561D01*
X17189094Y6729526D01*
X17188078Y6730949D01*
X17187722Y6732676D01*
X17178361Y6732676D01*
X17180356Y6731558D01*
X17184065Y6727748D01*
X17188484Y6722059D01*
X17193056Y6715099D01*
X17207484Y6691680D01*
X17219269Y6673037D01*
X17228667Y6658813D01*
X17236084Y6648500D01*
X17241824Y6641693D01*
X17244161Y6639509D01*
X17246244Y6637985D01*
X17248022Y6637172D01*
X17249648Y6636918D01*
X17251070Y6637274D01*
X17255236Y6640118D01*
X17257369Y6640880D01*
X17258690Y6640423D01*
X17259147Y6638747D01*
X17258690Y6636664D01*
X17257471Y6634683D01*
X17255693Y6633006D01*
X17253458Y6631889D01*
X17252340Y6629501D01*
X17254016Y6624320D01*
X17258436Y6616700D01*
X17272203Y6597396D01*
X17277791Y6588201D01*
X17281550Y6580479D01*
X17282922Y6575348D01*
X17281550Y6571030D01*
X17277842Y6565696D01*
X17272254Y6560108D01*
X17265497Y6554825D01*
X17248022Y6542938D01*
X17203166Y6604558D01*
X17187367Y6625386D01*
X17185894Y6625996D01*
X17183252Y6625996D01*
X17179594Y6625386D01*
X17175022Y6624269D01*
X17163592Y6620408D01*
X17135906Y6608825D01*
X17122902Y6604050D01*
X17112335Y6600850D01*
X17108322Y6599986D01*
X17105528Y6599681D01*
X17101870Y6599986D01*
X17097806Y6600952D01*
X17093336Y6602475D01*
X17088561Y6604457D01*
X17078655Y6609791D01*
X17073676Y6612940D01*
X17068800Y6616395D01*
X17064126Y6620052D01*
X17059757Y6623913D01*
X17055795Y6627825D01*
X17052340Y6631787D01*
X17044009Y6642658D01*
X17037050Y6653225D01*
X17031411Y6663537D01*
X17029125Y6668566D01*
X17027144Y6673545D01*
X17025467Y6678472D01*
X17024146Y6683349D01*
X17023181Y6688124D01*
X17022521Y6692849D01*
X17022165Y6697573D01*
X17013230Y6697573D01*
X17014291Y6690817D01*
X17016222Y6684467D01*
X17019016Y6677304D01*
X17022927Y6668770D01*
X17031309Y6652056D01*
X17038066Y6640322D01*
X17041469Y6634937D01*
X17048530Y6625336D01*
X17055795Y6617106D01*
X17059554Y6613550D01*
X17063364Y6610299D01*
X17067276Y6607403D01*
X17071238Y6604812D01*
X17075302Y6602577D01*
X17079468Y6600698D01*
X17083735Y6599174D01*
X17088104Y6597954D01*
X17092625Y6597040D01*
X17097197Y6596481D01*
X17101921Y6596278D01*
X17106798Y6596380D01*
X17111776Y6596786D01*
X17116907Y6597497D01*
X17127575Y6599936D01*
X17138802Y6603593D01*
X17150740Y6608521D01*
X17182846Y6622999D01*
X17207484Y6588607D01*
X17226178Y6563614D01*
X17240250Y6546189D01*
X17245076Y6540855D01*
X17248225Y6538112D01*
X17249089Y6537756D01*
X17251121Y6538366D01*
X17254372Y6540144D01*
X17264380Y6547154D01*
X17278553Y6558381D01*
X17296434Y6573469D01*
X17300854Y6577939D01*
X17305680Y6583934D01*
X17310557Y6590893D01*
X17315230Y6598412D01*
X17319396Y6605879D01*
X17322749Y6612839D01*
X17324984Y6618731D01*
X17325797Y6623100D01*
X17325238Y6624777D01*
X17323714Y6625691D01*
X17321428Y6625844D01*
X17315738Y6624523D01*
X17313503Y6625031D01*
X17312030Y6626555D01*
X17310760Y6632143D01*
X17308728Y6635699D01*
X17305680Y6639306D01*
X17298314Y6645605D01*
X17295266Y6648907D01*
X17293234Y6652107D01*
X17291761Y6657441D01*
X17289780Y6660896D01*
X17286884Y6664706D01*
X17279366Y6672681D01*
X17275149Y6678574D01*
X17271288Y6685127D01*
X17265294Y6697827D01*
X17262043Y6703466D01*
X17258741Y6707936D01*
X17253407Y6712610D01*
X17251426Y6715302D01*
X17250105Y6718350D01*
X17249190Y6723989D01*
X17248124Y6726174D01*
X17246498Y6727647D01*
X17242840Y6728612D01*
X17241875Y6729628D01*
X17241723Y6731152D01*
X17243196Y6734809D01*
X17243044Y6736334D01*
X17242078Y6737350D01*
X17238421Y6738315D01*
X17236795Y6739839D01*
X17235728Y6742125D01*
X17234865Y6747662D01*
X17233696Y6749948D01*
X17231918Y6751472D01*
X17229785Y6752031D01*
X17227854Y6752234D01*
X17226686Y6752894D01*
X17226432Y6753809D01*
X17227092Y6754926D01*
X17227296Y6757009D01*
X17225721Y6760667D01*
X17222622Y6765290D01*
X17213580Y6776008D01*
X17209211Y6781952D01*
X17205807Y6787591D01*
X17201591Y6796633D01*
X17197882Y6802170D01*
X17193107Y6808012D01*
X17182084Y6819493D01*
X17176089Y6826656D01*
X17170552Y6834124D01*
X17166132Y6840981D01*
G37*
G36*
X17388535Y6779971D02*
G01*
X17386960Y6779361D01*
X17384725Y6777634D01*
X17378527Y6770928D01*
X17374616Y6766001D01*
X17366183Y6754571D01*
X17362017Y6749745D01*
X17357699Y6745427D01*
X17353026Y6741515D01*
X17347946Y6738010D01*
X17342307Y6734708D01*
X17336008Y6731558D01*
X17318685Y6723938D01*
X17310709Y6719620D01*
X17305731Y6715963D01*
X17304613Y6713524D01*
X17307102Y6712508D01*
X17311878Y6712915D01*
X17318532Y6714490D01*
X17326356Y6717080D01*
X17334941Y6720433D01*
X17343628Y6724396D01*
X17351857Y6728714D01*
X17359172Y6733286D01*
X17364659Y6738010D01*
X17370806Y6744817D01*
X17376902Y6752793D01*
X17382083Y6761073D01*
X17385233Y6766966D01*
X17387519Y6771741D01*
X17388941Y6775450D01*
X17389551Y6778040D01*
X17389398Y6779564D01*
G37*
G36*
X17116298Y6728104D02*
G01*
X17112132Y6727291D01*
X17107865Y6725259D01*
X17103648Y6722008D01*
X17099889Y6717639D01*
X17097044Y6712966D01*
X17095012Y6708292D01*
X17093742Y6703618D01*
X17093184Y6699148D01*
X17093285Y6694779D01*
X17094047Y6690715D01*
X17095368Y6686905D01*
X17097298Y6683502D01*
X17099686Y6680504D01*
X17102531Y6678015D01*
X17105833Y6676085D01*
X17109490Y6674764D01*
X17113504Y6674154D01*
X17117771Y6674307D01*
X17122343Y6675221D01*
X17127067Y6677050D01*
X17133214Y6680504D01*
X17136618Y6684162D01*
X17137684Y6688683D01*
X17136770Y6694881D01*
X17135297Y6699656D01*
X17133519Y6703771D01*
X17131639Y6706819D01*
X17128236Y6709714D01*
X17126966Y6712203D01*
X17126102Y6715404D01*
X17125797Y6719112D01*
X17125086Y6723227D01*
X17123054Y6726072D01*
X17120057Y6727698D01*
G37*
G36*
X16962018Y6723481D02*
G01*
X16958919Y6722872D01*
X16954855Y6721297D01*
X16949928Y6718808D01*
X16944340Y6715556D01*
X16938396Y6711746D01*
X16926102Y6702958D01*
X16920159Y6698284D01*
X16914723Y6693662D01*
X16909897Y6689191D01*
X16905884Y6685025D01*
X16903039Y6681368D01*
X16898620Y6674103D01*
X16894606Y6666128D01*
X16891050Y6657848D01*
X16888155Y6649720D01*
X16886072Y6642303D01*
X16884954Y6636054D01*
X16884954Y6631940D01*
X16896181Y6631940D01*
X16897146Y6634937D01*
X16900702Y6639661D01*
X16906290Y6645351D01*
X16913352Y6651498D01*
X16920819Y6657238D01*
X16927423Y6661962D01*
X16932452Y6665163D01*
X16935196Y6666331D01*
X16936974Y6664807D01*
X16946975Y6652920D01*
X16959326Y6652920D01*
X16959834Y6654342D01*
X16962577Y6655206D01*
X16965422Y6653479D01*
X16967708Y6650024D01*
X16968673Y6645503D01*
X16968266Y6643878D01*
X16967098Y6643471D01*
X16965320Y6644284D01*
X16963034Y6646214D01*
X16961053Y6648602D01*
X16959783Y6650939D01*
X16959326Y6652920D01*
X16946975Y6652920D01*
X16966391Y6627825D01*
X17012107Y6627825D01*
X17012462Y6630060D01*
X17013377Y6631686D01*
X17014494Y6632092D01*
X17015307Y6631025D01*
X17015815Y6628739D01*
X17015917Y6625437D01*
X17015561Y6622135D01*
X17014952Y6620509D01*
X17014088Y6620611D01*
X17013021Y6622542D01*
X17012259Y6625234D01*
X17012107Y6627825D01*
X16966391Y6627825D01*
X16986453Y6601104D01*
X17044913Y6521602D01*
X17051223Y6521602D01*
X17051985Y6523481D01*
X17054677Y6526834D01*
X17055998Y6527850D01*
X17057014Y6528206D01*
X17057827Y6527850D01*
X17058538Y6526834D01*
X17058944Y6525310D01*
X17059060Y6523075D01*
X17069257Y6523075D01*
X17069612Y6525310D01*
X17070527Y6526936D01*
X17071644Y6527342D01*
X17072457Y6526276D01*
X17072965Y6523990D01*
X17073067Y6520688D01*
X17072711Y6517335D01*
X17072102Y6515709D01*
X17071238Y6515862D01*
X17070171Y6517792D01*
X17069409Y6520434D01*
X17069257Y6523075D01*
X17059060Y6523075D01*
X17058741Y6521602D01*
X17057674Y6520078D01*
X17056049Y6519062D01*
X17054068Y6518706D01*
X17052340Y6519062D01*
X17051375Y6520078D01*
X17051223Y6521602D01*
X17044913Y6521602D01*
X17050992Y6513372D01*
X17097857Y6513372D01*
X17098111Y6517030D01*
X17098873Y6519976D01*
X17099788Y6521145D01*
X17100499Y6519926D01*
X17100956Y6516624D01*
X17101058Y6511544D01*
X17100804Y6506667D01*
X17100296Y6503924D01*
X17099534Y6503568D01*
X17098670Y6505702D01*
X17098010Y6509410D01*
X17097857Y6513372D01*
X17050992Y6513372D01*
X17061425Y6499250D01*
X17112081Y6499250D01*
X17112488Y6501485D01*
X17113402Y6503111D01*
X17114469Y6503517D01*
X17115332Y6502450D01*
X17115840Y6500164D01*
X17115891Y6496862D01*
X17115586Y6493560D01*
X17114926Y6491935D01*
X17114062Y6492036D01*
X17113046Y6493967D01*
X17112284Y6496659D01*
X17112081Y6499250D01*
X17061425Y6499250D01*
X17090847Y6459575D01*
X17097756Y6449060D01*
X17102480Y6440322D01*
X17103902Y6436969D01*
X17104512Y6434480D01*
X17104360Y6432956D01*
X17102023Y6430467D01*
X17097806Y6427266D01*
X17092320Y6423761D01*
X17082719Y6418478D01*
X17074083Y6412992D01*
X17064177Y6406134D01*
X17054220Y6398615D01*
X17041622Y6388455D01*
X17034103Y6382766D01*
X17027194Y6377889D01*
X17020946Y6373825D01*
X17015307Y6370574D01*
X17010430Y6368237D01*
X17006366Y6366814D01*
X17003115Y6366306D01*
X17000270Y6367932D01*
X16995698Y6372402D01*
X16990060Y6379006D01*
X16983913Y6387084D01*
X16969028Y6407861D01*
X16980204Y6418376D01*
X16984472Y6423101D01*
X16987774Y6428130D01*
X16989806Y6432956D01*
X16990212Y6436868D01*
X16990009Y6440779D01*
X16990415Y6440627D01*
X16992244Y6436614D01*
X16993768Y6434734D01*
X16995495Y6433464D01*
X16997222Y6432956D01*
X17001947Y6435090D01*
X17008297Y6440068D01*
X17013885Y6445758D01*
X17016272Y6449974D01*
X17014850Y6452717D01*
X17011040Y6458661D01*
X16990364Y6488074D01*
X16969486Y6518909D01*
X16944390Y6557518D01*
X16909338Y6610197D01*
X16901617Y6622389D01*
X16897045Y6630162D01*
X16896181Y6631940D01*
X16884954Y6631940D01*
X16884954Y6631381D01*
X16886174Y6628841D01*
X16888104Y6626961D01*
X16895368Y6617665D01*
X16907510Y6600647D01*
X16924629Y6575552D01*
X16988129Y6480149D01*
X16963288Y6408166D01*
X16991431Y6368592D01*
X16994987Y6364122D01*
X16997934Y6360871D01*
X17000474Y6358788D01*
X17002810Y6357721D01*
X17005096Y6357569D01*
X17007535Y6358229D01*
X17010329Y6359550D01*
X17017542Y6363817D01*
X17025213Y6368694D01*
X17034713Y6375298D01*
X17044822Y6382816D01*
X17064837Y6398514D01*
X17075251Y6405930D01*
X17085310Y6412382D01*
X17094962Y6417767D01*
X17103902Y6422034D01*
X17111980Y6425031D01*
X17115485Y6427520D01*
X17118482Y6432550D01*
X17120870Y6440068D01*
X17122698Y6449872D01*
X17124934Y6468364D01*
X17125492Y6475984D01*
X17125746Y6482740D01*
X17125543Y6488734D01*
X17124984Y6494018D01*
X17123968Y6498793D01*
X17122546Y6503212D01*
X17120616Y6507276D01*
X17118228Y6511188D01*
X17115332Y6515100D01*
X17106696Y6525463D01*
X17102836Y6531711D01*
X17100651Y6537045D01*
X17100194Y6544614D01*
X17096435Y6547205D01*
X17089932Y6548374D01*
X17081398Y6547713D01*
X17080077Y6547815D01*
X17079468Y6548628D01*
X17079569Y6549948D01*
X17080382Y6551726D01*
X17080636Y6557416D01*
X17077690Y6565900D01*
X17072406Y6575094D01*
X17065802Y6582867D01*
X17062653Y6586270D01*
X17058030Y6591858D01*
X17027194Y6632905D01*
X17018660Y6643878D01*
X17000524Y6668566D01*
X16984065Y6692341D01*
X16977664Y6702196D01*
X16973143Y6709714D01*
X16969333Y6717842D01*
X16967098Y6720789D01*
X16964558Y6722719D01*
G37*
G36*
X16772636Y6565341D02*
G01*
X16768978Y6564680D01*
X16764254Y6562648D01*
X16758056Y6559092D01*
X16749928Y6553911D01*
X16731742Y6541414D01*
X16725036Y6536283D01*
X16719397Y6531356D01*
X16714571Y6526479D01*
X16710456Y6521348D01*
X16708259Y6518097D01*
X16732757Y6518097D01*
X16733519Y6520840D01*
X16735856Y6525717D01*
X16737990Y6527952D01*
X16739514Y6527342D01*
X16740073Y6523735D01*
X16739717Y6521754D01*
X16738701Y6519722D01*
X16737228Y6517843D01*
X16735399Y6516370D01*
X16733723Y6515760D01*
X16732808Y6516370D01*
X16732757Y6518097D01*
X16708259Y6518097D01*
X16706748Y6515862D01*
X16703395Y6509766D01*
X16700144Y6502857D01*
X16695877Y6492087D01*
X16693235Y6482943D01*
X16692674Y6478778D01*
X16704056Y6478778D01*
X16704259Y6481318D01*
X16704818Y6483502D01*
X16705681Y6485280D01*
X16706900Y6486804D01*
X16708374Y6488125D01*
X16717010Y6493357D01*
X16722445Y6497116D01*
X16727779Y6501130D01*
X16736618Y6508496D01*
X16741241Y6511239D01*
X16745661Y6513118D01*
X16749318Y6513728D01*
X16751554Y6512661D01*
X16755719Y6509562D01*
X16761904Y6504431D01*
X16788282Y6504431D01*
X16788485Y6508851D01*
X16789196Y6512763D01*
X16790009Y6514642D01*
X16790720Y6513728D01*
X16791178Y6510223D01*
X16791381Y6504431D01*
X16791178Y6498590D01*
X16790720Y6495084D01*
X16790009Y6494170D01*
X16789196Y6496100D01*
X16788485Y6499961D01*
X16788282Y6504431D01*
X16761904Y6504431D01*
X16777817Y6490208D01*
X16788097Y6480606D01*
X16807383Y6480606D01*
X16807637Y6483756D01*
X16808348Y6486550D01*
X16809313Y6487922D01*
X16810075Y6487261D01*
X16810583Y6484772D01*
X16810786Y6480606D01*
X16810583Y6476441D01*
X16810075Y6473952D01*
X16809313Y6473291D01*
X16808348Y6474663D01*
X16807637Y6477406D01*
X16807383Y6480606D01*
X16788097Y6480606D01*
X16803049Y6466332D01*
X16859148Y6466332D01*
X16859554Y6468160D01*
X16860621Y6469684D01*
X16862196Y6470700D01*
X16864177Y6471056D01*
X16865904Y6470700D01*
X16866870Y6469684D01*
X16867022Y6468160D01*
X16866260Y6466332D01*
X16864990Y6464452D01*
X16863568Y6462928D01*
X16862298Y6461912D01*
X16861231Y6461556D01*
X16860418Y6461912D01*
X16859758Y6462928D01*
X16859300Y6464452D01*
X16859148Y6466332D01*
X16803049Y6466332D01*
X16824156Y6445656D01*
X16832478Y6445656D01*
X16833138Y6447586D01*
X16835932Y6451092D01*
X16838168Y6451701D01*
X16839590Y6449517D01*
X16840098Y6444589D01*
X16839692Y6441948D01*
X16838676Y6440220D01*
X16837757Y6439865D01*
X16882922Y6439865D01*
X16883329Y6442710D01*
X16884345Y6445097D01*
X16885869Y6446672D01*
X16887698Y6447282D01*
X16889526Y6446926D01*
X16891050Y6445961D01*
X16892066Y6444538D01*
X16892473Y6442760D01*
X16892066Y6440830D01*
X16891050Y6438747D01*
X16889526Y6436868D01*
X16887698Y6435344D01*
X16885869Y6434785D01*
X16884345Y6435445D01*
X16883329Y6437172D01*
X16882922Y6439865D01*
X16837757Y6439865D01*
X16837101Y6439611D01*
X16835221Y6440170D01*
X16833596Y6441694D01*
X16832630Y6443573D01*
X16832478Y6445656D01*
X16824156Y6445656D01*
X16842232Y6427622D01*
X16859758Y6427622D01*
X16860012Y6431330D01*
X16860774Y6434277D01*
X16861688Y6435394D01*
X16862399Y6434226D01*
X16862856Y6430924D01*
X16862894Y6424625D01*
X16897553Y6424625D01*
X16897807Y6429756D01*
X16898721Y6433870D01*
X16900144Y6436715D01*
X16901972Y6437731D01*
X16905122Y6436969D01*
X16906189Y6434277D01*
X16905122Y6429146D01*
X16901972Y6421069D01*
X16900652Y6418275D01*
X16912082Y6418275D01*
X16912488Y6420561D01*
X16913402Y6422186D01*
X16914469Y6422542D01*
X16915333Y6421526D01*
X16915841Y6419240D01*
X16915892Y6415938D01*
X16915587Y6412585D01*
X16914926Y6410960D01*
X16914063Y6411112D01*
X16913047Y6413042D01*
X16912285Y6415684D01*
X16912082Y6418275D01*
X16900652Y6418275D01*
X16899788Y6416446D01*
X16898518Y6415328D01*
X16897858Y6418021D01*
X16897553Y6424625D01*
X16862894Y6424625D01*
X16862704Y6420967D01*
X16862196Y6418224D01*
X16861485Y6417818D01*
X16860570Y6419951D01*
X16859910Y6423710D01*
X16859758Y6427622D01*
X16842232Y6427622D01*
X16870389Y6399631D01*
X16883583Y6399631D01*
X16883786Y6402832D01*
X16884548Y6405575D01*
X16885462Y6406946D01*
X16886224Y6406286D01*
X16886783Y6403797D01*
X16886922Y6399276D01*
X16931132Y6399276D01*
X16931538Y6401511D01*
X16932452Y6403136D01*
X16933519Y6403492D01*
X16934383Y6402476D01*
X16934840Y6400190D01*
X16934942Y6396888D01*
X16934637Y6393535D01*
X16933976Y6391910D01*
X16933113Y6392062D01*
X16932046Y6393992D01*
X16931335Y6396634D01*
X16931132Y6399276D01*
X16886922Y6399276D01*
X16886783Y6395516D01*
X16886224Y6392976D01*
X16885462Y6392316D01*
X16884548Y6393688D01*
X16883786Y6396482D01*
X16883583Y6399631D01*
X16870389Y6399631D01*
X16890949Y6379565D01*
X16910202Y6361125D01*
X16928439Y6344513D01*
X16935754Y6338722D01*
X16940479Y6334252D01*
X16943679Y6330543D01*
X16944848Y6328054D01*
X16943781Y6325260D01*
X16940885Y6321298D01*
X16936720Y6316624D01*
X16931741Y6311798D01*
X16926458Y6307175D01*
X16921480Y6303314D01*
X16917212Y6300622D01*
X16914164Y6299657D01*
X16911167Y6300825D01*
X16906341Y6304076D01*
X16900398Y6308902D01*
X16888155Y6320129D01*
X16883176Y6323838D01*
X16878503Y6325920D01*
X16873778Y6326225D01*
X16868495Y6324854D01*
X16862298Y6321602D01*
X16854728Y6316573D01*
X16841622Y6306718D01*
X16838930Y6304229D01*
X16837202Y6301841D01*
X16836390Y6299149D01*
X16836542Y6295745D01*
X16837558Y6291275D01*
X16850055Y6254394D01*
X16830192Y6236563D01*
X16822166Y6229604D01*
X16815104Y6223914D01*
X16809720Y6220104D01*
X16806773Y6218682D01*
X16806265Y6218834D01*
X16804944Y6220155D01*
X16803166Y6222746D01*
X16798137Y6232347D01*
X16790974Y6248095D01*
X16781373Y6270599D01*
X16769181Y6300419D01*
X16749877Y6348780D01*
X16720566Y6423761D01*
X16713707Y6442354D01*
X16708780Y6456781D01*
X16705630Y6467703D01*
X16704716Y6472021D01*
X16704208Y6475679D01*
X16704056Y6478778D01*
X16692674Y6478778D01*
X16692270Y6475780D01*
X16693083Y6471056D01*
X16695928Y6464909D01*
X16707002Y6438290D01*
X16732300Y6375755D01*
X16738549Y6361226D01*
X16750893Y6330797D01*
X16769283Y6284163D01*
X16785437Y6243980D01*
X16795546Y6220460D01*
X16798798Y6213906D01*
X16801084Y6210300D01*
X16801896Y6209436D01*
X16802557Y6209182D01*
X16804436Y6209639D01*
X16807129Y6211011D01*
X16814444Y6215938D01*
X16823690Y6223304D01*
X16833951Y6232296D01*
X16844518Y6242151D01*
X16854424Y6252159D01*
X16862958Y6261506D01*
X16869257Y6269532D01*
X16873880Y6276492D01*
X16877284Y6282385D01*
X16879570Y6287566D01*
X16880789Y6292443D01*
X16880941Y6297371D01*
X16880078Y6302705D01*
X16878300Y6308902D01*
X16875658Y6316319D01*
X16875252Y6319316D01*
X16877741Y6318859D01*
X16883075Y6314897D01*
X16891355Y6307429D01*
X16910659Y6289040D01*
X16940377Y6311900D01*
X16945762Y6316573D01*
X16950131Y6321044D01*
X16953585Y6325463D01*
X16956379Y6330238D01*
X16958665Y6335522D01*
X16960596Y6341618D01*
X16962424Y6348831D01*
X16963694Y6355588D01*
X16964558Y6362293D01*
X16964914Y6368897D01*
X16964812Y6375247D01*
X16964355Y6381191D01*
X16963491Y6386677D01*
X16962323Y6391452D01*
X16960799Y6395516D01*
X16958970Y6398615D01*
X16956887Y6400749D01*
X16954550Y6401714D01*
X16949318Y6401104D01*
X16946219Y6401968D01*
X16943120Y6403848D01*
X16937583Y6409131D01*
X16934586Y6410756D01*
X16931690Y6411366D01*
X16929303Y6410756D01*
X16927576Y6409944D01*
X16926661Y6409994D01*
X16926560Y6410909D01*
X16927322Y6412534D01*
X16927068Y6415836D01*
X16924223Y6421170D01*
X16919244Y6427876D01*
X16912590Y6435140D01*
X16905833Y6441643D01*
X16899128Y6447536D01*
X16892879Y6452666D01*
X16887393Y6456680D01*
X16883024Y6459474D01*
X16880128Y6460693D01*
X16879011Y6460134D01*
X16880789Y6455410D01*
X16880586Y6453124D01*
X16879468Y6450990D01*
X16877538Y6449263D01*
X16875201Y6448399D01*
X16874083Y6449618D01*
X16874083Y6452971D01*
X16876268Y6464554D01*
X16876014Y6468973D01*
X16874337Y6472072D01*
X16868343Y6475679D01*
X16866006Y6477965D01*
X16864482Y6480708D01*
X16863872Y6483502D01*
X16863568Y6486042D01*
X16862653Y6488176D01*
X16861332Y6489598D01*
X16858386Y6490716D01*
X16852442Y6495135D01*
X16842994Y6502907D01*
X16818356Y6524548D01*
X16793819Y6547357D01*
X16784472Y6556552D01*
X16778274Y6562953D01*
X16775633Y6564731D01*
G37*
G36*
X16601795Y6441592D02*
G01*
X16596512Y6440322D01*
X16590314Y6437528D01*
X16582745Y6433261D01*
X16573550Y6427368D01*
X16567505Y6423202D01*
X16562171Y6419037D01*
X16557396Y6414770D01*
X16553129Y6410248D01*
X16549319Y6405422D01*
X16545813Y6400190D01*
X16542613Y6394450D01*
X16528542Y6364579D01*
X16527119Y6361887D01*
X16525798Y6361938D01*
X16523207Y6363563D01*
X16519753Y6366510D01*
X16505986Y6381038D01*
X16483990Y6366357D01*
X16462857Y6352844D01*
X16459707Y6350609D01*
X16456660Y6347714D01*
X16453612Y6344208D01*
X16450665Y6340144D01*
X16447820Y6335471D01*
X16445077Y6330340D01*
X16442486Y6324650D01*
X16430212Y6292240D01*
X16440810Y6292240D01*
X16443858Y6294272D01*
X16456253Y6300774D01*
X16478605Y6311087D01*
X16483888Y6313170D01*
X16486733Y6313932D01*
X16488105Y6313170D01*
X16493540Y6307734D01*
X16501668Y6298184D01*
X16511473Y6285992D01*
X16521785Y6272580D01*
X16531539Y6259372D01*
X16539616Y6247841D01*
X16544848Y6239408D01*
X16547947Y6232601D01*
X16549522Y6231077D01*
X16550690Y6231991D01*
X16551503Y6234938D01*
X16551910Y6239713D01*
X16551757Y6245961D01*
X16551148Y6253480D01*
X16547084Y6280404D01*
X16543731Y6306261D01*
X16542054Y6321399D01*
X16540683Y6330543D01*
X16539260Y6338062D01*
X16537940Y6342786D01*
X16538041Y6347307D01*
X16541445Y6353302D01*
X16548303Y6360871D01*
X16558615Y6370167D01*
X16575836Y6384290D01*
X16581526Y6388557D01*
X16584066Y6390132D01*
X16585895Y6388608D01*
X16594328Y6378346D01*
X16603116Y6366560D01*
X16611193Y6356502D01*
X16620439Y6345631D01*
X16641978Y6321907D01*
X16648430Y6313779D01*
X16652798Y6307074D01*
X16654373Y6302756D01*
X16654932Y6299860D01*
X16656456Y6297117D01*
X16658742Y6294780D01*
X16664279Y6291580D01*
X16666565Y6289243D01*
X16668089Y6286550D01*
X16669207Y6280607D01*
X16670782Y6277203D01*
X16673118Y6273850D01*
X16678554Y6268466D01*
X16716298Y6268415D01*
X16716806Y6273342D01*
X16718229Y6275527D01*
X16720413Y6274917D01*
X16723207Y6271412D01*
X16723918Y6269431D01*
X16723715Y6267399D01*
X16722801Y6265468D01*
X16721124Y6263995D01*
X16719245Y6263386D01*
X16717721Y6264046D01*
X16716654Y6265773D01*
X16716298Y6268415D01*
X16678591Y6268415D01*
X16680332Y6266027D01*
X16681145Y6263944D01*
X16680535Y6260998D01*
X16681704Y6258560D01*
X16684040Y6255562D01*
X16687342Y6252362D01*
X16691660Y6247638D01*
X16696842Y6240627D01*
X16702176Y6232194D01*
X16707104Y6223304D01*
X16712488Y6212992D01*
X16717314Y6204559D01*
X16721632Y6197955D01*
X16725442Y6193129D01*
X16728795Y6190081D01*
X16731691Y6188760D01*
X16734180Y6189167D01*
X16737787Y6192824D01*
X16738498Y6192164D01*
X16738396Y6189421D01*
X16736720Y6179515D01*
X16736872Y6174841D01*
X16737888Y6171133D01*
X16739717Y6168948D01*
X16741698Y6167424D01*
X16743324Y6165646D01*
X16744442Y6163818D01*
X16744848Y6162192D01*
X16742968Y6159601D01*
X16738041Y6155080D01*
X16731081Y6149441D01*
X16723055Y6143294D01*
X16714927Y6137503D01*
X16707713Y6132677D01*
X16702430Y6129680D01*
X16700093Y6129121D01*
X16680891Y6158179D01*
X16650055Y6204204D01*
X16640200Y6218275D01*
X16632275Y6228994D01*
X16626128Y6236411D01*
X16623690Y6239002D01*
X16621607Y6240780D01*
X16619880Y6241846D01*
X16618559Y6242253D01*
X16617543Y6241897D01*
X16616832Y6240932D01*
X16616426Y6239306D01*
X16616273Y6237020D01*
X16616883Y6231483D01*
X16620947Y6207607D01*
X16627500Y6174130D01*
X16634663Y6140043D01*
X16642842Y6103670D01*
X16644315Y6095898D01*
X16644823Y6091682D01*
X16643248Y6088735D01*
X16638981Y6084366D01*
X16632936Y6079134D01*
X16625925Y6073648D01*
X16618813Y6068568D01*
X16612362Y6064554D01*
X16607536Y6062167D01*
X16605046Y6062014D01*
X16582745Y6092494D01*
X16569334Y6110478D01*
X16554094Y6130188D01*
X16540327Y6147308D01*
X16527068Y6164427D01*
X16509593Y6188405D01*
X16490188Y6215888D01*
X16471290Y6243472D01*
X16455186Y6267653D01*
X16444264Y6285026D01*
X16440861Y6291580D01*
X16440810Y6292240D01*
X16430193Y6292189D01*
X16476218Y6223304D01*
X16490594Y6202680D01*
X16505580Y6181699D01*
X16520007Y6161989D01*
X16532758Y6145174D01*
X16549471Y6123635D01*
X16567505Y6099505D01*
X16581475Y6079845D01*
X16590365Y6066891D01*
X16596360Y6059220D01*
X16601236Y6054039D01*
X16604284Y6052108D01*
X16606926Y6052464D01*
X16610076Y6053480D01*
X16613682Y6055156D01*
X16617696Y6057442D01*
X16621963Y6060236D01*
X16631107Y6067145D01*
X16640657Y6075426D01*
X16649903Y6084519D01*
X16658437Y6094018D01*
X16662196Y6098743D01*
X16665549Y6103366D01*
X16676776Y6121196D01*
X16679773Y6125311D01*
X16682212Y6127902D01*
X16684294Y6129070D01*
X16686123Y6128969D01*
X16687850Y6127750D01*
X16693489Y6121654D01*
X16698163Y6121450D01*
X16705580Y6125514D01*
X16727017Y6141212D01*
X16735958Y6147155D01*
X16743527Y6151676D01*
X16748658Y6154115D01*
X16752468Y6156350D01*
X16756583Y6160465D01*
X16760748Y6166053D01*
X16764660Y6172606D01*
X16768114Y6179667D01*
X16770908Y6186881D01*
X16772737Y6193790D01*
X16773398Y6199835D01*
X16773144Y6201511D01*
X16772331Y6203950D01*
X16769181Y6210808D01*
X16764304Y6219799D01*
X16758056Y6230467D01*
X16750690Y6242253D01*
X16725188Y6280404D01*
X16716806Y6293459D01*
X16712133Y6301384D01*
X16710558Y6305296D01*
X16707967Y6309715D01*
X16704106Y6315405D01*
X16694962Y6328003D01*
X16691863Y6333083D01*
X16690441Y6336487D01*
X16690898Y6337757D01*
X16691508Y6338316D01*
X16690390Y6339941D01*
X16687800Y6342278D01*
X16683939Y6345174D01*
X16680637Y6348069D01*
X16676573Y6352387D01*
X16671950Y6357874D01*
X16661942Y6371183D01*
X16652087Y6385763D01*
X16644010Y6399276D01*
X16641114Y6404914D01*
X16639235Y6409436D01*
X16638219Y6414566D01*
X16637355Y6415887D01*
X16636085Y6416344D01*
X16632986Y6415278D01*
X16631716Y6415532D01*
X16630853Y6416548D01*
X16629735Y6420866D01*
X16627500Y6424523D01*
X16624198Y6428638D01*
X16620134Y6432804D01*
X16615257Y6437020D01*
X16610787Y6439916D01*
X16606418Y6441490D01*
G37*
G36*
X16783862Y6424777D02*
G01*
X16781170Y6423609D01*
X16779595Y6421018D01*
X16779494Y6417970D01*
X16780865Y6414414D01*
X16785437Y6408013D01*
X16790466Y6399428D01*
X16796816Y6387185D01*
X16803725Y6372707D01*
X16810482Y6357721D01*
X16817035Y6344513D01*
X16822724Y6334556D01*
X16825061Y6331153D01*
X16826890Y6329019D01*
X16828160Y6328257D01*
X16831056Y6329121D01*
X16835374Y6331407D01*
X16840555Y6334810D01*
X16846042Y6338976D01*
X16849953Y6342481D01*
X16853001Y6345986D01*
X16855135Y6349390D01*
X16856303Y6352794D01*
X16856506Y6356248D01*
X16855694Y6359753D01*
X16853916Y6363462D01*
X16851172Y6367272D01*
X16847362Y6371336D01*
X16842536Y6375603D01*
X16836593Y6380226D01*
X16824604Y6388760D01*
X16814495Y6396634D01*
X16805351Y6404711D01*
X16798188Y6411976D01*
X16791127Y6420408D01*
X16787164Y6423710D01*
G37*
D10*
X13596277Y1770788D02*
G01*
X13548550Y1752607D01*
X13596277Y1770788D02*
G01*
X13548550Y1788970D01*
X13564458Y1759424D02*
G01*
X13564458Y1782152D01*
X13596277Y1803971D02*
G01*
X13548550Y1803971D01*
X13548550Y1803971D02*
G01*
X13548550Y1831243D01*
X13596277Y1846244D02*
G01*
X13548550Y1846244D01*
X13596277Y1846244D02*
G01*
X13596277Y1875789D01*
X13573549Y1846244D02*
G01*
X13573549Y1864426D01*
X13548550Y1846244D02*
G01*
X13548550Y1875789D01*
X13596277Y1890788D02*
G01*
X13548550Y1890788D01*
X13596277Y1890788D02*
G01*
X13596277Y1911243D01*
X13594003Y1918060D01*
X13591730Y1920333D01*
X13587186Y1922607D01*
X13582639Y1922607D01*
X13578095Y1920333D01*
X13575822Y1918060D01*
X13573549Y1911243D01*
X13573549Y1890788D01*
X13573549Y1906699D02*
G01*
X13548550Y1922607D01*
X13596277Y1953516D02*
G01*
X13548550Y1953516D01*
X13596277Y1937605D02*
G01*
X13596277Y1969424D01*
X13596368Y2806707D02*
G01*
X13548616Y2824995D01*
X13596368Y2843029D02*
G01*
X13548616Y2824995D01*
X13584938Y2892051D02*
G01*
X13589510Y2889765D01*
X13594082Y2885447D01*
X13596368Y2880875D01*
X13596368Y2871731D01*
X13594082Y2867159D01*
X13589510Y2862587D01*
X13584938Y2860301D01*
X13578080Y2858015D01*
X13566650Y2858015D01*
X13559792Y2860301D01*
X13555474Y2862587D01*
X13550902Y2867159D01*
X13548616Y2871731D01*
X13548616Y2880875D01*
X13550902Y2885447D01*
X13555474Y2889765D01*
X13559792Y2892051D01*
X13584938Y2941327D02*
G01*
X13589510Y2939041D01*
X13594082Y2934469D01*
X13596368Y2929897D01*
X13596368Y2920753D01*
X13594082Y2916181D01*
X13589510Y2911609D01*
X13584938Y2909323D01*
X13578080Y2907037D01*
X13566650Y2907037D01*
X13559792Y2909323D01*
X13555474Y2911609D01*
X13550902Y2916181D01*
X13548616Y2920753D01*
X13548616Y2929897D01*
X13550902Y2934469D01*
X13555474Y2939041D01*
X13559792Y2941327D01*
X13557531Y2671015D02*
G01*
X13552985Y2673289D01*
X13548441Y2677835D01*
X13546167Y2682379D01*
X13546167Y2691470D01*
X13548441Y2696016D01*
X13552985Y2700561D01*
X13557531Y2702834D01*
X13564349Y2705107D01*
X13575713Y2705107D01*
X13582530Y2702834D01*
X13587077Y2700561D01*
X13591623Y2696016D01*
X13593894Y2691470D01*
X13593894Y2682379D01*
X13591623Y2677835D01*
X13587077Y2673289D01*
X13582530Y2671015D01*
X13575713Y2671015D01*
X13575713Y2682379D02*
G01*
X13575713Y2671015D01*
X13546167Y2656017D02*
G01*
X13593894Y2656017D01*
X13546167Y2656017D02*
G01*
X13593894Y2624198D01*
X13546167Y2624198D02*
G01*
X13593894Y2624198D01*
X13546167Y2609199D02*
G01*
X13593894Y2609199D01*
X13546167Y2609199D02*
G01*
X13546167Y2593289D01*
X13548441Y2586471D01*
X13552985Y2581925D01*
X13557531Y2579654D01*
X13564349Y2577381D01*
X13575713Y2577381D01*
X13582530Y2579654D01*
X13587077Y2581925D01*
X13591623Y2586471D01*
X13593894Y2593289D01*
X13593894Y2609199D01*
X13589459Y2330526D02*
G01*
X13594003Y2325979D01*
X13596277Y2319162D01*
X13596277Y2310071D01*
X13594003Y2303254D01*
X13589459Y2298707D01*
X13584913Y2298707D01*
X13580369Y2300980D01*
X13578095Y2303254D01*
X13575822Y2307798D01*
X13571275Y2321435D01*
X13569005Y2325979D01*
X13566731Y2328252D01*
X13562185Y2330526D01*
X13555367Y2330526D01*
X13550821Y2325979D01*
X13548550Y2319162D01*
X13548550Y2310071D01*
X13550821Y2303254D01*
X13555367Y2298707D01*
X13584913Y2379616D02*
G01*
X13589459Y2377343D01*
X13594003Y2372799D01*
X13596277Y2368252D01*
X13596277Y2359162D01*
X13594003Y2354615D01*
X13589459Y2350071D01*
X13584913Y2347798D01*
X13578095Y2345524D01*
X13566731Y2345524D01*
X13559914Y2347798D01*
X13555367Y2350071D01*
X13550821Y2354615D01*
X13548550Y2359162D01*
X13548550Y2368252D01*
X13550821Y2372799D01*
X13555367Y2377343D01*
X13559914Y2379616D01*
X13596277Y2394615D02*
G01*
X13548550Y2394615D01*
X13548550Y2394615D02*
G01*
X13548550Y2421889D01*
X13589459Y2089226D02*
G01*
X13594003Y2084679D01*
X13596277Y2077862D01*
X13596277Y2068771D01*
X13594003Y2061954D01*
X13589459Y2057407D01*
X13584913Y2057407D01*
X13580369Y2059680D01*
X13578095Y2061954D01*
X13575822Y2066498D01*
X13571275Y2080135D01*
X13569005Y2084679D01*
X13566731Y2086952D01*
X13562185Y2089226D01*
X13555367Y2089226D01*
X13550823Y2084679D01*
X13548550Y2077862D01*
X13548550Y2068771D01*
X13550823Y2061954D01*
X13555367Y2057407D01*
X13596277Y2104224D02*
G01*
X13548550Y2104224D01*
X13596277Y2104224D02*
G01*
X13596277Y2120135D01*
X13594003Y2126952D01*
X13589459Y2131499D01*
X13584913Y2133770D01*
X13578095Y2136043D01*
X13566731Y2136043D01*
X13559914Y2133770D01*
X13555367Y2131499D01*
X13550823Y2126952D01*
X13548550Y2120135D01*
X13548550Y2104224D01*
X13596277Y2169226D02*
G01*
X13548550Y2151044D01*
X13596277Y2169226D02*
G01*
X13548550Y2187407D01*
X13564458Y2157862D02*
G01*
X13564458Y2180589D01*
X14579345Y5295900D02*
G01*
X14531593Y5314187D01*
X14579345Y5332221D02*
G01*
X14531593Y5314187D01*
X14567916Y5381244D02*
G01*
X14572488Y5378957D01*
X14577059Y5374639D01*
X14579345Y5370068D01*
X14579345Y5360923D01*
X14577059Y5356352D01*
X14572488Y5351779D01*
X14567916Y5349494D01*
X14561058Y5347207D01*
X14549627Y5347207D01*
X14542770Y5349494D01*
X14538452Y5351779D01*
X14533879Y5356352D01*
X14531593Y5360923D01*
X14531593Y5370068D01*
X14533879Y5374639D01*
X14538452Y5378957D01*
X14542770Y5381244D01*
X14567916Y5430520D02*
G01*
X14572488Y5428234D01*
X14577059Y5423662D01*
X14579345Y5419089D01*
X14579345Y5409945D01*
X14577059Y5405373D01*
X14572488Y5400802D01*
X14567916Y5398515D01*
X14561058Y5396229D01*
X14549627Y5396229D01*
X14542770Y5398515D01*
X14538452Y5400802D01*
X14533879Y5405373D01*
X14531593Y5409945D01*
X14531593Y5419089D01*
X14533879Y5423662D01*
X14538452Y5428234D01*
X14542770Y5430520D01*
X14553209Y5147508D02*
G01*
X14548662Y5149781D01*
X14544118Y5154328D01*
X14541845Y5158872D01*
X14541845Y5167962D01*
X14544118Y5172509D01*
X14548662Y5177053D01*
X14553209Y5179326D01*
X14560026Y5181600D01*
X14571390Y5181600D01*
X14578208Y5179326D01*
X14582754Y5177053D01*
X14587301Y5172509D01*
X14589572Y5167962D01*
X14589572Y5158872D01*
X14587301Y5154328D01*
X14582754Y5149781D01*
X14578208Y5147508D01*
X14571390Y5147508D01*
X14571390Y5158872D02*
G01*
X14571390Y5147508D01*
X14541845Y5132509D02*
G01*
X14589572Y5132509D01*
X14541845Y5132509D02*
G01*
X14589572Y5100690D01*
X14541845Y5100690D02*
G01*
X14589572Y5100690D01*
X14541845Y5085692D02*
G01*
X14589572Y5085692D01*
X14541845Y5085692D02*
G01*
X14541845Y5069781D01*
X14544118Y5062964D01*
X14548662Y5058417D01*
X14553209Y5056146D01*
X14560026Y5053873D01*
X14571390Y5053873D01*
X14578208Y5056146D01*
X14582754Y5058417D01*
X14587301Y5062964D01*
X14589572Y5069781D01*
X14589572Y5085692D01*
X14585137Y4857818D02*
G01*
X14589681Y4853271D01*
X14591954Y4846454D01*
X14591954Y4837363D01*
X14589681Y4830546D01*
X14585137Y4826000D01*
X14580590Y4826000D01*
X14576046Y4828273D01*
X14573773Y4830546D01*
X14571499Y4835090D01*
X14566953Y4848727D01*
X14564682Y4853271D01*
X14562409Y4855545D01*
X14557862Y4857818D01*
X14551045Y4857818D01*
X14546498Y4853271D01*
X14544227Y4846454D01*
X14544227Y4837363D01*
X14546498Y4830546D01*
X14551045Y4826000D01*
X14580590Y4906909D02*
G01*
X14585137Y4904635D01*
X14589681Y4900091D01*
X14591954Y4895545D01*
X14591954Y4886454D01*
X14589681Y4881907D01*
X14585137Y4877363D01*
X14580590Y4875090D01*
X14573773Y4872817D01*
X14562409Y4872817D01*
X14555591Y4875090D01*
X14551045Y4877363D01*
X14546498Y4881907D01*
X14544227Y4886454D01*
X14544227Y4895545D01*
X14546498Y4900091D01*
X14551045Y4904635D01*
X14555591Y4906909D01*
X14591954Y4921907D02*
G01*
X14544227Y4921907D01*
X14544227Y4921907D02*
G01*
X14544227Y4949182D01*
X14597837Y4616518D02*
G01*
X14602381Y4611971D01*
X14604654Y4605154D01*
X14604654Y4596063D01*
X14602381Y4589246D01*
X14597837Y4584700D01*
X14593290Y4584700D01*
X14588746Y4586973D01*
X14586473Y4589246D01*
X14584199Y4593790D01*
X14579653Y4607427D01*
X14577382Y4611971D01*
X14575109Y4614245D01*
X14570562Y4616518D01*
X14563745Y4616518D01*
X14559201Y4611971D01*
X14556927Y4605154D01*
X14556927Y4596063D01*
X14559201Y4589246D01*
X14563745Y4584700D01*
X14604654Y4631517D02*
G01*
X14556927Y4631517D01*
X14604654Y4631517D02*
G01*
X14604654Y4647427D01*
X14602381Y4654245D01*
X14597837Y4658791D01*
X14593290Y4661062D01*
X14586473Y4663335D01*
X14575109Y4663335D01*
X14568291Y4661062D01*
X14563745Y4658791D01*
X14559201Y4654245D01*
X14556927Y4647427D01*
X14556927Y4631517D01*
X14604654Y4696518D02*
G01*
X14556927Y4678337D01*
X14604654Y4696518D02*
G01*
X14556927Y4714699D01*
X14572835Y4685154D02*
G01*
X14572835Y4707882D01*
X14591954Y4285381D02*
G01*
X14544227Y4267200D01*
X14591954Y4285381D02*
G01*
X14544227Y4303562D01*
X14560135Y4274017D02*
G01*
X14560135Y4296745D01*
X14591954Y4318563D02*
G01*
X14544227Y4318563D01*
X14544227Y4318563D02*
G01*
X14544227Y4345835D01*
X14591954Y4360837D02*
G01*
X14544227Y4360837D01*
X14591954Y4360837D02*
G01*
X14591954Y4390382D01*
X14569226Y4360837D02*
G01*
X14569226Y4379018D01*
X14544227Y4360837D02*
G01*
X14544227Y4390382D01*
X14591954Y4405381D02*
G01*
X14544227Y4405381D01*
X14591954Y4405381D02*
G01*
X14591954Y4425835D01*
X14589681Y4432653D01*
X14587407Y4434926D01*
X14582863Y4437199D01*
X14578317Y4437199D01*
X14573773Y4434926D01*
X14571499Y4432653D01*
X14569226Y4425835D01*
X14569226Y4405381D01*
X14569226Y4421291D02*
G01*
X14544227Y4437199D01*
X14591954Y4468108D02*
G01*
X14544227Y4468108D01*
X14591954Y4452198D02*
G01*
X14591954Y4484016D01*
X15315945Y4064000D02*
G01*
X15268193Y4082287D01*
X15315945Y4100321D02*
G01*
X15268193Y4082287D01*
X15304516Y4149344D02*
G01*
X15309088Y4147057D01*
X15313659Y4142739D01*
X15315945Y4138168D01*
X15315945Y4129023D01*
X15313659Y4124452D01*
X15309088Y4119879D01*
X15304516Y4117594D01*
X15297658Y4115307D01*
X15286227Y4115307D01*
X15279370Y4117594D01*
X15275052Y4119879D01*
X15270479Y4124452D01*
X15268193Y4129023D01*
X15268193Y4138168D01*
X15270479Y4142739D01*
X15275052Y4147057D01*
X15279370Y4149344D01*
X15304516Y4198620D02*
G01*
X15309088Y4196334D01*
X15313659Y4191762D01*
X15315945Y4187189D01*
X15315945Y4178045D01*
X15313659Y4173473D01*
X15309088Y4168902D01*
X15304516Y4166615D01*
X15297658Y4164329D01*
X15286227Y4164329D01*
X15279370Y4166615D01*
X15275052Y4168902D01*
X15270479Y4173473D01*
X15268193Y4178045D01*
X15268193Y4187189D01*
X15270479Y4191762D01*
X15275052Y4196334D01*
X15279370Y4198620D01*
X15277109Y3902908D02*
G01*
X15272562Y3905181D01*
X15268018Y3909728D01*
X15265745Y3914272D01*
X15265745Y3923362D01*
X15268018Y3927909D01*
X15272562Y3932453D01*
X15277109Y3934726D01*
X15283926Y3937000D01*
X15295290Y3937000D01*
X15302108Y3934726D01*
X15306654Y3932453D01*
X15311201Y3927909D01*
X15313472Y3923362D01*
X15313472Y3914272D01*
X15311201Y3909728D01*
X15306654Y3905181D01*
X15302108Y3902908D01*
X15295290Y3902908D01*
X15295290Y3914272D02*
G01*
X15295290Y3902908D01*
X15265745Y3887909D02*
G01*
X15313472Y3887909D01*
X15265745Y3887909D02*
G01*
X15313472Y3856090D01*
X15265745Y3856090D02*
G01*
X15313472Y3856090D01*
X15265745Y3841092D02*
G01*
X15313472Y3841092D01*
X15265745Y3841092D02*
G01*
X15265745Y3825181D01*
X15268018Y3818364D01*
X15272562Y3813817D01*
X15277109Y3811546D01*
X15283926Y3809273D01*
X15295290Y3809273D01*
X15302108Y3811546D01*
X15306654Y3813817D01*
X15311201Y3818364D01*
X15313472Y3825181D01*
X15313472Y3841092D01*
X15309037Y3600518D02*
G01*
X15313581Y3595971D01*
X15315854Y3589154D01*
X15315854Y3580063D01*
X15313581Y3573246D01*
X15309037Y3568700D01*
X15304490Y3568700D01*
X15299946Y3570973D01*
X15297673Y3573246D01*
X15295399Y3577790D01*
X15290853Y3591427D01*
X15288582Y3595971D01*
X15286309Y3598245D01*
X15281762Y3600518D01*
X15274945Y3600518D01*
X15270398Y3595971D01*
X15268127Y3589154D01*
X15268127Y3580063D01*
X15270398Y3573246D01*
X15274945Y3568700D01*
X15304490Y3649609D02*
G01*
X15309037Y3647335D01*
X15313581Y3642791D01*
X15315854Y3638245D01*
X15315854Y3629154D01*
X15313581Y3624607D01*
X15309037Y3620063D01*
X15304490Y3617790D01*
X15297673Y3615517D01*
X15286309Y3615517D01*
X15279491Y3617790D01*
X15274945Y3620063D01*
X15270398Y3624607D01*
X15268127Y3629154D01*
X15268127Y3638245D01*
X15270398Y3642791D01*
X15274945Y3647335D01*
X15279491Y3649609D01*
X15315854Y3664607D02*
G01*
X15268127Y3664607D01*
X15268127Y3664607D02*
G01*
X15268127Y3691882D01*
X15309037Y3333818D02*
G01*
X15313581Y3329271D01*
X15315854Y3322454D01*
X15315854Y3313363D01*
X15313581Y3306546D01*
X15309037Y3302000D01*
X15304490Y3302000D01*
X15299946Y3304273D01*
X15297673Y3306546D01*
X15295399Y3311090D01*
X15290853Y3324727D01*
X15288582Y3329271D01*
X15286309Y3331545D01*
X15281762Y3333818D01*
X15274945Y3333818D01*
X15270401Y3329271D01*
X15268127Y3322454D01*
X15268127Y3313363D01*
X15270401Y3306546D01*
X15274945Y3302000D01*
X15315854Y3348817D02*
G01*
X15268127Y3348817D01*
X15315854Y3348817D02*
G01*
X15315854Y3364727D01*
X15313581Y3371545D01*
X15309037Y3376091D01*
X15304490Y3378362D01*
X15297673Y3380635D01*
X15286309Y3380635D01*
X15279491Y3378362D01*
X15274945Y3376091D01*
X15270401Y3371545D01*
X15268127Y3364727D01*
X15268127Y3348817D01*
X15315854Y3413818D02*
G01*
X15268127Y3395637D01*
X15315854Y3413818D02*
G01*
X15268127Y3431999D01*
X15284035Y3402454D02*
G01*
X15284035Y3425182D01*
X14592045Y2806700D02*
G01*
X14544293Y2824987D01*
X14592045Y2843021D02*
G01*
X14544293Y2824987D01*
X14580616Y2892044D02*
G01*
X14585188Y2889757D01*
X14589759Y2885439D01*
X14592045Y2880868D01*
X14592045Y2871723D01*
X14589759Y2867152D01*
X14585188Y2862579D01*
X14580616Y2860294D01*
X14573758Y2858007D01*
X14562327Y2858007D01*
X14555470Y2860294D01*
X14551152Y2862579D01*
X14546579Y2867152D01*
X14544293Y2871723D01*
X14544293Y2880868D01*
X14546579Y2885439D01*
X14551152Y2889757D01*
X14555470Y2892044D01*
X14580616Y2941320D02*
G01*
X14585188Y2939034D01*
X14589759Y2934462D01*
X14592045Y2929889D01*
X14592045Y2920745D01*
X14589759Y2916173D01*
X14585188Y2911602D01*
X14580616Y2909315D01*
X14573758Y2907029D01*
X14562327Y2907029D01*
X14555470Y2909315D01*
X14551152Y2911602D01*
X14546579Y2916173D01*
X14544293Y2920745D01*
X14544293Y2929889D01*
X14546579Y2934462D01*
X14551152Y2939034D01*
X14555470Y2941320D01*
X14540509Y2632908D02*
G01*
X14535962Y2635181D01*
X14531418Y2639728D01*
X14529145Y2644272D01*
X14529145Y2653362D01*
X14531418Y2657909D01*
X14535962Y2662453D01*
X14540509Y2664726D01*
X14547326Y2667000D01*
X14558690Y2667000D01*
X14565508Y2664726D01*
X14570054Y2662453D01*
X14574601Y2657909D01*
X14576872Y2653362D01*
X14576872Y2644272D01*
X14574601Y2639728D01*
X14570054Y2635181D01*
X14565508Y2632908D01*
X14558690Y2632908D01*
X14558690Y2644272D02*
G01*
X14558690Y2632908D01*
X14529145Y2617909D02*
G01*
X14576872Y2617909D01*
X14529145Y2617909D02*
G01*
X14576872Y2586090D01*
X14529145Y2586090D02*
G01*
X14576872Y2586090D01*
X14529145Y2571092D02*
G01*
X14576872Y2571092D01*
X14529145Y2571092D02*
G01*
X14529145Y2555181D01*
X14531418Y2548364D01*
X14535962Y2543817D01*
X14540509Y2541546D01*
X14547326Y2539273D01*
X14558690Y2539273D01*
X14565508Y2541546D01*
X14570054Y2543817D01*
X14574601Y2548364D01*
X14576872Y2555181D01*
X14576872Y2571092D01*
X14572437Y2330518D02*
G01*
X14576981Y2325971D01*
X14579254Y2319154D01*
X14579254Y2310063D01*
X14576981Y2303246D01*
X14572437Y2298700D01*
X14567890Y2298700D01*
X14563346Y2300973D01*
X14561073Y2303246D01*
X14558799Y2307790D01*
X14554253Y2321427D01*
X14551982Y2325971D01*
X14549709Y2328245D01*
X14545162Y2330518D01*
X14538345Y2330518D01*
X14533798Y2325971D01*
X14531527Y2319154D01*
X14531527Y2310063D01*
X14533798Y2303246D01*
X14538345Y2298700D01*
X14567890Y2379609D02*
G01*
X14572437Y2377335D01*
X14576981Y2372791D01*
X14579254Y2368245D01*
X14579254Y2359154D01*
X14576981Y2354607D01*
X14572437Y2350063D01*
X14567890Y2347790D01*
X14561073Y2345517D01*
X14549709Y2345517D01*
X14542891Y2347790D01*
X14538345Y2350063D01*
X14533798Y2354607D01*
X14531527Y2359154D01*
X14531527Y2368245D01*
X14533798Y2372791D01*
X14538345Y2377335D01*
X14542891Y2379609D01*
X14579254Y2394607D02*
G01*
X14531527Y2394607D01*
X14531527Y2394607D02*
G01*
X14531527Y2421882D01*
X14559737Y2089218D02*
G01*
X14564281Y2084671D01*
X14566554Y2077854D01*
X14566554Y2068763D01*
X14564281Y2061946D01*
X14559737Y2057400D01*
X14555190Y2057400D01*
X14550646Y2059673D01*
X14548373Y2061946D01*
X14546099Y2066490D01*
X14541553Y2080127D01*
X14539282Y2084671D01*
X14537009Y2086945D01*
X14532462Y2089218D01*
X14525645Y2089218D01*
X14521101Y2084671D01*
X14518827Y2077854D01*
X14518827Y2068763D01*
X14521101Y2061946D01*
X14525645Y2057400D01*
X14566554Y2104217D02*
G01*
X14518827Y2104217D01*
X14566554Y2104217D02*
G01*
X14566554Y2120127D01*
X14564281Y2126945D01*
X14559737Y2131491D01*
X14555190Y2133762D01*
X14548373Y2136035D01*
X14537009Y2136035D01*
X14530191Y2133762D01*
X14525645Y2131491D01*
X14521101Y2126945D01*
X14518827Y2120127D01*
X14518827Y2104217D01*
X14566554Y2169218D02*
G01*
X14518827Y2151037D01*
X14566554Y2169218D02*
G01*
X14518827Y2187399D01*
X14534735Y2157854D02*
G01*
X14534735Y2180582D01*
X14553854Y1758081D02*
G01*
X14506127Y1739900D01*
X14553854Y1758081D02*
G01*
X14506127Y1776262D01*
X14522035Y1746717D02*
G01*
X14522035Y1769445D01*
X14553854Y1791263D02*
G01*
X14506127Y1791263D01*
X14506127Y1791263D02*
G01*
X14506127Y1818535D01*
X14553854Y1833537D02*
G01*
X14506127Y1833537D01*
X14553854Y1833537D02*
G01*
X14553854Y1863082D01*
X14531126Y1833537D02*
G01*
X14531126Y1851718D01*
X14506127Y1833537D02*
G01*
X14506127Y1863082D01*
X14553854Y1878081D02*
G01*
X14506127Y1878081D01*
X14553854Y1878081D02*
G01*
X14553854Y1898535D01*
X14551581Y1905353D01*
X14549307Y1907626D01*
X14544763Y1909899D01*
X14540217Y1909899D01*
X14535673Y1907626D01*
X14533399Y1905353D01*
X14531126Y1898535D01*
X14531126Y1878081D01*
X14531126Y1893991D02*
G01*
X14506127Y1909899D01*
X14553854Y1940808D02*
G01*
X14506127Y1940808D01*
X14553854Y1924898D02*
G01*
X14553854Y1956716D01*
D11*
X15989300Y6694746D02*
G01*
X15989300Y6500784D01*
X15989300Y6694746D02*
G01*
X15906173Y6694746D01*
X15878464Y6685511D01*
X15869226Y6676275D01*
X15859991Y6657802D01*
X15859991Y6630093D01*
X15869226Y6611620D01*
X15878464Y6602384D01*
X15906173Y6593146D01*
X15989300Y6593146D01*
X15799031Y6694746D02*
G01*
X15799031Y6500784D01*
X15799031Y6500784D02*
G01*
X15688195Y6500784D01*
X15553344Y6694746D02*
G01*
X15627235Y6500784D01*
X15553344Y6694746D02*
G01*
X15479453Y6500784D01*
X15599524Y6565437D02*
G01*
X15507162Y6565437D01*
X15418493Y6694746D02*
G01*
X15418493Y6500784D01*
X15418493Y6694746D02*
G01*
X15289184Y6500784D01*
X15289184Y6694746D02*
G01*
X15289184Y6500784D01*
X15085984Y6694746D02*
G01*
X15085984Y6500784D01*
X15085984Y6694746D02*
G01*
X15002855Y6694746D01*
X14975146Y6685511D01*
X14965911Y6676275D01*
X14956675Y6657802D01*
X14956675Y6639328D01*
X14965911Y6620855D01*
X14975146Y6611620D01*
X15002855Y6602384D01*
X15085984Y6602384D02*
G01*
X15002855Y6602384D01*
X14975146Y6593146D01*
X14965911Y6583911D01*
X14956675Y6565437D01*
X14956675Y6537728D01*
X14965911Y6519255D01*
X14975146Y6510020D01*
X15002855Y6500784D01*
X15085984Y6500784D01*
X14895715Y6694746D02*
G01*
X14895715Y6500784D01*
X14895715Y6694746D02*
G01*
X14775642Y6694746D01*
X14895715Y6602384D02*
G01*
X14821824Y6602384D01*
X14895715Y6500784D02*
G01*
X14775642Y6500784D01*
X14714682Y6694746D02*
G01*
X14714682Y6500784D01*
X14714682Y6694746D02*
G01*
X14594608Y6694746D01*
X14714682Y6602384D02*
G01*
X14640791Y6602384D01*
X14714682Y6500784D02*
G01*
X14594608Y6500784D01*
X14391408Y6694746D02*
G01*
X14391408Y6500784D01*
X14391408Y6694746D02*
G01*
X14317517Y6500784D01*
X14243626Y6694746D02*
G01*
X14317517Y6500784D01*
X14243626Y6694746D02*
G01*
X14243626Y6500784D01*
X14108775Y6694746D02*
G01*
X14182666Y6500784D01*
X14108775Y6694746D02*
G01*
X14034884Y6500784D01*
X14154957Y6565437D02*
G01*
X14062595Y6565437D01*
X13973924Y6694746D02*
G01*
X13973924Y6500784D01*
X13912964Y6694746D02*
G01*
X13912964Y6500784D01*
X13912964Y6694746D02*
G01*
X13783655Y6500784D01*
X13783655Y6694746D02*
G01*
X13783655Y6500784D01*
X13580455Y6694746D02*
G01*
X13506564Y6500784D01*
X13432675Y6694746D02*
G01*
X13506564Y6500784D01*
X13353242Y6694746D02*
G01*
X13251642Y6694746D01*
X13307059Y6620855D01*
X13279351Y6620855D01*
X13260877Y6611620D01*
X13251642Y6602384D01*
X13242404Y6574675D01*
X13242404Y6556202D01*
X13251642Y6528493D01*
X13270115Y6510020D01*
X13297824Y6500784D01*
X13325533Y6500784D01*
X13353242Y6510020D01*
X13362477Y6519255D01*
X13371715Y6537728D01*
D12*
X5029200Y5055615D02*
G01*
X5029200Y4946650D01*
X5029200Y5055615D02*
G01*
X4982463Y5055615D01*
X4966970Y5050536D01*
X4961636Y5045202D01*
X4956556Y5034787D01*
X4956556Y5024373D01*
X4961636Y5013960D01*
X4966970Y5008879D01*
X4982463Y5003800D01*
X5029200Y5003800D02*
G01*
X4982463Y5003800D01*
X4966970Y4998465D01*
X4961636Y4993386D01*
X4956556Y4982971D01*
X4956556Y4967223D01*
X4961636Y4956810D01*
X4966970Y4951729D01*
X4982463Y4946650D01*
X5029200Y4946650D01*
X4880609Y5055615D02*
G01*
X4922265Y4946650D01*
X4880609Y5055615D02*
G01*
X4838954Y4946650D01*
X4906518Y4982971D02*
G01*
X4854702Y4982971D01*
X4768341Y5055615D02*
G01*
X4768341Y4946650D01*
X4804663Y5055615D02*
G01*
X4732020Y5055615D01*
X4661408Y5055615D02*
G01*
X4661408Y4946650D01*
X4697729Y5055615D02*
G01*
X4625086Y5055615D01*
X4585461Y5029707D02*
G01*
X4585461Y5034787D01*
X4580381Y5045202D01*
X4575047Y5050536D01*
X4564634Y5055615D01*
X4544059Y5055615D01*
X4533645Y5050536D01*
X4528311Y5045202D01*
X4523231Y5034787D01*
X4523231Y5024373D01*
X4528311Y5013960D01*
X4538725Y4998465D01*
X4590795Y4946650D01*
X4517897Y4946650D01*
X13467079Y942847D02*
G01*
X13467079Y864870D01*
X13462000Y849376D01*
X13451586Y838962D01*
X13435838Y833881D01*
X13425424Y833881D01*
X13409929Y838962D01*
X13399516Y849376D01*
X13394436Y864870D01*
X13394436Y942847D01*
X13297661Y927354D02*
G01*
X13302995Y937768D01*
X13318490Y942847D01*
X13328904Y942847D01*
X13344397Y937768D01*
X13354811Y922020D01*
X13360145Y896112D01*
X13360145Y870204D01*
X13354811Y849376D01*
X13344397Y838962D01*
X13328904Y833881D01*
X13323570Y833881D01*
X13308075Y838962D01*
X13297661Y849376D01*
X13292581Y864870D01*
X13292581Y870204D01*
X13297661Y885697D01*
X13308075Y896112D01*
X13323570Y901192D01*
X13328904Y901192D01*
X13344397Y896112D01*
X13354811Y885697D01*
X13360145Y870204D01*
X15086584Y2197100D02*
G01*
X15195550Y2197100D01*
X15112491Y2157729D02*
G01*
X15107411Y2157729D01*
X15096997Y2152395D01*
X15091663Y2147315D01*
X15086584Y2136902D01*
X15086584Y2116073D01*
X15091663Y2105660D01*
X15096997Y2100579D01*
X15107411Y2095245D01*
X15117825Y2095245D01*
X15128240Y2100579D01*
X15143734Y2110739D01*
X15195550Y2162810D01*
X15195550Y2090165D01*
X15112491Y1977897D02*
G01*
X15102077Y1982978D01*
X15091663Y1993392D01*
X15086584Y2003805D01*
X15086584Y2024634D01*
X15091663Y2035047D01*
X15102077Y2045462D01*
X15112491Y2050542D01*
X15128240Y2055876D01*
X15154147Y2055876D01*
X15169641Y2050542D01*
X15180056Y2045462D01*
X15190470Y2035047D01*
X15195550Y2024634D01*
X15195550Y2003805D01*
X15190470Y1993392D01*
X15180056Y1982978D01*
X15169641Y1977897D01*
X15050516Y4140200D02*
G01*
X14941550Y4140200D01*
X15050516Y4174489D02*
G01*
X14941550Y4174489D01*
X15050516Y4174489D02*
G01*
X14941550Y4247134D01*
X15050516Y4247134D02*
G01*
X14941550Y4247134D01*
X15050516Y4323079D02*
G01*
X14941550Y4281423D01*
X15050516Y4323079D02*
G01*
X14941550Y4364736D01*
X14977872Y4297171D02*
G01*
X14977872Y4348987D01*
X15024608Y4404105D02*
G01*
X15029688Y4404105D01*
X15040102Y4409439D01*
X15045436Y4414520D01*
X15050516Y4424934D01*
X15050516Y4445762D01*
X15045436Y4456176D01*
X15040102Y4461255D01*
X15029688Y4466589D01*
X15019274Y4466589D01*
X15008859Y4461255D01*
X14993366Y4450842D01*
X14941550Y4399026D01*
X14941550Y4471670D01*
X15024608Y4511039D02*
G01*
X15029688Y4511039D01*
X15040102Y4516373D01*
X15045436Y4521454D01*
X15050516Y4531868D01*
X15050516Y4552695D01*
X15045436Y4563110D01*
X15040102Y4568189D01*
X15029688Y4573523D01*
X15019274Y4573523D01*
X15008859Y4568189D01*
X14993366Y4558029D01*
X14941550Y4505960D01*
X14941550Y4578604D01*
X15035022Y4675378D02*
G01*
X15045436Y4670044D01*
X15050516Y4654550D01*
X15050516Y4644136D01*
X15045436Y4628642D01*
X15029688Y4618228D01*
X15003779Y4612894D01*
X14977872Y4612894D01*
X14957043Y4618228D01*
X14946629Y4628642D01*
X14941550Y4644136D01*
X14941550Y4649470D01*
X14946629Y4664963D01*
X14957043Y4675378D01*
X14972538Y4680457D01*
X14977872Y4680457D01*
X14993366Y4675378D01*
X15003779Y4664963D01*
X15008859Y4649470D01*
X15008859Y4644136D01*
X15003779Y4628642D01*
X14993366Y4618228D01*
X14977872Y4612894D01*
X15071343Y4751070D02*
G01*
X15060929Y4740910D01*
X15045436Y4730495D01*
X15024608Y4720081D01*
X14998700Y4714747D01*
X14977872Y4714747D01*
X14951709Y4720081D01*
X14931136Y4730495D01*
X14915388Y4740910D01*
X14904974Y4751070D01*
X15029688Y4785360D02*
G01*
X15035022Y4795773D01*
X15050516Y4811521D01*
X14941550Y4811521D01*
X15071343Y4845812D02*
G01*
X15060929Y4856226D01*
X15045436Y4866639D01*
X15024608Y4876800D01*
X14998700Y4882134D01*
X14977872Y4882134D01*
X14951709Y4876800D01*
X14931136Y4866639D01*
X14915388Y4856226D01*
X14904974Y4845812D01*
X14961616Y1600200D02*
G01*
X14852650Y1600200D01*
X14961616Y1634489D02*
G01*
X14852650Y1634489D01*
X14961616Y1634489D02*
G01*
X14852650Y1707134D01*
X14961616Y1707134D02*
G01*
X14852650Y1707134D01*
X14961616Y1783079D02*
G01*
X14852650Y1741423D01*
X14961616Y1783079D02*
G01*
X14852650Y1824736D01*
X14888972Y1757171D02*
G01*
X14888972Y1808987D01*
X14935708Y1864105D02*
G01*
X14940788Y1864105D01*
X14951202Y1869439D01*
X14956536Y1874520D01*
X14961616Y1884934D01*
X14961616Y1905762D01*
X14956536Y1916176D01*
X14951202Y1921255D01*
X14940788Y1926589D01*
X14930374Y1926589D01*
X14919959Y1921255D01*
X14904466Y1910842D01*
X14852650Y1859026D01*
X14852650Y1931670D01*
X14935708Y1971039D02*
G01*
X14940788Y1971039D01*
X14951202Y1976373D01*
X14956536Y1981454D01*
X14961616Y1991868D01*
X14961616Y2012695D01*
X14956536Y2023110D01*
X14951202Y2028189D01*
X14940788Y2033523D01*
X14930374Y2033523D01*
X14919959Y2028189D01*
X14904466Y2018029D01*
X14852650Y1965960D01*
X14852650Y2038604D01*
X14946122Y2135378D02*
G01*
X14956536Y2130044D01*
X14961616Y2114550D01*
X14961616Y2104136D01*
X14956536Y2088642D01*
X14940788Y2078228D01*
X14914879Y2072894D01*
X14888972Y2072894D01*
X14868143Y2078228D01*
X14857729Y2088642D01*
X14852650Y2104136D01*
X14852650Y2109470D01*
X14857729Y2124963D01*
X14868143Y2135378D01*
X14883638Y2140457D01*
X14888972Y2140457D01*
X14904466Y2135378D01*
X14914879Y2124963D01*
X14919959Y2109470D01*
X14919959Y2104136D01*
X14914879Y2088642D01*
X14904466Y2078228D01*
X14888972Y2072894D01*
X14982443Y2211070D02*
G01*
X14972029Y2200910D01*
X14956536Y2190495D01*
X14935708Y2180081D01*
X14909800Y2174747D01*
X14888972Y2174747D01*
X14862809Y2180081D01*
X14842236Y2190495D01*
X14826488Y2200910D01*
X14816074Y2211070D01*
X14935708Y2250694D02*
G01*
X14940788Y2250694D01*
X14951202Y2255773D01*
X14956536Y2261107D01*
X14961616Y2271521D01*
X14961616Y2292350D01*
X14956536Y2302510D01*
X14951202Y2307844D01*
X14940788Y2312923D01*
X14930374Y2312923D01*
X14919959Y2307844D01*
X14904466Y2297429D01*
X14852650Y2245360D01*
X14852650Y2318257D01*
X14982443Y2352547D02*
G01*
X14972029Y2362962D01*
X14956536Y2373376D01*
X14935708Y2383789D01*
X14909800Y2388870D01*
X14888972Y2388870D01*
X14862809Y2383789D01*
X14842236Y2373376D01*
X14826488Y2362962D01*
X14816074Y2352547D01*
D13*
X2632496Y3822496D02*
G01*
X2835696Y3822496D01*
X2632496Y1892498D02*
G01*
X2835696Y1892498D01*
X7273503Y1790903D02*
G01*
X7273503Y1994103D01*
X7375103Y1892503D02*
G01*
X7171903Y1892503D01*
X7273500Y3720899D02*
G01*
X7273500Y3924099D01*
X7375100Y3822499D02*
G01*
X7171900Y3822499D01*
X8877300Y2857500D02*
G01*
X1117600Y2857500D01*
X8898788Y4863007D02*
G01*
X1108786Y4863007D01*
X1108786Y852017D01*
X8898788Y852017D01*
X8898788Y4863007D01*
X17599939Y5999962D02*
G01*
X17599939Y999972D01*
X8999956Y999972D01*
X8999956Y5999962D01*
X17599939Y5999962D01*
X16959859Y5999962D02*
G01*
X16959935Y999972D01*
X10039959Y5999962D02*
G01*
X10039959Y999972D01*
X9329953Y5281142D02*
G01*
X9329953Y1730222D01*
X9080017Y1730222D01*
X9080017Y5281142D01*
X9329953Y5281142D01*
G75*
G01
X7415479Y3822497D02*
G03X7415479Y3822497I-141986J0D01*
G75*
G01
X7415479Y1892503D02*
G03X7415479Y1892503I-141986J0D01*
G75*
G01
X2876093Y1892503D02*
G03X2876093Y1892503I-141986J0D01*
G75*
G01
X2876093Y3822497D02*
G03X2876093Y3822497I-141986J0D01*
M02*
