M48
METRIC,LZ,000.000
;FILE_FORMAT=3:3
;TYPE=PLATED
;Layer: PTH_Through
;EasyEDA v6.5.9, 2022-08-06 01:21:30
;bc8d98b3e954460ba80fd4d649655d9a,c09117847ad249c1abd8b20aa127d3a4,10
;Gerber Generator version 0.2
;Holesize 1 = 0.305 mm
T01C0.305
;Holesize 2 = 0.501 mm
T02C0.501
;Holesize 3 = 0.701 mm
T03C0.701
;Holesize 4 = 0.889 mm
T04C0.889
;Holesize 5 = 0.900 mm
T05C0.900
;Holesize 6 = 0.901 mm
T06C0.901
;Holesize 7 = 0.915 mm
T07C0.915
;Holesize 8 = 1.000 mm
T08C1.000
;Holesize 9 = 1.021 mm
T09C1.021
;Holesize 10 = 1.341 mm
T10C1.341
%
G05
G90
T01
X167259Y031242
X144399Y036576
X135509Y036195
T02
X107950Y059055
X168910Y033020
T03
X116332Y065151
X116332Y066421
X116332Y067691
X125180Y065151
X125180Y066421
X125180Y067691
X134027Y065151
X134027Y066421
X134027Y067691
X142875Y065151
X142875Y066421
X142875Y067691
T04
X103124Y058928
X103124Y056388
X103124Y053848
X103124Y051308
X103124Y048768
X103124Y046228
X103124Y043688
X103124Y041148
X103124Y038608
X103124Y036068
X103124Y033528
X103124Y030988
X103124Y028448
X103124Y025908
X103124Y023368
X103124Y020828
X103124Y018288
X103124Y015748
X103124Y013208
X103124Y010668
X099568Y058928
X099568Y056388
X099568Y053848
X099568Y051308
X099568Y048768
X099568Y046228
X099568Y043688
X099568Y041148
X099568Y038608
X099568Y036068
X099568Y033528
X099568Y030988
X099568Y028448
X099568Y025908
X099568Y023368
X099568Y020828
X099568Y018288
X099568Y015748
X099568Y013208
X099568Y010668
X072517Y062738
X069977Y062738
X067437Y062738
X064897Y062738
X062357Y062738
X059817Y062738
X072517Y050927
X069977Y050927
X067437Y050927
X064897Y050927
X062357Y050927
X059817Y050927
X128524Y010668
X128524Y013208
X128524Y015748
X128524Y018288
X128524Y020828
X128524Y023368
X128524Y025908
X128524Y028448
X128524Y030988
X128524Y033528
X128524Y036068
X128524Y038608
X128524Y041148
X128524Y043688
X128524Y046228
X128524Y048768
X128524Y051308
X128524Y053848
X128524Y056388
X128524Y058928
X132080Y010795
X132080Y013335
X132080Y015875
X132080Y018415
X132080Y020955
X132080Y023495
X132080Y026035
X132080Y028575
X132080Y031115
X132080Y033655
X132080Y036195
X132080Y038735
X132080Y041275
X132080Y043815
X132080Y046355
X132080Y048895
X132080Y051435
X132080Y053975
X132080Y056515
X132080Y059055
T05
X027686Y065024
X030226Y065024
X032766Y065024
X035306Y065024
T06
X173006Y018494
X173006Y021034
X173006Y023574
X173006Y026114
X173006Y028654
X173006Y031194
X173006Y033734
X173006Y036271
X173006Y038811
X173006Y041351
X173006Y043891
X173006Y046431
X173006Y048971
X173003Y051510
X092003Y031194
X092003Y033734
X092003Y036271
X092003Y038811
T07
X128524Y013208
X128524Y015748
X128524Y018288
X128524Y020828
X128524Y023368
X128524Y025908
X128524Y028448
X128524Y030988
X128524Y033528
X128524Y036068
X128524Y038608
X128524Y041148
X128524Y043688
X128524Y046228
X128524Y048768
X128524Y051308
X128524Y053848
X128524Y056388
X128524Y058928
X103124Y058928
X103124Y056388
X103124Y053848
X103124Y051308
X103124Y048768
X103124Y046228
X103124Y043688
X103124Y041148
X103124Y038608
X103124Y036068
X103124Y033528
X103124Y030988
X103124Y028448
X103124Y025908
X103124Y023368
X103124Y020828
X103124Y018288
X103124Y015748
X103124Y013208
T08
X152400Y035000
X154940Y035000
X157480Y035000
X160020Y035000
X162560Y035000
X165100Y035000
X167640Y035000
X170180Y035000
X135509Y013335
X138049Y013335
X140589Y013335
X090805Y013208
X093345Y013208
X095885Y013208
X163449Y058801
X165989Y058801
X168529Y058801
X171069Y058801
X173609Y058801
X139700Y059055
X142240Y059055
X144780Y059055
X147320Y059055
X149860Y059055
X152400Y059055
X154940Y059055
X157480Y059055
X139700Y038989
X142240Y038989
X144780Y038989
X147320Y038989
X149860Y038989
X152400Y038989
X154940Y038989
X157480Y038989
X013462Y054102
X013462Y056642
X030226Y058928
X032766Y058928
X032893Y052959
X030353Y052959
X100000Y062460
X100000Y065000
X106000Y065000
X106000Y062460
T09
X176530Y016002
X176530Y018542
X176530Y021082
X176530Y023622
X176530Y033782
X176530Y031242
X176530Y028702
X176530Y026162
X176530Y046482
X176530Y049022
X176530Y051562
X176530Y043942
X176530Y041402
X176530Y038862
X176530Y036322
T10
X085969Y038434G85X085969Y039794
X085969Y019134G85X085969Y020494
X013599Y038434G85X013599Y039794
X013599Y019134G85X013599Y020494
X085969Y020494G85X085969Y019134
X085969Y039794G85X085969Y038434
X013599Y020494G85X013599Y019134
X013599Y039794G85X013599Y038434
M30
