G04 Layer: BottomSolderMaskLayer*
G04 EasyEDA v6.5.9, 2022-08-06 01:21:30*
G04 bc8d98b3e954460ba80fd4d649655d9a,c09117847ad249c1abd8b20aa127d3a4,10*
G04 Gerber Generator version 0.2*
G04 Scale: 100 percent, Rotated: No, Reflected: No *
G04 Dimensions in millimeters *
G04 leading zeros omitted , absolute positions ,4 integer and 5 decimal *
%FSLAX45Y45*%
%MOMM*%

%ADD10C,3.1000*%
%ADD11C,1.0016*%
%ADD12C,1.9016*%
%ADD13C,2.1016*%
%ADD14C,2.2032*%
%ADD15C,1.6764*%
%ADD16R,1.6764X1.6764*%
%ADD17C,1.7032*%
%ADD18C,1.6256*%
%ADD19C,1.7272*%
%ADD20C,0.0146*%

%LPD*%
D10*
X8596909Y3981396D02*
G01*
X8596909Y3841396D01*
X8596909Y2051403D02*
G01*
X8596909Y1911403D01*
X1359890Y3981396D02*
G01*
X1359890Y3841396D01*
X1359890Y2051403D02*
G01*
X1359890Y1911403D01*
X8596909Y1911403D02*
G01*
X8596909Y2051403D01*
X8596909Y3841396D02*
G01*
X8596909Y3981396D01*
X1359890Y1911403D02*
G01*
X1359890Y2051403D01*
X1359890Y3841396D02*
G01*
X1359890Y3981396D01*
D11*
X11668201Y6515100D02*
G01*
X11598201Y6515100D01*
X11668201Y6642100D02*
G01*
X11598201Y6642100D01*
X12552959Y6515100D02*
G01*
X12482956Y6515100D01*
X12552959Y6642100D02*
G01*
X12482956Y6642100D01*
X13437743Y6515100D02*
G01*
X13367743Y6515100D01*
X13437743Y6642100D02*
G01*
X13367743Y6642100D01*
X14322501Y6515100D02*
G01*
X14252501Y6515100D01*
X14322501Y6642100D02*
G01*
X14252501Y6642100D01*
D12*
G01*
X17300575Y1849373D03*
G01*
X17300575Y2103373D03*
G01*
X17300575Y2357373D03*
G01*
X17300575Y2611373D03*
G01*
X17300575Y2865373D03*
G01*
X17300575Y3119373D03*
G01*
X17300575Y3373373D03*
G01*
X17300575Y3627120D03*
G01*
X17300575Y3881120D03*
G01*
X17300575Y4135120D03*
G01*
X17300575Y4389120D03*
G01*
X17300575Y4643120D03*
G01*
X17300575Y4897120D03*
G36*
X17205198Y5055870D02*
G01*
X17205198Y5246115D01*
X17395443Y5246115D01*
X17395443Y5055870D01*
G37*
G01*
X9200261Y3119373D03*
G01*
X9200261Y3373373D03*
G01*
X9200261Y3627120D03*
G36*
X9105138Y3786123D02*
G01*
X9105138Y3976115D01*
X9295384Y3976115D01*
X9295384Y3786123D01*
G37*
D13*
G01*
X15240000Y3499993D03*
G01*
X15494000Y3499993D03*
D14*
G01*
X15748000Y3499993D03*
G01*
X16002000Y3499993D03*
G01*
X16256000Y3499993D03*
G01*
X16510000Y3499993D03*
G01*
X16764000Y3499993D03*
G01*
X17018000Y3499993D03*
D15*
G01*
X10312400Y5892800D03*
G01*
X10312400Y5638800D03*
G01*
X10312400Y5384800D03*
G01*
X10312400Y5130800D03*
G01*
X10312400Y4876800D03*
G01*
X10312400Y4622800D03*
G01*
X10312400Y4368800D03*
G01*
X10312400Y4114800D03*
G01*
X10312400Y3860800D03*
G01*
X10312400Y3606800D03*
G01*
X10312400Y3352800D03*
G01*
X10312400Y3098800D03*
G01*
X10312400Y2844800D03*
G01*
X10312400Y2590800D03*
G01*
X10312400Y2336800D03*
G01*
X10312400Y2082800D03*
G01*
X10312400Y1828800D03*
G01*
X10312400Y1574800D03*
G01*
X10312400Y1320800D03*
D16*
G01*
X10312400Y1066800D03*
D15*
G01*
X9956800Y5892800D03*
G01*
X9956800Y5638800D03*
G01*
X9956800Y5384800D03*
G01*
X9956800Y5130800D03*
G01*
X9956800Y4876800D03*
G01*
X9956800Y4622800D03*
G01*
X9956800Y4368800D03*
G01*
X9956800Y4114800D03*
G01*
X9956800Y3860800D03*
G01*
X9956800Y3606800D03*
G01*
X9956800Y3352800D03*
G01*
X9956800Y3098800D03*
G01*
X9956800Y2844800D03*
G01*
X9956800Y2590800D03*
G01*
X9956800Y2336800D03*
G01*
X9956800Y2082800D03*
G01*
X9956800Y1828800D03*
G01*
X9956800Y1574800D03*
G01*
X9956800Y1320800D03*
D16*
G01*
X9956800Y1066800D03*
D13*
G01*
X13550900Y1333500D03*
G01*
X13804900Y1333500D03*
D14*
G01*
X14058900Y1333500D03*
D13*
G01*
X9080500Y1320800D03*
G01*
X9334500Y1320800D03*
D14*
G01*
X9588500Y1320800D03*
D15*
G01*
X7251700Y6273800D03*
G01*
X6997700Y6273800D03*
G01*
X6743700Y6273800D03*
G01*
X6489700Y6273800D03*
G01*
X6235700Y6273800D03*
G36*
X5897879Y6189979D02*
G01*
X5897879Y6357620D01*
X6065520Y6357620D01*
X6065520Y6189979D01*
G37*
G01*
X7251700Y5092700D03*
G01*
X6997700Y5092700D03*
G01*
X6743700Y5092700D03*
G01*
X6489700Y5092700D03*
G01*
X6235700Y5092700D03*
G36*
X5897879Y5008879D02*
G01*
X5897879Y5176520D01*
X6065520Y5176520D01*
X6065520Y5008879D01*
G37*
D13*
G01*
X16344900Y5880100D03*
G01*
X16598900Y5880100D03*
D14*
G01*
X16852900Y5880100D03*
G01*
X17106900Y5880100D03*
G01*
X17360900Y5880100D03*
D13*
G01*
X13970000Y5905500D03*
G01*
X14224000Y5905500D03*
D14*
G01*
X14478000Y5905500D03*
G01*
X14732000Y5905500D03*
G01*
X14986000Y5905500D03*
G01*
X15240000Y5905500D03*
G01*
X15494000Y5905500D03*
G01*
X15748000Y5905500D03*
D13*
G01*
X13970000Y3898900D03*
G01*
X14224000Y3898900D03*
D14*
G01*
X14478000Y3898900D03*
G01*
X14732000Y3898900D03*
G01*
X14986000Y3898900D03*
G01*
X15240000Y3898900D03*
G01*
X15494000Y3898900D03*
G01*
X15748000Y3898900D03*
D17*
G01*
X1346200Y5410200D03*
G01*
X1346200Y5664200D03*
G01*
X3022600Y5892800D03*
G01*
X3276600Y5892800D03*
G01*
X3289300Y5295900D03*
G01*
X3035300Y5295900D03*
G01*
X9999979Y6245987D03*
G01*
X9999979Y6499987D03*
G01*
X10599978Y6499987D03*
G01*
X10599978Y6245987D03*
G01*
X2768600Y6502400D03*
G01*
X3022600Y6502400D03*
G01*
X3276600Y6502400D03*
G01*
X3530600Y6502400D03*
D18*
G01*
X17653000Y1600200D03*
G01*
X17653000Y1854200D03*
G01*
X17653000Y2108200D03*
G01*
X17653000Y2362200D03*
G01*
X17653000Y3378200D03*
G01*
X17653000Y3124200D03*
G01*
X17653000Y2870200D03*
G01*
X17653000Y2616200D03*
G01*
X17653000Y4648200D03*
G01*
X17653000Y4902200D03*
G01*
X17653000Y5156200D03*
G01*
X17653000Y4394200D03*
G01*
X17653000Y4140200D03*
G01*
X17653000Y3886200D03*
G01*
X17653000Y3632200D03*
D19*
G01*
X12852400Y1320800D03*
G01*
X12852400Y1574800D03*
G01*
X12852400Y1828800D03*
G01*
X12852400Y2082800D03*
G01*
X12852400Y2336800D03*
G01*
X12852400Y2590800D03*
G01*
X12852400Y2844800D03*
G01*
X12852400Y3098800D03*
G01*
X12852400Y3352800D03*
G01*
X12852400Y3606800D03*
G01*
X12852400Y3860800D03*
G01*
X12852400Y4114800D03*
G01*
X12852400Y4368800D03*
G01*
X12852400Y4622800D03*
G01*
X12852400Y4876800D03*
G01*
X12852400Y5130800D03*
G01*
X12852400Y5384800D03*
G01*
X12852400Y5638800D03*
G01*
X12852400Y5892800D03*
G01*
X10312400Y5892800D03*
G01*
X10312400Y5638800D03*
G01*
X10312400Y5384800D03*
G01*
X10312400Y5130800D03*
G01*
X10312400Y4876800D03*
G01*
X10312400Y4622800D03*
G01*
X10312400Y4368800D03*
G01*
X10312400Y4114800D03*
G01*
X10312400Y3860800D03*
G01*
X10312400Y3606800D03*
G01*
X10312400Y3352800D03*
G01*
X10312400Y3098800D03*
G01*
X10312400Y2844800D03*
G01*
X10312400Y2590800D03*
G01*
X10312400Y2336800D03*
G01*
X10312400Y2082800D03*
G01*
X10312400Y1828800D03*
G01*
X10312400Y1574800D03*
G01*
X10312400Y1320800D03*
G36*
X11548109Y6719062D02*
G01*
X11548109Y6819137D01*
X11718290Y6819137D01*
X11718290Y6719062D01*
G37*
G36*
X12432791Y6719062D02*
G01*
X12432791Y6819137D01*
X12602972Y6819137D01*
X12602972Y6719062D01*
G37*
G36*
X13317727Y6719062D02*
G01*
X13317727Y6819137D01*
X13487908Y6819137D01*
X13487908Y6719062D01*
G37*
G36*
X14202409Y6719062D02*
G01*
X14202409Y6819137D01*
X14372590Y6819137D01*
X14372590Y6719062D01*
G37*
D15*
G01*
X12852400Y1066800D03*
G01*
X12852400Y1320800D03*
G01*
X12852400Y1574800D03*
G01*
X12852400Y1828800D03*
G01*
X12852400Y2082800D03*
G01*
X12852400Y2336800D03*
G01*
X12852400Y2590800D03*
G01*
X12852400Y2844800D03*
G01*
X12852400Y3098800D03*
G01*
X12852400Y3352800D03*
G01*
X12852400Y3606800D03*
G01*
X12852400Y3860800D03*
G01*
X12852400Y4114800D03*
G01*
X12852400Y4368800D03*
G01*
X12852400Y4622800D03*
G01*
X12852400Y4876800D03*
G01*
X12852400Y5130800D03*
G01*
X12852400Y5384800D03*
G01*
X12852400Y5638800D03*
G36*
X12768579Y5808979D02*
G01*
X12768579Y5976620D01*
X12936220Y5976620D01*
X12936220Y5808979D01*
G37*
G01*
X13208000Y1079500D03*
G01*
X13208000Y1333500D03*
G01*
X13208000Y1587500D03*
G01*
X13208000Y1841500D03*
G01*
X13208000Y2095500D03*
G01*
X13208000Y2349500D03*
G01*
X13208000Y2603500D03*
G01*
X13208000Y2857500D03*
G01*
X13208000Y3111500D03*
G01*
X13208000Y3365500D03*
G01*
X13208000Y3619500D03*
G01*
X13208000Y3873500D03*
G01*
X13208000Y4127500D03*
G01*
X13208000Y4381500D03*
G01*
X13208000Y4635500D03*
G01*
X13208000Y4889500D03*
G01*
X13208000Y5143500D03*
G01*
X13208000Y5397500D03*
G01*
X13208000Y5651500D03*
G36*
X13124179Y5821679D02*
G01*
X13124179Y5989320D01*
X13291820Y5989320D01*
X13291820Y5821679D01*
G37*
M02*
