G04 Layer: TopPasteMaskLayer*
G04 EasyEDA v6.5.9, 2022-08-06 01:21:30*
G04 bc8d98b3e954460ba80fd4d649655d9a,c09117847ad249c1abd8b20aa127d3a4,10*
G04 Gerber Generator version 0.2*
G04 Scale: 100 percent, Rotated: No, Reflected: No *
G04 Dimensions in millimeters *
G04 leading zeros omitted , absolute positions ,4 integer and 5 decimal *
%FSLAX45Y45*%
%MOMM*%

%ADD10R,1.4000X1.4000*%
%ADD11R,4.9000X3.4000*%
%ADD12R,3.0000X1.5000*%
%ADD13R,1.5000X3.0000*%

%LPD*%
G36*
X10564520Y5915710D02*
G01*
X10559491Y5910681D01*
X10559491Y5830722D01*
X10564520Y5825693D01*
X10587278Y5825693D01*
X10587278Y5862726D01*
X10620298Y5862726D01*
X10620298Y5825693D01*
X10644479Y5825693D01*
X10649508Y5830722D01*
X10649508Y5910681D01*
X10644479Y5915710D01*
G37*
G36*
X10564520Y5755690D02*
G01*
X10559491Y5750712D01*
X10559491Y5671718D01*
X10564520Y5666689D01*
X10644479Y5666689D01*
X10649508Y5671718D01*
X10649508Y5750712D01*
X10644479Y5755690D01*
X10620298Y5755690D01*
X10620298Y5717692D01*
X10587278Y5717692D01*
X10587278Y5755690D01*
G37*
G36*
X4024375Y5993256D02*
G01*
X4154424Y5993256D01*
X4154424Y5843143D01*
X4024375Y5843143D01*
G37*
G36*
X4024375Y5282056D02*
G01*
X4154424Y5282056D01*
X4154424Y5131943D01*
X4024375Y5131943D01*
G37*
G36*
X7440675Y6336156D02*
G01*
X7570724Y6336156D01*
X7570724Y6186043D01*
X7440675Y6186043D01*
G37*
G36*
X7542275Y5175046D02*
G01*
X7672324Y5175046D01*
X7672324Y5024932D01*
X7542275Y5024932D01*
G37*
G36*
X8647175Y6323456D02*
G01*
X8777224Y6323456D01*
X8777224Y6173343D01*
X8647175Y6173343D01*
G37*
G36*
X8659875Y5175046D02*
G01*
X8789924Y5175046D01*
X8789924Y5024932D01*
X8659875Y5024932D01*
G37*
G36*
X2398775Y6107556D02*
G01*
X2528824Y6107556D01*
X2528824Y5957443D01*
X2398775Y5957443D01*
G37*
G36*
X2398775Y5497956D02*
G01*
X2528824Y5497956D01*
X2528824Y5347843D01*
X2398775Y5347843D01*
G37*
G36*
X5357875Y5993256D02*
G01*
X5487924Y5993256D01*
X5487924Y5843143D01*
X5357875Y5843143D01*
G37*
G36*
X5357875Y5282056D02*
G01*
X5487924Y5282056D01*
X5487924Y5131943D01*
X5357875Y5131943D01*
G37*
G36*
X4468875Y5993256D02*
G01*
X4598924Y5993256D01*
X4598924Y5843143D01*
X4468875Y5843143D01*
G37*
G36*
X4468875Y5282056D02*
G01*
X4598924Y5282056D01*
X4598924Y5131943D01*
X4468875Y5131943D01*
G37*
G36*
X4913375Y5993256D02*
G01*
X5043424Y5993256D01*
X5043424Y5843143D01*
X4913375Y5843143D01*
G37*
G36*
X4913375Y5282056D02*
G01*
X5043424Y5282056D01*
X5043424Y5131943D01*
X4913375Y5131943D01*
G37*
D10*
G01*
X1346200Y6480098D03*
G01*
X1346200Y6296101D03*
D11*
G01*
X1752600Y6388100D03*
D12*
G01*
X1196187Y5410174D03*
G01*
X1196187Y5664174D03*
G36*
X2947578Y6192822D02*
G01*
X3097580Y6192822D01*
X3097580Y5892822D01*
X2947578Y5892822D01*
G37*
G36*
X3201568Y6192822D02*
G01*
X3351570Y6192822D01*
X3351570Y5892822D01*
X3201568Y5892822D01*
G37*
D13*
G01*
X3289325Y5145887D03*
G01*
X3035325Y5145887D03*
D12*
G01*
X9849967Y6245961D03*
G01*
X9849967Y6499961D03*
G01*
X10749991Y6500012D03*
G01*
X10749991Y6246012D03*
G36*
X2693588Y6802417D02*
G01*
X2843590Y6802417D01*
X2843590Y6502417D01*
X2693588Y6502417D01*
G37*
G36*
X2947578Y6802417D02*
G01*
X3097580Y6802417D01*
X3097580Y6502417D01*
X2947578Y6502417D01*
G37*
G36*
X3201591Y6802417D02*
G01*
X3351593Y6802417D01*
X3351593Y6502417D01*
X3201591Y6502417D01*
G37*
G36*
X3455578Y6804809D02*
G01*
X3605580Y6804809D01*
X3605580Y6504810D01*
X3455578Y6504810D01*
G37*
M02*
