G04 Layer: BottomSilkscreenLayer*
G04 EasyEDA v6.5.9, 2022-08-06 01:21:30*
G04 bc8d98b3e954460ba80fd4d649655d9a,c09117847ad249c1abd8b20aa127d3a4,10*
G04 Gerber Generator version 0.2*
G04 Scale: 100 percent, Rotated: No, Reflected: No *
G04 Dimensions in millimeters *
G04 leading zeros omitted , absolute positions ,4 integer and 5 decimal *
%FSLAX45Y45*%
%MOMM*%

%ADD10C,0.1000*%
%ADD11C,0.2032*%
%ADD12C,0.1524*%
%ADD13C,0.2540*%

%LPD*%
G36*
X17142206Y1019505D02*
G01*
X17128032Y1019149D01*
X17113605Y1018235D01*
X17099330Y1016762D01*
X17085716Y1014780D01*
X17073118Y1012342D01*
X17062043Y1009446D01*
X17057217Y1007871D01*
X17045584Y1003249D01*
X17034256Y997966D01*
X17023232Y992073D01*
X17012513Y985519D01*
X17002150Y978408D01*
X16992193Y970787D01*
X16982643Y962660D01*
X16973550Y954024D01*
X16964914Y944981D01*
X16956735Y935532D01*
X16949064Y925677D01*
X16941952Y915517D01*
X16935399Y905052D01*
X16929404Y894283D01*
X16924070Y883310D01*
X16919295Y872134D01*
X16915231Y860806D01*
X16910405Y843534D01*
X16908119Y831900D01*
X16906544Y820216D01*
X16905685Y805840D01*
X16916044Y805840D01*
X16916400Y816914D01*
X16917416Y827836D01*
X16919092Y838708D01*
X16921429Y849376D01*
X16924375Y859942D01*
X16927982Y870356D01*
X16932148Y880567D01*
X16936974Y890524D01*
X16942358Y900328D01*
X16948302Y909878D01*
X16954804Y919175D01*
X16961916Y928166D01*
X16969486Y936904D01*
X16977664Y945337D01*
X16986300Y953414D01*
X16995495Y961136D01*
X17005147Y968552D01*
X17015307Y975563D01*
X17025924Y982167D01*
X17036999Y988364D01*
X17048480Y994105D01*
X17060722Y999591D01*
X17071441Y1003604D01*
X17076674Y1005128D01*
X17081957Y1006348D01*
X17087545Y1007364D01*
X17093488Y1008176D01*
X17107357Y1009294D01*
X17124680Y1009954D01*
X17140834Y1010107D01*
X17155058Y1009650D01*
X17161611Y1009142D01*
X17173854Y1007465D01*
X17185436Y1004824D01*
X17196816Y1001166D01*
X17208449Y996289D01*
X17220895Y990193D01*
X17227550Y986637D01*
X17232223Y983843D01*
X17236846Y980592D01*
X17241520Y976884D01*
X17246092Y972819D01*
X17250613Y968349D01*
X17255083Y963523D01*
X17259452Y958392D01*
X17263668Y953008D01*
X17271746Y941425D01*
X17275505Y935380D01*
X17282414Y922731D01*
X17288408Y909726D01*
X17290999Y903173D01*
X17293285Y896569D01*
X17295266Y890016D01*
X17296892Y883513D01*
X17299838Y868070D01*
X17299990Y865733D01*
X17299686Y863600D01*
X17298822Y861466D01*
X17297349Y859332D01*
X17295063Y856996D01*
X17291862Y854354D01*
X17287697Y851357D01*
X17275708Y843787D01*
X17208804Y804113D01*
X17169688Y780542D01*
X17150384Y768654D01*
X17098619Y859383D01*
X17086326Y880516D01*
X17076267Y897331D01*
X17068190Y910132D01*
X17061992Y919022D01*
X17057573Y924255D01*
X17055998Y925576D01*
X17054779Y926033D01*
X17053915Y925728D01*
X17053407Y924560D01*
X17053255Y922680D01*
X17054118Y920546D01*
X17060621Y908151D01*
X17087494Y859840D01*
X17104715Y829564D01*
X17120057Y802030D01*
X17131639Y780440D01*
X17138091Y767334D01*
X17138954Y764794D01*
X17137024Y761441D01*
X17131639Y756005D01*
X17123664Y749198D01*
X17077944Y714806D01*
X17047311Y691032D01*
X17005706Y658215D01*
X16984218Y671626D01*
X16979138Y675233D01*
X16969435Y683107D01*
X16964863Y687273D01*
X16956278Y696214D01*
X16948404Y705866D01*
X16941342Y716127D01*
X16938091Y721461D01*
X16932249Y732586D01*
X16927271Y744220D01*
X16925086Y750214D01*
X16921429Y762508D01*
X16918686Y775157D01*
X16917670Y781608D01*
X16916908Y788111D01*
X16916146Y800303D01*
X16916044Y805840D01*
X16905685Y805840D01*
X16905376Y791210D01*
X16904055Y785368D01*
X16900804Y783742D01*
X16891914Y785825D01*
X16881602Y787400D01*
X16867124Y788974D01*
X16850207Y790346D01*
X16832884Y791362D01*
X16818406Y791718D01*
X16806265Y791413D01*
X16795445Y790244D01*
X16784929Y788111D01*
X16773753Y784961D01*
X16761460Y780846D01*
X16749826Y776325D01*
X16738752Y771448D01*
X16728135Y766064D01*
X16717975Y760171D01*
X16708119Y753668D01*
X16698518Y746556D01*
X16689120Y738784D01*
X16679773Y730250D01*
X16670426Y720902D01*
X16661231Y710895D01*
X16652697Y700582D01*
X16644874Y690016D01*
X16637812Y679196D01*
X16631513Y668172D01*
X16625925Y656945D01*
X16621048Y645566D01*
X16616934Y634136D01*
X16613530Y622554D01*
X16610939Y610971D01*
X16609009Y599338D01*
X16607840Y587705D01*
X16607462Y577748D01*
X16616222Y577748D01*
X16616781Y588619D01*
X16618000Y599541D01*
X16619982Y610412D01*
X16622572Y621233D01*
X16625874Y631952D01*
X16629786Y642569D01*
X16634307Y653034D01*
X16639489Y663346D01*
X16645229Y673455D01*
X16651528Y683310D01*
X16658386Y692861D01*
X16665752Y702157D01*
X16673626Y711149D01*
X16682059Y719734D01*
X16690898Y727913D01*
X16700246Y735736D01*
X16709999Y743051D01*
X16720159Y749909D01*
X16730726Y756259D01*
X16741698Y762050D01*
X16756634Y769162D01*
X16762933Y771956D01*
X16768724Y774242D01*
X16774261Y776071D01*
X16779798Y777544D01*
X16785488Y778713D01*
X16791533Y779576D01*
X16798239Y780237D01*
X16814342Y781100D01*
X16830802Y781507D01*
X16843908Y781456D01*
X16856354Y780999D01*
X16867733Y780186D01*
X16877487Y779018D01*
X16885310Y777595D01*
X16888307Y776782D01*
X16893641Y774903D01*
X16898010Y772972D01*
X16901617Y770788D01*
X16904614Y768146D01*
X16907205Y764844D01*
X16909440Y760780D01*
X16911624Y755751D01*
X16915790Y744169D01*
X16920210Y733653D01*
X16925340Y723442D01*
X16931233Y713536D01*
X16937837Y703986D01*
X16945152Y694842D01*
X16953128Y686054D01*
X16961713Y677722D01*
X16970959Y669899D01*
X16980814Y662482D01*
X16987824Y657707D01*
X16990517Y655269D01*
X16991177Y653897D01*
X16991279Y652322D01*
X16990771Y650494D01*
X16989602Y648208D01*
X16987672Y645464D01*
X16981220Y638149D01*
X16970959Y627786D01*
X16876318Y538480D01*
X16801287Y613308D01*
X16775531Y638200D01*
X16764406Y648563D01*
X16754805Y657148D01*
X16746982Y663803D01*
X16741343Y668172D01*
X16739412Y669442D01*
X16738092Y670052D01*
X16737482Y669950D01*
X16737533Y669137D01*
X16738244Y667715D01*
X16741648Y662990D01*
X16747337Y656082D01*
X16764558Y636981D01*
X16787876Y612648D01*
X16820845Y579424D01*
X16843298Y556260D01*
X16859504Y538937D01*
X16864533Y533196D01*
X16867225Y529793D01*
X16867530Y529031D01*
X16866971Y527608D01*
X16862856Y521411D01*
X16855440Y511759D01*
X16845635Y499770D01*
X16828160Y479094D01*
X16811955Y459079D01*
X16798594Y441706D01*
X16779544Y415239D01*
X16749979Y419201D01*
X16738244Y421792D01*
X16726204Y425399D01*
X16714165Y429920D01*
X16702328Y435254D01*
X16691000Y441299D01*
X16680383Y447852D01*
X16670731Y454914D01*
X16666362Y458622D01*
X16662196Y462534D01*
X16658082Y467004D01*
X16653967Y471982D01*
X16649954Y477418D01*
X16646042Y483209D01*
X16638574Y495706D01*
X16631869Y509066D01*
X16626128Y522833D01*
X16623690Y529742D01*
X16621556Y536549D01*
X16619778Y543255D01*
X16618407Y549808D01*
X16617391Y556107D01*
X16616476Y566877D01*
X16616222Y577748D01*
X16607462Y577748D01*
X16607536Y570382D01*
X16608196Y558952D01*
X16609669Y547674D01*
X16611854Y536549D01*
X16614800Y525576D01*
X16618508Y514858D01*
X16622928Y504393D01*
X16628160Y494233D01*
X16631005Y489254D01*
X16637355Y479551D01*
X16644416Y470255D01*
X16652290Y461365D01*
X16661079Y452628D01*
X16670121Y444652D01*
X16679163Y437692D01*
X16688460Y431698D01*
X16698315Y426415D01*
X16709136Y421792D01*
X16721074Y417525D01*
X16734485Y413562D01*
X16770959Y404266D01*
X16744238Y357632D01*
X16736974Y344373D01*
X16730319Y331470D01*
X16724274Y318922D01*
X16718788Y306679D01*
X16713911Y294741D01*
X16709542Y283057D01*
X16705783Y271678D01*
X16702532Y260451D01*
X16699839Y249478D01*
X16697706Y238658D01*
X16696029Y227990D01*
X16694912Y217474D01*
X16694302Y207060D01*
X16694164Y193852D01*
X16701363Y193852D01*
X16701414Y201015D01*
X16702024Y212090D01*
X16703903Y227279D01*
X16707002Y243027D01*
X16710050Y255168D01*
X16712438Y263398D01*
X16718076Y280212D01*
X16721277Y288798D01*
X16728541Y306222D01*
X16736872Y324053D01*
X16743781Y337616D01*
X16748709Y346811D01*
X16756583Y360680D01*
X16767962Y379476D01*
X16780256Y398475D01*
X16793514Y417677D01*
X16807637Y437083D01*
X16822674Y456692D01*
X16842689Y481279D01*
X16859605Y501091D01*
X16881906Y525932D01*
X16905427Y550722D01*
X16915130Y560679D01*
X16930065Y575513D01*
X16945406Y590346D01*
X16971822Y614934D01*
X16999254Y639267D01*
X17021911Y658571D01*
X17045228Y677672D01*
X17069054Y696518D01*
X17093438Y715111D01*
X17118380Y733399D01*
X17131030Y742391D01*
X17156734Y760171D01*
X17176292Y773226D01*
X17208195Y793699D01*
X17239030Y812292D01*
X17270476Y830071D01*
X17295926Y843635D01*
X17327829Y859739D01*
X17359630Y874776D01*
X17378578Y883208D01*
X17409668Y896264D01*
X17434052Y905713D01*
X17457775Y914247D01*
X17480737Y921816D01*
X17502784Y928319D01*
X17523866Y933754D01*
X17543729Y938021D01*
X17562372Y941120D01*
X17571110Y942187D01*
X17610683Y946048D01*
X17623993Y947013D01*
X17634204Y947369D01*
X17642078Y947166D01*
X17648478Y946505D01*
X17664633Y943762D01*
X17679466Y940562D01*
X17693030Y936904D01*
X17705324Y932687D01*
X17711013Y930402D01*
X17716398Y927963D01*
X17726355Y922578D01*
X17730876Y919683D01*
X17735143Y916584D01*
X17742865Y909929D01*
X17749469Y902563D01*
X17752415Y898601D01*
X17755108Y894435D01*
X17757546Y890117D01*
X17759781Y885545D01*
X17761762Y880821D01*
X17763490Y875842D01*
X17765014Y870661D01*
X17767350Y859637D01*
X17768874Y847750D01*
X17769586Y834847D01*
X17769586Y821639D01*
X17768976Y809396D01*
X17767858Y797712D01*
X17766030Y786231D01*
X17763490Y774750D01*
X17760137Y763016D01*
X17755870Y750722D01*
X17750637Y737565D01*
X17744389Y723392D01*
X17730673Y695045D01*
X17718532Y672490D01*
X17707864Y654354D01*
X17696434Y636117D01*
X17684191Y617778D01*
X17671237Y599440D01*
X17657521Y581050D01*
X17643144Y562660D01*
X17624196Y539699D01*
X17608397Y521360D01*
X17591938Y503123D01*
X17570602Y480466D01*
X17552924Y462432D01*
X17534737Y444601D01*
X17511369Y422503D01*
X17492167Y405028D01*
X17472558Y387756D01*
X17452594Y370738D01*
X17432274Y354025D01*
X17401184Y329387D01*
X17380102Y313385D01*
X17347996Y290017D01*
X17326356Y274878D01*
X17304512Y260146D01*
X17282566Y245821D01*
X17266005Y235356D01*
X17232731Y215239D01*
X17210481Y202387D01*
X17193768Y193090D01*
X17165929Y178308D01*
X17143679Y167081D01*
X17115942Y153822D01*
X17093895Y143916D01*
X17066514Y132384D01*
X17044771Y123952D01*
X17023232Y116128D01*
X16996613Y107340D01*
X16975632Y101142D01*
X16954906Y95707D01*
X16939615Y92100D01*
X16926255Y89509D01*
X16912132Y87325D01*
X16897451Y85547D01*
X16882465Y84277D01*
X16867378Y83413D01*
X16852392Y83007D01*
X16837710Y83058D01*
X16823639Y83616D01*
X16810380Y84582D01*
X16798086Y86004D01*
X16787063Y87934D01*
X16777512Y90271D01*
X16771670Y92252D01*
X16765879Y94640D01*
X16760139Y97485D01*
X16754500Y100685D01*
X16749013Y104241D01*
X16743680Y108102D01*
X16738498Y112268D01*
X16733621Y116636D01*
X16728948Y121259D01*
X16724630Y126085D01*
X16720616Y131064D01*
X16716959Y136144D01*
X16713707Y141376D01*
X16710913Y146608D01*
X16708577Y151892D01*
X16705834Y160324D01*
X16704310Y166674D01*
X16703090Y173228D01*
X16702227Y179984D01*
X16701617Y186842D01*
X16701363Y193852D01*
X16694164Y193852D01*
X16694404Y180949D01*
X16694962Y172669D01*
X16695877Y165404D01*
X16697147Y158851D01*
X16698925Y152806D01*
X16701160Y146964D01*
X16703954Y140970D01*
X16714165Y120548D01*
X16642537Y62331D01*
X16618102Y41757D01*
X16598493Y24434D01*
X16591229Y17576D01*
X16585996Y12242D01*
X16583050Y8737D01*
X16582542Y7721D01*
X16582491Y7010D01*
X16582694Y6553D01*
X16583151Y6299D01*
X16585031Y6604D01*
X16588333Y8077D01*
X16593261Y10769D01*
X16608704Y20472D01*
X16633037Y36830D01*
X16667784Y60756D01*
X16728490Y103073D01*
X16761815Y86817D01*
X16772178Y82448D01*
X16782186Y79298D01*
X16787469Y78079D01*
X16799102Y76200D01*
X16813276Y74930D01*
X16830954Y74015D01*
X16853763Y73660D01*
X16864990Y73863D01*
X16876115Y74320D01*
X16887240Y75082D01*
X16909491Y77571D01*
X16920718Y79298D01*
X16932097Y81330D01*
X16943628Y83667D01*
X16967352Y89458D01*
X16979595Y92862D01*
X16992193Y96672D01*
X17018609Y105460D01*
X17032427Y110388D01*
X17061637Y121564D01*
X17093234Y134518D01*
X17120209Y146456D01*
X17147184Y159156D01*
X17163338Y167132D01*
X17179493Y175412D01*
X17211751Y192786D01*
X17238472Y208076D01*
X17259808Y220827D01*
X17281093Y234035D01*
X17312741Y254660D01*
X17333772Y268986D01*
X17354600Y283718D01*
X17375327Y298856D01*
X17395901Y314452D01*
X17426482Y338531D01*
X17446599Y355092D01*
X17476470Y380593D01*
X17496129Y398068D01*
X17515586Y415950D01*
X17544288Y443382D01*
X17572431Y471525D01*
X17594173Y494334D01*
X17614747Y516788D01*
X17634102Y538937D01*
X17652288Y560730D01*
X17669306Y582269D01*
X17685105Y603402D01*
X17699736Y624281D01*
X17713096Y644804D01*
X17719395Y654913D01*
X17730978Y674979D01*
X17741392Y694639D01*
X17750586Y713994D01*
X17754752Y723544D01*
X17758613Y733044D01*
X17765369Y751738D01*
X17768316Y760933D01*
X17773294Y779068D01*
X17775377Y788060D01*
X17777104Y796899D01*
X17779034Y810056D01*
X17780101Y822655D01*
X17780304Y834694D01*
X17779542Y846226D01*
X17777815Y857199D01*
X17776647Y862533D01*
X17775224Y867765D01*
X17771668Y877824D01*
X17767198Y887476D01*
X17761712Y896670D01*
X17758664Y901141D01*
X17751755Y909828D01*
X17747945Y914044D01*
X17739614Y922172D01*
X17731790Y928573D01*
X17727726Y931519D01*
X17719040Y936802D01*
X17709743Y941324D01*
X17704816Y943305D01*
X17694300Y946759D01*
X17682921Y949502D01*
X17670576Y951636D01*
X17657114Y953109D01*
X17642535Y953973D01*
X17626736Y954227D01*
X17616220Y954125D01*
X17600371Y953465D01*
X17579035Y951636D01*
X17557292Y948740D01*
X17546269Y946912D01*
X17523815Y942390D01*
X17512334Y939698D01*
X17500752Y936701D01*
X17482972Y931671D01*
X17458588Y923950D01*
X17433340Y915060D01*
X17407077Y904900D01*
X17379696Y893470D01*
X17345101Y878484D01*
X17327727Y871677D01*
X17320768Y869187D01*
X17315281Y867511D01*
X17311522Y866597D01*
X17309642Y866648D01*
X17308068Y868476D01*
X17306798Y871728D01*
X17305985Y875893D01*
X17305426Y885088D01*
X17304766Y889965D01*
X17303699Y895146D01*
X17302276Y900582D01*
X17298314Y911961D01*
X17293132Y923747D01*
X17290135Y929690D01*
X17283379Y941374D01*
X17275810Y952500D01*
X17271796Y957783D01*
X17263414Y967435D01*
X17254220Y976477D01*
X17244872Y984605D01*
X17235220Y991920D01*
X17225416Y998372D01*
X17215256Y1004011D01*
X17204842Y1008786D01*
X17199559Y1010919D01*
X17188688Y1014476D01*
X17178528Y1017016D01*
X17167860Y1018489D01*
X17155617Y1019302D01*
G37*
G36*
X17557800Y901242D02*
G01*
X17555768Y901039D01*
X17554346Y899464D01*
X17553533Y896619D01*
X17553279Y892403D01*
X17554346Y887171D01*
X17557343Y880973D01*
X17561661Y874420D01*
X17566843Y868019D01*
X17572329Y862431D01*
X17577612Y858164D01*
X17582235Y855827D01*
X17585588Y856030D01*
X17587722Y858012D01*
X17588738Y860704D01*
X17588687Y864057D01*
X17587569Y868019D01*
X17585436Y872490D01*
X17582337Y877468D01*
X17578222Y882903D01*
X17573091Y888746D01*
X17568113Y893927D01*
X17563947Y897686D01*
X17560544Y900125D01*
G37*
G36*
X17489728Y901192D02*
G01*
X17455946Y884021D01*
X17442129Y876300D01*
X17429175Y868273D01*
X17416983Y859942D01*
X17405705Y851357D01*
X17395342Y842518D01*
X17385842Y833475D01*
X17377308Y824230D01*
X17369688Y814781D01*
X17363135Y805281D01*
X17360188Y800455D01*
X17355108Y790752D01*
X17351095Y780999D01*
X17349470Y776122D01*
X17347082Y766318D01*
X17346320Y761390D01*
X17345507Y754075D01*
X17345202Y747674D01*
X17345462Y742645D01*
X17354397Y742645D01*
X17354448Y747318D01*
X17354804Y751890D01*
X17355464Y756462D01*
X17357852Y765505D01*
X17359579Y769924D01*
X17361611Y774344D01*
X17363998Y778764D01*
X17366742Y783132D01*
X17369790Y787450D01*
X17373193Y791819D01*
X17381016Y800404D01*
X17390262Y808990D01*
X17395342Y813257D01*
X17406620Y821791D01*
X17412766Y826058D01*
X17417948Y829360D01*
X17428819Y835253D01*
X17439386Y839774D01*
X17444212Y841400D01*
X17448530Y842467D01*
X17452187Y842924D01*
X17456810Y843026D01*
X17460772Y842619D01*
X17464278Y841654D01*
X17467529Y839978D01*
X17470678Y837387D01*
X17474031Y833831D01*
X17481956Y823163D01*
X17486517Y816152D01*
X17496282Y816152D01*
X17496637Y819505D01*
X17497602Y823315D01*
X17499076Y827125D01*
X17500904Y830427D01*
X17503343Y834034D01*
X17504714Y835202D01*
X17505375Y834034D01*
X17505476Y830427D01*
X17505121Y827125D01*
X17504156Y823315D01*
X17502682Y819505D01*
X17500904Y816152D01*
X17498415Y812596D01*
X17497044Y811377D01*
X17496434Y812596D01*
X17496282Y816152D01*
X17486517Y816152D01*
X17491964Y807110D01*
X17495012Y801065D01*
X17496129Y797458D01*
X17496485Y795477D01*
X17497501Y793851D01*
X17499025Y792734D01*
X17502733Y791768D01*
X17504257Y790244D01*
X17505273Y787958D01*
X17505984Y782421D01*
X17506950Y780135D01*
X17508321Y778611D01*
X17510460Y777798D01*
X17519954Y777798D01*
X17520310Y779729D01*
X17521326Y781812D01*
X17522850Y783691D01*
X17524679Y785215D01*
X17526558Y785774D01*
X17528032Y785114D01*
X17529098Y783386D01*
X17529454Y780745D01*
X17529098Y777849D01*
X17528032Y775462D01*
X17526558Y773887D01*
X17524679Y773277D01*
X17522850Y773633D01*
X17521326Y774598D01*
X17520310Y776020D01*
X17519954Y777798D01*
X17510460Y777798D01*
X17512588Y776630D01*
X17516297Y772820D01*
X17520716Y767130D01*
X17525288Y760222D01*
X17539716Y736752D01*
X17551501Y718108D01*
X17560899Y703884D01*
X17568316Y693572D01*
X17571364Y689762D01*
X17576393Y684580D01*
X17578476Y683107D01*
X17580254Y682244D01*
X17581880Y681990D01*
X17583302Y682345D01*
X17587468Y685190D01*
X17589601Y685952D01*
X17590922Y685495D01*
X17591379Y683818D01*
X17590922Y681736D01*
X17589703Y679754D01*
X17587874Y678078D01*
X17585690Y676960D01*
X17584572Y674573D01*
X17586248Y669391D01*
X17590668Y661822D01*
X17604435Y642467D01*
X17610023Y633272D01*
X17613782Y625602D01*
X17615154Y620420D01*
X17613782Y616102D01*
X17610023Y610819D01*
X17604486Y605180D01*
X17597729Y599897D01*
X17580254Y588010D01*
X17535398Y649630D01*
X17519599Y670458D01*
X17518126Y671068D01*
X17515484Y671068D01*
X17511826Y670509D01*
X17507254Y669340D01*
X17495824Y665480D01*
X17468138Y653897D01*
X17455134Y649122D01*
X17444516Y645922D01*
X17440554Y645058D01*
X17437760Y644753D01*
X17434102Y645058D01*
X17429988Y646023D01*
X17425568Y647547D01*
X17420793Y649528D01*
X17410887Y654862D01*
X17405908Y658012D01*
X17401032Y661466D01*
X17396358Y665124D01*
X17391989Y668985D01*
X17388027Y672896D01*
X17384522Y676859D01*
X17376241Y687730D01*
X17369282Y698347D01*
X17363643Y708609D01*
X17359325Y718616D01*
X17357699Y723544D01*
X17356378Y728421D01*
X17355362Y733196D01*
X17354397Y742645D01*
X17345462Y742645D01*
X17346523Y735888D01*
X17348403Y729538D01*
X17351248Y722376D01*
X17355159Y713841D01*
X17363541Y697128D01*
X17370247Y685393D01*
X17377206Y675030D01*
X17380762Y670407D01*
X17388027Y662178D01*
X17391786Y658622D01*
X17395596Y655370D01*
X17399457Y652475D01*
X17403470Y649884D01*
X17407534Y647700D01*
X17411700Y645820D01*
X17415967Y644245D01*
X17420336Y643026D01*
X17424857Y642162D01*
X17429429Y641604D01*
X17434153Y641350D01*
X17439030Y641451D01*
X17444008Y641858D01*
X17449139Y642569D01*
X17454372Y643636D01*
X17465344Y646684D01*
X17476927Y651002D01*
X17515078Y668070D01*
X17539716Y633679D01*
X17558410Y608736D01*
X17566132Y598932D01*
X17572482Y591261D01*
X17577308Y585927D01*
X17580457Y583184D01*
X17581321Y582828D01*
X17583353Y583438D01*
X17586604Y585216D01*
X17591024Y588162D01*
X17603165Y597357D01*
X17619268Y610514D01*
X17628666Y618540D01*
X17633086Y623011D01*
X17637912Y629005D01*
X17642789Y636016D01*
X17647462Y643483D01*
X17651628Y650951D01*
X17654981Y657910D01*
X17657216Y663803D01*
X17658029Y668172D01*
X17657470Y669848D01*
X17655946Y670763D01*
X17653660Y670966D01*
X17647970Y669645D01*
X17645735Y670102D01*
X17644262Y671626D01*
X17642992Y677214D01*
X17640960Y680770D01*
X17637912Y684377D01*
X17630495Y690676D01*
X17627498Y693978D01*
X17625466Y697179D01*
X17623993Y702513D01*
X17622012Y706018D01*
X17619116Y709777D01*
X17611598Y717753D01*
X17607381Y723646D01*
X17603520Y730199D01*
X17597526Y742899D01*
X17594275Y748538D01*
X17590973Y753008D01*
X17585639Y757682D01*
X17583658Y760374D01*
X17582337Y763422D01*
X17581422Y769061D01*
X17580356Y771245D01*
X17578730Y772769D01*
X17575072Y773684D01*
X17574107Y774700D01*
X17573955Y776224D01*
X17575428Y779881D01*
X17575276Y781405D01*
X17574310Y782421D01*
X17570653Y783386D01*
X17569027Y784910D01*
X17567960Y787196D01*
X17567097Y792734D01*
X17565928Y795020D01*
X17564150Y796544D01*
X17562017Y797102D01*
X17560086Y797356D01*
X17558918Y797966D01*
X17558664Y798880D01*
X17559324Y799998D01*
X17559528Y802132D01*
X17557953Y805738D01*
X17554854Y810361D01*
X17545761Y821080D01*
X17541443Y827024D01*
X17538039Y832662D01*
X17533823Y841705D01*
X17530114Y847242D01*
X17525339Y853135D01*
X17514316Y864565D01*
X17508321Y871728D01*
X17502784Y879195D01*
X17498364Y886053D01*
G37*
G36*
X17720716Y825093D02*
G01*
X17719192Y824433D01*
X17716957Y822706D01*
X17714163Y819912D01*
X17710759Y816000D01*
X17706848Y811072D01*
X17698415Y799642D01*
X17694249Y794816D01*
X17689931Y790498D01*
X17685258Y786638D01*
X17680178Y783082D01*
X17674539Y779780D01*
X17668240Y776630D01*
X17650917Y769061D01*
X17642941Y764692D01*
X17637963Y761034D01*
X17636845Y758596D01*
X17639284Y757580D01*
X17644110Y757986D01*
X17650764Y759561D01*
X17658588Y762152D01*
X17667173Y765505D01*
X17675860Y769467D01*
X17684089Y773836D01*
X17691404Y778357D01*
X17696891Y783082D01*
X17703038Y789889D01*
X17709083Y797864D01*
X17714315Y806145D01*
X17717465Y812038D01*
X17719751Y816813D01*
X17721173Y820521D01*
X17721783Y823112D01*
X17721630Y824636D01*
G37*
G36*
X17448530Y773176D02*
G01*
X17444364Y772363D01*
X17440046Y770331D01*
X17435880Y767080D01*
X17432121Y762711D01*
X17429276Y758037D01*
X17427244Y753364D01*
X17425974Y748741D01*
X17425416Y744220D01*
X17425517Y739851D01*
X17426279Y735787D01*
X17427600Y731977D01*
X17429530Y728573D01*
X17431918Y725576D01*
X17434763Y723087D01*
X17438065Y721156D01*
X17441722Y719836D01*
X17445736Y719226D01*
X17450003Y719378D01*
X17454575Y720293D01*
X17459299Y722122D01*
X17465446Y725576D01*
X17468850Y729234D01*
X17469916Y733806D01*
X17469002Y739952D01*
X17467529Y744728D01*
X17465751Y748842D01*
X17463820Y751890D01*
X17460468Y754786D01*
X17459198Y757275D01*
X17458334Y760476D01*
X17458029Y764184D01*
X17457267Y768299D01*
X17455286Y771194D01*
X17452289Y772820D01*
G37*
G36*
X17294250Y768553D02*
G01*
X17291151Y767943D01*
X17287087Y766368D01*
X17282109Y763879D01*
X17276572Y760628D01*
X17270628Y756818D01*
X17258334Y748030D01*
X17252391Y743407D01*
X17246904Y738733D01*
X17242078Y734263D01*
X17238116Y730097D01*
X17235220Y726440D01*
X17230852Y719175D01*
X17226838Y711200D01*
X17223282Y702919D01*
X17220387Y694842D01*
X17218304Y687374D01*
X17217186Y681126D01*
X17217142Y677011D01*
X17228413Y677011D01*
X17229378Y680008D01*
X17232934Y684733D01*
X17238522Y690422D01*
X17245584Y696569D01*
X17253051Y702310D01*
X17259655Y707034D01*
X17264684Y710234D01*
X17267428Y711403D01*
X17269155Y709930D01*
X17279168Y697992D01*
X17291558Y697992D01*
X17292066Y699414D01*
X17294809Y700278D01*
X17297654Y698601D01*
X17299940Y695096D01*
X17300905Y690575D01*
X17300498Y688949D01*
X17299330Y688543D01*
X17297552Y689356D01*
X17295266Y691337D01*
X17293234Y693674D01*
X17292015Y696010D01*
X17291558Y697992D01*
X17279168Y697992D01*
X17298623Y672896D01*
X17344339Y672896D01*
X17344694Y675182D01*
X17345609Y676757D01*
X17346726Y677164D01*
X17347539Y676097D01*
X17348047Y673811D01*
X17348149Y670509D01*
X17347793Y667207D01*
X17347184Y665581D01*
X17346320Y665683D01*
X17345253Y667664D01*
X17344491Y670306D01*
X17344339Y672896D01*
X17298623Y672896D01*
X17318685Y646176D01*
X17377145Y566674D01*
X17383455Y566674D01*
X17384217Y568553D01*
X17386909Y571906D01*
X17388230Y572922D01*
X17389246Y573278D01*
X17390059Y572922D01*
X17390719Y571906D01*
X17391176Y570382D01*
X17391292Y568147D01*
X17401489Y568147D01*
X17401844Y570382D01*
X17402759Y572008D01*
X17403876Y572414D01*
X17404689Y571347D01*
X17405197Y569061D01*
X17405248Y565759D01*
X17404943Y562457D01*
X17404334Y560832D01*
X17403470Y560933D01*
X17402403Y562864D01*
X17401641Y565556D01*
X17401489Y568147D01*
X17391292Y568147D01*
X17390973Y566674D01*
X17389856Y565150D01*
X17388281Y564134D01*
X17386300Y563778D01*
X17384572Y564134D01*
X17383607Y565150D01*
X17383455Y566674D01*
X17377145Y566674D01*
X17383224Y558444D01*
X17430038Y558444D01*
X17430343Y562102D01*
X17431105Y565048D01*
X17432020Y566216D01*
X17432731Y564997D01*
X17433188Y561695D01*
X17433290Y556615D01*
X17433036Y551738D01*
X17432528Y548995D01*
X17431766Y548640D01*
X17430902Y550773D01*
X17430242Y554482D01*
X17430038Y558444D01*
X17383224Y558444D01*
X17393657Y544322D01*
X17444313Y544322D01*
X17444720Y546608D01*
X17445634Y548182D01*
X17446701Y548589D01*
X17447564Y547573D01*
X17448022Y545287D01*
X17448123Y541934D01*
X17447818Y538632D01*
X17447158Y537006D01*
X17446294Y537159D01*
X17445228Y539089D01*
X17444516Y541731D01*
X17444313Y544322D01*
X17393657Y544322D01*
X17423079Y504647D01*
X17429988Y494131D01*
X17434712Y485393D01*
X17436084Y482041D01*
X17436744Y479551D01*
X17436592Y478028D01*
X17434204Y475538D01*
X17430038Y472338D01*
X17424552Y468833D01*
X17414951Y463550D01*
X17406315Y458114D01*
X17396409Y451205D01*
X17386452Y443738D01*
X17373803Y433578D01*
X17366335Y427888D01*
X17359426Y422960D01*
X17353178Y418896D01*
X17347539Y415645D01*
X17342662Y413308D01*
X17338598Y411886D01*
X17335347Y411378D01*
X17332502Y413054D01*
X17327930Y417474D01*
X17322292Y424078D01*
X17316145Y432155D01*
X17301260Y452932D01*
X17312436Y463448D01*
X17316704Y468172D01*
X17320006Y473201D01*
X17322038Y478028D01*
X17322444Y481939D01*
X17322241Y485851D01*
X17322647Y485698D01*
X17324476Y481685D01*
X17326000Y479806D01*
X17327727Y478535D01*
X17329454Y478078D01*
X17334179Y480212D01*
X17340529Y485190D01*
X17346117Y490829D01*
X17348504Y495046D01*
X17347082Y497789D01*
X17337582Y512064D01*
X17318228Y539445D01*
X17298517Y569010D01*
X17287595Y585927D01*
X17257014Y631901D01*
X17237405Y661822D01*
X17231106Y671982D01*
X17228413Y677011D01*
X17217142Y677011D01*
X17217136Y676452D01*
X17218406Y673912D01*
X17220336Y672033D01*
X17227600Y662736D01*
X17239691Y645718D01*
X17256861Y620623D01*
X17285817Y577392D01*
X17320361Y525221D01*
X17295520Y453237D01*
X17323663Y413664D01*
X17327219Y409194D01*
X17330166Y405942D01*
X17332706Y403860D01*
X17335042Y402793D01*
X17337328Y402640D01*
X17339767Y403301D01*
X17342561Y404622D01*
X17349774Y408889D01*
X17357445Y413766D01*
X17366945Y420370D01*
X17377054Y427888D01*
X17397069Y443585D01*
X17407483Y451002D01*
X17417542Y457454D01*
X17427143Y462838D01*
X17436134Y467106D01*
X17444212Y470103D01*
X17447717Y472592D01*
X17450663Y477672D01*
X17453102Y485140D01*
X17454930Y494995D01*
X17457166Y513435D01*
X17457724Y521055D01*
X17457928Y527812D01*
X17457775Y533806D01*
X17457216Y539089D01*
X17456200Y543915D01*
X17454778Y548284D01*
X17452848Y552348D01*
X17450460Y556260D01*
X17447564Y560171D01*
X17438928Y570534D01*
X17435068Y576783D01*
X17432883Y582117D01*
X17432426Y589686D01*
X17428667Y592328D01*
X17422164Y593445D01*
X17413630Y592785D01*
X17412309Y592886D01*
X17411700Y593699D01*
X17411801Y595020D01*
X17412614Y596798D01*
X17412868Y602488D01*
X17409922Y610971D01*
X17404638Y620166D01*
X17398034Y627938D01*
X17394885Y631342D01*
X17384725Y644042D01*
X17362728Y673658D01*
X17346371Y694893D01*
X17328337Y719886D01*
X17312894Y742594D01*
X17307356Y751382D01*
X17303953Y757529D01*
X17301565Y762914D01*
X17299330Y765860D01*
X17296790Y767791D01*
G37*
G36*
X17104868Y610412D02*
G01*
X17101210Y609752D01*
X17096486Y607720D01*
X17090237Y604164D01*
X17071797Y592023D01*
X17063923Y586486D01*
X17057268Y581355D01*
X17051629Y576478D01*
X17046803Y571550D01*
X17042688Y566470D01*
X17040477Y563168D01*
X17064939Y563168D01*
X17065752Y565912D01*
X17068088Y570788D01*
X17070222Y573024D01*
X17071746Y572414D01*
X17072305Y568807D01*
X17071949Y566826D01*
X17070933Y564794D01*
X17069409Y562914D01*
X17067580Y561441D01*
X17065955Y560832D01*
X17065040Y561441D01*
X17064939Y563168D01*
X17040477Y563168D01*
X17038980Y560933D01*
X17035627Y554837D01*
X17032376Y547928D01*
X17028109Y537159D01*
X17025467Y528015D01*
X17024906Y523849D01*
X17036288Y523849D01*
X17036491Y526440D01*
X17037050Y528574D01*
X17037913Y530352D01*
X17039132Y531876D01*
X17040606Y533196D01*
X17049242Y538429D01*
X17054677Y542188D01*
X17060011Y546252D01*
X17068850Y553567D01*
X17073473Y556361D01*
X17077893Y558190D01*
X17081550Y558800D01*
X17083786Y557733D01*
X17087951Y554634D01*
X17094189Y549503D01*
X17120514Y549503D01*
X17120717Y553923D01*
X17121428Y557834D01*
X17122241Y559765D01*
X17122952Y558800D01*
X17123410Y555294D01*
X17123613Y549503D01*
X17123410Y543661D01*
X17122952Y540156D01*
X17122241Y539242D01*
X17121428Y541172D01*
X17120717Y545033D01*
X17120514Y549503D01*
X17094189Y549503D01*
X17110049Y535279D01*
X17120329Y525678D01*
X17139615Y525678D01*
X17139818Y528828D01*
X17140580Y531622D01*
X17141545Y532993D01*
X17142307Y532333D01*
X17142815Y529844D01*
X17142968Y525678D01*
X17142815Y521512D01*
X17142307Y519023D01*
X17141545Y518363D01*
X17140580Y519734D01*
X17139818Y522528D01*
X17139615Y525678D01*
X17120329Y525678D01*
X17135281Y511403D01*
X17191380Y511403D01*
X17191736Y513232D01*
X17192853Y514756D01*
X17194428Y515772D01*
X17196409Y516128D01*
X17198136Y515772D01*
X17199102Y514756D01*
X17199254Y513232D01*
X17198492Y511403D01*
X17197171Y509524D01*
X17194530Y506984D01*
X17193463Y506628D01*
X17192650Y506984D01*
X17191990Y508050D01*
X17191532Y509524D01*
X17191380Y511403D01*
X17135281Y511403D01*
X17156388Y490728D01*
X17164710Y490728D01*
X17165370Y492658D01*
X17168164Y496163D01*
X17170349Y496773D01*
X17171822Y494588D01*
X17172330Y489661D01*
X17171924Y487019D01*
X17170908Y485292D01*
X17169989Y484936D01*
X17215154Y484936D01*
X17215561Y487781D01*
X17216577Y490169D01*
X17218101Y491743D01*
X17219930Y492353D01*
X17221758Y491998D01*
X17223282Y491032D01*
X17224298Y489610D01*
X17224705Y487883D01*
X17224298Y485901D01*
X17223282Y483819D01*
X17221758Y481939D01*
X17219930Y480415D01*
X17218101Y479856D01*
X17216577Y480517D01*
X17215561Y482295D01*
X17215154Y484936D01*
X17169989Y484936D01*
X17169333Y484682D01*
X17167453Y485241D01*
X17165828Y486765D01*
X17164862Y488645D01*
X17164710Y490728D01*
X17156388Y490728D01*
X17174364Y472744D01*
X17191990Y472744D01*
X17192244Y476402D01*
X17193006Y479348D01*
X17193920Y480466D01*
X17194631Y479298D01*
X17195088Y475996D01*
X17195129Y469747D01*
X17229785Y469747D01*
X17230039Y474827D01*
X17230953Y478993D01*
X17232376Y481787D01*
X17234204Y482803D01*
X17237354Y482041D01*
X17238421Y479348D01*
X17237354Y474268D01*
X17234204Y466140D01*
X17232908Y463397D01*
X17244314Y463397D01*
X17244720Y465632D01*
X17245634Y467258D01*
X17246701Y467664D01*
X17247565Y466598D01*
X17248022Y464312D01*
X17248124Y461009D01*
X17247819Y457657D01*
X17247158Y456031D01*
X17246295Y456184D01*
X17245228Y458114D01*
X17244517Y460756D01*
X17244314Y463397D01*
X17232908Y463397D01*
X17232020Y461518D01*
X17230750Y460400D01*
X17230090Y463092D01*
X17229785Y469747D01*
X17195129Y469747D01*
X17194936Y466039D01*
X17194428Y463296D01*
X17193666Y462889D01*
X17192802Y465074D01*
X17192142Y468782D01*
X17191990Y472744D01*
X17174364Y472744D01*
X17202629Y444703D01*
X17215764Y444703D01*
X17216018Y447903D01*
X17216780Y450697D01*
X17217694Y452069D01*
X17218456Y451408D01*
X17218964Y448868D01*
X17219150Y444347D01*
X17263364Y444347D01*
X17263770Y446582D01*
X17264684Y448208D01*
X17265751Y448614D01*
X17266615Y447548D01*
X17267072Y445262D01*
X17267174Y441959D01*
X17266818Y438607D01*
X17266208Y436981D01*
X17265345Y437134D01*
X17264278Y439064D01*
X17263567Y441706D01*
X17263364Y444347D01*
X17219150Y444347D01*
X17218964Y440588D01*
X17218456Y438048D01*
X17217694Y437388D01*
X17216780Y438759D01*
X17216018Y441553D01*
X17215764Y444703D01*
X17202629Y444703D01*
X17223130Y424688D01*
X17242434Y406196D01*
X17260671Y389585D01*
X17267936Y383794D01*
X17272711Y379374D01*
X17275911Y375615D01*
X17277080Y373126D01*
X17276013Y370332D01*
X17273117Y366369D01*
X17268952Y361746D01*
X17263973Y356870D01*
X17258690Y352247D01*
X17253712Y348386D01*
X17249394Y345744D01*
X17246396Y344728D01*
X17243399Y345897D01*
X17238573Y349148D01*
X17232630Y353974D01*
X17220387Y365201D01*
X17215408Y368909D01*
X17210735Y370992D01*
X17205960Y371297D01*
X17200727Y369925D01*
X17194530Y366725D01*
X17186960Y361645D01*
X17173854Y351790D01*
X17171162Y349351D01*
X17169434Y346913D01*
X17168622Y344220D01*
X17168774Y340817D01*
X17169790Y336346D01*
X17182287Y299466D01*
X17162424Y281635D01*
X17154398Y274675D01*
X17147336Y269036D01*
X17141952Y265176D01*
X17139005Y263753D01*
X17138497Y263906D01*
X17137176Y265226D01*
X17135398Y267817D01*
X17130369Y277418D01*
X17123206Y293166D01*
X17113605Y315722D01*
X17101413Y345490D01*
X17061789Y445566D01*
X17052798Y468833D01*
X17045940Y487426D01*
X17041012Y501853D01*
X17037862Y512775D01*
X17036948Y517093D01*
X17036440Y520750D01*
X17036288Y523849D01*
X17024906Y523849D01*
X17024502Y520852D01*
X17025315Y516128D01*
X17028160Y509981D01*
X17039234Y483362D01*
X17056404Y440588D01*
X17073270Y400304D01*
X17106188Y317449D01*
X17120717Y281736D01*
X17125746Y270002D01*
X17129506Y261874D01*
X17132249Y256844D01*
X17134128Y254508D01*
X17134789Y254254D01*
X17136668Y254711D01*
X17139361Y256082D01*
X17146676Y261010D01*
X17155922Y268376D01*
X17166183Y277368D01*
X17176750Y287223D01*
X17186656Y297230D01*
X17195190Y306628D01*
X17201438Y314604D01*
X17206112Y321564D01*
X17209516Y327456D01*
X17211802Y332638D01*
X17213021Y337515D01*
X17213173Y342442D01*
X17212310Y347776D01*
X17210532Y353974D01*
X17207890Y361391D01*
X17207484Y364439D01*
X17209973Y363931D01*
X17215307Y359968D01*
X17223536Y352501D01*
X17242891Y334111D01*
X17272609Y356971D01*
X17277994Y361696D01*
X17282363Y366115D01*
X17285817Y370586D01*
X17288611Y375310D01*
X17290897Y380593D01*
X17292828Y386689D01*
X17294656Y393903D01*
X17295926Y400659D01*
X17296739Y407365D01*
X17297146Y413969D01*
X17297044Y420319D01*
X17296587Y426262D01*
X17295723Y431749D01*
X17294555Y436524D01*
X17293031Y440588D01*
X17291202Y443738D01*
X17289119Y445820D01*
X17286732Y446785D01*
X17281550Y446176D01*
X17278451Y447090D01*
X17275352Y448919D01*
X17269764Y454202D01*
X17266818Y455879D01*
X17263922Y456438D01*
X17261535Y455828D01*
X17259808Y455015D01*
X17258893Y455117D01*
X17258792Y455980D01*
X17259554Y457606D01*
X17259300Y460908D01*
X17256455Y466242D01*
X17251426Y472948D01*
X17244822Y480212D01*
X17238065Y486714D01*
X17231360Y492607D01*
X17225111Y497738D01*
X17219625Y501802D01*
X17215256Y504545D01*
X17212360Y505764D01*
X17211243Y505206D01*
X17213021Y500481D01*
X17212818Y498195D01*
X17211700Y496062D01*
X17209770Y494334D01*
X17207433Y493522D01*
X17206264Y494690D01*
X17206315Y498043D01*
X17208500Y509625D01*
X17208246Y514096D01*
X17206518Y517143D01*
X17200575Y520750D01*
X17198238Y523087D01*
X17196714Y525780D01*
X17196104Y528574D01*
X17195800Y531164D01*
X17194885Y533247D01*
X17193564Y534670D01*
X17190618Y535787D01*
X17184674Y540207D01*
X17175226Y547979D01*
X17150588Y569620D01*
X17126051Y592429D01*
X17116704Y601624D01*
X17110506Y608025D01*
X17107865Y609803D01*
G37*
G36*
X16934027Y486714D02*
G01*
X16928744Y485393D01*
X16922546Y482600D01*
X16914977Y478332D01*
X16905782Y472440D01*
X16899737Y468274D01*
X16894403Y464108D01*
X16889628Y459841D01*
X16885361Y455320D01*
X16881551Y450494D01*
X16878046Y445262D01*
X16874794Y439521D01*
X16860774Y409651D01*
X16859351Y406958D01*
X16858030Y407009D01*
X16855440Y408635D01*
X16851985Y411581D01*
X16838218Y426110D01*
X16816222Y411429D01*
X16795089Y397916D01*
X16791940Y395681D01*
X16788892Y392785D01*
X16785844Y389280D01*
X16782897Y385216D01*
X16780052Y380593D01*
X16777309Y375412D01*
X16774718Y369773D01*
X16762463Y337362D01*
X16773042Y337362D01*
X16776090Y339344D01*
X16788434Y345846D01*
X16803928Y353161D01*
X16816120Y358241D01*
X16818965Y359003D01*
X16820286Y358241D01*
X16822623Y356108D01*
X16829582Y348437D01*
X16838676Y337413D01*
X16848886Y324408D01*
X16859046Y310946D01*
X16868089Y298399D01*
X16874845Y288239D01*
X16877080Y284480D01*
X16880179Y277672D01*
X16881754Y276199D01*
X16882922Y277063D01*
X16883735Y280009D01*
X16884091Y284784D01*
X16883989Y291084D01*
X16883380Y298551D01*
X16879265Y325475D01*
X16875963Y351332D01*
X16874286Y366471D01*
X16872915Y375615D01*
X16871492Y383133D01*
X16870172Y387908D01*
X16870273Y392379D01*
X16873677Y398373D01*
X16880535Y405942D01*
X16890847Y415290D01*
X16908068Y429361D01*
X16913758Y433628D01*
X16916298Y435203D01*
X16918127Y433679D01*
X16921683Y429564D01*
X16939158Y406806D01*
X16947946Y396189D01*
X16957395Y385368D01*
X16974210Y366979D01*
X16980662Y358851D01*
X16984980Y352145D01*
X16986605Y347827D01*
X16987164Y344982D01*
X16988688Y342188D01*
X16990974Y339852D01*
X16996511Y336651D01*
X16998797Y334314D01*
X17000321Y331622D01*
X17001439Y325729D01*
X17003014Y322275D01*
X17005300Y318922D01*
X17010786Y313537D01*
X17048480Y313486D01*
X17048988Y318414D01*
X17050461Y320598D01*
X17052645Y319989D01*
X17055439Y316484D01*
X17056100Y314502D01*
X17055947Y312470D01*
X17054982Y310591D01*
X17053356Y309067D01*
X17051477Y308508D01*
X17049902Y309118D01*
X17048886Y310845D01*
X17048480Y313486D01*
X17010823Y313486D01*
X17012564Y311099D01*
X17013377Y309016D01*
X17012767Y306070D01*
X17013936Y303631D01*
X17016272Y300634D01*
X17019574Y297434D01*
X17023892Y292709D01*
X17029074Y285699D01*
X17034408Y277266D01*
X17044720Y258064D01*
X17049546Y249631D01*
X17053864Y243027D01*
X17057674Y238201D01*
X17061027Y235153D01*
X17063923Y233832D01*
X17066412Y234238D01*
X17070019Y237896D01*
X17070679Y237286D01*
X17070578Y234543D01*
X17069663Y229768D01*
X17068952Y224586D01*
X17069104Y219913D01*
X17070120Y216255D01*
X17071949Y214020D01*
X17073930Y212496D01*
X17075556Y210718D01*
X17076674Y208889D01*
X17077080Y207264D01*
X17075200Y204673D01*
X17070273Y200202D01*
X17063313Y194513D01*
X17055236Y188366D01*
X17047159Y182575D01*
X17039945Y177749D01*
X17034662Y174752D01*
X17032325Y174193D01*
X16987977Y240893D01*
X16977106Y256743D01*
X16968266Y269138D01*
X16961205Y278180D01*
X16955922Y284073D01*
X16953839Y285851D01*
X16952112Y286918D01*
X16950791Y287324D01*
X16949775Y286969D01*
X16949064Y286004D01*
X16948658Y284378D01*
X16948505Y282092D01*
X16949115Y276555D01*
X16953179Y252679D01*
X16959732Y219202D01*
X16966895Y185115D01*
X16975074Y148742D01*
X16976547Y140970D01*
X16977055Y136753D01*
X16975480Y133807D01*
X16971213Y129438D01*
X16965168Y124206D01*
X16958157Y118719D01*
X16951045Y113639D01*
X16944594Y109626D01*
X16939717Y107238D01*
X16937278Y107137D01*
X16901566Y155549D01*
X16886326Y175260D01*
X16872559Y192379D01*
X16859300Y209499D01*
X16841825Y233527D01*
X16822420Y261010D01*
X16803522Y288544D01*
X16787418Y312724D01*
X16776496Y330149D01*
X16773702Y335229D01*
X16773093Y336702D01*
X16773042Y337362D01*
X16762425Y337261D01*
X16808450Y268376D01*
X16822826Y247751D01*
X16837812Y226771D01*
X16852239Y207060D01*
X16864990Y190246D01*
X16881703Y168706D01*
X16899737Y144576D01*
X16913707Y124917D01*
X16922597Y111963D01*
X16928592Y104292D01*
X16933468Y99110D01*
X16936516Y97180D01*
X16939158Y97536D01*
X16942308Y98552D01*
X16945914Y100228D01*
X16954195Y105308D01*
X16963339Y112217D01*
X16972838Y120497D01*
X16982135Y129641D01*
X16990669Y139090D01*
X16994428Y143814D01*
X16997781Y148488D01*
X17009008Y166268D01*
X17012005Y170383D01*
X17014444Y172974D01*
X17016526Y174142D01*
X17018355Y174040D01*
X17020082Y172821D01*
X17025721Y166776D01*
X17030395Y166522D01*
X17037812Y170586D01*
X17059249Y186283D01*
X17068190Y192278D01*
X17075708Y196748D01*
X17080890Y199186D01*
X17084700Y201422D01*
X17088815Y205536D01*
X17092980Y211124D01*
X17096892Y217678D01*
X17100346Y224790D01*
X17103140Y232003D01*
X17104969Y238861D01*
X17105630Y244906D01*
X17105376Y246634D01*
X17103191Y252171D01*
X17099178Y260146D01*
X17093590Y270052D01*
X17086732Y281330D01*
X17078858Y293471D01*
X17057420Y325475D01*
X17049038Y338531D01*
X17044365Y346456D01*
X17042790Y350418D01*
X17040148Y354787D01*
X17027144Y373075D01*
X17024096Y378155D01*
X17022673Y381558D01*
X17023130Y382828D01*
X17023740Y383387D01*
X17022622Y385013D01*
X17020032Y387350D01*
X17016171Y390245D01*
X17012818Y393141D01*
X17008754Y397459D01*
X17004182Y402945D01*
X16994174Y416255D01*
X16984319Y430834D01*
X16976242Y444347D01*
X16973346Y449986D01*
X16971467Y454507D01*
X16970451Y459638D01*
X16969587Y460959D01*
X16968317Y461416D01*
X16965218Y460349D01*
X16963948Y460603D01*
X16963085Y461619D01*
X16961967Y465937D01*
X16959732Y469595D01*
X16956430Y473709D01*
X16952366Y477875D01*
X16947489Y482092D01*
X16943019Y484987D01*
X16938650Y486562D01*
G37*
G36*
X17116044Y469849D02*
G01*
X17113402Y468680D01*
X17111827Y466090D01*
X17111726Y463042D01*
X17113097Y459485D01*
X17117669Y453085D01*
X17122698Y444500D01*
X17129048Y432257D01*
X17135957Y417779D01*
X17142714Y402793D01*
X17149267Y389636D01*
X17154956Y379628D01*
X17157293Y376224D01*
X17159122Y374091D01*
X17160392Y373329D01*
X17163288Y374192D01*
X17167606Y376478D01*
X17172787Y379882D01*
X17178223Y384048D01*
X17182185Y387604D01*
X17185233Y391058D01*
X17187367Y394462D01*
X17188535Y397865D01*
X17188738Y401320D01*
X17187926Y404876D01*
X17186148Y408533D01*
X17183404Y412343D01*
X17179594Y416407D01*
X17174718Y420725D01*
X17168825Y425297D01*
X17156836Y433832D01*
X17146727Y441756D01*
X17137532Y449783D01*
X17130420Y457047D01*
X17123359Y465531D01*
X17119396Y468782D01*
G37*
D10*
X17144745Y5080000D02*
G01*
X17096993Y5098287D01*
X17144745Y5116321D02*
G01*
X17096993Y5098287D01*
X17133316Y5165344D02*
G01*
X17137888Y5163057D01*
X17142459Y5158739D01*
X17144745Y5154168D01*
X17144745Y5145023D01*
X17142459Y5140452D01*
X17137888Y5135879D01*
X17133316Y5133594D01*
X17126458Y5131307D01*
X17115027Y5131307D01*
X17108170Y5133594D01*
X17103852Y5135879D01*
X17099279Y5140452D01*
X17096993Y5145023D01*
X17096993Y5154168D01*
X17099279Y5158739D01*
X17103852Y5163057D01*
X17108170Y5165344D01*
X17133316Y5214620D02*
G01*
X17137888Y5212334D01*
X17142459Y5207762D01*
X17144745Y5203189D01*
X17144745Y5194045D01*
X17142459Y5189473D01*
X17137888Y5184902D01*
X17133316Y5182615D01*
X17126458Y5180329D01*
X17115027Y5180329D01*
X17108170Y5182615D01*
X17103852Y5184902D01*
X17099279Y5189473D01*
X17096993Y5194045D01*
X17096993Y5203189D01*
X17099279Y5207762D01*
X17103852Y5212334D01*
X17108170Y5214620D01*
X17133290Y4860091D02*
G01*
X17137837Y4857818D01*
X17142381Y4853271D01*
X17144654Y4848727D01*
X17144654Y4839637D01*
X17142381Y4835090D01*
X17137837Y4830546D01*
X17133290Y4828273D01*
X17126473Y4826000D01*
X17115109Y4826000D01*
X17108291Y4828273D01*
X17103745Y4830546D01*
X17099199Y4835090D01*
X17096927Y4839637D01*
X17096927Y4848727D01*
X17099199Y4853271D01*
X17103745Y4857818D01*
X17108291Y4860091D01*
X17115109Y4860091D01*
X17115109Y4848727D02*
G01*
X17115109Y4860091D01*
X17144654Y4875090D02*
G01*
X17096927Y4875090D01*
X17144654Y4875090D02*
G01*
X17096927Y4906909D01*
X17144654Y4906909D02*
G01*
X17096927Y4906909D01*
X17144654Y4921907D02*
G01*
X17096927Y4921907D01*
X17144654Y4921907D02*
G01*
X17144654Y4937818D01*
X17142381Y4944635D01*
X17137837Y4949182D01*
X17133290Y4951453D01*
X17126473Y4953726D01*
X17115109Y4953726D01*
X17108291Y4951453D01*
X17103745Y4949182D01*
X17099199Y4944635D01*
X17096927Y4937818D01*
X17096927Y4921907D01*
X17134626Y4611971D02*
G01*
X17139173Y4607427D01*
X17141446Y4602881D01*
X17141446Y4596063D01*
X17139173Y4591517D01*
X17134626Y4586973D01*
X17127809Y4584700D01*
X17123262Y4584700D01*
X17116445Y4586973D01*
X17111901Y4591517D01*
X17109627Y4596063D01*
X17109627Y4602881D01*
X17111901Y4607427D01*
X17116445Y4611971D01*
X17134626Y4651971D02*
G01*
X17139173Y4649698D01*
X17141446Y4642881D01*
X17141446Y4636063D01*
X17139173Y4629246D01*
X17134626Y4626973D01*
X17130082Y4629246D01*
X17127809Y4633790D01*
X17125535Y4645154D01*
X17123262Y4649698D01*
X17118718Y4651971D01*
X17116445Y4651971D01*
X17111901Y4649698D01*
X17109627Y4642881D01*
X17109627Y4636063D01*
X17111901Y4629246D01*
X17116445Y4626973D01*
X17144654Y4305300D02*
G01*
X17096927Y4305300D01*
X17144654Y4305300D02*
G01*
X17144654Y4325754D01*
X17142381Y4332571D01*
X17140107Y4334845D01*
X17135563Y4337118D01*
X17131017Y4337118D01*
X17126473Y4334845D01*
X17124199Y4332571D01*
X17121926Y4325754D01*
X17121926Y4305300D01*
X17121926Y4321208D02*
G01*
X17096927Y4337118D01*
X17137837Y4383935D02*
G01*
X17142381Y4379391D01*
X17144654Y4372571D01*
X17144654Y4363481D01*
X17142381Y4356663D01*
X17137837Y4352117D01*
X17133290Y4352117D01*
X17128746Y4354390D01*
X17126473Y4356663D01*
X17124199Y4361207D01*
X17119653Y4374845D01*
X17117382Y4379391D01*
X17115109Y4381662D01*
X17110562Y4383935D01*
X17103745Y4383935D01*
X17099201Y4379391D01*
X17096927Y4372571D01*
X17096927Y4363481D01*
X17099201Y4356663D01*
X17103745Y4352117D01*
X17144654Y4414845D02*
G01*
X17096927Y4414845D01*
X17144654Y4398937D02*
G01*
X17144654Y4430753D01*
X17144654Y4076700D02*
G01*
X17096927Y4076700D01*
X17144654Y4076700D02*
G01*
X17144654Y4092608D01*
X17142381Y4099427D01*
X17137837Y4103971D01*
X17133290Y4106245D01*
X17126473Y4108518D01*
X17115109Y4108518D01*
X17108291Y4106245D01*
X17103745Y4103971D01*
X17099201Y4099427D01*
X17096927Y4092608D01*
X17096927Y4076700D01*
X17133290Y4157609D02*
G01*
X17137837Y4155335D01*
X17142381Y4150791D01*
X17144654Y4146245D01*
X17144654Y4137154D01*
X17142381Y4132607D01*
X17137837Y4128063D01*
X17133290Y4125790D01*
X17126473Y4123517D01*
X17115109Y4123517D01*
X17108291Y4125790D01*
X17103745Y4128063D01*
X17099201Y4132607D01*
X17096927Y4137154D01*
X17096927Y4146245D01*
X17099201Y4150791D01*
X17103745Y4155335D01*
X17108291Y4157609D01*
X17144654Y3797300D02*
G01*
X17096927Y3797300D01*
X17144654Y3797300D02*
G01*
X17096927Y3815481D01*
X17144654Y3833662D02*
G01*
X17096927Y3815481D01*
X17144654Y3833662D02*
G01*
X17096927Y3833662D01*
X17144654Y3862298D02*
G01*
X17142381Y3857754D01*
X17137837Y3853207D01*
X17133290Y3850937D01*
X17126473Y3848663D01*
X17115109Y3848663D01*
X17108291Y3850937D01*
X17103745Y3853207D01*
X17099201Y3857754D01*
X17096927Y3862298D01*
X17096927Y3871391D01*
X17099201Y3875935D01*
X17103745Y3880482D01*
X17108291Y3882753D01*
X17115109Y3885026D01*
X17126473Y3885026D01*
X17133290Y3882753D01*
X17137837Y3880482D01*
X17142381Y3875935D01*
X17144654Y3871391D01*
X17144654Y3862298D01*
X17137837Y3931846D02*
G01*
X17142381Y3927299D01*
X17144654Y3920482D01*
X17144654Y3911391D01*
X17142381Y3904571D01*
X17137837Y3900027D01*
X17133290Y3900027D01*
X17128746Y3902298D01*
X17126473Y3904571D01*
X17124199Y3909118D01*
X17119653Y3922753D01*
X17117382Y3927299D01*
X17115109Y3929573D01*
X17110562Y3931846D01*
X17103745Y3931846D01*
X17099201Y3927299D01*
X17096927Y3920482D01*
X17096927Y3911391D01*
X17099201Y3904571D01*
X17103745Y3900027D01*
X17144654Y3946845D02*
G01*
X17096927Y3946845D01*
X17137837Y3575118D02*
G01*
X17142381Y3570571D01*
X17144654Y3563754D01*
X17144654Y3554663D01*
X17142381Y3547846D01*
X17137837Y3543300D01*
X17133290Y3543300D01*
X17128746Y3545573D01*
X17126473Y3547846D01*
X17124199Y3552390D01*
X17119653Y3566027D01*
X17117382Y3570571D01*
X17115109Y3572845D01*
X17110562Y3575118D01*
X17103745Y3575118D01*
X17099199Y3570571D01*
X17096927Y3563754D01*
X17096927Y3554663D01*
X17099199Y3547846D01*
X17103745Y3543300D01*
X17133290Y3624209D02*
G01*
X17137837Y3621935D01*
X17142381Y3617391D01*
X17144654Y3612845D01*
X17144654Y3603754D01*
X17142381Y3599207D01*
X17137837Y3594663D01*
X17133290Y3592390D01*
X17126473Y3590117D01*
X17115109Y3590117D01*
X17108291Y3592390D01*
X17103745Y3594663D01*
X17099199Y3599207D01*
X17096927Y3603754D01*
X17096927Y3612845D01*
X17099199Y3617391D01*
X17103745Y3621935D01*
X17108291Y3624209D01*
X17144654Y3639207D02*
G01*
X17096927Y3639207D01*
X17144654Y3671026D02*
G01*
X17112835Y3639207D01*
X17124199Y3650571D02*
G01*
X17096927Y3671026D01*
X17144654Y3302000D02*
G01*
X17096927Y3302000D01*
X17096927Y3302000D02*
G01*
X17096927Y3329271D01*
X17144654Y3344273D02*
G01*
X17096927Y3344273D01*
X17144654Y3344273D02*
G01*
X17144654Y3373818D01*
X17121926Y3344273D02*
G01*
X17121926Y3362454D01*
X17096927Y3344273D02*
G01*
X17096927Y3373818D01*
X17144654Y3388817D02*
G01*
X17096927Y3388817D01*
X17144654Y3388817D02*
G01*
X17144654Y3404727D01*
X17142381Y3411545D01*
X17137837Y3416091D01*
X17133290Y3418362D01*
X17126473Y3420635D01*
X17115109Y3420635D01*
X17108291Y3418362D01*
X17103745Y3416091D01*
X17099199Y3411545D01*
X17096927Y3404727D01*
X17096927Y3388817D01*
X17144654Y3048000D02*
G01*
X17096927Y3048000D01*
X17144654Y3048000D02*
G01*
X17096927Y3066181D01*
X17144654Y3084362D02*
G01*
X17096927Y3066181D01*
X17144654Y3084362D02*
G01*
X17096927Y3084362D01*
X17144654Y3099363D02*
G01*
X17096927Y3099363D01*
X17137837Y3146181D02*
G01*
X17142381Y3141637D01*
X17144654Y3134817D01*
X17144654Y3125726D01*
X17142381Y3118909D01*
X17137837Y3114362D01*
X17133290Y3114362D01*
X17128746Y3116635D01*
X17126473Y3118909D01*
X17124199Y3123453D01*
X17119653Y3137090D01*
X17117382Y3141637D01*
X17115109Y3143907D01*
X17110562Y3146181D01*
X17103745Y3146181D01*
X17099199Y3141637D01*
X17096927Y3134817D01*
X17096927Y3125726D01*
X17099199Y3118909D01*
X17103745Y3114362D01*
X17144654Y3174817D02*
G01*
X17142381Y3170273D01*
X17137837Y3165726D01*
X17133290Y3163453D01*
X17126473Y3161182D01*
X17115109Y3161182D01*
X17108291Y3163453D01*
X17103745Y3165726D01*
X17099199Y3170273D01*
X17096927Y3174817D01*
X17096927Y3183907D01*
X17099199Y3188454D01*
X17103745Y3192998D01*
X17108291Y3195271D01*
X17115109Y3197545D01*
X17126473Y3197545D01*
X17133290Y3195271D01*
X17137837Y3192998D01*
X17142381Y3188454D01*
X17144654Y3183907D01*
X17144654Y3174817D01*
D11*
X6350000Y5666046D02*
G01*
X6350000Y5472084D01*
X6350000Y5666046D02*
G01*
X6266873Y5666046D01*
X6239164Y5656811D01*
X6229926Y5647575D01*
X6220691Y5629102D01*
X6220691Y5601393D01*
X6229926Y5582920D01*
X6239164Y5573684D01*
X6266873Y5564446D01*
X6350000Y5564446D01*
X6159731Y5666046D02*
G01*
X6159731Y5472084D01*
X6159731Y5472084D02*
G01*
X6048895Y5472084D01*
X5914044Y5666046D02*
G01*
X5987935Y5472084D01*
X5914044Y5666046D02*
G01*
X5840153Y5472084D01*
X5960224Y5536737D02*
G01*
X5867862Y5536737D01*
X5779193Y5666046D02*
G01*
X5779193Y5472084D01*
X5779193Y5666046D02*
G01*
X5649884Y5472084D01*
X5649884Y5666046D02*
G01*
X5649884Y5472084D01*
X5446684Y5666046D02*
G01*
X5446684Y5472084D01*
X5446684Y5666046D02*
G01*
X5363555Y5666046D01*
X5335846Y5656811D01*
X5326611Y5647575D01*
X5317375Y5629102D01*
X5317375Y5610628D01*
X5326611Y5592155D01*
X5335846Y5582920D01*
X5363555Y5573684D01*
X5446684Y5573684D02*
G01*
X5363555Y5573684D01*
X5335846Y5564446D01*
X5326611Y5555211D01*
X5317375Y5536737D01*
X5317375Y5509028D01*
X5326611Y5490555D01*
X5335846Y5481320D01*
X5363555Y5472084D01*
X5446684Y5472084D01*
X5256415Y5666046D02*
G01*
X5256415Y5472084D01*
X5256415Y5666046D02*
G01*
X5136342Y5666046D01*
X5256415Y5573684D02*
G01*
X5182524Y5573684D01*
X5256415Y5472084D02*
G01*
X5136342Y5472084D01*
X5075382Y5666046D02*
G01*
X5075382Y5472084D01*
X5075382Y5666046D02*
G01*
X4955308Y5666046D01*
X5075382Y5573684D02*
G01*
X5001491Y5573684D01*
X5075382Y5472084D02*
G01*
X4955308Y5472084D01*
X4752108Y5666046D02*
G01*
X4752108Y5472084D01*
X4752108Y5666046D02*
G01*
X4678217Y5472084D01*
X4604326Y5666046D02*
G01*
X4678217Y5472084D01*
X4604326Y5666046D02*
G01*
X4604326Y5472084D01*
X4469475Y5666046D02*
G01*
X4543366Y5472084D01*
X4469475Y5666046D02*
G01*
X4395584Y5472084D01*
X4515657Y5536737D02*
G01*
X4423295Y5536737D01*
X4334624Y5666046D02*
G01*
X4334624Y5472084D01*
X4273664Y5666046D02*
G01*
X4273664Y5472084D01*
X4273664Y5666046D02*
G01*
X4144355Y5472084D01*
X4144355Y5666046D02*
G01*
X4144355Y5472084D01*
X3941155Y5666046D02*
G01*
X3867264Y5472084D01*
X3793375Y5666046D02*
G01*
X3867264Y5472084D01*
X3723177Y5619864D02*
G01*
X3723177Y5629102D01*
X3713942Y5647575D01*
X3704704Y5656811D01*
X3686233Y5666046D01*
X3649286Y5666046D01*
X3630815Y5656811D01*
X3621577Y5647575D01*
X3612342Y5629102D01*
X3612342Y5610628D01*
X3621577Y5592155D01*
X3640051Y5564446D01*
X3732415Y5472084D01*
X3603104Y5472084D01*
X16268700Y611446D02*
G01*
X16268700Y417484D01*
X16268700Y611446D02*
G01*
X16185573Y611446D01*
X16157864Y602211D01*
X16148626Y592975D01*
X16139391Y574502D01*
X16139391Y546793D01*
X16148626Y528320D01*
X16157864Y519084D01*
X16185573Y509846D01*
X16268700Y509846D01*
X16078431Y611446D02*
G01*
X16078431Y417484D01*
X16078431Y417484D02*
G01*
X15967595Y417484D01*
X15832744Y611446D02*
G01*
X15906635Y417484D01*
X15832744Y611446D02*
G01*
X15758853Y417484D01*
X15878924Y482137D02*
G01*
X15786562Y482137D01*
X15697893Y611446D02*
G01*
X15697893Y417484D01*
X15697893Y611446D02*
G01*
X15568584Y417484D01*
X15568584Y611446D02*
G01*
X15568584Y417484D01*
X15365384Y611446D02*
G01*
X15365384Y417484D01*
X15365384Y611446D02*
G01*
X15282255Y611446D01*
X15254546Y602211D01*
X15245311Y592975D01*
X15236075Y574502D01*
X15236075Y556028D01*
X15245311Y537555D01*
X15254546Y528320D01*
X15282255Y519084D01*
X15365384Y519084D02*
G01*
X15282255Y519084D01*
X15254546Y509846D01*
X15245311Y500611D01*
X15236075Y482137D01*
X15236075Y454428D01*
X15245311Y435955D01*
X15254546Y426720D01*
X15282255Y417484D01*
X15365384Y417484D01*
X15175115Y611446D02*
G01*
X15175115Y417484D01*
X15175115Y611446D02*
G01*
X15055042Y611446D01*
X15175115Y519084D02*
G01*
X15101224Y519084D01*
X15175115Y417484D02*
G01*
X15055042Y417484D01*
X14994082Y611446D02*
G01*
X14994082Y417484D01*
X14994082Y611446D02*
G01*
X14874008Y611446D01*
X14994082Y519084D02*
G01*
X14920191Y519084D01*
X14994082Y417484D02*
G01*
X14874008Y417484D01*
X14670808Y611446D02*
G01*
X14670808Y417484D01*
X14670808Y611446D02*
G01*
X14596917Y417484D01*
X14523026Y611446D02*
G01*
X14596917Y417484D01*
X14523026Y611446D02*
G01*
X14523026Y417484D01*
X14388175Y611446D02*
G01*
X14462066Y417484D01*
X14388175Y611446D02*
G01*
X14314284Y417484D01*
X14434357Y482137D02*
G01*
X14341995Y482137D01*
X14253324Y611446D02*
G01*
X14253324Y417484D01*
X14192364Y611446D02*
G01*
X14192364Y417484D01*
X14192364Y611446D02*
G01*
X14063055Y417484D01*
X14063055Y611446D02*
G01*
X14063055Y417484D01*
X13859855Y611446D02*
G01*
X13785964Y417484D01*
X13712075Y611446D02*
G01*
X13785964Y417484D01*
X13641877Y565264D02*
G01*
X13641877Y574502D01*
X13632642Y592975D01*
X13623404Y602211D01*
X13604933Y611446D01*
X13567986Y611446D01*
X13549515Y602211D01*
X13540277Y592975D01*
X13531042Y574502D01*
X13531042Y556028D01*
X13540277Y537555D01*
X13558751Y509846D01*
X13651115Y417484D01*
X13521804Y417484D01*
D12*
X5041900Y864615D02*
G01*
X5041900Y755650D01*
X5041900Y864615D02*
G01*
X4995163Y864615D01*
X4979670Y859536D01*
X4974336Y854202D01*
X4969256Y843787D01*
X4969256Y833373D01*
X4974336Y822960D01*
X4979670Y817879D01*
X4995163Y812800D01*
X5041900Y812800D02*
G01*
X4995163Y812800D01*
X4979670Y807465D01*
X4974336Y802386D01*
X4969256Y791971D01*
X4969256Y776223D01*
X4974336Y765810D01*
X4979670Y760729D01*
X4995163Y755650D01*
X5041900Y755650D01*
X4893309Y864615D02*
G01*
X4934965Y755650D01*
X4893309Y864615D02*
G01*
X4851654Y755650D01*
X4919218Y791971D02*
G01*
X4867402Y791971D01*
X4781041Y864615D02*
G01*
X4781041Y755650D01*
X4817363Y864615D02*
G01*
X4744720Y864615D01*
X4674108Y864615D02*
G01*
X4674108Y755650D01*
X4710429Y864615D02*
G01*
X4637786Y864615D01*
X4598161Y838707D02*
G01*
X4598161Y843787D01*
X4593081Y854202D01*
X4587747Y859536D01*
X4577334Y864615D01*
X4556759Y864615D01*
X4546345Y859536D01*
X4541011Y854202D01*
X4535931Y843787D01*
X4535931Y833373D01*
X4541011Y822960D01*
X4551425Y807465D01*
X4603495Y755650D01*
X4530597Y755650D01*
X13207365Y6166104D02*
G01*
X13207365Y6088126D01*
X13202284Y6072631D01*
X13191870Y6062218D01*
X13176122Y6057137D01*
X13165709Y6057137D01*
X13150215Y6062218D01*
X13139800Y6072631D01*
X13134720Y6088126D01*
X13134720Y6166104D01*
X13037947Y6150610D02*
G01*
X13043281Y6161023D01*
X13058775Y6166104D01*
X13069188Y6166104D01*
X13084683Y6161023D01*
X13095097Y6145276D01*
X13100431Y6119368D01*
X13100431Y6093460D01*
X13095097Y6072631D01*
X13084683Y6062218D01*
X13069188Y6057137D01*
X13063854Y6057137D01*
X13048361Y6062218D01*
X13037947Y6072631D01*
X13032866Y6088126D01*
X13032866Y6093460D01*
X13037947Y6108954D01*
X13048361Y6119368D01*
X13063854Y6124447D01*
X13069188Y6124447D01*
X13084683Y6119368D01*
X13095097Y6108954D01*
X13100431Y6093460D01*
D13*
X2607096Y3911396D02*
G01*
X2810296Y3911396D01*
X2607096Y1981398D02*
G01*
X2810296Y1981398D01*
X7248103Y1879803D02*
G01*
X7248103Y2083003D01*
X7349703Y1981403D02*
G01*
X7146503Y1981403D01*
X7248100Y3809799D02*
G01*
X7248100Y4012999D01*
X7349700Y3911399D02*
G01*
X7146500Y3911399D01*
X8851900Y2946400D02*
G01*
X1092200Y2946400D01*
X8873388Y4951907D02*
G01*
X1083386Y4951907D01*
X1083386Y940917D01*
X8873388Y940917D01*
X8873388Y4951907D01*
X8900007Y1000023D02*
G01*
X8900007Y6000013D01*
X17499990Y6000013D01*
X17499990Y1000023D01*
X8900007Y1000023D01*
X9540087Y1000023D02*
G01*
X9540011Y6000013D01*
X16459987Y1000023D02*
G01*
X16459987Y6000013D01*
X17169993Y1718843D02*
G01*
X17169993Y5269763D01*
X17419929Y5269763D01*
X17419929Y1718843D01*
X17169993Y1718843D01*
G75*
G01
X7390079Y3911397D02*
G03X7390079Y3911397I-141986J0D01*
G75*
G01
X7390079Y1981403D02*
G03X7390079Y1981403I-141986J0D01*
G75*
G01
X2850693Y1981403D02*
G03X2850693Y1981403I-141986J0D01*
G75*
G01
X2850693Y3911397D02*
G03X2850693Y3911397I-141986J0D01*
M02*
